<svg xmlns="http://www.w3.org/2000/svg" width="610" height="345" viewBox="0 0 610 345">
  <g id="Grupo_1071973" data-name="Grupo 1071973" transform="translate(-810 -6349)">
    <g id="Grupo_1071972" data-name="Grupo 1071972">
      <rect id="Rectángulo_376094" data-name="Rectángulo 376094" width="610" height="345" rx="12" transform="translate(810 6349)" fill="#fff6df"/>
    </g>
    <g id="Grupo_1071971" data-name="Grupo 1071971">
      <g id="Trazado_819815" data-name="Trazado 819815" transform="translate(1105 6417.558)" fill="#fff">
        <path d="M 209.5 183.4023590087891 L 0.5 183.4023590087891 L 0.5 0.5000140070915222 L 209.5 0.5000140070915222 L 209.5 183.4023590087891 Z" stroke="none"/>
        <path d="M 1 0.9999847412109375 L 1 182.9023284912109 L 209 182.9023284912109 L 209 0.9999847412109375 L 1 0.9999847412109375 M 0 -1.52587890625e-05 L 210 -1.52587890625e-05 L 210 183.9023284912109 L 0 183.9023284912109 L 0 -1.52587890625e-05 Z" stroke="none" fill="#949af8"/>
      </g>
      <path id="Trazado_818408" data-name="Trazado 818408" d="M-7101.593-5177c-.312.99-.342,38.657-.281,79.71.074,49.623.281,104.191.281,104.191" transform="translate(8311.537 11594.558)" fill="none" stroke="#949af8" stroke-width="1"/>
      <path id="Trazado_818409" data-name="Trazado 818409" d="M-7173-5150.3h210" transform="translate(8278 11594.558)" fill="none" stroke="#949af8" stroke-width="1"/>
      <path id="Trazado_819816" data-name="Trazado 819816" d="M-34.48,0V-11.375h3.5A5.315,5.315,0,0,1-28.3-10.7a4.712,4.712,0,0,1,1.848,1.922,5.928,5.928,0,0,1,.664,2.832v.523a5.945,5.945,0,0,1-.652,2.82,4.672,4.672,0,0,1-1.84,1.914A5.355,5.355,0,0,1-30.957,0Zm2.344-9.477v7.594H-31a2.545,2.545,0,0,0,2.1-.9,4.06,4.06,0,0,0,.742-2.57v-.6a4.124,4.124,0,0,0-.719-2.629,2.537,2.537,0,0,0-2.1-.895ZM-19.168-.859A2.831,2.831,0,0,1-21.48.156a2.67,2.67,0,0,1-2.074-.781,3.335,3.335,0,0,1-.73-2.289V-8.453h2.258v5.467q0,1.322,1.2,1.322a1.63,1.63,0,0,0,1.578-.8V-8.453h2.266V0h-2.125Zm6.008-7.594.07.945a2.971,2.971,0,0,1,2.43-1.1A2.255,2.255,0,0,1-8.418-7.32,2.9,2.9,0,0,1-5.879-8.609a2.521,2.521,0,0,1,2.047.8A3.681,3.681,0,0,1-3.16-5.4V0H-5.426V-5.4a1.616,1.616,0,0,0-.281-1.053A1.245,1.245,0,0,0-6.7-6.789a1.409,1.409,0,0,0-1.406.971L-8.1,0h-2.258V-5.4a1.6,1.6,0,0,0-.289-1.065,1.257,1.257,0,0,0-.984-.329,1.463,1.463,0,0,0-1.391.8V0h-2.258V-8.453Zm13.852,0,.07.945a2.971,2.971,0,0,1,2.43-1.1A2.255,2.255,0,0,1,5.434-7.32,2.9,2.9,0,0,1,7.973-8.609a2.521,2.521,0,0,1,2.047.8,3.681,3.681,0,0,1,.672,2.41V0H8.426V-5.4a1.616,1.616,0,0,0-.281-1.053,1.245,1.245,0,0,0-.992-.333,1.409,1.409,0,0,0-1.406.971L5.754,0H3.5V-5.4A1.6,1.6,0,0,0,3.207-6.46a1.257,1.257,0,0,0-.984-.329,1.463,1.463,0,0,0-1.391.8V0H-1.426V-8.453ZM15.582-3.2l1.563-5.258h2.422l-3.4,9.766-.187.445a2.577,2.577,0,0,1-2.5,1.656,3.552,3.552,0,0,1-1-.148V1.555l.344.008a1.857,1.857,0,0,0,.957-.2,1.283,1.283,0,0,0,.5-.648l.266-.7L11.582-8.453h2.43ZM26.715,1.766H19.6V0h7.117ZM34.59-4.648h-4.5V0H27.746V-11.375h7.406v1.9H30.09v2.938h4.5Z" transform="translate(1157 6437.558)" fill="#12263f"/>
      <path id="Trazado_819817" data-name="Trazado 819817" d="M-37.105,0V-11.375h3.5a5.315,5.315,0,0,1,2.684.676,4.712,4.712,0,0,1,1.848,1.922,5.928,5.928,0,0,1,.664,2.832v.523a5.945,5.945,0,0,1-.652,2.82A4.672,4.672,0,0,1-30.9-.687,5.355,5.355,0,0,1-33.582,0Zm2.344-9.477v7.594h1.133a2.545,2.545,0,0,0,2.1-.9,4.06,4.06,0,0,0,.742-2.57v-.6A4.124,4.124,0,0,0-31.5-8.582a2.537,2.537,0,0,0-2.1-.895ZM-21.793-.859A2.831,2.831,0,0,1-24.105.156,2.67,2.67,0,0,1-26.18-.625a3.335,3.335,0,0,1-.73-2.289V-8.453h2.258v5.467q0,1.322,1.2,1.322a1.63,1.63,0,0,0,1.578-.8V-8.453h2.266V0H-21.73Zm6.008-7.594.07.945a2.971,2.971,0,0,1,2.43-1.1A2.255,2.255,0,0,1-11.043-7.32,2.9,2.9,0,0,1-8.5-8.609a2.521,2.521,0,0,1,2.047.8A3.681,3.681,0,0,1-5.785-5.4V0H-8.051V-5.4a1.616,1.616,0,0,0-.281-1.053,1.245,1.245,0,0,0-.992-.333,1.409,1.409,0,0,0-1.406.971L-10.723,0H-12.98V-5.4A1.6,1.6,0,0,0-13.27-6.46a1.257,1.257,0,0,0-.984-.329,1.463,1.463,0,0,0-1.391.8V0H-17.9V-8.453Zm13.852,0,.07.945a2.971,2.971,0,0,1,2.43-1.1A2.255,2.255,0,0,1,2.809-7.32,2.9,2.9,0,0,1,5.348-8.609a2.521,2.521,0,0,1,2.047.8A3.681,3.681,0,0,1,8.066-5.4V0H5.8V-5.4A1.616,1.616,0,0,0,5.52-6.456a1.245,1.245,0,0,0-.992-.333,1.409,1.409,0,0,0-1.406.971L3.129,0H.871V-5.4A1.6,1.6,0,0,0,.582-6.46,1.257,1.257,0,0,0-.4-6.789a1.463,1.463,0,0,0-1.391.8V0H-4.051V-8.453ZM12.957-3.2,14.52-8.453h2.422l-3.4,9.766-.187.445a2.577,2.577,0,0,1-2.5,1.656,3.552,3.552,0,0,1-1-.148V1.555l.344.008a1.857,1.857,0,0,0,.957-.2,1.283,1.283,0,0,0,.5-.648l.266-.7L8.957-8.453h2.43ZM24.09,1.766H16.973V0H24.09Zm4.094-13.141,2.922,8.25,2.906-8.25H37.09V0H34.738V-3.109l.234-5.367L31.9,0H30.293L27.23-8.469l.234,5.359V0H25.121V-11.375Z" transform="translate(1264 6437.558)" fill="#12263f"/>
      <path id="Trazado_819818" data-name="Trazado 819818" d="M5.7,0H4.242V-9.633L1.328-8.562V-9.875L5.469-11.43H5.7Zm0,22H4.242V12.367l-2.914,1.07V12.125L5.469,10.57H5.7ZM8.078,39.148a6.61,6.61,0,0,1-.867,3.773A3.084,3.084,0,0,1,4.5,44.156a3.107,3.107,0,0,1-2.7-1.207A6.274,6.274,0,0,1,.9,39.344v-1.93a6.463,6.463,0,0,1,.867-3.727,3.108,3.108,0,0,1,2.719-1.219,3.136,3.136,0,0,1,2.7,1.176,6.237,6.237,0,0,1,.891,3.629ZM6.633,37.172A5.3,5.3,0,0,0,6.117,34.5a1.775,1.775,0,0,0-1.633-.84,1.751,1.751,0,0,0-1.617.836,5.171,5.171,0,0,0-.523,2.57v2.313A5.381,5.381,0,0,0,2.879,42.1a1.771,1.771,0,0,0,1.621.879,1.747,1.747,0,0,0,1.59-.828,5.186,5.186,0,0,0,.543-2.609ZM5.7,66H4.242V56.367l-2.914,1.07V56.125L5.469,54.57H5.7ZM8.078,83.148a6.61,6.61,0,0,1-.867,3.773A3.084,3.084,0,0,1,4.5,88.156a3.107,3.107,0,0,1-2.7-1.207A6.274,6.274,0,0,1,.9,83.344v-1.93a6.463,6.463,0,0,1,.867-3.727,3.108,3.108,0,0,1,2.719-1.219,3.136,3.136,0,0,1,2.7,1.176,6.237,6.237,0,0,1,.891,3.629ZM6.633,81.172A5.3,5.3,0,0,0,6.117,78.5a1.775,1.775,0,0,0-1.633-.84,1.751,1.751,0,0,0-1.617.836,5.171,5.171,0,0,0-.523,2.57v2.313A5.381,5.381,0,0,0,2.879,86.1a1.771,1.771,0,0,0,1.621.879,1.747,1.747,0,0,0,1.59-.828,5.186,5.186,0,0,0,.543-2.609Zm1.445,23.977a6.61,6.61,0,0,1-.867,3.773A3.084,3.084,0,0,1,4.5,110.156a3.107,3.107,0,0,1-2.7-1.207A6.274,6.274,0,0,1,.9,105.344v-1.93a6.463,6.463,0,0,1,.867-3.727,3.108,3.108,0,0,1,2.719-1.219,3.136,3.136,0,0,1,2.7,1.176,6.237,6.237,0,0,1,.891,3.629Zm-1.445-1.977a5.3,5.3,0,0,0-.516-2.676,1.775,1.775,0,0,0-1.633-.84,1.751,1.751,0,0,0-1.617.836,5.171,5.171,0,0,0-.523,2.57v2.313a5.381,5.381,0,0,0,.535,2.723,1.771,1.771,0,0,0,1.621.879,1.747,1.747,0,0,0,1.59-.828,5.186,5.186,0,0,0,.543-2.609ZM5.7,132H4.242v-9.633l-2.914,1.07v-1.312l4.141-1.555H5.7Z" transform="translate(1126 6464.558)" fill="#12263f"/>
      <path id="Trazado_819819" data-name="Trazado 819819" d="M3.586-4.852a6.61,6.61,0,0,1-.867,3.773A3.084,3.084,0,0,1,.008.156a3.107,3.107,0,0,1-2.7-1.207,6.274,6.274,0,0,1-.906-3.605v-1.93a6.463,6.463,0,0,1,.867-3.727A3.108,3.108,0,0,1-.008-11.531a3.136,3.136,0,0,1,2.7,1.176,6.237,6.237,0,0,1,.891,3.629ZM2.141-6.828A5.3,5.3,0,0,0,1.625-9.5a1.775,1.775,0,0,0-1.633-.84,1.751,1.751,0,0,0-1.617.836,5.171,5.171,0,0,0-.523,2.57v2.313A5.381,5.381,0,0,0-1.613-1.9a1.771,1.771,0,0,0,1.621.879A1.747,1.747,0,0,0,1.6-1.852a5.186,5.186,0,0,0,.543-2.609ZM3.586,17.148a6.61,6.61,0,0,1-.867,3.773A3.084,3.084,0,0,1,.008,22.156a3.107,3.107,0,0,1-2.7-1.207,6.274,6.274,0,0,1-.906-3.605v-1.93a6.463,6.463,0,0,1,.867-3.727A3.108,3.108,0,0,1-.008,10.469a3.136,3.136,0,0,1,2.7,1.176,6.237,6.237,0,0,1,.891,3.629ZM2.141,15.172A5.3,5.3,0,0,0,1.625,12.5a1.775,1.775,0,0,0-1.633-.84,1.751,1.751,0,0,0-1.617.836,5.171,5.171,0,0,0-.523,2.57v2.313A5.381,5.381,0,0,0-1.613,20.1a1.771,1.771,0,0,0,1.621.879,1.747,1.747,0,0,0,1.59-.828,5.186,5.186,0,0,0,.543-2.609ZM1.2,44H-.25V34.367l-2.914,1.07V34.125L.977,32.57H1.2ZM3.586,61.148a6.61,6.61,0,0,1-.867,3.773A3.084,3.084,0,0,1,.008,66.156a3.107,3.107,0,0,1-2.7-1.207,6.274,6.274,0,0,1-.906-3.605v-1.93a6.463,6.463,0,0,1,.867-3.727A3.108,3.108,0,0,1-.008,54.469a3.136,3.136,0,0,1,2.7,1.176,6.237,6.237,0,0,1,.891,3.629ZM2.141,59.172A5.3,5.3,0,0,0,1.625,56.5a1.775,1.775,0,0,0-1.633-.84,1.751,1.751,0,0,0-1.617.836,5.171,5.171,0,0,0-.523,2.57v2.313A5.381,5.381,0,0,0-1.613,64.1a1.771,1.771,0,0,0,1.621.879,1.747,1.747,0,0,0,1.59-.828,5.186,5.186,0,0,0,.543-2.609ZM1.2,88H-.25V78.367l-2.914,1.07V78.125L.977,76.57H1.2Zm0,22H-.25v-9.633l-2.914,1.07v-1.312L.977,98.57H1.2Zm2.383,17.148a6.61,6.61,0,0,1-.867,3.773,3.084,3.084,0,0,1-2.711,1.234,3.107,3.107,0,0,1-2.7-1.207,6.274,6.274,0,0,1-.906-3.605v-1.93a6.463,6.463,0,0,1,.867-3.727,3.108,3.108,0,0,1,2.719-1.219,3.136,3.136,0,0,1,2.7,1.176,6.237,6.237,0,0,1,.891,3.629Zm-1.445-1.977a5.3,5.3,0,0,0-.516-2.676,1.775,1.775,0,0,0-1.633-.84,1.751,1.751,0,0,0-1.617.836,5.171,5.171,0,0,0-.523,2.57v2.313a5.381,5.381,0,0,0,.535,2.723,1.771,1.771,0,0,0,1.621.879,1.747,1.747,0,0,0,1.59-.828,5.186,5.186,0,0,0,.543-2.609Z" transform="translate(1266 6464.558)" fill="#12263f"/>
      <path id="Trazado_818410" data-name="Trazado 818410" d="M-7115-5142.1h209.98" transform="translate(8220 11612.558)" fill="none" stroke="#949af8" stroke-width="1"/>
      <path id="Trazado_818411" data-name="Trazado 818411" d="M-7115-5142.1h209.98" transform="translate(8220 11633.558)" fill="none" stroke="#949af8" stroke-width="1"/>
      <path id="Trazado_818412" data-name="Trazado 818412" d="M-7115-5142.1h209.98" transform="translate(8220 11655.558)" fill="none" stroke="#949af8" stroke-width="1"/>
      <path id="Trazado_818413" data-name="Trazado 818413" d="M-7115-5142.1h209.98" transform="translate(8220 11677.558)" fill="none" stroke="#949af8" stroke-width="1"/>
      <path id="Trazado_818414" data-name="Trazado 818414" d="M-7115-5142.1h209.98" transform="translate(8220 11698.558)" fill="none" stroke="#949af8" stroke-width="1"/>
      <path id="Trazado_818415" data-name="Trazado 818415" d="M-7115-5142.1h209.98" transform="translate(8220 11721.558)" fill="none" stroke="#949af8" stroke-width="1"/>
      <path id="Trazado_819820" data-name="Trazado 819820" d="M7995,11743h-55v-34h55v-10l35,26.5-35,26.5Z" transform="translate(-6940 -5212.039)" fill="#2b5cf9"/>
      <g id="Trazado_819821" data-name="Trazado 819821" transform="translate(880.001 6417.558)" fill="#fff">
        <path d="M 104.5 183.4023590087891 L 0.5 183.4023590087891 L 0.5 0.5000127553939819 L 104.5 0.5000127553939819 L 104.5 183.4023590087891 Z" stroke="none"/>
        <path d="M 1 1 L 1 182.90234375 L 104 182.90234375 L 104 1 L 1 1 M 0 0 L 105 0 L 105 183.90234375 L 0 183.90234375 L 0 0 Z" stroke="none" fill="#949af8"/>
      </g>
      <path id="Trazado_819502" data-name="Trazado 819502" d="M-7173-5150.3h105" transform="translate(8053.001 11594.558)" fill="none" stroke="#949af8" stroke-width="1"/>
      <path id="Trazado_819822" data-name="Trazado 819822" d="M-15.863-1.437A4.068,4.068,0,0,1-17.652-.262a7.492,7.492,0,0,1-2.562.418A5.076,5.076,0,0,1-22.8-.488a4.3,4.3,0,0,1-1.719-1.871,6.585,6.585,0,0,1-.621-2.883v-.773a6.994,6.994,0,0,1,.574-2.949,4.248,4.248,0,0,1,1.656-1.906,4.771,4.771,0,0,1,2.535-.66,4.751,4.751,0,0,1,3.164.965,4.123,4.123,0,0,1,1.352,2.809h-2.281a2.268,2.268,0,0,0-.691-1.43,2.208,2.208,0,0,0-1.473-.453,2.078,2.078,0,0,0-1.82.9,4.724,4.724,0,0,0-.633,2.672v.727a4.5,4.5,0,0,0,.68,2.7,2.327,2.327,0,0,0,1.992.914,2.6,2.6,0,0,0,1.883-.562V-4.25H-20.34V-5.977h4.477ZM-10.223.156A4.15,4.15,0,0,1-13.25-.984a4.054,4.054,0,0,1-1.168-3.039v-.219a5.106,5.106,0,0,1,.492-2.277,3.612,3.612,0,0,1,1.395-1.547,3.914,3.914,0,0,1,2.059-.543,3.508,3.508,0,0,1,2.73,1.094,4.444,4.444,0,0,1,1,3.1v.922h-5.383a2.1,2.1,0,0,0,.66,1.328,2,2,0,0,0,1.395.5,2.437,2.437,0,0,0,2.039-.945l1.109,1.242A3.389,3.389,0,0,1-8.3-.246,4.511,4.511,0,0,1-10.223.156Zm-.258-6.945a1.411,1.411,0,0,0-1.09.455,2.357,2.357,0,0,0-.535,1.3h3.141v-.181a1.681,1.681,0,0,0-.406-1.165A1.456,1.456,0,0,0-10.48-6.789Zm7.094-1.664.07.977A2.951,2.951,0,0,1-.887-8.609a2.453,2.453,0,0,1,2,.789,3.682,3.682,0,0,1,.672,2.359V0H-.473V-5.419A1.47,1.47,0,0,0-.785-6.464a1.4,1.4,0,0,0-1.039-.325,1.553,1.553,0,0,0-1.43.814V0H-5.512V-8.453ZM7.387.156A4.15,4.15,0,0,1,4.359-.984,4.054,4.054,0,0,1,3.191-4.023v-.219A5.106,5.106,0,0,1,3.684-6.52,3.612,3.612,0,0,1,5.078-8.066a3.914,3.914,0,0,1,2.059-.543,3.508,3.508,0,0,1,2.73,1.094,4.444,4.444,0,0,1,1,3.1v.922H5.48a2.1,2.1,0,0,0,.66,1.328,2,2,0,0,0,1.395.5,2.437,2.437,0,0,0,2.039-.945l1.109,1.242A3.389,3.389,0,0,1,9.309-.246,4.511,4.511,0,0,1,7.387.156ZM7.129-6.789a1.411,1.411,0,0,0-1.09.455,2.357,2.357,0,0,0-.535,1.3H8.645v-.181a1.681,1.681,0,0,0-.406-1.165A1.456,1.456,0,0,0,7.129-6.789Zm9.766.453a6.134,6.134,0,0,0-.812-.062,1.654,1.654,0,0,0-1.68.867V0H12.145V-8.453h2.133l.063,1.008a2.092,2.092,0,0,1,1.883-1.164,2.366,2.366,0,0,1,.7.1ZM17.348-4.3a5.013,5.013,0,0,1,.484-2.242A3.546,3.546,0,0,1,19.227-8.07a4.069,4.069,0,0,1,2.113-.539,3.849,3.849,0,0,1,2.793,1.047A4.2,4.2,0,0,1,25.34-4.719l.016.578A4.418,4.418,0,0,1,24.27-1.02,3.775,3.775,0,0,1,21.355.156a3.793,3.793,0,0,1-2.918-1.172A4.5,4.5,0,0,1,17.348-4.2Zm2.258.16A3.16,3.16,0,0,0,20.059-2.3a1.5,1.5,0,0,0,1.3.638,1.5,1.5,0,0,0,1.281-.63A3.457,3.457,0,0,0,23.1-4.309a3.128,3.128,0,0,0-.461-1.831,1.5,1.5,0,0,0-1.3-.649,1.474,1.474,0,0,0-1.281.646A3.516,3.516,0,0,0,19.605-4.144Z" transform="translate(920.582 6437.558)" fill="#12263f"/>
      <path id="Trazado_819823" data-name="Trazado 819823" d="M7.594-5.023H2.82V0H1.32V-11.375H8.367v1.227H2.82v3.9H7.594Zm0,22H2.82V22H1.32V10.625H8.367v1.227H2.82v3.9H7.594ZM3.258,32.625l3.719,9.281L10.7,32.625h1.945V44h-1.5V39.57l.141-4.781L7.547,44H6.4L2.672,34.813,2.82,39.57V44H1.32V32.625ZM7.594,60.977H2.82V66H1.32V54.625H8.367v1.227H2.82v3.9H7.594ZM3.258,76.625l3.719,9.281L10.7,76.625h1.945V88h-1.5V83.57l.141-4.781L7.547,88H6.4L2.672,78.813,2.82,83.57V88H1.32V76.625Zm0,22,3.719,9.281L10.7,98.625h1.945V110h-1.5v-4.43l.141-4.781L7.547,110H6.4l-3.727-9.187.148,4.758V110H1.32V98.625Zm4.336,28.352H2.82V132H1.32V120.625H8.367v1.227H2.82v3.9H7.594Z" transform="translate(901.001 6464.558)" fill="#12263f"/>
      <path id="Trazado_819503" data-name="Trazado 819503" d="M-7115-5142.1h105" transform="translate(7995.001 11612.558)" fill="none" stroke="#949af8" stroke-width="1"/>
      <path id="Trazado_819504" data-name="Trazado 819504" d="M-7115-5142.1h105" transform="translate(7995.001 11633.558)" fill="none" stroke="#949af8" stroke-width="1"/>
      <path id="Trazado_819505" data-name="Trazado 819505" d="M-7115-5142.1h105" transform="translate(7995.001 11655.558)" fill="none" stroke="#949af8" stroke-width="1"/>
      <path id="Trazado_819506" data-name="Trazado 819506" d="M-7115-5142.1h105" transform="translate(7995.001 11677.558)" fill="none" stroke="#949af8" stroke-width="1"/>
      <path id="Trazado_819507" data-name="Trazado 819507" d="M-7115-5142.1h105" transform="translate(7995.001 11698.558)" fill="none" stroke="#949af8" stroke-width="1"/>
      <path id="Trazado_819508" data-name="Trazado 819508" d="M-7115-5142.1h105" transform="translate(7995.001 11721.558)" fill="none" stroke="#949af8" stroke-width="1"/>
    </g>
  </g>
</svg>
