<svg xmlns="http://www.w3.org/2000/svg" xmlns:xlink="http://www.w3.org/1999/xlink" width="400" height="269" viewBox="0 0 400 269">
  <defs>
    <clipPath id="clip-path">
      <rect id="Rectángulo_376146" data-name="Rectángulo 376146" width="260.672" height="267" fill="none"/>
    </clipPath>
  </defs>
  <g id="Grupo_1071928" data-name="Grupo 1071928" transform="translate(-1020 -12811.637)">
    <g id="Grupo_1071924" data-name="Grupo 1071924" transform="translate(210 2921.332)">
      <rect id="Rectángulo_376138" data-name="Rectángulo 376138" width="400" height="267" transform="translate(810 9892.305)" fill="#949af8"/>
    </g>
    <g id="Grupo_1071927" data-name="Grupo 1071927" transform="translate(1054.328 12811.637)">
      <rect id="Rectángulo_376144" data-name="Rectángulo 376144" width="246.807" height="2.46" transform="translate(13.865 264.54)"/>
      <g id="Grupo_1071926" data-name="Grupo 1071926">
        <g id="Grupo_1071925" data-name="Grupo 1071925" clip-path="url(#clip-path)">
          <path id="Trazado_819598" data-name="Trazado 819598" d="M64.679,48.1S65.852,66.664,61.5,74.693s-13.55,5.519-13.55,17.393c0,13.381,20.908,15.724,29.439-1.337s1.17-38.8-12.712-42.65" transform="translate(54.633 54.8)"/>
          <path id="Trazado_819599" data-name="Trazado 819599" d="M65.077,47.882a.5.5,0,0,0-.633.516c.013.184,1.115,18.514-3.119,26.322-1.69,3.117-4.144,4.593-6.523,6.018-3.645,2.182-7.081,4.247-7.081,11.614,0,6.623,5.066,11.251,12.329,11.251,5.736,0,13.495-3.247,18.052-12.363A36.282,36.282,0,0,0,78.835,61C75.791,54.159,70.907,49.5,65.077,47.882M77.209,90.793C72.854,99.5,65.488,102.6,60.05,102.6c-6.675,0-11.33-4.212-11.33-10.249,0-6.8,3.057-8.636,6.6-10.759,2.494-1.493,5.066-3.04,6.889-6.4,3.932-7.259,3.446-22.6,3.277-26.149,5.173,1.69,9.678,6.157,12.438,12.365a35.244,35.244,0,0,1-.712,29.379" transform="translate(54.37 54.534)"/>
          <path id="Trazado_819600" data-name="Trazado 819600" d="M94.594,68.609,90.266,97.935l24.669,82.993c9.683-8.012,10.564-47.149,2.077-75.037C106.754,72.169,94.594,68.609,94.594,68.609" transform="translate(102.842 78.168)" fill="#949af8"/>
          <path id="Trazado_819601" data-name="Trazado 819601" d="M92.5,68.385l-.282.956c.124.039,12.055,3.994,22.086,36.948,8.45,27.762,7.443,66.758-1.921,74.508l.64.77c9.8-8.108,10.945-46.952,2.238-75.569C105.039,72.4,93.011,68.533,92.5,68.385" transform="translate(105.071 77.913)" fill="#101c2f"/>
          <path id="Trazado_819602" data-name="Trazado 819602" d="M55.51,70.611c-3.194,1.521,12.752,96.8,12.752,96.8H99.837l17.258-98.764s-8.467-3.374-26.2-3.374S58.706,69.088,55.51,70.611" transform="translate(62.762 74.362)"/>
          <path id="Trazado_819603" data-name="Trazado 819603" d="M117.539,68.444c-.349-.139-8.756-3.408-26.386-3.408-18.3,0-32.7,4.007-35.6,5.389-.757.359-2.33,1.11,4.9,49.493,3.547,23.74,7.535,47.6,7.575,47.837a.5.5,0,0,0,.494.417h31.574a.5.5,0,0,0,.492-.415l17.258-98.764a.5.5,0,0,0-.3-.55m-17.866,98.73H68.94C62.716,129.93,54.189,73.953,55.982,71.328c2.85-1.356,17.035-5.293,35.17-5.293,15.363,0,23.8,2.574,25.636,3.2Z" transform="translate(62.507 74.097)" fill="#101c2f"/>
          <path id="Trazado_819604" data-name="Trazado 819604" d="M96.261,65.209s-2.676,44.943-8.808,61.589-22.189,55.4-22.189,63.281h56.669s.858-8.089-2.064-27.071,3.211-64.244,3.211-90.528c0,0-17.718-7.272-26.819-7.272" transform="translate(74.357 74.294)" fill="#949af8"/>
          <path id="Trazado_819605" data-name="Trazado 819605" d="M96.527,64.976h-.471l-.024.471c-.032.449-2.745,45.058-8.782,61.443-1.515,4.118-3.684,9.7-5.982,15.617-7.235,18.629-16.24,41.811-16.24,47.837v.5h57.621l.047-.447c.034-.334.828-8.369-2.069-27.2-1.748-11.343-.225-32.37,1.247-52.707.969-13.386,1.97-27.225,1.97-37.744v-.336l-.31-.126c-.727-.3-17.913-7.31-27.009-7.31m24.352,45.444c-1.474,20.392-3,41.479-1.241,52.931,2.5,16.246,2.218,24.555,2.1,26.493H66.046c.473-6.6,9.507-29.865,16.154-46.973,2.3-5.919,4.467-11.51,5.99-15.636,5.746-15.6,8.5-56.373,8.808-61.251,8.354.218,23.494,6.157,25.849,7.1-.021,10.44-1.01,24.11-1.968,37.333" transform="translate(74.09 74.029)" fill="#101c2f"/>
          <path id="Trazado_819606" data-name="Trazado 819606" d="M98.477,51.756C92.185,44.072,65.747,77.392,72.392,81.97s19.639-3.1,16.537,2.067S90.7,91.419,90.7,91.419s-8.859,14.03,4.871,13.437,16.98-17.865,9.747-27.465-6.844-25.636-6.844-25.636" transform="translate(81.267 57.662)"/>
          <path id="Trazado_819607" data-name="Trazado 819607" d="M99.246,52.032a.512.512,0,0,0-.118-.327,3.57,3.57,0,0,0-2.9-1.326c-7.539,0-21.817,17.47-24.6,26.427-.907,2.909-.655,4.873.749,5.84a10.555,10.555,0,0,0,6.151,1.615,36.628,36.628,0,0,0,6.824-.854,20.733,20.733,0,0,1,3.224-.477c.481,0,.588.1.588.1s.081.229-.391,1.014a5.927,5.927,0,0,0-.894,4.876,5.513,5.513,0,0,0,2.4,2.95c-.956,1.649-3.93,7.321-1.962,10.893,1.053,1.91,3.312,2.877,6.707,2.877.27,0,.55-.006.843-.017A13.633,13.633,0,0,0,108.084,97.5a20.325,20.325,0,0,0-2.1-20.142c-7.047-9.345-6.745-25.165-6.741-25.323m7.937,45.037a12.664,12.664,0,0,1-11.364,7.552c-.272.013-.539.021-.8.021-3,0-4.963-.8-5.828-2.362-1.994-3.611,2.156-10.262,2.195-10.331a.491.491,0,0,0,.058-.409.506.506,0,0,0-.267-.31,4.792,4.792,0,0,1-2.355-2.616,4.992,4.992,0,0,1,.8-4.058c.372-.618.753-1.408.406-2.02s-1.183-.608-1.459-.608a21.3,21.3,0,0,0-3.412.5,35.837,35.837,0,0,1-6.636.839,9.58,9.58,0,0,1-5.579-1.442c-1.249-.858-.89-3.042-.37-4.719,2.9-9.315,17.05-25.727,23.652-25.727a2.6,2.6,0,0,1,2.015.828c-.021,1.951.036,16.586,6.944,25.755a19.3,19.3,0,0,1,2,19.111" transform="translate(80.998 57.397)"/>
          <path id="Trazado_819608" data-name="Trazado 819608" d="M55.691,90.905c-4.679,15.134-16.152,48.924-23.3,50.026s-.552,8.254-.552,8.254c-7.706,1.928-7.265,10.307.222,19.376,13.914,16.854,33.953,18.338,37.53,10.085s8.119-40.134,8.119-40.134L75.238,68.1C66.754,69.174,60.37,75.77,55.691,90.905" transform="translate(29.903 77.586)" fill="#949af8"/>
          <path id="Trazado_819609" data-name="Trazado 819609" d="M69.4,178.711c-1.018,2.345-3.521,3.911-7.051,4.411-7.582,1.068-20.084-3.042-29.636-14.616-4.54-5.5-6.542-10.921-5.363-14.515.676-2.052,2.317-3.414,4.876-4.056l.817-.2-.571-.62c-.918-1-3.164-3.977-2.533-5.785.293-.847,1.234-1.4,2.792-1.639,7.93-1.219,20.148-38.863,23.708-50.37,4.4-14.224,10.476-21.361,19.132-22.461l-.126-.991c-9.092,1.155-15.437,8.512-19.962,23.156-6.9,22.354-17.05,48.779-22.9,49.677-1.953.3-3.158,1.074-3.588,2.3-.744,2.133,1.239,4.961,2.229,6.187a7.055,7.055,0,0,0-4.822,4.495c-1.307,3.979.712,9.616,5.543,15.463,8.816,10.682,19.821,15.151,27.85,15.151a19.1,19.1,0,0,0,2.693-.182c3.889-.55,6.675-2.325,7.832-5,3.562-8.224,7.965-38.957,8.151-40.262l-.988-.139c-.045.317-4.567,31.9-8.08,40" transform="translate(29.634 77.321)" fill="#101c2f"/>
          <path id="Trazado_819610" data-name="Trazado 819610" d="M93.13,59.575,67.543,58.467s3.891,11-8.3,14.385L79.1,105.235l24.018-32.342s-9.986.475-9.986-13.317" transform="translate(67.501 66.613)" fill="#fff"/>
          <path id="Trazado_819611" data-name="Trazado 819611" d="M103.264,72.663c-.958,0-9.368-.362-9.368-12.821a.5.5,0,0,0-.479-.5L67.83,58.233a.458.458,0,0,0-.421.2.492.492,0,0,0-.073.464c.015.043,1.536,4.486-.511,8.414C65.5,69.843,63,71.632,59.38,72.64a.5.5,0,0,0-.332.3.509.509,0,0,0,.039.445l19.851,32.383a.508.508,0,0,0,.409.237h.013a.5.5,0,0,0,.406-.2l24.02-32.342a.513.513,0,0,0-.015-.524.608.608,0,0,0-.507-.272M79.4,104.61,60.28,73.416c3.568-1.115,6.067-3.012,7.434-5.648a12.341,12.341,0,0,0,.772-8.5L92.9,60.321c.088,5.338,1.673,9.182,4.711,11.424a9.95,9.95,0,0,0,4.816,1.87Z" transform="translate(67.236 66.344)"/>
          <path id="Trazado_819612" data-name="Trazado 819612" d="M82.862,129.531c0-36.982-8.388-64.34-8.388-64.34-9.841,0-25.971,7.263-25.971,7.263s-2.621,36.11-2.621,53.872,9.608,22.422,6.405,35.237S48.5,190.1,48.5,190.1h95.512c0-3.5-4.371-9.321-4.371-9.321-16.6-16.015-56.782-14.269-56.782-51.25" transform="translate(52.274 74.274)" fill="#949af8"/>
          <path id="Trazado_819613" data-name="Trazado 819613" d="M118.1,168.436c-16.948-7.017-34.471-14.274-34.471-38.638,0-36.636-8.324-64.214-8.41-64.488l-.111-.353H74.74c-9.832,0-25.516,7.011-26.179,7.308l-.27.122-.024.3c-.026.364-2.619,36.33-2.619,53.909,0,8.632,2.231,14.179,4.2,19.074,2.06,5.117,3.842,9.541,2.214,16.041-3.179,12.714-3.793,28.481-3.8,28.641l-.017.518h96.537v-.5c0-3.62-4.289-9.375-4.523-9.678-5.584-5.385-13.636-8.72-22.163-12.252m-68.813,21.43c.137-2.82.922-16.595,3.752-27.916,1.7-6.814-.135-11.375-2.261-16.657-1.932-4.809-4.131-10.262-4.131-18.7,0-16.689,2.349-50.02,2.6-53.537,2.122-.931,16.169-6.929,25.122-7.1a246.229,246.229,0,0,1,8.26,63.837c0,25.032,17.84,32.419,35.085,39.563,8.44,3.493,16.409,6.794,21.8,11.987.036.056,3.861,5.186,4.236,8.519Z" transform="translate(52.009 74.007)" fill="#101c2f"/>
          <path id="Trazado_819614" data-name="Trazado 819614" d="M56.527,111.539s-3.894-1.3-8.219-2.452-8.628.89-14.543.744-5.5,5.023-3.2,7.909c0,0-6.347,6.634,1.3,9.374,0,0-2.914,5.006,4.035,7.043,0,0-7.86.807-11.46.807-3.821,0-4.822,5.528.836,5.528,7.646,0,28.8,1.48,32.118-5.877,1-2.216,1.585-4.9,3.459-9.086a15.375,15.375,0,0,0,1.014-11.105c-1.014-3.029-5.34-2.886-5.34-2.886" transform="translate(24.271 123.881)" fill="#fff"/>
          <path id="Trazado_819615" data-name="Trazado 819615" d="M56.876,111.291c-.563-.186-4.21-1.378-8.174-2.435-2.272-.608-4.993-.31-7.849.128a39.392,39.392,0,0,1-6.217.605h0c-.195,0-.389,0-.588-.006l-.25,0c-2.905,0-4.118,1.26-4.632,2.317-.926,1.93-.152,4.416,1.023,6.069-.777.913-2.822,3.622-2.216,6.2.355,1.5,1.525,2.663,3.481,3.474a5.058,5.058,0,0,0-.116,3.74,5.4,5.4,0,0,0,2.706,2.732c-2.58.24-6.938.6-9.336.6a3.439,3.439,0,0,0-3.637,3.3,2.864,2.864,0,0,0,1.125,2.27,5.352,5.352,0,0,0,3.348.958c.952,0,2.12.024,3.434.049,1.707.034,3.665.073,5.746.073h0c8.825,0,20.848-.652,23.393-6.294.432-.961.785-2,1.194-3.2.561-1.639,1.2-3.5,2.266-5.89a15.915,15.915,0,0,0,1.029-11.467c-.991-2.969-4.685-3.213-5.729-3.226m3.789,14.286c-1.089,2.428-1.759,4.4-2.3,5.975-.4,1.177-.747,2.191-1.162,3.111-2.565,5.684-17.455,5.7-22.435,5.7h-.03c-2.09,0-4.045-.038-5.746-.073-1.322-.026-2.492-.051-3.453-.051a4.373,4.373,0,0,1-2.726-.74,1.848,1.848,0,0,1-.749-1.487,2.454,2.454,0,0,1,2.638-2.3c3.59,0,11.193-.774,11.514-.809a.494.494,0,0,0,.445-.451.5.5,0,0,0-.355-.524c-2.159-.633-3.519-1.613-4.043-2.912a4.342,4.342,0,0,1,.3-3.4.5.5,0,0,0-.263-.721c-1.925-.689-3.057-1.686-3.354-2.959-.605-2.569,2.221-5.571,2.248-5.6a.494.494,0,0,0,.028-.657c-1.157-1.446-1.923-3.748-1.153-5.35.548-1.147,1.838-1.75,3.727-1.75l.227,0c.21.006.409.009.612.009h0A40.763,40.763,0,0,0,41,109.973c2.76-.424,5.331-.715,7.441-.152,4.264,1.136,8.155,2.428,8.194,2.443a1.232,1.232,0,0,0,.252.024c.652,0,3.96.124,4.766,2.546a14.941,14.941,0,0,1-.991,10.744" transform="translate(24.003 123.631)"/>
          <path id="Trazado_819616" data-name="Trazado 819616" d="M36.336,112.832c-1.369-2.576-3.061-3.053-3.134-3.074a.5.5,0,0,0-.61.351.508.508,0,0,0,.347.616c.015,0,1.45.445,2.623,2.783l.122.25.276.024c.056,0,5.4.582,7.107,7.614-.377.312-1.617.969-4.45-.411-4-1.947-12.472-4.835-12.56-4.865a.5.5,0,0,0-.321.946c.086.03,8.5,2.9,12.442,4.818a8,8,0,0,0,3.449.948,2.78,2.78,0,0,0,2.407-1.016l.111-.175-.045-.205c-1.572-6.993-6.527-8.367-7.764-8.6" transform="translate(28.936 125.029)"/>
          <path id="Trazado_819617" data-name="Trazado 819617" d="M86.278,145.124,14.735,99.257a1.008,1.008,0,0,0-1.395.3l-1.361,2.126a1.01,1.01,0,0,0,.3,1.4l71.543,45.867a1.007,1.007,0,0,0,1.395-.306l1.363-2.127a1.007,1.007,0,0,0-.3-1.4" transform="translate(13.463 112.902)"/>
          <path id="Trazado_819618" data-name="Trazado 819618" d="M86.817,144.962,15.274,99.093a1.557,1.557,0,0,0-2.09.458l-1.363,2.127a1.514,1.514,0,0,0,.458,2.088l71.539,45.867a1.527,1.527,0,0,0,.815.24,1.505,1.505,0,0,0,1.275-.7l1.365-2.127a1.516,1.516,0,0,0-.456-2.088m-.387,1.549-1.367,2.127a.516.516,0,0,1-.7.154L12.818,102.924a.516.516,0,0,1-.154-.708l1.363-2.124a.508.508,0,0,1,.706-.156L86.273,145.8a.517.517,0,0,1,.156.708" transform="translate(13.196 112.643)"/>
          <rect id="Rectángulo_376145" data-name="Rectángulo 376145" width="4.548" height="10.625" transform="translate(38.758 224.328) rotate(-57.331)" fill="#006db7"/>
          <path id="Trazado_819619" data-name="Trazado 819619" d="M30.054,108.65l-8.947-5.736a.5.5,0,0,0-.689.152L17.96,106.9a.489.489,0,0,0-.064.374.51.51,0,0,0,.216.317l8.947,5.736a.513.513,0,0,0,.27.077.624.624,0,0,0,.107-.011.5.5,0,0,0,.312-.22l2.458-3.829a.5.5,0,0,0-.152-.689m-2.877,3.56-8.1-5.2,1.915-2.987,8.1,5.194Z" transform="translate(20.375 117.164)" fill="#101c2f"/>
          <path id="Trazado_819620" data-name="Trazado 819620" d="M30.74,109.454l-2.681-1.718a1.842,1.842,0,0,0-2.542.556l-.464.732a1.834,1.834,0,0,0,.554,2.542l2.681,1.718a1.837,1.837,0,0,0,2.539-.556l.466-.732a1.836,1.836,0,0,0-.554-2.542" transform="translate(28.209 122.416)" fill="#006db7"/>
          <path id="Trazado_819621" data-name="Trazado 819621" d="M31.275,109.292,28.6,107.574a2.393,2.393,0,0,0-3.237.708l-.469.729a2.344,2.344,0,0,0,.708,3.235l2.678,1.716a2.335,2.335,0,0,0,3.233-.706l.466-.73a2.336,2.336,0,0,0-.706-3.235m-.135,2.693-.464.732a1.371,1.371,0,0,1-1.855.4l-2.678-1.716a1.325,1.325,0,0,1-.586-.843,1.347,1.347,0,0,1,.182-1.012l.464-.729a1.342,1.342,0,0,1,1.857-.4l2.681,1.718a1.341,1.341,0,0,1,.4,1.851" transform="translate(27.942 122.159)" fill="#101c2f"/>
          <path id="Trazado_819622" data-name="Trazado 819622" d="M42.03,115.372a.486.486,0,0,0-.552.439.5.5,0,0,0,.436.552c2.477.282,4.968,2.886,4.893,4.127-.009.137-.032.554-1.061.554-.892,0-2.118.139-3.534.3a36.853,36.853,0,0,1-6.961.357c-3.25-.317-8.493-2.578-8.549-2.6a.5.5,0,0,0-.4.918c.222.1,5.445,2.347,8.85,2.681.5.045,1.035.068,1.583.068a51.823,51.823,0,0,0,5.588-.428c1.386-.156,2.584-.291,3.419-.291,1.782,0,2.034-1.05,2.06-1.5.107-1.851-2.865-4.843-5.776-5.173" transform="translate(29.629 131.442)"/>
          <path id="Trazado_819623" data-name="Trazado 819623" d="M44.371,118.059a.5.5,0,0,0-.653.272.5.5,0,0,0,.27.655c.312.124.926.488,1.016.8.017.043.026.1-.045.2a13.786,13.786,0,0,1-7.083,3.919c-3.633.832-9.792-.952-9.856-.969a.5.5,0,1,0-.28.961,32.619,32.619,0,0,0,7.851,1.23,11.482,11.482,0,0,0,2.505-.244c4-.918,6.989-3.282,7.7-4.343a1.216,1.216,0,0,0,.167-1.048c-.257-.843-1.369-1.337-1.592-1.429" transform="translate(31.194 134.463)"/>
          <path id="Trazado_819624" data-name="Trazado 819624" d="M38.857,112.9a15.346,15.346,0,0,1-3.485-.287c-4.122-1.207-6.234,5.147,2.345,7.749a5.282,5.282,0,0,0,4.392-.575,10.211,10.211,0,0,0,5.494.646l-3.556-10.091s-4.621,1.35-5.19,2.559" transform="translate(36.209 125.719)" fill="#fff"/>
          <path id="Trazado_819625" data-name="Trazado 819625" d="M47.807,120.209a9.844,9.844,0,0,1-5.209-.6.508.508,0,0,0-.516.038,4.717,4.717,0,0,1-3.951.507c-4.5-1.363-6-3.812-5.492-5.513a2.141,2.141,0,0,1,2.862-1.277,15.675,15.675,0,0,0,3.635.3.5.5,0,0,0,.439-.287c.293-.618,2.755-1.673,4.878-2.293a.5.5,0,0,0-.282-.958c-.749.22-4.309,1.309-5.318,2.541a12.574,12.574,0,0,1-3.072-.267,3.131,3.131,0,0,0-4.1,1.955c-.644,2.156,1.008,5.19,6.159,6.752a5.815,5.815,0,0,0,4.574-.492,11.291,11.291,0,0,0,5.515.582.5.5,0,0,0-.122-.993" transform="translate(35.944 125.451)"/>
          <path id="Trazado_819626" data-name="Trazado 819626" d="M35.356,111.307a.5.5,0,1,0,0,1c1.391,0,1.692.821,1.722.918a.5.5,0,0,0,.479.359.567.567,0,0,0,.135-.017.5.5,0,0,0,.349-.616,2.557,2.557,0,0,0-2.685-1.645" transform="translate(39.711 126.815)"/>
          <path id="Trazado_819627" data-name="Trazado 819627" d="M37.145,113.3a.5.5,0,0,0-.171.685,1.566,1.566,0,0,1-.4,2.062.5.5,0,0,0-.094.7.486.486,0,0,0,.4.2.511.511,0,0,0,.306-.1,2.538,2.538,0,0,0,.65-3.367.5.5,0,0,0-.685-.173" transform="translate(41.441 129.002)"/>
          <path id="Trazado_819628" data-name="Trazado 819628" d="M87.113,47.3c-10.121-1.023-5.609,12.5-5.609,12.5s2.681,2.811,6.523-4.223-.913-8.281-.913-8.281" transform="translate(91.717 53.832)" fill="#fff"/>
          <path id="Trazado_819629" data-name="Trazado 819629" d="M87.431,47.076c-2.79-.287-4.7.432-5.894,2.088-2.657,3.688-.34,10.769-.242,11.069a.483.483,0,0,0,.113.188,2.62,2.62,0,0,0,1.818.71c1.825,0,3.682-1.694,5.507-5.038,1.536-2.815,1.943-5.111,1.2-6.824a3.907,3.907,0,0,0-2.505-2.193m.424,8.54c-2.144,3.928-3.823,4.516-4.627,4.516a1.679,1.679,0,0,1-1.02-.338c-.293-.943-2.043-7.019.143-10.046a4.6,4.6,0,0,1,3.981-1.735c.312,0,.65.021.918.043a2.9,2.9,0,0,1,1.776,1.626c.588,1.395.19,3.446-1.17,5.934" transform="translate(91.449 53.564)"/>
          <path id="Trazado_819630" data-name="Trazado 819630" d="M57.919,43.558s-4.873.685-1.88,8.119,5.982,4.957,5.982,4.957,6.069-12.9-4.1-13.076" transform="translate(62.739 49.627)" fill="#fff"/>
          <path id="Trazado_819631" data-name="Trazado 819631" d="M58.116,43.326a3.966,3.966,0,0,0-2.672,1.885c-.928,1.615-.8,3.943.4,6.919,1.883,4.681,3.868,5.665,5.2,5.665a2.567,2.567,0,0,0,1.566-.511.6.6,0,0,0,.133-.171c.139-.3,3.382-7.3.928-11.244-1.027-1.645-2.867-2.5-5.554-2.542m3.774,13.24a1.648,1.648,0,0,1-.847.229c-.839,0-2.507-.655-4.272-5.04-1.059-2.627-1.219-4.711-.469-6.029a2.983,2.983,0,0,1,1.878-1.4c2.244.039,3.806.736,4.642,2.073,2.007,3.222-.524,9.246-.933,10.17" transform="translate(62.472 49.362)"/>
          <path id="Trazado_819632" data-name="Trazado 819632" d="M111.749,46.614c-.884-6.2-20.281-15.852-29.73-14.376S58.979,50.751,58.78,61.679c0,0-4.037,14.573,4.234,23.432s7.712,10.8,16.441,12.7,15.735-4.781,19.526-7.507c7.394-5.316,10.369-14.738,9.877-20.94,0,0,3.78-16.552,2.892-22.754" transform="translate(65.847 36.557)" fill="#fff"/>
          <path id="Trazado_819633" data-name="Trazado 819633" d="M112.525,46.808C111.665,40.8,94.848,31.854,84.4,31.854a14.164,14.164,0,0,0-2.182.156c-9.734,1.521-23.408,18.8-23.659,29.861-.319,1.189-3.812,15.087,4.366,23.845,1.957,2.1,3.44,3.829,4.632,5.224,3.93,4.593,5.254,6.14,12.074,7.627a15,15,0,0,0,3.209.347c6.369,0,11.614-4.037,15.084-6.707.595-.458,1.14-.877,1.628-1.228a25.621,25.621,0,0,0,10.087-21.31c.308-1.363,3.75-16.785,2.884-22.861m-3.876,22.713a.44.44,0,0,0-.011.15,24.533,24.533,0,0,1-9.668,20.495c-.5.357-1.053.785-1.652,1.247-3.363,2.589-8.444,6.5-14.477,6.5a14,14,0,0,1-3-.325c-6.489-1.414-7.661-2.779-11.531-7.3-1.192-1.4-2.681-3.141-4.655-5.254C55.675,76.487,59.5,62.22,59.541,62.078a.442.442,0,0,0,.019-.126C59.748,51.48,73.181,34.434,82.372,33a13.044,13.044,0,0,1,2.03-.148c9.627,0,26.361,8.7,27.135,14.1.862,6.039-2.85,22.407-2.888,22.572" transform="translate(65.567 36.292)"/>
          <path id="Trazado_819634" data-name="Trazado 819634" d="M85.479,30.029S63.23,12.8,57.069,52.383C51.661,87.113,74.316,47.1,82.7,42.281c0,0-2.856,16.539,14.77,22.645,0,0-5.616-8.371-6.6-16.74,0,0,2.659,10.339,20.97,21.564,0,0-3.175,10.466,3.421,6.33S126.141,52.5,123.63,46.286C116.816,29.4,96.657,23.774,85.479,30.029" transform="translate(64.081 29.962)"/>
          <path id="Trazado_819635" data-name="Trazado 819635" d="M96.112,27.316a21.9,21.9,0,0,0-10.322,2.39,19.677,19.677,0,0,0-10.635-3.641c-6.471,0-14.9,4.6-18.31,26.508-1.211,7.774-1.108,12.171.325,13.841a2.11,2.11,0,0,0,1.675.779c3.237,0,8.493-6.42,14.055-13.217,3.436-4.2,6.974-8.519,9.458-10.414-.259,3.859.049,16.849,15.213,22.1a.5.5,0,0,0,.558-.169.5.5,0,0,0,.024-.58,49.143,49.143,0,0,1-5.684-12.385c2.377,4.028,7.667,10.671,19.055,17.711-.355,1.288-1.288,5.184-.077,6.812a1.859,1.859,0,0,0,1.557.762,5.557,5.557,0,0,0,2.792-1.044c6.968-4.371,11.032-24.3,8.566-30.408a30.764,30.764,0,0,0-28.25-19.049m19.149,48.608c-1.51.948-2.535,1.181-3.014.537-.911-1.23-.062-4.963.34-6.3a.5.5,0,0,0-.218-.571c-17.88-10.962-20.721-21.16-20.747-21.265a.5.5,0,0,0-.483-.368.7.7,0,0,0-.094.006.5.5,0,0,0-.4.546c.774,6.572,4.283,13.031,5.883,15.7-15.5-6.23-13.176-20.938-13.069-21.579a.5.5,0,0,0-.205-.492.5.5,0,0,0-.535-.026c-2.636,1.517-6.5,6.236-10.588,11.231C67.195,59.369,61.607,66.2,58.845,66.2a1.139,1.139,0,0,1-.918-.43c-.819-.958-1.506-4-.1-13.041,2.619-16.787,8.6-25.657,17.326-25.657,5.526,0,10.241,3.588,10.288,3.626a.493.493,0,0,0,.546.039,20.791,20.791,0,0,1,10.123-2.415,29.747,29.747,0,0,1,27.321,18.424c2.308,5.716-1.669,25.109-8.172,29.182" transform="translate(63.813 29.695)"/>
          <path id="Trazado_819636" data-name="Trazado 819636" d="M80.421,47.14A19.242,19.242,0,0,1,74.6,45.11a.5.5,0,0,0-.68.184.5.5,0,0,0,.184.682,19.96,19.96,0,0,0,6.168,2.152,5.026,5.026,0,0,1,3.859,3.023.5.5,0,0,0,.471.327.555.555,0,0,0,.171-.03.5.5,0,0,0,.3-.642,6.036,6.036,0,0,0-4.647-3.667" transform="translate(84.14 51.318)"/>
          <path id="Trazado_819637" data-name="Trazado 819637" d="M77.008,47.567a1.568,1.568,0,1,0,1.568,1.566,1.569,1.569,0,0,0-1.568-1.566" transform="translate(85.951 54.194)"/>
          <path id="Trazado_819638" data-name="Trazado 819638" d="M77.275,47.332A2.069,2.069,0,1,0,79.343,49.4a2.073,2.073,0,0,0-2.069-2.069m0,3.138a1.069,1.069,0,1,1,1.07-1.07,1.074,1.074,0,0,1-1.07,1.07" transform="translate(85.684 53.926)"/>
          <path id="Trazado_819639" data-name="Trazado 819639" d="M69.162,41.845A13.108,13.108,0,0,0,63.45,43.89a.5.5,0,1,0,.582.813,12.183,12.183,0,0,1,5.239-1.863,6.733,6.733,0,0,1,5.338,1.682.5.5,0,0,0,.715-.7,7.745,7.745,0,0,0-6.161-1.981" transform="translate(72.053 47.619)"/>
          <path id="Trazado_819640" data-name="Trazado 819640" d="M66.608,45.4a1.568,1.568,0,1,0,.894,2.028,1.564,1.564,0,0,0-.894-2.028" transform="translate(73.456 51.608)"/>
          <path id="Trazado_819641" data-name="Trazado 819641" d="M67.055,45.2a2.111,2.111,0,0,0-2.674,1.181,2.037,2.037,0,0,0,.034,1.581A2.063,2.063,0,0,0,66.307,49.2h0a2.085,2.085,0,0,0,1.93-1.32A2.077,2.077,0,0,0,67.055,45.2m.248,2.315a1.08,1.08,0,0,1-1.38.61,1.076,1.076,0,0,1-.614-1.382,1.082,1.082,0,0,1,1-.685,1.074,1.074,0,0,1,.995,1.457" transform="translate(73.188 51.346)"/>
          <path id="Trazado_819642" data-name="Trazado 819642" d="M67.481,57.481l-.214.978a14.321,14.321,0,0,0,3.061.357c5.772,0,7.308-4.315,7.327-4.364l-.946-.319c-.017.049-1.774,4.987-9.229,3.348" transform="translate(76.639 61.675)"/>
          <path id="Trazado_819643" data-name="Trazado 819643" d="M68.683,53.17a3.063,3.063,0,0,1,.509-2.426l-.828-.558c-.053.077-1.232,1.851-.61,3.363a3.1,3.1,0,0,0,2.5,1.7l.2-.98a2.2,2.2,0,0,1-1.767-1.1" transform="translate(76.988 57.178)"/>
          <path id="Trazado_819644" data-name="Trazado 819644" d="M116.7,65.424c-1.838-.749-4.17-2.338-7.156-3.29s-4.122.548-6.64.954-3.553,2.321-2.689,3.262,3.755.881,3.755.881S100.3,68.8,98.26,69.883A9.311,9.311,0,0,0,94.8,72.942a23.619,23.619,0,0,0-.685,2.379s-4.869,7.229-2.691,9.161c2.328,2.062,4.493-3.331,4.493-3.331,1.48.21,2.854-1.48,2.854-1.48,1.731,4.08-.184,5.017-7.248,10.827s-.939,6.433-1.57,11.146-1.885,15.538-1.885,15.538c8.8,14.132,20.651,10.774,20.651,10.774s-6.91-22.36-.909-31.63,13.841-8.022,12.139-16.111-1.41-14.04-3.243-14.789" transform="translate(100.336 70.438)" fill="#fff"/>
          <path id="Trazado_819645" data-name="Trazado 819645" d="M119.4,72.3c-.528-4.05-.841-6.495-2.248-7.066-.663-.27-1.418-.67-2.218-1.089a30.05,30.05,0,0,0-4.978-2.216,6.409,6.409,0,0,0-1.981-.334,7.527,7.527,0,0,0-2.779.644,10.257,10.257,0,0,1-2.111.627,4.037,4.037,0,0,0-3.29,2.306,1.727,1.727,0,0,0,.314,1.786,3.714,3.714,0,0,0,2.084.888c-1.219.546-2.79,1.271-3.9,1.865a9.7,9.7,0,0,0-3.678,3.277,20.425,20.425,0,0,0-.7,2.4c-.71,1.065-4.929,7.637-2.561,9.74a2.15,2.15,0,0,0,1.435.595c1.848,0,3.256-2.766,3.712-3.784a3.9,3.9,0,0,0,2.349-1.1c.928,2.676-.227,3.718-5.391,7.913-.614.5-1.275,1.035-1.992,1.626-4.508,3.705-4,5.513-2.7,7.847a5.445,5.445,0,0,1,.958,3.618c-.623,4.659-1.872,15.442-1.885,15.551a.527.527,0,0,0,.071.321c6.157,9.882,13.844,11.358,17.88,11.358a13.4,13.4,0,0,0,3.329-.368.5.5,0,0,0,.3-.244.477.477,0,0,0,.043-.385c-.071-.222-6.773-22.24-.969-31.211a26.333,26.333,0,0,1,7.612-7.488c3.156-2.242,5.648-4.011,4.6-9-.642-3.051-1-5.842-1.294-8.082m-3.883,16.265a27.107,27.107,0,0,0-7.868,7.759c-5.616,8.677-.332,28.023.693,31.527a13.933,13.933,0,0,1-2.559.223c-3.808,0-11.056-1.4-16.939-10.737.163-1.414,1.288-11.035,1.863-15.358a6.371,6.371,0,0,0-1.076-4.236C88.63,95.919,87.9,94.605,92.1,91.148c.712-.586,1.373-1.123,1.981-1.619,5.462-4.435,7.111-5.772,5.412-9.787a.5.5,0,0,0-.849-.12c-.314.392-1.406,1.44-2.4,1.3a.494.494,0,0,0-.535.308c-.364.9-1.682,3.487-2.927,3.487a1.164,1.164,0,0,1-.77-.342c-1.348-1.2.986-5.853,2.777-8.508a.586.586,0,0,0,.071-.163,21.052,21.052,0,0,1,.642-2.272,8.889,8.889,0,0,1,3.254-2.841c2-1.065,5.633-2.619,5.669-2.633a.474.474,0,0,0,.244-.561.556.556,0,0,0-.537-.4c-1.309,0-2.832-.225-3.288-.721a.749.749,0,0,1-.107-.783,3.066,3.066,0,0,1,2.507-1.647,11.418,11.418,0,0,0,2.3-.678,5.612,5.612,0,0,1,4.105-.293,29.5,29.5,0,0,1,4.811,2.148c.826.434,1.6.843,2.306,1.13.866.353,1.2,2.965,1.637,6.27.291,2.259.657,5.07,1.307,8.159.911,4.345-1.01,5.712-4.2,7.978" transform="translate(100.071 70.172)"/>
          <path id="Trazado_819646" data-name="Trazado 819646" d="M105.254,67.387l.1-.462L104.9,66.8a13.129,13.129,0,0,1-4.681-2.924l-.193-.175-.259.06c-.026.009-3,.7-4.236.9a.5.5,0,1,0,.163.984c1.07-.178,3.3-.682,4.052-.858a14.979,14.979,0,0,0,4.454,2.824,5.563,5.563,0,0,0,.43,3.673.485.485,0,0,0,.421.24.492.492,0,0,0,.257-.073.5.5,0,0,0,.171-.685,5.09,5.09,0,0,1-.222-3.384" transform="translate(108.362 72.576)"/>
          <path id="Trazado_819647" data-name="Trazado 819647" d="M100.989,70.188c-1.273-1.314-3.887-3.35-5.528-3.218-1.4.113-4.247,1.872-4.57,2.071a.5.5,0,0,0-.154.689.494.494,0,0,0,.687.158,15.035,15.035,0,0,1,4.116-1.921c1.046-.092,3.3,1.44,4.728,2.916a24.852,24.852,0,0,1,2.942,3.977.5.5,0,0,0,.43.248.511.511,0,0,0,.257-.071.5.5,0,0,0,.175-.685,25.736,25.736,0,0,0-3.083-4.165" transform="translate(103.291 76.294)"/>
          <path id="Trazado_819648" data-name="Trazado 819648" d="M96.738,64.021a.5.5,0,1,0-.447.892c4.46,2.212,8.587,8.01,8.624,8.067a.494.494,0,0,0,.7.12.5.5,0,0,0,.124-.7c-.175-.244-4.311-6.063-9-8.384" transform="translate(109.392 72.881)"/>
          <path id="Trazado_819649" data-name="Trazado 819649" d="M100.622,65.859c-3.568-1.256-9.31,3.684-9.552,3.891a.5.5,0,1,0,.657.755c1.534-1.326,6.05-4.58,8.566-3.705,3.17,1.115,7.408,5.78,7.449,5.825a.5.5,0,0,0,.372.165.481.481,0,0,0,.334-.128.5.5,0,0,0,.041-.706c-.182-.2-4.454-4.9-7.866-6.1" transform="translate(103.563 74.802)"/>
          <path id="Trazado_819650" data-name="Trazado 819650" d="M94.05,81.8s-5.323,4.5-2.867,8.6c0,0-15.555,13.506-5.323,25.785s-20.878,54.989,6.551,54.989,36.431,3.138,38.889-14.462-9.417-63.859-9.417-63.859S105.1,89.17,94.05,81.8" transform="translate(92.045 93.199)" fill="#949af8"/>
          <path id="Trazado_819651" data-name="Trazado 819651" d="M122.55,92.765l-.3-.064c-.167-.038-16.815-3.752-27.664-10.983l-.314-.208-.282.244c-.225.188-5.327,4.578-3.173,8.872-2.137,2.015-14.691,14.678-5.074,26.213,4.058,4.876,1.209,15.215-1.549,25.21-2.807,10.164-5.706,20.677-1.551,26.132,1.96,2.574,5.239,3.825,10.031,3.825,3.949,0,7.558.066,10.746.124,2.651.047,5.074.094,7.28.094h0c13.377,0,19.44-1.431,21.35-15.112,2.443-17.5-8.942-62.156-9.428-64.049Zm8.514,64.21c-1.716,12.284-6.356,14.248-20.366,14.248-2.2,0-4.615-.043-7.265-.092-3.185-.058-6.8-.124-10.761-.124-4.456,0-7.477-1.123-9.235-3.432-3.857-5.062-1.025-15.33,1.718-25.259C87.98,132.069,90.9,121.475,86.5,116.2c-9.8-11.758,4.647-24.551,5.269-25.09l.312-.274-.212-.357c-1.9-3.164,1.474-6.743,2.486-7.71,10.185,6.655,25.077,10.3,27.373,10.84,1.005,3.981,11.646,46.793,9.334,63.369" transform="translate(91.787 92.866)" fill="#101c2f"/>
          <path id="Trazado_819652" data-name="Trazado 819652" d="M51.123,109.317c-1.1-.787-2.041-1.47-2.743-2.062-4.078-3.455-18.927-1.125-19.56-1.025l.16.986c.145-.024,15.02-2.36,18.755.8.732.618,1.688,1.309,2.8,2.112,4.835,3.483,12.141,8.746,10.716,15.647l.976.2c1.56-7.537-6.063-13.028-11.107-16.663" transform="translate(32.836 120.049)" fill="#101c2f"/>
          <path id="Trazado_819653" data-name="Trazado 819653" d="M29.434,101.866l-.173.986a101.9,101.9,0,0,0,14.387,1.433,18.076,18.076,0,0,0,5.006-.537l-.3-.954c-4.775,1.5-18.783-.9-18.924-.928" transform="translate(33.338 116.058)" fill="#101c2f"/>
          <path id="Trazado_819654" data-name="Trazado 819654" d="M150.172,98.363H45.655a2.826,2.826,0,0,0-2.826,2.824V145.15a2.826,2.826,0,0,0,2.826,2.826H150.172A2.825,2.825,0,0,0,153,145.15V101.187a2.824,2.824,0,0,0-2.826-2.824" transform="translate(48.796 112.067)" fill="#fff"/>
          <path id="Trazado_819655" data-name="Trazado 819655" d="M150.437,98.129H45.921a3.328,3.328,0,0,0-3.325,3.325v43.963a3.33,3.33,0,0,0,3.325,3.327H150.437a3.33,3.33,0,0,0,3.327-3.327V101.453a3.328,3.328,0,0,0-3.327-3.325m2.328,47.288a2.33,2.33,0,0,1-2.328,2.328H45.921a2.33,2.33,0,0,1-2.325-2.328V101.453a2.328,2.328,0,0,1,2.325-2.325H150.437a2.328,2.328,0,0,1,2.328,2.325Z" transform="translate(48.531 111.801)"/>
          <path id="Trazado_819656" data-name="Trazado 819656" d="M150.172,100H45.655a2.828,2.828,0,0,0-2.826,2.826v43.963a2.826,2.826,0,0,0,2.826,2.826H150.172A2.825,2.825,0,0,0,153,146.785V102.822A2.826,2.826,0,0,0,150.172,100" transform="translate(48.796 113.928)"/>
          <path id="Trazado_819657" data-name="Trazado 819657" d="M150.437,99.764H45.921a3.328,3.328,0,0,0-3.325,3.325v43.961a3.33,3.33,0,0,0,3.325,3.327H150.437a3.33,3.33,0,0,0,3.327-3.327V103.089a3.328,3.328,0,0,0-3.327-3.325m2.328,47.285a2.33,2.33,0,0,1-2.328,2.328H45.921a2.33,2.33,0,0,1-2.325-2.328V103.089a2.329,2.329,0,0,1,2.325-2.325H150.437a2.33,2.33,0,0,1,2.328,2.325Z" transform="translate(48.531 113.663)"/>
          <path id="Trazado_819658" data-name="Trazado 819658" d="M99.8,101.451H87.231a3.834,3.834,0,0,0,0,7.667H99.8a3.834,3.834,0,0,0,0-7.667" transform="translate(95.016 115.585)" fill="#fff"/>
          <path id="Trazado_819659" data-name="Trazado 819659" d="M100.063,101.217H87.5a4.333,4.333,0,0,0,0,8.666h12.566a4.333,4.333,0,1,0,0-8.666m0,7.667H87.5a3.333,3.333,0,1,1,0-6.666h12.566a3.333,3.333,0,1,1,0,6.666" transform="translate(94.751 115.319)" fill="#101c2f"/>
          <path id="Trazado_819660" data-name="Trazado 819660" d="M91.974,102.308a1.939,1.939,0,1,0,1.938,1.938,1.938,1.938,0,0,0-1.938-1.938" transform="translate(102.58 116.562)"/>
          <path id="Trazado_819661" data-name="Trazado 819661" d="M92.242,102.075a2.439,2.439,0,1,0,2.441,2.437,2.442,2.442,0,0,0-2.441-2.437m0,3.879a1.441,1.441,0,1,1,1.442-1.442,1.444,1.444,0,0,1-1.442,1.442" transform="translate(102.312 116.296)"/>
          <path id="Trazado_819662" data-name="Trazado 819662" d="M89.4,102.308a1.939,1.939,0,1,0,1.94,1.938,1.941,1.941,0,0,0-1.94-1.938" transform="translate(99.65 116.562)"/>
          <path id="Trazado_819663" data-name="Trazado 819663" d="M89.671,102.075a2.439,2.439,0,1,0,2.439,2.437,2.442,2.442,0,0,0-2.439-2.437m0,3.879a1.441,1.441,0,1,1,1.44-1.442,1.442,1.442,0,0,1-1.44,1.442" transform="translate(99.383 116.296)"/>
          <path id="Trazado_819664" data-name="Trazado 819664" d="M85.983,102.769a.954.954,0,1,0,.954.952.951.951,0,0,0-.954-.952" transform="translate(96.878 117.087)" fill="#fff"/>
          <path id="Trazado_819665" data-name="Trazado 819665" d="M86.251,102.535a1.454,1.454,0,1,0,1.455,1.453,1.456,1.456,0,0,0-1.455-1.453m0,1.908a.455.455,0,1,1,.456-.456.456.456,0,0,1-.456.456" transform="translate(96.61 116.82)"/>
          <path id="Trazado_819666" data-name="Trazado 819666" d="M130.778,106.621a1.33,1.33,0,0,0-1.333,1.331v25.8a6.985,6.985,0,0,1-6.978,6.976h-62.5a6.984,6.984,0,0,1-6.974-6.976v-25.8a1.334,1.334,0,0,0-2.668,0v25.8a9.655,9.655,0,0,0,9.642,9.642h62.5a9.654,9.654,0,0,0,9.644-9.642v-25.8a1.331,1.331,0,0,0-1.333-1.331" transform="translate(57.331 121.476)" fill="#fff"/>
          <path id="Trazado_819667" data-name="Trazado 819667" d="M103.726,107.062a73.891,73.891,0,0,1,12.451-.866,68.114,68.114,0,0,1,11.794,1.087,3.091,3.091,0,0,1,2.529,3.066l-.3,29.8a3.09,3.09,0,0,1-2.589,3.016,68.176,68.176,0,0,1-11.811.851,73.971,73.971,0,0,1-12.432-1.115,3.081,3.081,0,0,1-2.512-3.066l.3-29.762a3.077,3.077,0,0,1,2.571-3.012" transform="translate(114.909 120.986)" fill="#2b5cf9"/>
          <path id="Trazado_819668" data-name="Trazado 819668" d="M100.9,110.36l-.3,29.762a3.627,3.627,0,0,0,2.963,3.613,74.544,74.544,0,0,0,12.524,1.121l.785,0A68.046,68.046,0,0,0,127.994,144a3.644,3.644,0,0,0,3.051-3.553l.3-29.8a3.64,3.64,0,0,0-2.978-3.613,68.543,68.543,0,0,0-11.888-1.1l-.847,0a73.523,73.523,0,0,0-11.7.877,3.622,3.622,0,0,0-3.034,3.549m.8,29.775.3-29.762a2.524,2.524,0,0,1,2.114-2.475,72.2,72.2,0,0,1,11.516-.866l.834,0a67.481,67.481,0,0,1,11.7,1.078,2.54,2.54,0,0,1,2.082,2.52l-.3,29.8a2.538,2.538,0,0,1-2.127,2.479,67.221,67.221,0,0,1-10.945.847l-.774,0a73.393,73.393,0,0,1-12.337-1.1,2.524,2.524,0,0,1-2.06-2.518" transform="translate(114.616 120.693)"/>
          <path id="Trazado_819669" data-name="Trazado 819669" d="M106.866,114.545c.428-.015.8.813.836,1.848s-.289,1.887-.717,1.9-.8-.817-.836-1.851.287-1.887.717-1.9" transform="translate(120.935 130.504)" fill="#fff"/>
          <path id="Trazado_819670" data-name="Trazado 819670" d="M106.11,115.211a4.242,4.242,0,0,0-.218,1.545c.034,1.149.483,2.383,1.376,2.383h.028c.257-.009.732-.141,1.029-.924a4.189,4.189,0,0,0,.22-1.542c-.038-1.151-.486-2.385-1.376-2.385-.287.011-.762.141-1.059.924m.881,1.51a2.772,2.772,0,0,1,.188-1.217,3.342,3.342,0,0,1,.077,2.42,2.836,2.836,0,0,1-.265-1.2" transform="translate(120.643 130.21)" fill="#101c2f"/>
          <path id="Trazado_819671" data-name="Trazado 819671" d="M101.777,125.722c.036,1.2,2.139,2.1,4.692,2.017s4.593-1.117,4.555-2.315a1.2,1.2,0,0,0-.28-.676,2,2,0,0,0,.6-1.568,2.053,2.053,0,0,0-.646-1.491,3.159,3.159,0,0,0-1.181-2.522,4.539,4.539,0,0,0,2.028-3.889,4.828,4.828,0,0,0-9.64.31,4.431,4.431,0,0,0,1.035,2.678,4.128,4.128,0,0,0-.785,3.04,4.659,4.659,0,0,0,.849,2.888c-.772.413-1.243.95-1.224,1.527m2.364-1.975a5.709,5.709,0,0,0,.4-2.516,6.937,6.937,0,0,0-.3-1.861,4.97,4.97,0,0,0,2.621.655,5.12,5.12,0,0,0,1.215-.205,4.383,4.383,0,0,0-.466,2.253,4.988,4.988,0,0,0,.24,1.416,9.5,9.5,0,0,0-1.525-.081,8.838,8.838,0,0,0-2.189.34" transform="translate(115.957 126.283)" fill="#fff"/>
          <path id="Trazado_819672" data-name="Trazado 819672" d="M102.679,119.264a.552.552,0,0,0,.494.785.627.627,0,0,0,.156-.021,8.331,8.331,0,0,1,2.049-.321l.263,0a8.96,8.96,0,0,1,1.174.081.544.544,0,0,0,.5-.19.566.566,0,0,0,.1-.524,4.39,4.39,0,0,1-.216-1.264,3.9,3.9,0,0,1,.4-1.966.55.55,0,0,0-.633-.8,4.408,4.408,0,0,1-1.074.186h-.148a4.4,4.4,0,0,1-2.189-.582.547.547,0,0,0-.618.049.56.56,0,0,0-.178.595,6.413,6.413,0,0,1,.274,1.711,5.345,5.345,0,0,1-.349,2.263m1.3-.516a7.54,7.54,0,0,0,.141-1.784,7.305,7.305,0,0,0-.079-.9,5.531,5.531,0,0,0,1.692.267l.18,0c.111,0,.22-.011.329-.024a5.771,5.771,0,0,0-.152,1.538,5.612,5.612,0,0,0,.079.781c-.178-.013-.351-.015-.533-.015l-.3,0a10.214,10.214,0,0,0-1.361.141" transform="translate(116.924 130.534)" fill="#101c2f"/>
          <path id="Trazado_819673" data-name="Trazado 819673" d="M101.518,126.033c.051,1.48,2.12,2.554,4.923,2.554l.338,0a8.475,8.475,0,0,0,3.483-.8c1.063-.539,1.632-1.279,1.6-2.084a1.5,1.5,0,0,0-.148-.6,2.816,2.816,0,0,0-.2-3.374,4.38,4.38,0,0,0-.845-2.246,5.045,5.045,0,0,0,1.714-3.928,5.232,5.232,0,0,0-5.35-4.972l-.184,0a5.459,5.459,0,0,0-3.737,1.617,5,5,0,0,0-1.461,3.7,4.912,4.912,0,0,0,.875,2.64,5.673,5.673,0,0,0-.631,3.081,6.4,6.4,0,0,0,.618,2.713,2.082,2.082,0,0,0-.995,1.7m1.1-.036c-.009-.321.34-.706.935-1.025a.538.538,0,0,0,.289-.409.555.555,0,0,0-.16-.469,4.264,4.264,0,0,1-.685-2.512,3.856,3.856,0,0,1,.569-2.586.554.554,0,0,0,.09-.785,3.866,3.866,0,0,1-.907-2.349,3.912,3.912,0,0,1,1.149-2.888,4.358,4.358,0,0,1,2.986-1.29l.15,0a4.136,4.136,0,0,1,4.253,3.909,3.98,3.98,0,0,1-1.788,3.414.559.559,0,0,0-.242.488.541.541,0,0,0,.3.454,2.734,2.734,0,0,1,.888,2.082.553.553,0,0,0,.193.374,1.525,1.525,0,0,1,.451,1.089,1.453,1.453,0,0,1-.409,1.136.552.552,0,0,0-.075.749.674.674,0,0,1,.169.359c.011.342-.366.744-1,1.068a7.357,7.357,0,0,1-3.019.68l-.306,0c-2.223,0-3.8-.785-3.823-1.491" transform="translate(115.661 125.99)" fill="#101c2f"/>
          <path id="Trazado_819674" data-name="Trazado 819674" d="M108.5,117.9c.856-.03,1.579.86,1.619,1.987a1.845,1.845,0,0,1-1.489,2.084c-.856.03-1.581-.86-1.617-1.985A1.846,1.846,0,0,1,108.5,117.9" transform="translate(121.924 134.32)" fill="#fff"/>
          <path id="Trazado_819675" data-name="Trazado 819675" d="M106.759,120.292a2.386,2.386,0,0,0,2.129,2.52l.06,0a1.94,1.94,0,0,0,1.5-.86,2.916,2.916,0,0,0,.509-1.793,2.148,2.148,0,1,0-4.2.135m1.1-.034c-.028-.807.411-1.5.954-1.519.554,0,1.027.665,1.05,1.455a1.865,1.865,0,0,1-.306,1.117.869.869,0,0,1-.65.4l-.019.55v-.55c-.535,0-1.005-.667-1.029-1.455" transform="translate(121.631 134.027)" fill="#101c2f"/>
          <path id="Trazado_819676" data-name="Trazado 819676" d="M109.16,114.174c.608-.019,1.112.327,1.123.772s-.462.826-1.072.845-1.108-.325-1.123-.772.464-.824,1.072-.845" transform="translate(123.147 130.081)" fill="#fff"/>
          <path id="Trazado_819677" data-name="Trazado 819677" d="M108.343,114.3a1.271,1.271,0,0,0-.511,1.033,1.51,1.51,0,0,0,1.632,1.3l.06,0a1.872,1.872,0,0,0,1.091-.379,1.266,1.266,0,0,0,.513-1.031,1.505,1.505,0,0,0-1.624-1.307,1.948,1.948,0,0,0-1.162.381m.588,1a.2.2,0,0,1,.092-.133.776.776,0,0,1,.449-.145h0c.347,0,.554.158.556.242,0,.034-.036.088-.094.135a.783.783,0,0,1-.447.141l-.032.552v-.552c-.317,0-.526-.158-.526-.24" transform="translate(122.854 129.788)" fill="#101c2f"/>
          <path id="Trazado_819678" data-name="Trazado 819678" d="M105.2,119.9a1.3,1.3,0,1,1-1.281,1.337A1.311,1.311,0,0,1,105.2,119.9" transform="translate(118.4 136.608)" fill="#fff"/>
          <path id="Trazado_819679" data-name="Trazado 819679" d="M103.664,121.552a1.856,1.856,0,0,0,1.874,1.782l.064,0a1.844,1.844,0,1,0-1.938-1.78m1.1-.039a.765.765,0,0,1,.753-.768h0a.744.744,0,1,1,.045,1.487l-.026.552v-.55a.763.763,0,0,1-.777-.721" transform="translate(118.106 136.315)" fill="#101c2f"/>
          <path id="Trazado_819680" data-name="Trazado 819680" d="M114.554,110.6c.539-.028,5.346-.182,8.151,2.516a6.313,6.313,0,0,1,1.913,4.726c-.011.824.021,1.658.058,2.49.124,3.335.257,6.788-2.054,9.165-1.566,1.615-3.966,2.381-7.327,2.351a1.873,1.873,0,0,1,.034-3.746c2.255.021,3.8-.385,4.61-1.215,1.189-1.226,1.093-3.746.993-6.412-.036-.892-.068-1.788-.058-2.672a2.524,2.524,0,0,0-.764-1.985c-1.393-1.343-4.343-1.521-5.376-1.478a1.872,1.872,0,1,1-.18-3.74" transform="translate(128.484 125.994)" fill="#93c0e9"/>
          <path id="Trazado_819681" data-name="Trazado 819681" d="M120.675,120.787c.1,2.548.188,4.95-.839,6.005-.667.689-2.067,1.05-4.043,1.05h-.167a2.422,2.422,0,1,0-.047,4.843h.212c3.414,0,5.872-.824,7.518-2.518,2.475-2.544,2.338-6.112,2.206-9.561-.032-.879-.064-1.684-.056-2.471a6.853,6.853,0,0,0-2.082-5.128c-2.516-2.417-6.456-2.678-8.031-2.678-.261,0-.443.006-.526.011a2.42,2.42,0,0,0-2.3,2.535,2.453,2.453,0,0,0,2.426,2.3l.372-.006c1.237,0,3.62.278,4.7,1.331a2,2,0,0,1,.593,1.585c-.011.89.024,1.8.06,2.7m1.1-.034c-.034-.892-.068-1.782-.058-2.653a3.093,3.093,0,0,0-.931-2.385c-1.611-1.562-4.835-1.641-5.466-1.641l-.314.006H115a1.354,1.354,0,0,1-1.38-1.258,1.327,1.327,0,0,1,1.256-1.384c.077,0,.242-.009.473-.009,1.444,0,5.04.231,7.272,2.37a5.781,5.781,0,0,1,1.741,4.326c-.009.807.024,1.628.053,2.443.124,3.3.252,6.628-1.891,8.833-1.427,1.47-3.63,2.184-6.73,2.184h-.2a1.323,1.323,0,0,1,.015-2.646l.19,0c2.315,0,3.939-.466,4.831-1.382,1.356-1.395,1.256-4.022,1.149-6.807" transform="translate(128.193 125.702)"/>
        </g>
      </g>
    </g>
  </g>
</svg>
