<svg id="Grupo_1071561" data-name="Grupo 1071561" xmlns="http://www.w3.org/2000/svg" xmlns:xlink="http://www.w3.org/1999/xlink" width="610" height="291.254" viewBox="0 0 610 291.254">
  <defs>
    <clipPath id="clip-path">
      <rect id="Rectángulo_375575" data-name="Rectángulo 375575" width="610" height="291.254" fill="none"/>
    </clipPath>
  </defs>
  <g id="Grupo_1071560" data-name="Grupo 1071560" clip-path="url(#clip-path)">
    <path id="Trazado_818066" data-name="Trazado 818066" d="M609.168,405.212H.832a.832.832,0,0,1,0-1.663H609.168a.832.832,0,0,1,0,1.663" transform="translate(0 -113.959)" fill="#050e12"/>
    <path id="Trazado_818067" data-name="Trazado 818067" d="M722.058,20.767V60.482a20.767,20.767,0,0,1-20.768,20.767H624.5A31.051,31.051,0,0,0,600.99,92.011l-6.552,7.59a4.64,4.64,0,0,1-8.152-3.031v-75.8A20.767,20.767,0,0,1,607.053,0h94.238a20.767,20.767,0,0,1,20.768,20.768" transform="translate(-165.562 0)" fill="#d1e2dc"/>
    <path id="Trazado_818068" data-name="Trazado 818068" d="M722.058,20.767V60.482a20.767,20.767,0,0,1-20.768,20.767H624.5A31.051,31.051,0,0,0,600.99,92.011l-6.552,7.59a4.64,4.64,0,0,1-8.152-3.031v-75.8A20.767,20.767,0,0,1,607.053,0h94.238a20.767,20.767,0,0,1,20.768,20.768" transform="translate(-165.562 0)" fill="#949af8"/>
    <path id="Trazado_818069" data-name="Trazado 818069" d="M652.818,24.378h8.971a2.039,2.039,0,1,1,0,4.077h-8.971a2.039,2.039,0,1,1,0-4.077" transform="translate(-183.775 -6.884)" fill="#fff"/>
    <path id="Trazado_818070" data-name="Trazado 818070" d="M627.715,24.378h8.769a2.039,2.039,0,0,1,0,4.077h-8.769a2.039,2.039,0,0,1,0-4.077" transform="translate(-176.699 -6.884)" fill="#fff"/>
    <path id="Trazado_818071" data-name="Trazado 818071" d="M716.88,26.417h0a2.039,2.039,0,0,1-2.039,2.039H678.957a2.039,2.039,0,0,1,0-4.077h35.885a2.039,2.039,0,0,1,2.039,2.039" transform="translate(-191.156 -6.884)" fill="#fff"/>
    <path id="Trazado_818072" data-name="Trazado 818072" d="M746.633,26.417h0a2.039,2.039,0,0,1-2.039,2.039h-5.3a2.039,2.039,0,1,1,0-4.077h5.3a2.039,2.039,0,0,1,2.039,2.039" transform="translate(-208.195 -6.884)" fill="#fff"/>
    <path id="Trazado_818073" data-name="Trazado 818073" d="M611.117,26.417h0a2.039,2.039,0,0,1-2.039,2.039h-5.3a2.039,2.039,0,1,1,0-4.077h5.3a2.039,2.039,0,0,1,2.039,2.039" transform="translate(-169.926 -6.884)" fill="#f66f6f"/>
    <path id="Trazado_818074" data-name="Trazado 818074" d="M611.117,42.333h0a2.039,2.039,0,0,1-2.039,2.039h-5.3a2.039,2.039,0,1,1,0-4.077h5.3a2.039,2.039,0,0,1,2.039,2.039" transform="translate(-169.926 -11.379)" fill="#f66f6f"/>
    <path id="Trazado_818075" data-name="Trazado 818075" d="M611.117,58.249h0a2.039,2.039,0,0,1-2.039,2.039h-5.3a2.039,2.039,0,1,1,0-4.077h5.3a2.039,2.039,0,0,1,2.039,2.039" transform="translate(-169.926 -15.873)" fill="#f66f6f"/>
    <path id="Trazado_818076" data-name="Trazado 818076" d="M611.117,74.166h0a2.039,2.039,0,0,1-2.039,2.039h-5.3a2.039,2.039,0,1,1,0-4.077h5.3a2.039,2.039,0,0,1,2.039,2.039" transform="translate(-169.926 -20.368)" fill="#f66f6f"/>
    <path id="Trazado_818077" data-name="Trazado 818077" d="M611.117,90.082h0a2.039,2.039,0,0,1-2.039,2.039h-5.3a2.039,2.039,0,1,1,0-4.077h5.3a2.039,2.039,0,0,1,2.039,2.039" transform="translate(-169.926 -24.863)" fill="#f66f6f"/>
    <path id="Trazado_818078" data-name="Trazado 818078" d="M660.094,56.2h14.68a2.039,2.039,0,1,1,0,4.077h-14.68a2.039,2.039,0,0,1,0-4.077" transform="translate(-185.829 -15.87)" fill="#fff"/>
    <path id="Trazado_818079" data-name="Trazado 818079" d="M627.761,56.2h14.68a2.039,2.039,0,0,1,0,4.077h-14.68a2.039,2.039,0,0,1,0-4.077" transform="translate(-176.699 -15.87)" fill="#fff"/>
    <path id="Trazado_818080" data-name="Trazado 818080" d="M733.635,58.238h0a2.039,2.039,0,0,1-2.039,2.039H693.266a2.039,2.039,0,0,1,0-4.078H731.6a2.039,2.039,0,0,1,2.039,2.039" transform="translate(-195.197 -15.87)" fill="#fff"/>
    <path id="Trazado_818081" data-name="Trazado 818081" d="M627.761,72.11h26.506a2.039,2.039,0,1,1,0,4.077H627.761a2.039,2.039,0,0,1,0-4.077" transform="translate(-176.699 -20.363)" fill="#fff"/>
    <path id="Trazado_818082" data-name="Trazado 818082" d="M736.2,74.149h0a2.039,2.039,0,0,1-2.039,2.039H702.357a2.039,2.039,0,1,1,0-4.077h31.807a2.039,2.039,0,0,1,2.039,2.039" transform="translate(-197.764 -20.363)" fill="#fff"/>
    <path id="Trazado_818083" data-name="Trazado 818083" d="M688.217,74.149h0a2.039,2.039,0,0,1-2.039,2.039H675.984a2.039,2.039,0,1,1,0-4.077h10.194a2.039,2.039,0,0,1,2.039,2.039" transform="translate(-190.316 -20.363)" fill="#fff"/>
    <path id="Trazado_818084" data-name="Trazado 818084" d="M739.412,42.328h0a2.039,2.039,0,0,1-2.039,2.039H713.722a2.039,2.039,0,1,1,0-4.077h23.651a2.039,2.039,0,0,1,2.039,2.039" transform="translate(-200.973 -11.377)" fill="#fff"/>
    <path id="Trazado_818085" data-name="Trazado 818085" d="M653.451,42.328h0a2.039,2.039,0,0,1-2.039,2.039H627.762a2.039,2.039,0,1,1,0-4.077h23.651a2.039,2.039,0,0,1,2.039,2.039" transform="translate(-176.699 -11.377)" fill="#fff"/>
    <path id="Trazado_818086" data-name="Trazado 818086" d="M693.372,42.328h0a2.315,2.315,0,0,1-2.515,2.039H678.278a2.315,2.315,0,0,1-2.515-2.039,2.315,2.315,0,0,1,2.515-2.039h12.578a2.315,2.315,0,0,1,2.515,2.039" transform="translate(-190.83 -11.377)" fill="#fff"/>
    <path id="Trazado_818087" data-name="Trazado 818087" d="M628.3,88.021h13.411a2.1,2.1,0,1,1,0,4.077H628.3a2.1,2.1,0,1,1,0-4.077" transform="translate(-176.699 -24.856)" fill="#fff"/>
    <path id="Trazado_818088" data-name="Trazado 818088" d="M659.007,88.021H687.83a2.061,2.061,0,1,1,0,4.077H659.007a2.061,2.061,0,1,1,0-4.077" transform="translate(-185.431 -24.856)" fill="#fff"/>
    <path id="Trazado_818089" data-name="Trazado 818089" d="M720.958,90.06h0A2.039,2.039,0,0,1,718.92,92.1H708.725a2.039,2.039,0,1,1,0-4.077H718.92a2.039,2.039,0,0,1,2.039,2.039" transform="translate(-199.562 -24.856)" fill="#fff"/>
    <path id="Trazado_818090" data-name="Trazado 818090" d="M744.936,90.06h0A2,2,0,0,1,742.98,92.1H733.2a2.04,2.04,0,0,1,0-4.077h9.78a2,2,0,0,1,1.956,2.039" transform="translate(-206.497 -24.856)" fill="#fff"/>
    <path id="Trazado_818091" data-name="Trazado 818091" d="M568.353,335.239v6.6H500.469a21.259,21.259,0,0,0-18.956,11.639l-13.462,26.53h-11.47l9.187-39.811,5.284-22.91,93.3-.05Z" transform="translate(-128.935 -89.585)" fill="#050e12"/>
    <path id="Trazado_818092" data-name="Trazado 818092" d="M554.455,377.71H542.767q-6.074-12.965-12.132-25.922a21.287,21.287,0,0,0-19.261-12.247H417.291a21.258,21.258,0,0,0-18.956,11.64L384.873,377.71H373.4l14.471-62.72,152.619-.074.371,1.666,4,18Z" transform="translate(-105.446 -88.93)" fill="#fff"/>
    <path id="Trazado_818093" data-name="Trazado 818093" d="M555.073,378.208H541.838l-.222-.473q-6.073-12.965-12.131-25.922a20.465,20.465,0,0,0-18.518-11.774H416.884a20.336,20.336,0,0,0-18.223,11.189l-13.691,26.98H371.964l14.849-64.363h.653l153.278-.075Zm-12.191-1.643h10.142l-13.6-61.151-151.308.073-14.091,61.078h9.933l13.233-26.08A21.972,21.972,0,0,1,416.884,338.4h94.083a22.106,22.106,0,0,1,20.006,12.72q5.953,12.728,11.909,25.449" transform="translate(-105.04 -88.606)" fill="#050e12"/>
    <path id="Trazado_818094" data-name="Trazado 818094" d="M396.186,239.415,373.4,134.13h97.626l25.55,105.376Z" transform="translate(-105.446 -37.877)" fill="#263238"/>
    <path id="Trazado_818095" data-name="Trazado 818095" d="M394.305,239.419l-1.338,1.461h-14.66q-4.789-21.177-9.571-42.363-5.676-25.069-11.336-50.145,5.96-7.116,11.9-14.242l13.4,56.408Z" transform="translate(-100.927 -37.877)" fill="#263238"/>
    <path id="Trazado_818096" data-name="Trazado 818096" d="M589.2,216.476q-2.2,11.352-4.408,22.7v.017q-2.291,11.784-4.581,23.566c-.05.238-.09.477-.14.715h-73.6c-.049-.238-.107-.477-.156-.715q-5.11-23.135-10.219-46.279Z" transform="translate(-140.092 -61.131)" fill="#050e12"/>
    <path id="Trazado_818097" data-name="Trazado 818097" d="M616.365,216.476q-2.2,11.352-4.407,22.7v.017q-2.291,11.784-4.581,23.566c-.049.238-.09.477-.14.715H592.29c.049-.238.09-.477.139-.715q4.494-23.135,8.98-46.279Z" transform="translate(-167.258 -61.131)" fill="#050e12"/>
    <path id="Trazado_818098" data-name="Trazado 818098" d="M385.733,280.966l.164.714q3.032,13.174,6.066,26.349H544.532q2.431-13.532,4.86-27.063Z" transform="translate(-108.928 -79.343)" fill="#263238"/>
    <path id="Trazado_818099" data-name="Trazado 818099" d="M555.978,340.516l-17.07,35.444c-3.288,2.042-7.321,1.938-9.884-.122-3.4-2.733-3.964-8.711-.251-12.819l15-39.082Z" transform="translate(-148.601 -91.477)" fill="#fff"/>
    <path id="Trazado_818100" data-name="Trazado 818100" d="M533.545,377.876a8.377,8.377,0,0,1-5.275-1.754,8.633,8.633,0,0,1-3.046-6.08,10.475,10.475,0,0,1,2.616-7.707l14.953-38.956a.739.739,0,0,1,.591-.468.746.746,0,0,1,.695.295l12.2,16.58a.74.74,0,0,1,.07.759l-17.07,35.443a.731.731,0,0,1-.276.307,10.418,10.418,0,0,1-5.462,1.58m10.145-52.7-14.518,37.82a.729.729,0,0,1-.141.23,9,9,0,0,0-2.334,6.7,7.161,7.161,0,0,0,2.5,5.045c2.3,1.847,5.909,1.912,8.85.179L554.828,340.3Z" transform="translate(-148.31 -91.186)" fill="#050e12"/>
    <path id="Trazado_818101" data-name="Trazado 818101" d="M541.487,375.506c1.893-.6,3.855,2.012,6.567,4.1a22.741,22.741,0,0,0,9.028,4.1l17.573,3.62a5.6,5.6,0,0,1,3.769,5.295v2.578h-59.1l5.864-17.367a6.35,6.35,0,0,1,3.165.129c3.386,1.071,3.735,4.7,7.388,5.746a2.894,2.894,0,0,0,2.463,0c1.363-.986-.107-3.72,1.64-6.566a3.252,3.252,0,0,1,1.643-1.642" transform="translate(-146.653 -106.015)" fill="#050e12"/>
    <path id="Trazado_818102" data-name="Trazado 818102" d="M577.933,403.988H519.169a.989.989,0,0,1-.989-.989v-1.305a.989.989,0,0,1,.989-.989h58.764a.989.989,0,0,1,.989.989V403a.989.989,0,0,1-.989.989" transform="translate(-146.33 -113.156)" fill="#050e12"/>
    <path id="Trazado_818103" data-name="Trazado 818103" d="M578.07,400.954H519.934a.411.411,0,0,1,0-.822H578.07a.411.411,0,0,1,0,.822" transform="translate(-146.709 -112.994)" fill="#fff"/>
    <path id="Trazado_818104" data-name="Trazado 818104" d="M563.109,378.569a.729.729,0,0,1-.276-.054.74.74,0,0,1-.463-.667c-.033-1.308-.22-12.839,3.364-14.979a2.862,2.862,0,0,1,3.046.138,3.76,3.76,0,0,1,1.991,2.882c.619,4.751-6.826,12.155-7.142,12.467a.739.739,0,0,1-.52.213m3.956-14.593a1.07,1.07,0,0,0-.573.163c-1.88,1.122-2.585,7.251-2.652,11.848,2.344-2.6,5.827-7.133,5.464-9.908a2.323,2.323,0,0,0-1.257-1.79,2,2,0,0,0-.982-.314" transform="translate(-158.805 -102.367)" fill="#050e12"/>
    <path id="Trazado_818105" data-name="Trazado 818105" d="M563.572,382.283a.739.739,0,0,1-.591-1.183c.784-1.046,7.8-10.216,11.929-9.664a2.867,2.867,0,0,1,2.306,2,3.765,3.765,0,0,1-.227,3.5c-2.461,4.11-12.893,5.3-13.336,5.35a.754.754,0,0,1-.08,0m10.936-9.394c-2.232,0-6.407,4.209-9.221,7.664,3.45-.583,9-1.983,10.433-4.385a2.318,2.318,0,0,0,.123-2.183c-.356-.885-.812-1.043-1.125-1.084a1.673,1.673,0,0,0-.209-.013" transform="translate(-158.939 -104.884)" fill="#050e12"/>
    <path id="Trazado_818106" data-name="Trazado 818106" d="M499.929,340.516l-17.07,35.444c-3.288,2.042-7.321,1.938-9.884-.122-3.4-2.733-3.964-8.711-.251-12.819l15-39.082Z" transform="translate(-132.773 -91.477)" fill="#fff"/>
    <path id="Trazado_818107" data-name="Trazado 818107" d="M477.5,377.876a8.378,8.378,0,0,1-5.275-1.754,8.635,8.635,0,0,1-3.046-6.08,10.475,10.475,0,0,1,2.616-7.707l14.953-38.956a.739.739,0,0,1,1.286-.173l12.2,16.58a.74.74,0,0,1,.07.759l-17.07,35.443a.731.731,0,0,1-.276.307,10.417,10.417,0,0,1-5.462,1.58m10.145-52.7-14.517,37.82a.742.742,0,0,1-.142.23,9,9,0,0,0-2.333,6.7,7.16,7.16,0,0,0,2.5,5.045c2.3,1.849,5.911,1.912,8.85.179L498.779,340.3Z" transform="translate(-132.482 -91.186)" fill="#050e12"/>
    <path id="Trazado_818108" data-name="Trazado 818108" d="M485.438,375.506c1.894-.6,3.855,2.012,6.567,4.1a22.745,22.745,0,0,0,9.029,4.1l17.573,3.62a5.6,5.6,0,0,1,3.769,5.295v2.578h-59.1l5.864-17.367a6.35,6.35,0,0,1,3.165.129c3.386,1.071,3.735,4.7,7.388,5.746a2.894,2.894,0,0,0,2.463,0c1.363-.986-.106-3.72,1.641-6.566a3.251,3.251,0,0,1,1.642-1.642" transform="translate(-130.825 -106.015)" fill="#050e12"/>
    <path id="Trazado_818109" data-name="Trazado 818109" d="M521.884,403.988H463.12a.989.989,0,0,1-.989-.989v-1.305a.989.989,0,0,1,.989-.989h58.764a.989.989,0,0,1,.989.989V403a.989.989,0,0,1-.989.989" transform="translate(-130.502 -113.156)" fill="#050e12"/>
    <path id="Trazado_818110" data-name="Trazado 818110" d="M522.022,400.954H463.885a.411.411,0,0,1,0-.822h58.136a.411.411,0,0,1,0,.822" transform="translate(-130.882 -112.994)" fill="#fff"/>
    <path id="Trazado_818111" data-name="Trazado 818111" d="M507.06,378.569a.732.732,0,0,1-.277-.054.74.74,0,0,1-.462-.667c-.033-1.308-.22-12.839,3.363-14.979a2.864,2.864,0,0,1,3.047.138,3.762,3.762,0,0,1,1.991,2.882c.619,4.751-6.826,12.155-7.142,12.467a.738.738,0,0,1-.52.213m3.956-14.593a1.069,1.069,0,0,0-.573.163c-1.88,1.122-2.585,7.251-2.652,11.848,2.344-2.6,5.827-7.133,5.464-9.908A2.322,2.322,0,0,0,512,364.29a2,2,0,0,0-.982-.314" transform="translate(-142.978 -102.367)" fill="#050e12"/>
    <path id="Trazado_818112" data-name="Trazado 818112" d="M507.523,382.283a.74.74,0,0,1-.592-1.183c.785-1.046,7.808-10.216,11.93-9.664a2.865,2.865,0,0,1,2.3,2,3.763,3.763,0,0,1-.226,3.5c-2.461,4.11-12.893,5.3-13.336,5.35a.755.755,0,0,1-.08,0m10.936-9.394c-2.232,0-6.407,4.209-9.221,7.664,3.45-.583,9-1.983,10.433-4.385a2.319,2.319,0,0,0,.123-2.183c-.356-.885-.813-1.043-1.125-1.084a1.675,1.675,0,0,0-.21-.013" transform="translate(-143.111 -104.884)" fill="#050e12"/>
    <path id="Trazado_818113" data-name="Trazado 818113" d="M541.024,396.576a.411.411,0,0,1-.39-.281,10.919,10.919,0,0,0-2.192-3.725c-1.133-1.1-7.774-2.368-10.236-2.765a.41.41,0,1,1,.13-.809c.933.15,9.154,1.509,10.677,2.985a11.575,11.575,0,0,1,2.4,4.056.412.412,0,0,1-.39.54" transform="translate(-149.064 -109.848)" fill="#fff"/>
    <path id="Trazado_818114" data-name="Trazado 818114" d="M476.394,216.481q-4.561,23.5-9.121,46.992h14.952q4.572-23.5,9.121-46.992Z" transform="translate(-131.954 -61.132)" fill="#050e12"/>
    <path id="Trazado_818115" data-name="Trazado 818115" d="M534.46,123.952a20.526,20.526,0,0,1,9.159,5.042c8.035,7.894,6.469,21.231,5.1,32.908a95.645,95.645,0,0,1-5.539,22.612c-.677.619-3.937,3.508-6.288,2.46-.594-.266-.962-.707-1.856-2.009a62.391,62.391,0,0,1-3.362-5.391c-1.456-3.119-1.221-25.316,2.789-55.623" transform="translate(-149.909 -35.003)" fill="#d6edff"/>
    <path id="Trazado_818116" data-name="Trazado 818116" d="M540.024,189.232c1.955-.078,6.361-.093,17.411,3.816a141.352,141.352,0,0,1,14.226,5.93q-1.578,5.688-3.283,11.492-1.22,4.146-2.463,8.208a135.669,135.669,0,0,1-14.212-2.413c-10.347-2.326-15.618-3.554-19.356-7.676-3.689-4.07-6.686-11.181-3.912-15.455,2.291-3.53,7.617-3.742,11.589-3.9" transform="translate(-148.919 -53.432)" fill="#d1e2dc"/>
    <path id="Trazado_818117" data-name="Trazado 818117" d="M583.74,199.82a3.419,3.419,0,0,0-1.922-.255c-3.844.705-4.854,9.224-5.239,12.478-.62,5.237.365,6.943,1.377,7.707a3.232,3.232,0,0,0,.61.362h.029a5.838,5.838,0,0,0,5.2-2.3,19.121,19.121,0,0,0,3.494-7.57c.474-2.228.786-3.528.37-5.209a9.114,9.114,0,0,0-3.917-5.213" transform="translate(-162.767 -56.342)" fill="#050e12"/>
    <path id="Trazado_818118" data-name="Trazado 818118" d="M598.51,219.539a13.827,13.827,0,0,0-1.634,7.157c.175,4.182-4.24,10.329-1.848,9.744s5.407-5.543,8.4-7.119-4.921-9.783-4.921-9.783" transform="translate(-167.83 -61.996)" fill="#fff"/>
    <path id="Trazado_818119" data-name="Trazado 818119" d="M594.456,236.928a1.113,1.113,0,0,1-.878-.375c-.632-.725-.144-1.963.665-4.013.749-1.9,1.681-4.256,1.6-6.1a14.5,14.5,0,0,1,1.74-7.573.743.743,0,0,1,.551-.351.757.757,0,0,1,.614.222c1.046,1.084,6.235,6.635,5.773,9.5a1.925,1.925,0,0,1-1.041,1.448,18.221,18.221,0,0,0-4.019,3.557c-1.586,1.681-3.084,3.267-4.552,3.625a1.952,1.952,0,0,1-.458.059m3.954-16.394a13.6,13.6,0,0,0-1.086,5.841c.09,2.159-.9,4.681-1.706,6.707a21.458,21.458,0,0,0-.809,2.269c1.014-.4,2.318-1.785,3.581-3.123a19.136,19.136,0,0,1,4.406-3.851.457.457,0,0,0,.269-.374c.23-1.419-2.39-4.971-4.656-7.47" transform="translate(-167.54 -61.705)" fill="#050e12"/>
    <path id="Trazado_818120" data-name="Trazado 818120" d="M601.859,208.906l-17.417-5.749s-3.311,7.03-.85,14.532l10.946.131,7.32-8.915" transform="translate(-164.545 -57.37)" fill="#fff"/>
    <path id="Trazado_818121" data-name="Trazado 818121" d="M594.238,218.28h-.009l-10.947-.131a.756.756,0,0,1-.712-.522,22.2,22.2,0,0,1,.884-15.093.758.758,0,0,1,.925-.4l17.417,5.749a.759.759,0,0,1,.349,1.2L594.823,218a.759.759,0,0,1-.586.277m-10.386-1.643,10.029.12,6.387-7.777-15.7-5.181a21.047,21.047,0,0,0-.721,12.838" transform="translate(-164.243 -57.071)" fill="#050e12"/>
    <path id="Trazado_818122" data-name="Trazado 818122" d="M618.144,234.1l-3.219-12.222-.43.123.342-.214q-.844-2.533-1.689-5.066l-6.353-5.933L598.2,214.7q1.563,7.765,3.124,15.531l.011-.006,2.424,11.955a1.82,1.82,0,0,0,1.16,1.4,1.32,1.32,0,0,0,1.553-.681l-.856-11.82.856-.845,3.951,11.689a1.627,1.627,0,0,0,1.9,1.08,2.917,2.917,0,0,0,1.855-1.793l.051.024a1.634,1.634,0,0,0,2.233-1.92L613.324,227.7c.8,2.524.981,2.674,1.711,5.066.608,1.99.838,3.057,1.712,3.377a1.134,1.134,0,0,0,.855,0c.508-.253.738-1.061.541-2.041" transform="translate(-168.928 -59.527)" fill="#fff"/>
    <path id="Trazado_818123" data-name="Trazado 818123" d="M605.335,244.106a2.09,2.09,0,0,1-.65-.109,2.552,2.552,0,0,1-1.653-1.952l-2.4-11.826a.718.718,0,0,1-.036-.122l-2.271-11.211a7.807,7.807,0,0,1,.914-5.456,7.922,7.922,0,0,1,7.234-3.638.743.743,0,0,1,.387.132,23.531,23.531,0,0,1,8.753,11.424l3.239,12.283c0,.014.007.029.01.042.265,1.315-.1,2.433-.937,2.848a1.8,1.8,0,0,1-1.366.058l.61,2.258a2.36,2.36,0,0,1-.779,2.445,2.331,2.331,0,0,1-1.83.532,3.386,3.386,0,0,1-2.066,1.622,2.371,2.371,0,0,1-2.774-1.561l-3.261-9.648.748,10.334a.739.739,0,0,1-.078.388,2.109,2.109,0,0,1-1.794,1.158m-3.314-14.432a.785.785,0,0,1,.037.122l2.424,11.955a1.089,1.089,0,0,0,.665.841.505.505,0,0,0,.568-.174l-.837-11.571a.738.738,0,0,1,.218-.58l.856-.845a.74.74,0,0,1,1.219.29l3.95,11.689a.891.891,0,0,0,1.022.6,2.186,2.186,0,0,0,1.331-1.312.739.739,0,0,1,1.02-.43.85.85,0,0,0,.947-.108.9.9,0,0,0,.3-.926l-3.14-11.614a.739.739,0,0,1,1.419-.415c.379,1.2.615,1.849.843,2.478.25.686.486,1.335.87,2.595l.179.593c.436,1.45.663,2.153,1.08,2.306a.431.431,0,0,0,.272.032c.1-.052.293-.474.149-1.212l-3.213-12.2a22.1,22.1,0,0,0-8.011-10.524A6.407,6.407,0,0,0,600.5,214.2a6.3,6.3,0,0,0-.727,4.4Z" transform="translate(-168.921 -59.241)" fill="#050e12"/>
    <path id="Trazado_818124" data-name="Trazado 818124" d="M609.967,301.659v1.535h-.279Z" transform="translate(-172.171 -85.186)" fill="#d1e2dc"/>
    <path id="Trazado_818125" data-name="Trazado 818125" d="M576.672,249.5q-18.173,35.214-36.355,70.4l-.386-.115c-18.173,5.385-25.216-.287-26.422-1.445q13.027-28.935,26.045-57.869l-50.063-.377a20.772,20.772,0,0,1-20.612-20.735c0-.624.025-1.239.083-1.872q1.219-3.89,2.43-7.773A20.771,20.771,0,0,1,496.04,215.7q9.42,2.253,18.888,4.547,13.752,3.324,27.408,6.69,13.051,3.213,27.21,6.756a10.842,10.842,0,0,1,8.586,7.9,10.652,10.652,0,0,1-1.461,7.9" transform="translate(-132.408 -60.751)" fill="#949af8"/>
    <path id="Trazado_818126" data-name="Trazado 818126" d="M523.216,252c-.041.082-.082.164-.123.255-.123.221-.23.41-.32.558q-18.3,35.435-36.593,70.863c-15.94,5.228-23.977,1.231-26.989-1.084q13.236-29.4,26.463-58.8l-54.2-.41a16.962,16.962,0,0,1-16.827-16.934c0-.5.024-1.01.065-1.518a38.639,38.639,0,0,1,1.6-8.069q.813-2.574,1.609-5.138A19.292,19.292,0,0,1,440.8,218.7q10.1,2.413,20.234,4.868,13.753,3.324,27.408,6.69,4.555,1.121,9.251,2.291,8.743,2.155,17.96,4.465a12.707,12.707,0,0,1,5.147,2.718.133.133,0,0,1,.041.032A9.933,9.933,0,0,1,523.216,252" transform="translate(-117.087 -61.61)" fill="#949af8"/>
    <path id="Trazado_818127" data-name="Trazado 818127" d="M663.107,229.127H560.5q1.23,5.331,2.462,10.671l48.84-.415,48.84.415q1.231-5.331,2.463-10.671" transform="translate(-158.282 -64.704)" fill="#050e12"/>
    <path id="Trazado_818128" data-name="Trazado 818128" d="M566.069,357.933a.954.954,0,0,1-.2-.022.944.944,0,0,1-.718-1.127l25.288-114.507a.944.944,0,1,1,1.844.408L566.99,357.192a.945.945,0,0,1-.922.741" transform="translate(-159.586 -68.208)" fill="#050e12"/>
    <path id="Trazado_818129" data-name="Trazado 818129" d="M688.584,357.933a.945.945,0,0,1-.921-.741L662.374,242.685a.944.944,0,1,1,1.844-.408l25.289,114.507a.945.945,0,0,1-.718,1.127.954.954,0,0,1-.2.022" transform="translate(-187.043 -68.208)" fill="#050e12"/>
    <path id="Trazado_818130" data-name="Trazado 818130" d="M651.315,307.945H588.66a.911.911,0,0,1,0-1.822h62.656a.911.911,0,1,1,0,1.822" transform="translate(-165.975 -86.447)" fill="#050e12"/>
    <path id="Trazado_818131" data-name="Trazado 818131" d="M606.969,357.913h-.047a.911.911,0,0,1-.864-.956l5.8-114.507a.911.911,0,1,1,1.819.092l-5.8,114.507a.911.911,0,0,1-.909.865" transform="translate(-171.146 -68.221)" fill="#050e12"/>
    <path id="Trazado_818132" data-name="Trazado 818132" d="M656.232,357.913a.911.911,0,0,1-.909-.865l-5.8-114.507a.911.911,0,1,1,1.82-.092l5.8,114.507a.911.911,0,0,1-.864.956h-.047" transform="translate(-183.42 -68.221)" fill="#050e12"/>
    <path id="Trazado_818133" data-name="Trazado 818133" d="M660.979,239.716H562.508a.821.821,0,0,1,0-1.641h98.471a.821.821,0,1,1,0,1.641" transform="translate(-158.616 -67.23)" fill="#fff"/>
    <path id="Trazado_818134" data-name="Trazado 818134" d="M508.86,327.323a.828.828,0,0,1-.7-1.271l.809-1.561c.294-.564.6-1.154.917-1.776,9.559-18.45,30.727-59.347,35.147-68.013.029-.066.075-.159.121-.25s.056-.1.068-.128c.022-.048.044-.093.07-.138,1.949-3.851,1.471-7.287-1.436-10.183a9.866,9.866,0,0,0-.832-.747l-.07-.057a12.775,12.775,0,0,0-4.867-2.38l-42.529-11.033a.828.828,0,1,1,.416-1.6L538.5,239.215a14.414,14.414,0,0,1,5.419,2.637l.129.1a11.54,11.54,0,0,1,.977.877c2.387,2.376,4.624,6.413,1.729,12.131l-.043.084c-.032.067-.067.136-.108.2-.008.02-.044.093-.08.172-4.438,8.705-25.608,49.605-35.167,68.054-.319.622-.624,1.214-.92,1.782l-.9,1.729-.091.091a.831.831,0,0,1-.592.245" transform="translate(-139.766 -64.43)" fill="#050e12"/>
    <path id="Trazado_818135" data-name="Trazado 818135" d="M510.419,280.235a.829.829,0,0,1-.461-1.518l9.851-6.568a.829.829,0,1,1,.919,1.379l-9.85,6.568a.83.83,0,0,1-.459.139" transform="translate(-143.904 -76.814)" fill="#050e12"/>
    <path id="Trazado_818136" data-name="Trazado 818136" d="M564.181,276.8a.829.829,0,0,1-.461-1.518l9.85-6.568a.829.829,0,0,1,.919,1.379l-9.849,6.568a.835.835,0,0,1-.459.139" transform="translate(-159.086 -75.844)" fill="#050e12"/>
    <path id="Trazado_818137" data-name="Trazado 818137" d="M500.992,186.475a57.724,57.724,0,0,1-10.671,4.1c-14.423,3.958-27.111,1.328-36.937-.821a113.358,113.358,0,0,1-16.417-4.925c2.047-7.714,5.424-20.3,9.85-36.117,5.023-17.947,7.87-27.451,16.417-36.117,3.469-3.517,7.29-7.289,13.134-8.208,5.5-.865,11.473,2.3,23.63,7.716,6.238,2.779,9.357,4.169,10.913,6.008,5.108,6.035,2.751,14.935-2.281,35.938-1.381,5.765-4.07,17.045-7.638,32.422" transform="translate(-123.396 -29.439)" fill="#d6edff"/>
    <path id="Trazado_818138" data-name="Trazado 818138" d="M525.937,198.794a.893.893,0,0,1-.215-.027.878.878,0,0,1-.637-1.065L538.4,144.828a.877.877,0,1,1,1.7.428l-13.315,52.874a.878.878,0,0,1-.85.663" transform="translate(-148.272 -40.711)" fill="#050e12"/>
    <path id="Trazado_818139" data-name="Trazado 818139" d="M526.783,110.051s1,.373.543,6.162c0,0-1.382,2.977-8.41-2.387a78.282,78.282,0,0,1-10.892-9.848l7.539-1.067Z" transform="translate(-143.462 -29.062)" fill="#050e12"/>
    <path id="Trazado_818140" data-name="Trazado 818140" d="M518.146,115.471a16.318,16.318,0,0,0,1.671-2.943c.622-1.431.785-2.391,1.671-2.944a2.854,2.854,0,0,1,1.8-.35,32.376,32.376,0,0,0-23.854-9.195l-3.783,7.468c2.937,1.365,6.146,2.718,9.619,4a126.14,126.14,0,0,0,12.874,3.968" transform="translate(-139.968 -28.244)" fill="#d1e2dc"/>
    <path id="Trazado_818141" data-name="Trazado 818141" d="M560.472,76.293a.759.759,0,0,1-.14-1.5c.308-.058.634-.133.974-.228a11.6,11.6,0,0,0,2.1-.818.759.759,0,1,1,.685,1.354,13.181,13.181,0,0,1-2.372.924c-.36.1-.731.188-1.1.259a.792.792,0,0,1-.141.013" transform="translate(-158.059 -20.801)" fill="#050e12"/>
    <path id="Trazado_818142" data-name="Trazado 818142" d="M561.2,85.445h-.048a13.174,13.174,0,0,1-2.514-.4c-.364-.1-.728-.208-1.083-.335a.759.759,0,0,1,.512-1.429c.3.106.615.207.956.3a11.686,11.686,0,0,0,2.224.357.759.759,0,0,1-.047,1.516" transform="translate(-157.307 -23.504)" fill="#050e12"/>
    <path id="Trazado_818143" data-name="Trazado 818143" d="M508.635,81.1q-2.906,5.4-5.79,11.127-2.05,4.072-3.958,8.059a10.055,10.055,0,0,0,2.328,5.779c2.826,3.234,7.884,4.256,12.766,2.559l6.847-20.764Z" transform="translate(-140.882 -22.902)" fill="#fff"/>
    <path id="Trazado_818144" data-name="Trazado 818144" d="M508.964,109.793a11.271,11.271,0,0,1-8.623-3.638,10.779,10.779,0,0,1-2.512-6.214l-.017-.205.089-.186c1.288-2.69,2.621-5.406,3.963-8.073,1.872-3.719,3.823-7.469,5.8-11.145l.364-.677,13.416,7.437-7.161,21.717-.354.123a15.14,15.14,0,0,1-4.964.861m-9.6-9.777a9.2,9.2,0,0,0,2.123,5.141c2.578,2.949,7.1,3.9,11.594,2.459l6.532-19.806-10.972-6.082c-1.846,3.446-3.667,6.951-5.417,10.43-1.305,2.6-2.6,5.238-3.859,7.858" transform="translate(-140.578 -22.494)" fill="#050e12"/>
    <path id="Trazado_818145" data-name="Trazado 818145" d="M537.9,61.868a56.212,56.212,0,0,1-1.658,12.722c-.3,1.2-.617,2.286-.951,3.321a59.877,59.877,0,0,1-3.329,8.232c-.224.446-.441.879-.646,1.29,0,.006-.007.007-.006.014-4.239,7.454-7.141,8.006-8.021,8.113a5.4,5.4,0,0,1-1.753-.075,26.4,26.4,0,0,1-7.079-3.477c-2.085-1.452-3.676-2.56-4.812-4.644-1.11-2.037-1.172-3.877-1.245-7.267a45.219,45.219,0,0,1,.619-8.348c1.145-7.142,1.838-11.458,5.394-14.567a13.021,13.021,0,0,1,3.574-2.173c8.6-3.385,19.126,6.125,19.914,6.858" transform="translate(-143.564 -15.329)" fill="#fff"/>
    <path id="Trazado_818146" data-name="Trazado 818146" d="M522.258,101.879A6.269,6.269,0,0,1,521,101.75c-1.869-.357-3.74-1.514-6.329-3.115-2.828-1.749-4.836-2.991-6.084-5.4l-.053-.106c-.031-.06-.062-.122-.091-.187-.684-1.431-.837-3.49-1.114-7.227-.177-2.409-.25-4.4-.28-5.645a.759.759,0,0,1,.741-.776h.018a.759.759,0,0,1,.759.741c.029,1.229.1,3.192.277,5.569.263,3.554.408,5.511.977,6.7l.126.255c1.045,2.014,2.807,3.1,5.475,4.756,2.5,1.545,4.269,2.64,5.872,2.947a4.673,4.673,0,0,0,1.52.066c2.087-.253,4.689-2.927,7.34-7.537l.013-.115.139-.156a51.767,51.767,0,0,0,6.052-18.033.759.759,0,1,1,1.5.22,53.353,53.353,0,0,1-6.148,18.41l.01.1-.17.191c-3.006,5.269-5.884,8.105-8.555,8.43a6.122,6.122,0,0,1-.741.045" transform="translate(-143.188 -20.851)" fill="#050e12"/>
    <path id="Trazado_818147" data-name="Trazado 818147" d="M535.229,90.208a9.936,9.936,0,0,1-3.146-.746.759.759,0,1,1,.52-1.425,7.12,7.12,0,0,0,2.772.651c-.008-.055-.016-.114-.024-.165a4.438,4.438,0,0,1,.007-1.71,3.949,3.949,0,0,1,.594-1.394,3.7,3.7,0,0,0,.255-.456,3.939,3.939,0,0,0-.394-3.207.759.759,0,1,1,1.376-.639,5.327,5.327,0,0,1,.4,4.468,5.188,5.188,0,0,1-.352.637,2.471,2.471,0,0,0-.4.9,2.933,2.933,0,0,0,.006,1.165,1.578,1.578,0,0,1-.259,1.41,1.7,1.7,0,0,1-1.362.509" transform="translate(-150.115 -22.783)" fill="#050e12"/>
    <path id="Trazado_818148" data-name="Trazado 818148" d="M543.792,82.438c-.217,1-.847,1.7-1.4,1.57s-.813-1.027-.6-2.023a1.668,1.668,0,0,1,.1-.338,7.078,7.078,0,0,0,1.067-.129,6.75,6.75,0,0,0,.864-.228,2.982,2.982,0,0,1-.038,1.148" transform="translate(-152.977 -22.956)" fill="#050e12"/>
    <path id="Trazado_818149" data-name="Trazado 818149" d="M540.19,81.822a8.322,8.322,0,0,1-3.226-.667.615.615,0,0,1,.479-1.132,7.061,7.061,0,0,0,2.984.565,6.526,6.526,0,0,0,.967-.117,6.246,6.246,0,0,0,.79-.209,6.542,6.542,0,0,0,1.079-.474.614.614,0,1,1,.586,1.079,7.841,7.841,0,0,1-1.274.56,7.464,7.464,0,0,1-.94.248,7.65,7.65,0,0,1-1.153.139c-.1,0-.194.006-.291.006" transform="translate(-151.529 -22.511)" fill="#050e12"/>
    <path id="Trazado_818150" data-name="Trazado 818150" d="M531.364,80.17c-.217,1-.848,1.7-1.4,1.57s-.813-1.027-.6-2.023a1.96,1.96,0,0,1,.135-.423,9.527,9.527,0,0,0,1.9-.265,2.827,2.827,0,0,1-.036,1.14" transform="translate(-149.467 -22.317)" fill="#050e12"/>
    <path id="Trazado_818151" data-name="Trazado 818151" d="M530.127,97.637c-1.224,0-3.487-.522-5.806-3.738a.759.759,0,0,1,1.231-.888c2.667,3.7,4.952,3.088,5.047,3.061a.763.763,0,0,1,.943.5.752.752,0,0,1-.482.942,3.169,3.169,0,0,1-.932.119" transform="translate(-148.023 -26.177)" fill="#050e12"/>
    <path id="Trazado_818152" data-name="Trazado 818152" d="M528.785,61.1c.432.547,2.962,3.652,6.677,3.562a4.9,4.9,0,0,0,3.823-1.492,4.526,4.526,0,0,0,.168-5.109,3.881,3.881,0,0,0-2.581-1.528,4.708,4.708,0,0,0,.388-4.067c-.916-1.93-3.7-2.966-6.4-1.867a5.9,5.9,0,0,0-9.62-5.234,3.683,3.683,0,0,0-7.206,1.4,4.679,4.679,0,0,0-4.965-.53,4.727,4.727,0,0,0-2.331,5.315A4.877,4.877,0,0,0,501.9,53.62a4.948,4.948,0,0,0,.9,6.222s-5.822-.775-3.188,5.07a7.411,7.411,0,0,0,5.487,10.9,16.506,16.506,0,0,0,6.946-6.588l6.024-9.4a6.132,6.132,0,0,0,5.666,4.133,6.406,6.406,0,0,0,5.054-2.854" transform="translate(-140.836 -12.053)" fill="#050e12"/>
    <path id="Trazado_818153" data-name="Trazado 818153" d="M514.313,77.542a4.063,4.063,0,0,0-1.807-2.263,3.332,3.332,0,0,0-2.585-.428c-1.614.549-2.284,2.868-2.009,4.582a5.508,5.508,0,0,0,3.33,3.864,3.82,3.82,0,0,0,3.508-2.432,3.911,3.911,0,0,0-.437-3.323" transform="translate(-143.413 -21.103)" fill="#fff"/>
    <path id="Trazado_818154" data-name="Trazado 818154" d="M510.164,82.04a.759.759,0,0,1-.682-.426,2.728,2.728,0,0,1-.11-2.186,2.125,2.125,0,0,1,1.18-1.227,2.313,2.313,0,0,1,2.377.6.759.759,0,0,1-1.047,1.1.845.845,0,0,0-.787-.281.636.636,0,0,0-.311.367,1.2,1.2,0,0,0,.062.964.759.759,0,0,1-.681,1.091" transform="translate(-143.792 -22.048)" fill="#050e12"/>
    <path id="Trazado_818155" data-name="Trazado 818155" d="M527.633,79.4a10.562,10.562,0,0,1-2.828-.388.615.615,0,1,1,.329-1.184,9.177,9.177,0,0,0,2.945.332,8.953,8.953,0,0,0,1.785-.248,7.655,7.655,0,0,0,1.79-.639.614.614,0,0,1,.6,1.071,8.685,8.685,0,0,1-2.112.764,10.143,10.143,0,0,1-2.018.281c-.164.008-.33.011-.5.011" transform="translate(-148.074 -21.8)" fill="#050e12"/>
    <path id="Trazado_818156" data-name="Trazado 818156" d="M511.239,129.274a36.051,36.051,0,0,0-.344-17.136s-10.761-7.254-12.824-12.089l-7.247,5.25a89.825,89.825,0,0,0,20.415,23.975" transform="translate(-138.605 -28.253)" fill="#d1e2dc"/>
    <path id="Trazado_818157" data-name="Trazado 818157" d="M499.784,124.12l-.3-.247a35.825,35.825,0,0,1-11.053-15.619.829.829,0,1,1,1.559-.563,34.211,34.211,0,0,0,10.231,14.639c3.109-.862,5.76-4.793,7.057-6.72a2.6,2.6,0,0,1,1.7-1.2c1.16-.2,2.376.568,3.611,2.273a.828.828,0,1,1-1.34.973c-.926-1.277-1.627-1.673-2-1.612a1.029,1.029,0,0,0-.6.489c-1.475,2.187-4.544,6.74-8.484,7.508Z" transform="translate(-137.915 -30.257)" fill="#050e12"/>
    <path id="Trazado_818158" data-name="Trazado 818158" d="M464.051,215.2q-4.482,23.468-8.98,46.935c-.049.238-.09.484-.139.723h-73.3l-.164-.723q-4.494-20.82-9-41.641-.924-4.26-1.847-8.529,7.9.271,15.809.55l77.619,2.684" transform="translate(-104.661 -59.858)" fill="#263238"/>
    <path id="Trazado_818159" data-name="Trazado 818159" d="M440.468,240.822a.821.821,0,0,1-.807-.973L448.5,193.22l-60.946.355h-.005a.821.821,0,0,1-.8-.627l-14.395-59.462a.821.821,0,1,1,1.6-.386L388.2,191.929l61.293-.357h.005a.82.82,0,0,1,.807.974l-8.839,46.608,14.166-.383a.821.821,0,1,1,.044,1.641l-15.185.41Z" transform="translate(-105.145 -37.409)" fill="#fff"/>
    <path id="Trazado_818160" data-name="Trazado 818160" d="M570.525,219.974l1.823-2.116h7.51l1.048,2.229Z" transform="translate(-161.112 -61.521)" fill="#050e12"/>
    <path id="Trazado_818161" data-name="Trazado 818161" d="M583.341,220l1.823-2.115h7.51l1.048,2.229Z" transform="translate(-164.731 -61.528)" fill="#050e12"/>
    <path id="Trazado_818162" data-name="Trazado 818162" d="M596.739,220l1.823-2.115h7.51l1.048,2.229Z" transform="translate(-168.514 -61.528)" fill="#050e12"/>
    <path id="Trazado_818163" data-name="Trazado 818163" d="M609.749,220l1.823-2.115h7.51l1.048,2.229Z" transform="translate(-172.188 -61.528)" fill="#050e12"/>
    <path id="Trazado_818164" data-name="Trazado 818164" d="M692.554,164.771l-15.81,35.309a6.269,6.269,0,0,1-5.722,3.708h-61.6a6.27,6.27,0,0,1-5.688-8.907l16.507-35.6a6.269,6.269,0,0,1,5.717-3.632l60.907.291a6.269,6.269,0,0,1,5.692,8.832" transform="translate(-170.322 -43.954)" fill="#fdbf2d"/>
    <path id="Trazado_818165" data-name="Trazado 818165" d="M607.013,194.881l16.507-35.6a6.261,6.261,0,0,1,5.5-3.617l-3.067-.014a6.271,6.271,0,0,0-5.718,3.632l-16.507,35.6a6.27,6.27,0,0,0,5.688,8.907H612.7a6.27,6.27,0,0,1-5.688-8.907" transform="translate(-170.322 -43.954)" fill="#050e12"/>
    <path id="Trazado_818166" data-name="Trazado 818166" d="M661.031,226.355H568.7a3.507,3.507,0,0,1-3.508-3.508v-.315a3.507,3.507,0,0,1,3.508-3.508h92.328a3.508,3.508,0,0,1,3.508,3.508v.315a3.508,3.508,0,0,1-3.508,3.508" transform="translate(-159.607 -61.851)" fill="#fdbf2d"/>
    <path id="Trazado_818167" data-name="Trazado 818167" d="M697.1,202.383a.834.834,0,0,1-.34-.072.844.844,0,0,1-.433-1.114l16.486-37.468a5.237,5.237,0,0,0-.028-4.447,5.717,5.717,0,0,0-.815-1.208,5.263,5.263,0,0,0-3.967-1.7H678.817a.846.846,0,0,1,0-1.691H708a6.953,6.953,0,0,1,5.234,2.272,7.307,7.307,0,0,1,1.033,1.516,6.951,6.951,0,0,1,.092,5.939l-16.488,37.471a.846.846,0,0,1-.774.505" transform="translate(-191.454 -43.681)" fill="#050e12"/>
    <path id="Trazado_818168" data-name="Trazado 818168" d="M676.283,220.015H604.928a.676.676,0,0,1,0-1.351h71.355a.676.676,0,0,1,0,1.351" transform="translate(-170.636 -61.749)" fill="#050e12"/>
    <path id="Trazado_818169" data-name="Trazado 818169" d="M569.65,226.629h-1.231a3.142,3.142,0,0,1-3.138-3.138v-2.463a3.142,3.142,0,0,1,3.138-3.138.676.676,0,1,1,0,1.351,1.789,1.789,0,0,0-1.787,1.787v2.463a1.789,1.789,0,0,0,1.787,1.787h1.231a.676.676,0,0,1,0,1.351" transform="translate(-159.631 -61.53)" fill="#050e12"/>
    <path id="Trazado_818170" data-name="Trazado 818170" d="M461.557,202.5a.9.9,0,0,1-.194-.022.877.877,0,0,1-.662-1.049l7.552-33.461a.877.877,0,0,1,1.712.387l-7.553,33.461a.877.877,0,0,1-.855.684" transform="translate(-130.092 -47.238)" fill="#050e12"/>
    <path id="Trazado_818171" data-name="Trazado 818171" d="M481.791,129.5c4.415,1.234,6.159,6.2,9.029,13.134,2.5,6.051,6.226,14.482,11.492,24.625L539.25,164.8q.41,9.029.821,18.058c-3.527,1.285-8.913,3.127-15.6,4.925-19.457,5.235-29.186,7.853-36.937,4.1-5.409-2.616-9.625-11.594-18.059-29.55-3.4-7.246-5.6-13.076-4.1-19.7a17.167,17.167,0,0,1,5.746-9.851c.68-.549,5.764-4.655,10.671-3.283" transform="translate(-131.283 -36.492)" fill="#d6edff"/>
    <path id="Trazado_818172" data-name="Trazado 818172" d="M510.829,171.061l-13.873-30.268a.829.829,0,0,1,1.507-.69l13.4,29.229,33.494-2.233a.821.821,0,0,1,.883.771.83.83,0,0,1-.771.882Z" transform="translate(-140.315 -39.427)" fill="#050e12"/>
    <path id="Trazado_818173" data-name="Trazado 818173" d="M492.623,206.563a12.267,12.267,0,0,1-3.35-.358c-8.489-2.547-19.752-29.695-20.227-30.849a.828.828,0,1,1,1.531-.631c3.156,7.661,12.75,27.966,19.172,29.892,7.885,2.364,49.565-9.28,49.984-9.4a.829.829,0,0,1,.449,1.6c-1.563.438-34.888,9.748-47.56,9.748" transform="translate(-132.437 -49.196)" fill="#050e12"/>
    <path id="Trazado_818174" data-name="Trazado 818174" d="M509.828,190.149a.878.878,0,0,1-.878-.878c0-3.59,4.7-7.614,5.241-8.061a.877.877,0,0,1,1.124,1.348c-1.283,1.071-4.61,4.363-4.61,6.713a.878.878,0,0,1-.878.878" transform="translate(-143.723 -51.115)" fill="#050e12"/>
    <path id="Trazado_818175" data-name="Trazado 818175" d="M562.011,178.8a8.92,8.92,0,0,0-4.1,1.641c-4.183,3.134-4.517,9.762-2.463,13.955.355.725,1.962,4,4.482,4.137a3.774,3.774,0,0,0,2.269-.714c4.34-2.869,5.155-13.1.637-18.2a9.493,9.493,0,0,0-.821-.82" transform="translate(-156.506 -50.491)" fill="#050e12"/>
    <path id="Trazado_818176" data-name="Trazado 818176" d="M587.616,177.494l-2.1.575c1.855.852,8.867,4.157,9.628,6.615.082.255.287.925,0,1.322-.392.547-1.49.278-2.412,0l-.423-.132A5.13,5.13,0,0,1,593.981,188a1.76,1.76,0,0,1,0,1.323c-.37.547-1.4.278-2.261,0a26.966,26.966,0,0,1-5.649-2.649h0q1.258,1.915,2.53,3.821c.023,1.2-.392,2.891-2.936,2.708h-.005l-2.12-1.961a1.5,1.5,0,0,0-1.244-.378,13.312,13.312,0,0,0-1.81.273c-1.35.456-4.067.232-8.207.324-1.048.023-2.2.069-3.432.151a30.392,30.392,0,0,1-3.347.128c-.078,0-.155-.005-.233-.009-.451-.023-.9-.055-1.135-.073a.872.872,0,0,0-.106-.009c-.136-.019-.273-.032-.405-.046-.223-.023-.424-.05-.6-.077-.756-.1-1.386-.228-1.869-.333l-.26-.26c-.315-.314-.6-.624-.858-.925-1.978-2.284-2.5-4.208-2.275-5.781a.319.319,0,0,1,.009-.068c0-.019,0-.032.009-.05.019-.1.036-.2.06-.3.014-.068.027-.132.046-.2a.915.915,0,0,1,.032-.11c.866-2.89,4.2-4.385,4.459-4.5a.027.027,0,0,0,.019-.005l10.285-2.283s0,.009.009.014c18.961-4.3,23.7-4.326,23.957-3.3.136.548-.926,1.637-1.5,2.116-.771.638-1.532.884-4.1,1.368-.926.173-2.084.378-3.419.583" transform="translate(-157.492 -48.818)" fill="#fff"/>
    <path id="Trazado_818177" data-name="Trazado 818177" d="M594.054,192.331H594l-7.533-.5a.74.74,0,0,1,.1-1.476l7.532.5a.74.74,0,0,1-.048,1.478" transform="translate(-165.42 -53.753)" fill="#050e12"/>
    <path id="Trazado_818178" data-name="Trazado 818178" d="M599.485,189.6a.747.747,0,0,1-.382-.106l-6.578-3.981a1.777,1.777,0,0,0-1.028-.255l-7.2.611a.739.739,0,0,1-.125-1.473l7.222-.611a3.244,3.244,0,0,1,1.9.464l6.578,3.981a.739.739,0,0,1-.383,1.372" transform="translate(-164.774 -51.896)" fill="#050e12"/>
    <path id="Trazado_818179" data-name="Trazado 818179" d="M585.777,180.958a.739.739,0,0,1-.029-1.478l9.909-.408a.75.75,0,0,1,.769.708.74.74,0,0,1-.708.769l-9.909.408h-.031" transform="translate(-165.21 -50.568)" fill="#050e12"/>
    <path id="Trazado_818180" data-name="Trazado 818180" d="M585.73,193.658c-.133,0-.273-.005-.419-.016a.752.752,0,0,1-.453-.194l-1.923-1.778c-.628-.03-1.521-.067-2.581-.086l-.111,0a75.55,75.55,0,0,0-8.2.319l-.245.022a49.162,49.162,0,0,1-6.624.259c-.054,0-.133,0-.214-.008-.487-.025-.94-.057-1.182-.075-.028,0-.105-.009-.134-.012l-.382-.042c-.25-.027-.462-.056-.65-.085-.359-.055-.624-.108-.748-.133l-.083-.017a6.315,6.315,0,0,1-2.547-1.556,7.32,7.32,0,0,1-2.5-6.434c.005-.043.012-.086.017-.111a.617.617,0,0,1,.018-.088c.007-.052.028-.164.053-.272.014-.068.031-.15.055-.232a1.349,1.349,0,0,1,.053-.172,7.408,7.408,0,0,1,4.919-4.937c.024-.008.048-.014.072-.019l.014,0,10.286-2.285a.8.8,0,0,1,.148-.017c24.018-5.439,24.411-3.872,24.7-2.726.271,1.088-1.271,2.467-1.75,2.864-.93.77-1.875,1.043-4.434,1.524-1.168.219-2.281.409-3.4.581l-.136.037c3.719,1.832,7.588,4.17,8.219,6.209a2.259,2.259,0,0,1-.108,1.975,1.621,1.621,0,0,1-1.381.622,3.18,3.18,0,0,1,.324.728,2.39,2.39,0,0,1-.095,1.943c-.716,1.061-2.328.542-3.1.291a24.659,24.659,0,0,1-3.175-1.289q.194.295.39.587a2.922,2.922,0,0,1-2.68,4.631m-.068-1.48h.032c1.2,0,1.5-.515,1.6-.692a1.572,1.572,0,0,0-.118-1.639q-1.018-1.53-2.027-3.064a.737.737,0,0,1-.032-.757.762.762,0,0,1,1.036-.282,26.549,26.549,0,0,0,5.493,2.578c1.083.349,1.379.3,1.455.258h0a3.979,3.979,0,0,0-.127-.661,4.261,4.261,0,0,0-1.443-1.78.739.739,0,0,1,.7-1.267l.423.133c1.191.358,1.523.3,1.61.253a2,2,0,0,0-.123-.642c-.431-1.391-3.968-3.753-9.234-6.171a.739.739,0,0,1,.113-1.384l2.1-.575a.665.665,0,0,1,.083-.019c1.118-.172,2.229-.362,3.395-.579,2.588-.487,3.156-.707,3.763-1.211a5.846,5.846,0,0,0,1.166-1.278c-.992-.3-5.257-.266-22.984,3.755a.8.8,0,0,1-.154.018l-10.124,2.249a5.962,5.962,0,0,0-3.944,3.986l-.034.113c-.013.045-.022.091-.032.141-.024.1-.04.192-.056.281,0,.006-.005.027-.009.046s0,.034-.006.051a5.908,5.908,0,0,0,2.049,5.129,5.063,5.063,0,0,0,1.856,1.2c.169.033.411.081.738.131.167.026.356.052.566.074l.341.04h.024a1.519,1.519,0,0,1,.168.015c.192.014.631.044,1.074.067.088,0,.141.008.2.008a47.755,47.755,0,0,0,6.469-.254l.248-.021a77.721,77.721,0,0,1,8.28-.327l.108,0,.077,0c1.242.023,2.258.069,2.9.1a.747.747,0,0,1,.464.2ZM558.2,183.932h0Zm0,0h0Zm0,0h0Z" transform="translate(-157.195 -48.523)" fill="#050e12"/>
    <path id="Trazado_818181" data-name="Trazado 818181" d="M643.676,139.938a.829.829,0,0,1-.71-1.255l2.462-4.1a.829.829,0,0,1,1.422.853l-2.463,4.1a.828.828,0,0,1-.711.4" transform="translate(-181.535 -37.89)" fill="#050e12"/>
    <path id="Trazado_818182" data-name="Trazado 818182" d="M651.685,142.549a.828.828,0,0,1-.586-1.414l3.283-3.284a.829.829,0,1,1,1.172,1.172l-3.284,3.284a.824.824,0,0,1-.586.243" transform="translate(-183.796 -38.859)" fill="#050e12"/>
  </g>
</svg>
