<svg xmlns="http://www.w3.org/2000/svg" width="293.657" height="278.998" viewBox="0 0 293.657 278.998">
  <g id="Grupo_1071754" data-name="Grupo 1071754" transform="translate(-265 -13382.953)">
    <path id="Trazado_818575" data-name="Trazado 818575" d="M346.291,51.246c-.809.033-1.618.077-2.427.137a66.179,66.179,0,0,0-21.412,5.231c-50.812,22.022-54.874,35.841-102.246,34.134-122.225-4.4-89.189,146.451-35.236,198.2s159.663,27.528,213.708,0S412.9,195.355,427.2,139.2c12.133-47.684-35.231-89.813-80.912-87.952" transform="translate(129.527 13340.664)" fill="#e6ebf0"/>
    <path id="Trazado_818576" data-name="Trazado 818576" d="M184.972,288.95c53.956,51.754,159.663,27.528,213.708,0S412.9,195.355,427.2,139.2c12.133-47.684-35.231-89.813-80.912-87.952-.809.033-1.618.077-2.427.137a66.176,66.176,0,0,0-21.411,5.231C271.641,78.636,267.58,92.455,220.208,90.748c-122.225-4.4-89.189,146.45-35.235,198.2" transform="translate(129.527 13340.664)" fill="#ffecbf"/>
    <path id="Trazado_818577" data-name="Trazado 818577" d="M344.061,57.91A4.605,4.605,0,0,0,347.585,63a61.43,61.43,0,0,0,59.076-18.239c26.467-27.937-59.271-12.791-62.6,13.153" transform="translate(8.359 13353.152)" fill="#e6ebf0"/>
    <rect id="Rectángulo_375688" data-name="Rectángulo 375688" width="252.703" height="1.919" transform="translate(284.443 13660.032)"/>
    <path id="Trazado_818586" data-name="Trazado 818586" d="M613.788,613.836l-31.972-10.515V580.536A3.538,3.538,0,0,0,578.277,577h-5.31a3.537,3.537,0,0,0-3.537,3.538V603.32l-31.975,10.516a7.05,7.05,0,0,0-4.491,8.892l39.254-12.908v6.723a2.072,2.072,0,0,0,2.072,2.072h3.121a2.071,2.071,0,0,0,2.073-2.072v-6.574l38.8,12.759a7.045,7.045,0,0,0-4.491-8.892" transform="translate(-101.763 13033.627)" fill="#fff"/>
    <path id="Trazado_818587" data-name="Trazado 818587" d="M613.391,612.975l-31.72-10.43V580.023a3.909,3.909,0,0,0-3.906-3.9h-5.31a3.906,3.906,0,0,0-3.9,3.9v22.52l-31.722,10.433a7.422,7.422,0,0,0-4.723,9.355l.114.347,39.118-12.866v6.219a2.442,2.442,0,0,0,2.439,2.438h3.12a2.442,2.442,0,0,0,2.439-2.438v-6.068L618,622.677l.112-.347a7.42,7.42,0,0,0-4.723-9.355m4.132,8.775-38.915-12.8v7.079a1.709,1.709,0,0,1-1.709,1.706h-3.12a1.709,1.709,0,0,1-1.708-1.706V608.8L532.7,621.75a6.69,6.69,0,0,1,4.361-8.08l32.225-10.6V580.022a3.175,3.175,0,0,1,3.173-3.173h5.31a3.176,3.176,0,0,1,3.172,3.174v23.05l32.225,10.6a6.686,6.686,0,0,1,4.361,8.08" transform="translate(-101.253 13034.14)"/>
    <path id="Trazado_818590" data-name="Trazado 818590" d="M626.8,664.119a6.936,6.936,0,1,0,6.935,6.934,6.936,6.936,0,0,0-6.935-6.934" transform="translate(-152.714 12982.753)"/>
    <path id="Trazado_818591" data-name="Trazado 818591" d="M628.917,667.74a5.428,5.428,0,1,0,5.43,5.427,5.428,5.428,0,0,0-5.43-5.427" transform="translate(-154.83 12980.639)" fill="#aab6c2"/>
    <path id="Trazado_818592" data-name="Trazado 818592" d="M530.466,664.119a6.936,6.936,0,1,0,6.935,6.934,6.935,6.935,0,0,0-6.935-6.934" transform="translate(-96.463 12982.753)"/>
    <path id="Trazado_818593" data-name="Trazado 818593" d="M532.58,667.74a5.428,5.428,0,1,0,5.43,5.427,5.429,5.429,0,0,0-5.43-5.427" transform="translate(-98.576 12980.639)" fill="#aab6c2"/>
    <path id="Trazado_818594" data-name="Trazado 818594" d="M569.7,352.332l-1.069,61.612a15.338,15.338,0,0,1-15.212,14.045H535.467a5.521,5.521,0,0,0,0,11.043h45.989s1.266-.393,3.3-1.034c8.3-2.641,29.5-9.547,30.919-11.765,1.758-2.761,5.95-78.972,5.95-78.972H575.638a5.523,5.523,0,0,0-5.942,5.071" transform="translate(-100.207 13167.787)" fill="#fdbf2d"/>
    <path id="Trazado_818595" data-name="Trazado 818595" d="M606.347,572.769h18.13c2.661,0,4.814-3.822,4.814-8.535H601.534c0,4.713,2.156,8.535,4.813,8.535" transform="translate(-142.01 13041.079)"/>
    <path id="Trazado_818596" data-name="Trazado 818596" d="M529.946,546.835a5.519,5.519,0,0,0,5.521,5.521H584.76V541.313H535.467a5.519,5.519,0,0,0-5.521,5.522" transform="translate(-100.207 13054.464)" fill="#fdbf2d"/>
    <path id="Trazado_818597" data-name="Trazado 818597" d="M686.177,347.261a5.521,5.521,0,0,0-5.939,5.067l-1.072,61.611a15.331,15.331,0,0,1-15.207,14.05H646.005a5.521,5.521,0,0,0,0,11.043h17.954a26.431,26.431,0,0,0,26.215-24.218l1.071-61.612a5.52,5.52,0,0,0-5.069-5.94" transform="translate(-164.755 13167.787)" fill="#263238"/>
    <path id="Trazado_818598" data-name="Trazado 818598" d="M658.509,399.015c-3,.025-6.007.079-9.011.282a80.8,80.8,0,0,0-9.013.99,81.384,81.384,0,0,0,9.013.989c3,.2,6.007.256,9.011.28,3-.02,6.009-.075,9.013-.278a80.534,80.534,0,0,0,9.013-.991,80.648,80.648,0,0,0-9.013-.994c-3-.2-6.01-.258-9.013-.278" transform="translate(-164.755 13137.556)"/>
    <path id="Trazado_818599" data-name="Trazado 818599" d="M658.509,440.677c-3,.026-6.007.079-9.011.283a81.486,81.486,0,0,0-9.013.989,81.384,81.384,0,0,0,9.013.989c3,.2,6.007.256,9.011.282,3-.022,6.009-.077,9.013-.278a80.841,80.841,0,0,0,9.013-.993,80.626,80.626,0,0,0-9.013-.994c-3-.2-6.01-.256-9.013-.278" transform="translate(-164.755 13113.228)"/>
    <path id="Trazado_818600" data-name="Trazado 818600" d="M658.509,487.95c-3,.023-6.007.078-9.011.281a81.18,81.18,0,0,0-9.013.989,81.4,81.4,0,0,0,9.013.989c3,.2,6.007.258,9.011.282,3-.022,6.009-.077,9.013-.28a80.535,80.535,0,0,0,9.013-.992,80.059,80.059,0,0,0-9.013-.992c-3-.2-6.01-.258-9.013-.278" transform="translate(-164.755 13085.624)"/>
    <path id="Trazado_818601" data-name="Trazado 818601" d="M595.187,308a3.694,3.694,0,0,0-4.153-5.96,2.848,2.848,0,0,0-.372-3.605,3.788,3.788,0,0,0-3.685-.807,5.742,5.742,0,0,0-3.051,2.395,7.771,7.771,0,0,0-5.778-5.28c-2.707-.423-5.742,1.465-6.048,4.189a4.008,4.008,0,0,0-4.681-1.807,5.039,5.039,0,0,0-3.267,4.022,6.85,6.85,0,0,0,1.438,5.11,4.09,4.09,0,0,0-5.242-.376,5.608,5.608,0,0,0-2.1,5.076,9.1,9.1,0,0,0,2.455,5.094,12.3,12.3,0,0,0,3.056,2.471,1.847,1.847,0,0,1,1.188.584,10.981,10.981,0,0,1-1.188-.584,2.262,2.262,0,0,0-1.8.575,2.929,2.929,0,0,0-.583,3.1,4.675,4.675,0,0,0,2.244,2.376c2.486,1.33,5.5.971,8.291.578a1.821,1.821,0,0,0,.405,2.368,3.472,3.472,0,0,0,2.494.669c2.322-.145,3.945-1.494,5.31-3.239a4.164,4.164,0,0,0,2.977,1.1q2.766.021,5.526-.141a7.108,7.108,0,0,0,3.758-.964,2.59,2.59,0,0,0,.887-3.42,3.622,3.622,0,0,0,2.08-6.379,3.758,3.758,0,0,0-.161-7.143" transform="translate(-116.718 13198.481)" fill="#263238"/>
    <path id="Trazado_818602" data-name="Trazado 818602" d="M613.49,471.606l-24.774,10.377,10.165,17.559,9.661-.65c13.657-1,12.807-7.4,12.807-7.4Z" transform="translate(-134.525 13095.167)" fill="#fff"/>
    <path id="Trazado_818603" data-name="Trazado 818603" d="M561.077,495.178c-7.845.419-25.877,7.546-25.476,11.1a10.45,10.45,0,0,0,6.23,8.09c2.957,1.223,6.02.956,8.985.676,8.34-.791,12.128-1.2,20.471-1.994,6.223-5.653.648-17.867-10.209-17.867" transform="translate(-103.505 13081.403)" fill="#fbb7a3"/>
    <path id="Trazado_818604" data-name="Trazado 818604" d="M595.841,495.178c-.229.011-.468.03-.713.054a18.334,18.334,0,0,1,8.34,4.945c3,3.693,2.91,8.506,1.269,12.993l1.313-.125c6.223-5.653.648-17.867-10.209-17.867" transform="translate(-138.269 13081.403)"/>
    <path id="Trazado_818605" data-name="Trazado 818605" d="M550.7,512.9l-1.462-2.864-13.1,6.1,15.187,45.133a4.531,4.531,0,0,0,5.276,3.666c3.087-.565,4.046-3.238,4.08-6.375l-2.665-29.9c-.26-6.293-4.452-10.151-7.315-15.761" transform="translate(-103.82 13072.729)" fill="#fff"/>
    <path id="Trazado_818606" data-name="Trazado 818606" d="M553.427,517.32a54.267,54.267,0,0,1-2.871-4.807l-1.534-3.007-13.382,6.229.049.141,15.187,45.133a4.7,4.7,0,0,0,4.607,3.854,4.774,4.774,0,0,0,.853-.078c2.756-.5,4.177-2.7,4.218-6.536l-2.665-29.912c-.182-4.387-2.262-7.607-4.462-11.016m2.85,47.137a4.366,4.366,0,0,1-5.081-3.53l-15.145-45.016,12.82-5.968,1.389,2.721a54.342,54.342,0,0,0,2.887,4.837c2.176,3.369,4.233,6.552,4.41,10.856l2.666,29.9c-.039,3.634-1.368,5.723-3.945,6.2" transform="translate(-103.532 13073.036)"/>
    <path id="Trazado_818607" data-name="Trazado 818607" d="M561.077,495.178c-7.845.419-25.877,7.546-25.476,11.1a10.45,10.45,0,0,0,6.23,8.09c2.957,1.223,6.02.956,8.985.676,8.34-.791,12.128-1.2,20.471-1.994,6.223-5.653.648-17.867-10.209-17.867" transform="translate(-103.505 13081.403)" fill="#263238"/>
    <path id="Trazado_818608" data-name="Trazado 818608" d="M550.7,512.9l-1.462-2.864-13.1,6.1,13.647,40.559c3.583.517,7.388,1.43,10.846,1.318l-2.616-29.35c-.26-6.293-4.452-10.151-7.315-15.761" transform="translate(-103.82 13072.729)" fill="#263238"/>
    <path id="Trazado_818609" data-name="Trazado 818609" d="M558.577,633.651c-1.786.594-3.882-.809-4.439-2.609a3.9,3.9,0,0,0-.71-1.77.918.918,0,0,0-.988-.249c-.419.174-.5.62-.554,1.019q-.2,1.434-.4,2.869a65.976,65.976,0,0,1-8.724,5.8,22.537,22.537,0,0,0-2.148,1.238,4.1,4.1,0,0,0-.934,6,3.817,3.817,0,0,0,.408.417c1.573,1.382,1.826,2.187,6.428,2.108,2.1-.037,6.319-2.476,8.571-3.784s4.47-.61,7.06-.885c3.336-.353,4.592-1.259,5.061-2.952-1.214-5.778-2.1-7.383-4.99-11.307-.474-.012.437,2.746-3.644,4.1" transform="translate(-105.356 13003.28)" fill="#263238"/>
    <path id="Trazado_818610" data-name="Trazado 818610" d="M558.05,636.53a.2.2,0,0,0-.037.277,3.946,3.946,0,0,1-.32,4.573,12.056,12.056,0,0,1-4.033,3.037,10.182,10.182,0,0,1-3.872,1.483,3.289,3.289,0,0,1-3.357-1.681.2.2,0,0,0-.26-.1.2.2,0,0,0-.1.259,3.6,3.6,0,0,0,3.394,1.935c.122,0,.242-.005.361-.014a10.5,10.5,0,0,0,4.028-1.532,12.355,12.355,0,0,0,4.161-3.148c1.02-1.378,1.456-3.556.317-5.049a.2.2,0,0,0-.278-.036" transform="translate(-109.611 12998.887)" fill="#e8f0fc"/>
    <path id="Trazado_818611" data-name="Trazado 818611" d="M568.036,651.414c-.7,1.61-2.6,2.252-3.658,2.492-.609.138-1.246.228-1.859.314a15.557,15.557,0,0,0-2.85.588,15.4,15.4,0,0,0-3.982,2.339,21.029,21.029,0,0,1-2.824,1.841,10.266,10.266,0,0,1-9.184-.038.2.2,0,0,0-.268.086.2.2,0,0,0,.086.267,10.668,10.668,0,0,0,9.543.038,21.282,21.282,0,0,0,2.881-1.875,11.175,11.175,0,0,1,6.652-2.854c.624-.087,1.267-.179,1.893-.32,1.136-.256,3.157-.949,3.932-2.719a.2.2,0,1,0-.362-.159" transform="translate(-108.057 12990.242)" fill="#e8f0fc"/>
    <path id="Trazado_818612" data-name="Trazado 818612" d="M623.028,467.02c-7.884.806-15.655,2.066-23.461,3.433-.255,2.408-8.566,7.866-10.869,8.612,15.358,2.559,13.111,10.55,19.982,13.655s14.633,3.743,22.171,3.955c4.873.137,9.109-4.291,9.736-9.128s-1.763-9.7-5.284-13.074-7.424-7.949-12.274-7.454" transform="translate(-134.514 13097.867)" fill="#263238"/>
    <path id="Trazado_818613" data-name="Trazado 818613" d="M524.341,401c-2.64,1.97-3.734,5.641-2.052,8.286,1.461,2.3,5.3,4.117,7.559,4.2,6.9.256,24.418-12.91,24.418-12.91l-10.227-13.962s-18.965,13.837-19.7,14.385" transform="translate(-95.267 13144.797)" fill="#949af8"/>
    <path id="Trazado_818614" data-name="Trazado 818614" d="M649.9,490.284l-20.783,4.911,10.165,17.559,9.66-.65c13.657-1,12.807-7.4,12.807-7.4Z" transform="translate(-158.119 13084.261)" fill="#263238"/>
    <path id="Trazado_818615" data-name="Trazado 818615" d="M610,500.716c-7.846.42-19.805,7.547-19.4,11.1a10.45,10.45,0,0,0,6.231,8.09c2.957,1.222,6.02.956,8.982.675,8.342-.792,6.059-1.2,14.4-1.995,6.223-5.653.648-17.867-10.209-17.867" transform="translate(-135.616 13078.169)" fill="#fbb7a3"/>
    <path id="Trazado_818616" data-name="Trazado 818616" d="M637.31,500.718c4.215,1.276,8.49,3.853,9.884,8.034,1.341,3.644.548,6.9-1.053,9.967.419-.045.866-.089,1.352-.135,6.217-5.648.655-17.846-10.183-17.866" transform="translate(-162.9 13078.168)"/>
    <path id="Trazado_818617" data-name="Trazado 818617" d="M605.694,518.433l-1.462-2.865-13.1,6.1,12.908,44.753a4.531,4.531,0,0,0,5.277,3.664c3.087-.565,4.046-3.237,4.08-6.374l-1.415-28.341c-.26-6.293-3.428-11.326-6.291-16.938" transform="translate(-135.937 13069.497)" fill="#fff"/>
    <path id="Trazado_818618" data-name="Trazado 818618" d="M606.818,520.463c-.418-.8-.84-1.6-1.256-2.412l-1.534-3.007-13.374,6.226.039.138L603.6,566.161a4.7,4.7,0,0,0,4.61,3.859,4.771,4.771,0,0,0,.853-.078c2.756-.5,4.176-2.7,4.218-6.536l-1.415-28.35c-.223-5.415-2.569-9.874-5.053-14.594m2.19,49.152a4.365,4.365,0,0,1-5.081-3.529l-12.875-44.634,12.825-5.971,1.388,2.721c.416.817.84,1.619,1.259,2.416,2.465,4.686,4.793,9.112,5.014,14.455l1.415,28.341c-.039,3.641-1.368,5.731-3.945,6.2" transform="translate(-135.657 13069.803)"/>
    <path id="Trazado_818619" data-name="Trazado 818619" d="M610.989,499.274c-7.846.419-20.793,8.146-20.393,11.7a10.451,10.451,0,0,0,6.231,8.09c2.957,1.222,6.02.956,8.982.675,8.342-.792,6.059-1.2,14.4-1.995,8.712-5.346,1.636-18.467-9.221-18.467" transform="translate(-135.617 13079.011)" fill="#263238"/>
    <path id="Trazado_818620" data-name="Trazado 818620" d="M605.694,518.433l-1.462-2.865-13.1,6.1,11.325,39.26a16.677,16.677,0,0,0,10.872,1.462l-1.347-27.019c-.26-6.293-3.428-11.326-6.291-16.938" transform="translate(-135.937 13069.497)" fill="#263238"/>
    <path id="Trazado_818621" data-name="Trazado 818621" d="M608.1,638.278c-1.787.6-3.882-.807-4.439-2.607a3.916,3.916,0,0,0-.71-1.771.92.92,0,0,0-.988-.248c-.416.173-.5.619-.554,1.018q-.2,1.436-.4,2.869a66.038,66.038,0,0,1-8.725,5.8,22.165,22.165,0,0,0-2.148,1.238,4.1,4.1,0,0,0-.934,6,3.935,3.935,0,0,0,.408.417c1.574,1.382,1.826,2.187,6.428,2.106,2.1-.035,6.322-2.475,8.571-3.782s4.47-.61,7.06-.884c3.336-.354,4.592-1.261,5.06-2.953-1.212-5.778-2.1-7.384-4.99-11.306-.473-.012.437,2.746-3.643,4.1" transform="translate(-134.275 13000.578)" fill="#263238"/>
    <path id="Trazado_818622" data-name="Trazado 818622" d="M607.575,641.155a.2.2,0,0,0-.037.277,3.949,3.949,0,0,1-.32,4.574,12.05,12.05,0,0,1-4.034,3.037,10.184,10.184,0,0,1-3.871,1.483,3.3,3.3,0,0,1-3.358-1.683.2.2,0,0,0-.26-.1.2.2,0,0,0-.1.26,3.6,3.6,0,0,0,3.394,1.935c.122,0,.244-.005.362-.014a10.48,10.48,0,0,0,4.028-1.532,12.346,12.346,0,0,0,4.161-3.148c1.022-1.38,1.456-3.556.318-5.05a.2.2,0,0,0-.278-.037" transform="translate(-138.53 12996.186)" fill="#e8f0fc"/>
    <path id="Trazado_818623" data-name="Trazado 818623" d="M617.562,656.04c-.7,1.61-2.593,2.253-3.656,2.494-.612.138-1.246.228-1.862.313a15.546,15.546,0,0,0-2.85.588,15.352,15.352,0,0,0-3.981,2.339,20.8,20.8,0,0,1-2.824,1.841,10.263,10.263,0,0,1-9.185-.037.2.2,0,0,0-.265.086.2.2,0,0,0,.084.267,10.67,10.67,0,0,0,9.543.038,21.3,21.3,0,0,0,2.881-1.875,11.2,11.2,0,0,1,6.652-2.854c.624-.087,1.266-.178,1.893-.32,1.136-.256,3.16-.95,3.932-2.72a.2.2,0,1,0-.361-.159" transform="translate(-136.977 12987.539)" fill="#e8f0fc"/>
    <path id="Trazado_818624" data-name="Trazado 818624" d="M662.086,472.515h0a37.042,37.042,0,0,0-14.643,3.231.2.2,0,0,0,.08.377.191.191,0,0,0,.08-.017,36.665,36.665,0,0,1,14.487-3.195.2.2,0,0,0,0-.4" transform="translate(-168.749 13094.637)" fill="#e8f0fc"/>
    <path id="Trazado_818625" data-name="Trazado 818625" d="M612.364,395.26c-.356-2.075-.682-4.318-1.1-6.893-.354-2.17-.663-4.453-2.538-6.261a13.35,13.35,0,0,0-4.015-2.424c-.512-.22-1.035-.426-1.557-.622a45.758,45.758,0,0,0-10.379-2.77,68.81,68.81,0,0,0-11.283-.338c-.861.026-1.683.091-2.468.19a23.469,23.469,0,0,0-11.507,4.954c-4.34,3.195-4.928,7.877-1.472,11.5,8.516,8.93,10.839,14.914,18.328,25.73,6.025.683,9.055,2.323,16.843,2.323,4.228,0,7.859-1.162,10.217,1.352,3.986,4.252,8.677-3.346,13.525,5.69.359-2.048-5.146-13.618-6.314-15.531a42.247,42.247,0,0,1-6.278-16.9" transform="translate(-119.978 13151.063)" fill="#949af8"/>
    <path id="Trazado_818626" data-name="Trazado 818626" d="M581.874,403.393a.2.2,0,0,0-.39-.072,17.106,17.106,0,0,0,7.089,16.908.208.208,0,0,0,.112.034.2.2,0,0,0,.164-.087.2.2,0,0,0-.055-.275,16.692,16.692,0,0,1-6.92-16.507" transform="translate(-130.148 13135.136)"/>
    <path id="Trazado_818627" data-name="Trazado 818627" d="M612.186,366.9c-1.38-.184-2.79-.295-4.293-.354l-1.14-5.21-.34-1.537-7.939,1.221.071,2.2.114,3.511c-.073.009-.154.009-.226.018-1.066.554-1.7,1.24-1.7,1.986,0,1.826,3.778,3.305,8.441,3.305s8.442-1.48,8.442-3.305c0-.682-.528-1.316-1.43-1.839" transform="translate(-139.207 13160.456)" fill="#fff"/>
    <path id="Trazado_818628" data-name="Trazado 818628" d="M612.036,366.491l-.062-.022c-1.284-.172-2.655-.286-4.179-.349l-1.485-6.774-8.241,1.266.184,5.7a.63.63,0,0,0-.075.006l-.054.017c-1.171.608-1.789,1.347-1.789,2.136,0,1.947,3.781,3.47,8.607,3.47s8.608-1.524,8.608-3.47c0-.724-.523-1.411-1.513-1.984m1.18,1.984c0,1.7-3.788,3.138-8.275,3.138s-8.274-1.435-8.274-3.138c0-.82.853-1.443,1.581-1.827l.078,0c.039,0,.078,0,.117-.008l.153-.018-.184-5.719,7.64-1.175,1.472,6.721.127.005c1.555.061,2.944.174,4.247.347.608.357,1.318.935,1.318,1.68" transform="translate(-138.974 13160.72)"/>
    <path id="Trazado_818629" data-name="Trazado 818629" d="M585.617,336.72a2.413,2.413,0,0,0-1.865,2.792c.1,1.462,2.039,3.387,3.173,3.306s1.038-2.138.934-3.6a2.413,2.413,0,0,0-2.242-2.5" transform="translate(-131.622 13173.935)" fill="#fff"/>
    <path id="Trazado_818630" data-name="Trazado 818630" d="M585.37,336.32a2.578,2.578,0,0,0-2.018,2.971c.107,1.481,2,3.463,3.266,3.463.029,0,.057,0,.084,0,.585-.041.952-.52,1.084-1.423a11.263,11.263,0,0,0,.005-2.354c-.112-1.55-1.212-2.746-2.421-2.654m2.088,4.959c-.164,1.1-.627,1.129-.78,1.14-1.012.063-2.892-1.74-2.993-3.152a2.253,2.253,0,0,1,1.708-2.615l.1,0A2.3,2.3,0,0,1,587.459,339a11.3,11.3,0,0,1,0,2.281" transform="translate(-131.388 13174.169)"/>
    <path id="Trazado_818631" data-name="Trazado 818631" d="M586.149,338.507a.226.226,0,0,0-.242.192.22.22,0,0,0,.193.241,1.579,1.579,0,0,1,1.258.923,2.058,2.058,0,0,0-1.074.1.218.218,0,0,0-.145.27.214.214,0,0,0,.27.146,1.377,1.377,0,0,1,.975-.04c.229.124.317.425.421.773a3.839,3.839,0,0,0,.218.607.22.22,0,0,0,.2.121.208.208,0,0,0,.072-.012.218.218,0,0,0,.138-.255c-.6-2.536-1.49-2.972-2.283-3.063" transform="translate(-132.884 13172.889)"/>
    <path id="Trazado_818632" data-name="Trazado 818632" d="M595.8,317.517a7.271,7.271,0,1,0,7.76,7.255,7.52,7.52,0,0,0-7.76-7.255" transform="translate(-134.13 13185.146)"/>
    <path id="Trazado_818633" data-name="Trazado 818633" d="M600.915,361.019l.071,2.2a6.028,6.028,0,0,0,3.006.811,5.788,5.788,0,0,0,1.708-.255,7.266,7.266,0,0,0,3.495-2.443l-.34-1.538Z" transform="translate(-141.648 13160.456)"/>
    <path id="Trazado_818634" data-name="Trazado 818634" d="M595.942,321.712c-4.135,0-7.489,4.321-7.489,9.655a11.889,11.889,0,0,0,.387,3.053c.988,3.833,3.794,6.6,7.1,6.6a5.765,5.765,0,0,0,1.709-.255c3.315-.989,5.783-4.823,5.783-9.4,0-5.334-3.349-9.655-7.492-9.655" transform="translate(-134.371 13182.695)" fill="#fff"/>
    <path id="Trazado_818635" data-name="Trazado 818635" d="M595.708,321.312c-4.221,0-7.656,4.407-7.656,9.821a12.043,12.043,0,0,0,.393,3.1c1.037,4.022,3.958,6.724,7.263,6.724a5.875,5.875,0,0,0,1.758-.264c3.475-1.036,5.9-4.966,5.9-9.557,0-5.415-3.435-9.821-7.658-9.821m1.662,19.061a5.6,5.6,0,0,1-1.662.248c-3.152,0-5.942-2.6-6.941-6.476a11.635,11.635,0,0,1-.382-3.012c0-5.231,3.285-9.488,7.323-9.488s7.325,4.257,7.325,9.488c0,4.446-2.33,8.245-5.664,9.24" transform="translate(-134.137 13182.93)"/>
    <path id="Trazado_818636" data-name="Trazado 818636" d="M624.287,336.72a2.413,2.413,0,0,0-2.242,2.5c-.1,1.461-.2,3.518.934,3.6s3.068-1.845,3.172-3.306a2.413,2.413,0,0,0-1.865-2.792" transform="translate(-153.953 13173.935)" fill="#fff"/>
    <path id="Trazado_818637" data-name="Trazado 818637" d="M624.068,336.319c-1.225-.106-2.309,1.1-2.422,2.654a11.667,11.667,0,0,0,.006,2.353c.133.9.5,1.382,1.084,1.423a.736.736,0,0,0,.081,0,3.207,3.207,0,0,0,2.023-1.127,4.073,4.073,0,0,0,1.245-2.336,2.578,2.578,0,0,0-2.018-2.97m.533,5.073a2.884,2.884,0,0,1-1.841,1.025c-.154-.011-.616-.045-.778-1.14a11.137,11.137,0,0,1,0-2.281,2.3,2.3,0,0,1,1.961-2.349c.034,0,.068,0,.1,0a2.253,2.253,0,0,1,1.709,2.615,3.8,3.8,0,0,1-1.152,2.126" transform="translate(-153.72 13174.17)"/>
    <path id="Trazado_818638" data-name="Trazado 818638" d="M626.059,338.507c-.791.091-1.683.526-2.283,3.063a.217.217,0,0,0,.138.255.227.227,0,0,0,.075.012.219.219,0,0,0,.2-.121,3.9,3.9,0,0,0,.218-.607c.1-.349.195-.65.424-.774a1.369,1.369,0,0,1,.972.04.215.215,0,0,0,.27-.146.218.218,0,0,0-.146-.27,2.056,2.056,0,0,0-1.073-.1,1.583,1.583,0,0,1,1.258-.923.218.218,0,1,0-.049-.433" transform="translate(-154.994 13172.889)"/>
    <path id="Trazado_818639" data-name="Trazado 818639" d="M604.511,345.174a2.223,2.223,0,0,1-1.087.306.448.448,0,0,1-.24-.043c-.1-.074-.1-.3-.085-.463l.2-2.64a.218.218,0,0,0-.2-.234.229.229,0,0,0-.234.2l-.2,2.639a.911.911,0,0,0,.27.853.8.8,0,0,0,.471.122h.023a2.656,2.656,0,0,0,1.3-.367.216.216,0,0,0,.076-.3.213.213,0,0,0-.3-.076" transform="translate(-142.665 13170.79)"/>
    <path id="Trazado_818640" data-name="Trazado 818640" d="M603.508,354.85a4.657,4.657,0,0,1-4.634.594.217.217,0,1,0-.174.4,4.88,4.88,0,0,0,1.958.4,5.085,5.085,0,0,0,3.12-1.05.218.218,0,0,0-.271-.343" transform="translate(-140.279 13163.372)"/>
    <path id="Trazado_818641" data-name="Trazado 818641" d="M603.814,358.862a2.009,2.009,0,0,1-2.273.034.217.217,0,0,0-.249.356,2.429,2.429,0,0,0,2.785-.042.218.218,0,1,0-.263-.348" transform="translate(-141.814 13161.028)"/>
    <path id="Trazado_818642" data-name="Trazado 818642" d="M596.009,339.368c-.283,0-.512.379-.512.847s.228.847.512.847.513-.379.513-.847-.229-.847-.513-.847" transform="translate(-138.485 13172.386)"/>
    <path id="Trazado_818643" data-name="Trazado 818643" d="M611.94,339.368c-.283,0-.513.379-.513.847s.229.847.513.847.51-.379.51-.847-.229-.847-.51-.847" transform="translate(-147.787 13172.386)"/>
    <path id="Trazado_818644" data-name="Trazado 818644" d="M610.656,335.621a3.386,3.386,0,0,0-1.831,0,.156.156,0,0,0-.117.168c.011.1.024.2.037.3a.152.152,0,0,0,.216.122,2.409,2.409,0,0,1,1.5-.171,2.382,2.382,0,0,1,.859.372.155.155,0,0,0,.205-.23,1.949,1.949,0,0,0-.866-.558" transform="translate(-146.198 13174.647)"/>
    <path id="Trazado_818645" data-name="Trazado 818645" d="M595.975,335.622a3.373,3.373,0,0,0-1.828,0,1.967,1.967,0,0,0-.868.558.156.156,0,0,0,.208.229,2.373,2.373,0,0,1,.855-.371,2.423,2.423,0,0,1,1.5.171.153.153,0,0,0,.216-.122c.01-.1.024-.2.034-.3a.153.153,0,0,0-.117-.168" transform="translate(-137.166 13174.647)"/>
    <path id="Trazado_818646" data-name="Trazado 818646" d="M588.509,330.968a27.7,27.7,0,0,0,.2,4.1s1.5-1.146,1.5-4.1,1.053-5.682.582-5.682-2.286,2.73-2.286,5.682" transform="translate(-134.404 13180.608)"/>
    <path id="Trazado_818647" data-name="Trazado 818647" d="M618.745,325.286c-.471,0,.582,2.73.582,5.682s1.5,4.1,1.5,4.1a27.708,27.708,0,0,0,.2-4.1c0-2.952-1.815-5.682-2.286-5.682" transform="translate(-151.989 13180.608)"/>
    <path id="Trazado_818648" data-name="Trazado 818648" d="M592.12,322.55c-1.118,1.153-1.68,2.531-1.251,3.078s1.685.057,2.806-1.1,1.68-2.53,1.251-3.078-1.685-.057-2.806,1.095" transform="translate(-135.698 13182.977)"/>
    <path id="Trazado_818649" data-name="Trazado 818649" d="M611.369,320.855c-.429.547.13,1.926,1.251,3.078s2.377,1.642,2.806,1.095-.13-1.926-1.251-3.077-2.377-1.643-2.806-1.1" transform="translate(-147.668 13183.327)"/>
    <path id="Trazado_818650" data-name="Trazado 818650" d="M602.236,321.235c-1.6-.047-2.848.475-2.774,1.167s1.432,1.291,3.04,1.339,2.85-.476,2.777-1.168-1.435-1.291-3.043-1.338" transform="translate(-140.798 13182.977)"/>
    <path id="Trazado_818651" data-name="Trazado 818651" d="M570.726,430.086l-2.067-.346c.445-.64.429-1.26-.543-1.7-.424-.193-2.871-.479-3.5-.677a21.1,21.1,0,0,0-3.82-.921l-.034-.012c-.533-.159-3.976-1.191-8.238-2.462-7.427-2.218-17.337-5.156-18.591-5.425a12.225,12.225,0,0,0-1.877-.251,8.232,8.232,0,0,0-7.744,4.2c-1.2,2.444-1.194,5.217,3.4,8.2a11.86,11.86,0,0,0,3.357,1.1l26.907.179H558a5.837,5.837,0,0,0,2.533,1.251,9.5,9.5,0,0,0,3.674-.625,7.412,7.412,0,0,0,1.183-.483,16.341,16.341,0,0,0,1.914.407c.388.06,2.944.528,3.128.152a.961.961,0,0,0-.333-1.035,1.3,1.3,0,0,0-.369-.185c.9.134,2.184.285,2.315.021a.961.961,0,0,0-.336-1.034,2.061,2.061,0,0,0-.986-.347" transform="translate(-96.527 13126.308)" fill="#fff"/>
    <path id="Trazado_818652" data-name="Trazado 818652" d="M570.525,429.688l-1.823-.3a1.158,1.158,0,0,0,.143-.87,1.438,1.438,0,0,0-.89-.86,11.969,11.969,0,0,0-1.841-.37c-.682-.111-1.389-.225-1.67-.315a20.829,20.829,0,0,0-3.854-.927l-.047-.018c-.65-.194-4.033-1.208-8.194-2.45-5.125-1.531-17.194-5.125-18.6-5.428a12.456,12.456,0,0,0-1.9-.255q-.253-.011-.493-.012a8.433,8.433,0,0,0-7.4,4.3l-.005.012c-1.566,3.192-.466,5.864,3.46,8.408a11.85,11.85,0,0,0,3.446,1.123l26.865.178a5.968,5.968,0,0,0,2.571,1.251,3.823,3.823,0,0,0,.572.042,8.891,8.891,0,0,0,2.411-.461c.253-.072.5-.145.757-.209a7.329,7.329,0,0,0,1.157-.467,16.555,16.555,0,0,0,1.862.392l.164.027c2.431.407,3.016.307,3.152.036a1.093,1.093,0,0,0-.185-1.035c1.407.165,1.7.024,1.8-.164a1.138,1.138,0,0,0-.382-1.239,2.218,2.218,0,0,0-1.063-.381m1.139,1.487c-.018,0-.3.148-2.133-.127l-1.573-.236,1.49.558a1.19,1.19,0,0,1,.322.159.8.8,0,0,1,.281.845c-.044.026-.419.165-2.79-.232l-.156-.026a15.857,15.857,0,0,1-1.893-.4l-.062-.017-.057.027a7.406,7.406,0,0,1-1.152.472c-.255.065-.51.139-.767.212a6.874,6.874,0,0,1-2.84.409,5.679,5.679,0,0,1-2.452-1.215l-.046-.04h-.061l-26.922-.178a11.84,11.84,0,0,1-3.287-1.079c-4.915-3.185-4.257-6.072-3.329-7.966a8.107,8.107,0,0,1,7.115-4.128c.156,0,.312,0,.473.012a12.1,12.1,0,0,1,1.851.247c1.4.3,13.457,3.891,18.578,5.422,4.164,1.242,7.547,2.256,8.2,2.45l.1.03a20.6,20.6,0,0,1,3.792.914,16.894,16.894,0,0,0,1.719.327,13.386,13.386,0,0,1,1.755.344,1.149,1.149,0,0,1,.708.646.994.994,0,0,1-.232.81l-.148.216,2.325.389a1.916,1.916,0,0,1,.91.313.8.8,0,0,1,.284.845" transform="translate(-96.301 13126.541)"/>
    <path id="Trazado_818653" data-name="Trazado 818653" d="M539.016,415.164a.2.2,0,1,0,.112.378,7.321,7.321,0,0,1,6.893,1.437.191.191,0,0,0,.125.046.2.2,0,0,0,.153-.072.2.2,0,0,0-.026-.278,7.7,7.7,0,0,0-7.257-1.511" transform="translate(-105.42 13128.321)" fill="#fff"/>
    <path id="Trazado_818654" data-name="Trazado 818654" d="M647.019,456.673a15.177,15.177,0,0,0-5.113,1.321c-.621.249-1.235.507-1.851.766a47.292,47.292,0,0,1-5.4,2.013,13.9,13.9,0,0,1-7.575.278.2.2,0,0,0-.109.38,11.487,11.487,0,0,0,3.152.417,17.164,17.164,0,0,0,4.642-.7,47.945,47.945,0,0,0,5.44-2.027c.616-.259,1.23-.516,1.846-.765a14.833,14.833,0,0,1,4.979-1.292,5.7,5.7,0,0,1,4.556,1.78.2.2,0,0,0,.3-.253,6.1,6.1,0,0,0-4.87-1.922" transform="translate(-156.781 13103.889)" fill="#e8f0fc"/>
    <path id="Trazado_818655" data-name="Trazado 818655" d="M657.979,436.655a.2.2,0,0,0-.258.111,9.626,9.626,0,0,1-10.742,5.887.2.2,0,0,0-.232.157.2.2,0,0,0,.156.23,9.764,9.764,0,0,0,1.836.172,10.193,10.193,0,0,0,4.858-1.226,10.042,10.042,0,0,0,4.491-5.075.2.2,0,0,0-.109-.256" transform="translate(-168.409 13115.585)"/>
    <path id="Trazado_818656" data-name="Trazado 818656" d="M595.09,419.058a14.742,14.742,0,0,0-1.529-.3c-2.219-.313-26.915,2.454-26.915,2.454h-.005c.083-1.188.089-2.47.05-3.787-.026-.922.372-2.088.12-2.693-.635-1.525-2.19,2.173-3.084,3.689s-8.514.824-8.735,2.536a1.952,1.952,0,0,0,.073.754,1.622,1.622,0,0,0-.307.117,1.362,1.362,0,0,0-.743,1.339c.042.149.325.263.728.35a1.337,1.337,0,0,0-.661,1.278c.044.154.346.269.767.357a1.318,1.318,0,0,0-.6,1.236c.036.135.278.242.624.325a1.214,1.214,0,0,0-.307.962c.156.571,3.817.62,4.366.641a17.432,17.432,0,0,0,4.233-.272.041.041,0,0,0,.013,0,.011.011,0,0,1,.015,0c2.073.434,15.306,3.13,25.947,3.586a51.218,51.218,0,0,0,6.852-.1H596c6.182-.719,7.2-4.413,5.944-8.136Z" transform="translate(-114.253 13128.587)" fill="#fff"/>
    <path id="Trazado_818657" data-name="Trazado 818657" d="M601.511,422.976c.479,1.429.869,3.725-.2,5.418-.952,1.5-2.822,2.42-5.562,2.739a50.384,50.384,0,0,1-6.831.1c-10.743-.46-24.225-3.228-25.887-3.575l-.1-.072-.065.073a16,16,0,0,1-4.142.26l-.245-.008c-3.534-.1-3.942-.42-3.983-.515a1.068,1.068,0,0,1,.278-.81l.166-.206-.258-.063c-.452-.108-.5-.206-.5-.208a1.154,1.154,0,0,1,.533-1.053l.315-.223-.377-.078c-.577-.118-.64-.236-.64-.238a1.18,1.18,0,0,1,.588-1.093l.351-.218-.4-.086c-.548-.118-.606-.233-.606-.234a1.2,1.2,0,0,1,.66-1.144,1.5,1.5,0,0,1,.278-.107l.156-.045-.042-.157a1.775,1.775,0,0,1-.07-.691c.1-.762,2.291-1.005,4.223-1.221,2.067-.23,4.018-.447,4.494-1.251.187-.321.406-.737.637-1.178.585-1.119,1.469-2.811,1.924-2.79.091,0,.174.143.221.258a3.183,3.183,0,0,1-.023,1.417,7.562,7.562,0,0,0-.107,1.217c.044,1.462.026,2.7-.049,3.771l-.013.2.2-.026c.249-.029,24.7-2.761,26.872-2.455a14.538,14.538,0,0,1,1.516.293l.078-.324a15.732,15.732,0,0,0-1.547-.3c-2.133-.3-24.275,2.155-26.761,2.433.065-1.04.075-2.222.036-3.6a7.717,7.717,0,0,1,.1-1.161,3.356,3.356,0,0,0,0-1.591c-.124-.3-.3-.449-.518-.464-.616-.027-1.313,1.213-2.233,2.969-.226.437-.445.85-.63,1.164-.39.661-2.434.888-4.241,1.09-2.255.251-4.385.488-4.517,1.509a1.9,1.9,0,0,0,.042.664,1.549,1.549,0,0,0-1.019,1.6c.049.173.216.3.53.4a1.424,1.424,0,0,0-.46,1.23c.049.183.226.311.579.415a1.407,1.407,0,0,0-.411,1.178c.044.171.206.294.515.392a1.274,1.274,0,0,0-.2.894c.049.186.239.362.959.5a22.411,22.411,0,0,0,3.339.269l.226.007a16.452,16.452,0,0,0,4.241-.267l.07.008c1.844.389,15.215,3.115,25.9,3.574a50.84,50.84,0,0,0,6.875-.1c2.856-.333,4.808-1.305,5.814-2.893a6.271,6.271,0,0,0,.278-5.465Z" transform="translate(-114.017 13128.821)"/>
    <path id="Trazado_818658" data-name="Trazado 818658" d="M654.173,386.515c-1.966-.753-6.569,4.678-7.926,5.673.666,6.99,1.693,17.778,1.758,18.393.351,3.274-.77,6.836,6.08,5.99,2.7-.334,6.246-2.461,7.468-4.357,2.151-3.334.4-23.038-7.38-25.7" transform="translate(-168.119 13144.897)" fill="#949af8"/>
    <path id="Trazado_818659" data-name="Trazado 818659" d="M431.134,266.3H412.169a4.931,4.931,0,0,1-4.925-4.925V238.838h-.666v22.536a5.6,5.6,0,0,0,5.591,5.591h18.965a4.932,4.932,0,0,1,4.928,4.926v22.951h.666V271.891a5.6,5.6,0,0,0-5.594-5.592" transform="translate(-28.168 13231.089)"/>
    <path id="Trazado_818660" data-name="Trazado 818660" d="M511.3,89.218V122.9a4.932,4.932,0,0,1-4.925,4.925H489.034v.666h17.342a5.6,5.6,0,0,0,5.591-5.591V89.218a4.931,4.931,0,0,1,4.925-4.926h17.657v-.666H516.892a5.6,5.6,0,0,0-5.59,5.592" transform="translate(-76.317 13321.722)"/>
    <path id="Trazado_818661" data-name="Trazado 818661" d="M156.253,270.818v45.606h.97V270.818a7.184,7.184,0,0,1,7.175-7.175h33.654v-.969H164.4a8.154,8.154,0,0,0-8.145,8.145" transform="translate(118.005 13217.171)"/>
    <path id="Trazado_818662" data-name="Trazado 818662" d="M549.238,437.72l23.926.117L543.728,435.2Z" transform="translate(-108.255 13116.428)"/>
    <path id="Trazado_818663" data-name="Trazado 818663" d="M556.943,441.262l-.021,4.207,24.064-.532-.117-3.559Z" transform="translate(-115.959 13112.886)" fill="#aab6c2"/>
    <path id="Trazado_818664" data-name="Trazado 818664" d="M433.247,444.145l51.457.742.021-4.207-51.478-.415Z" transform="translate(-43.741 13113.469)"/>
    <path id="Trazado_818665" data-name="Trazado 818665" d="M482.476,357.757l-47.335-.382a2.073,2.073,0,0,0-1.061.316l-2.671,1.385,1.329,1.936.32-.131,1.719,29.612,48.875,1.785,2.681-.481-1.96-32.369a1.908,1.908,0,0,0-1.9-1.671" transform="translate(-42.668 13161.871)"/>
    <path id="Trazado_818666" data-name="Trazado 818666" d="M478.416,361.054l-47.336-.38a2.163,2.163,0,0,0-2.145,2.408l1.784,30.707,51.478.415-1.885-31.479a1.91,1.91,0,0,0-1.9-1.671" transform="translate(-41.213 13159.944)" fill="#aab6c2"/>
    <path id="Trazado_818667" data-name="Trazado 818667" d="M230.675,391.991H137.411a2.894,2.894,0,0,0-2.889,2.894v57.289a2.22,2.22,0,0,0,2.216,2.219h94.611a2.223,2.223,0,0,0,2.221-2.219V394.881a2.9,2.9,0,0,0-2.895-2.89" transform="translate(130.694 13141.657)" fill="#fff"/>
    <path id="Trazado_818668" data-name="Trazado 818668" d="M230.375,391.481H137.111a3.105,3.105,0,0,0-3.1,3.106v57.289a2.431,2.431,0,0,0,2.429,2.433h94.611a2.436,2.436,0,0,0,2.434-2.433V394.583a3.105,3.105,0,0,0-3.108-3.1m2.681,60.4a2.01,2.01,0,0,1-2.008,2.008H136.438a2.009,2.009,0,0,1-2-2.008V394.587a2.683,2.683,0,0,1,2.678-2.682h93.264a2.682,2.682,0,0,1,2.681,2.677Z" transform="translate(130.994 13141.955)"/>
    <path id="Trazado_818669" data-name="Trazado 818669" d="M230.372,391.477H137.108A3.107,3.107,0,0,0,134,394.583v7.589h99.474v-7.591a3.1,3.1,0,0,0-3.105-3.105" transform="translate(130.997 13141.957)" fill="#263238"/>
    <path id="Trazado_818670" data-name="Trazado 818670" d="M176.769,400.384a1.643,1.643,0,1,0,1.643,1.643,1.643,1.643,0,0,0-1.643-1.643" transform="translate(106.983 13136.757)" fill="#aab6c2"/>
    <path id="Trazado_818671" data-name="Trazado 818671" d="M161.577,400.384a1.643,1.643,0,1,0,1.641,1.643,1.644,1.644,0,0,0-1.641-1.643" transform="translate(115.855 13136.757)" fill="#ffc259"/>
    <path id="Trazado_818672" data-name="Trazado 818672" d="M146.591,400.743a1.493,1.493,0,1,0,1.492,1.494,1.5,1.5,0,0,0-1.492-1.494" transform="translate(124.52 13136.547)" fill="#fff"/>
    <path id="Trazado_818673" data-name="Trazado 818673" d="M146.383,400.384a1.643,1.643,0,1,0,1.643,1.643,1.644,1.644,0,0,0-1.643-1.643m0,2.987a1.343,1.343,0,1,1,1.342-1.343,1.346,1.346,0,0,1-1.342,1.343" transform="translate(124.727 13136.757)"/>
    <path id="Trazado_818674" data-name="Trazado 818674" d="M357.707,400l-1.162,1.161L355.385,400l-.6.6,1.16,1.162-1.16,1.16.6.6,1.16-1.161,1.162,1.161.6-.6-1.16-1.16,1.16-1.162Z" transform="translate(2.076 13136.979)" fill="#fff"/>
    <path id="Trazado_818675" data-name="Trazado 818675" d="M357.408,399.49l-1.16,1.163-1.163-1.163-.814.814,1.163,1.162-1.163,1.16.814.814,1.163-1.162,1.16,1.162.814-.814-1.163-1.16,1.163-1.162Zm-.559,2.187.949.949-.39.39-.949-.949-.211-.213-.213.213-.949.949-.39-.39.949-.949.213-.211-.213-.213-.949-.949.39-.389.949.95.213.212.211-.212.949-.95.39.389-.949.949-.213.213Z" transform="translate(2.375 13137.278)"/>
    <path id="Trazado_818676" data-name="Trazado 818676" d="M180.424,433.584H150.552a1.864,1.864,0,0,0-1.861,1.863v31.794a1.863,1.863,0,0,0,1.861,1.864h29.872a1.861,1.861,0,0,0,1.862-1.864V435.447a1.862,1.862,0,0,0-1.862-1.863" transform="translate(122.42 13117.37)" fill="#aab6c2"/>
    <path id="Trazado_818677" data-name="Trazado 818677" d="M241.528,502.544l.045,1.369h10.409l-.042-1.369Z" transform="translate(68.21 13077.102)"/>
    <path id="Trazado_818678" data-name="Trazado 818678" d="M241.528,492.649l.045,1.368h22.012l-.044-1.368Z" transform="translate(68.21 13082.88)"/>
    <path id="Trazado_818679" data-name="Trazado 818679" d="M241.528,482.753l.045,1.368h17.662l-.044-1.368Z" transform="translate(68.21 13088.659)"/>
    <path id="Trazado_818680" data-name="Trazado 818680" d="M241.285,482.572l.05,1.518h17.859l-.05-1.518Zm.242,1.369-.039-1.218h17.464l.039,1.218Z" transform="translate(68.352 13088.764)"/>
    <path id="Trazado_818681" data-name="Trazado 818681" d="M270.7,502.544l.044,1.369h3.16l-.044-1.369Z" transform="translate(51.173 13077.102)"/>
    <path id="Trazado_818682" data-name="Trazado 818682" d="M241.528,473.216l.045,1.368h10.409l-.042-1.368Z" transform="translate(68.21 13094.228)"/>
    <path id="Trazado_818683" data-name="Trazado 818683" d="M241.528,463.322l.045,1.368h22.012l-.044-1.368Z" transform="translate(68.21 13100.005)"/>
    <path id="Trazado_818684" data-name="Trazado 818684" d="M241.528,453.422l.045,1.369h17.662l-.044-1.369Z" transform="translate(68.21 13105.786)"/>
    <path id="Trazado_818685" data-name="Trazado 818685" d="M270.347,473.216l.044,1.368h3.16l-.044-1.368Z" transform="translate(51.382 13094.228)"/>
    <path id="Trazado_818686" data-name="Trazado 818686" d="M241.528,443.888l.045,1.368h10.409l-.044-1.368Z" transform="translate(68.21 13111.354)" fill="#ffc259"/>
    <path id="Trazado_818687" data-name="Trazado 818687" d="M241.528,433.991l.045,1.368h22.012l-.044-1.368Z" transform="translate(68.21 13117.133)"/>
    <path id="Trazado_818688" data-name="Trazado 818688" d="M269.991,443.888l.044,1.368h3.157l-.042-1.368Z" transform="translate(51.59 13111.354)" fill="#ffc259"/>
    <path id="Trazado_818689" data-name="Trazado 818689" d="M241.528,513.7l.045,1.368h22.012l-.044-1.368Z" transform="translate(68.21 13070.586)" fill="#ffc259"/>
    <path id="Trazado_818690" data-name="Trazado 818690" d="M305.359,512.084l.044,1.368h17.662l-.042-1.368Z" transform="translate(30.936 13071.531)"/>
    <path id="Trazado_818691" data-name="Trazado 818691" d="M305.359,502.544l.044,1.369h10.41l-.042-1.369Z" transform="translate(30.936 13077.102)"/>
    <path id="Trazado_818692" data-name="Trazado 818692" d="M305.359,492.649l.044,1.368h22.012l-.041-1.368Z" transform="translate(30.936 13082.88)"/>
    <path id="Trazado_818693" data-name="Trazado 818693" d="M305.115,492.468l.05,1.517h22.21l-.047-1.517Zm.242,1.369-.039-1.22h21.818l.039,1.22Z" transform="translate(31.079 13082.986)"/>
    <path id="Trazado_818694" data-name="Trazado 818694" d="M305.359,482.753l.044,1.368h17.662l-.044-1.368Z" transform="translate(30.936 13088.659)"/>
    <path id="Trazado_818695" data-name="Trazado 818695" d="M334.534,502.544l.044,1.369h3.16l-.044-1.369Z" transform="translate(13.9 13077.102)"/>
    <path id="Trazado_818696" data-name="Trazado 818696" d="M305.359,473.216l.044,1.368h10.41l-.042-1.368Z" transform="translate(30.936 13094.228)"/>
    <path id="Trazado_818697" data-name="Trazado 818697" d="M305.359,463.322l.044,1.368h22.012l-.041-1.368Z" transform="translate(30.936 13100.005)" fill="#ffc259"/>
    <path id="Trazado_818698" data-name="Trazado 818698" d="M305.359,453.422l.044,1.369h17.662l-.042-1.369Z" transform="translate(30.936 13105.786)"/>
    <path id="Trazado_818699" data-name="Trazado 818699" d="M334.178,473.216l.044,1.368h3.16l-.044-1.368Z" transform="translate(14.108 13094.228)"/>
    <path id="Trazado_818700" data-name="Trazado 818700" d="M305.359,443.888l.044,1.368h10.41l-.042-1.368Z" transform="translate(30.936 13111.354)"/>
    <path id="Trazado_818701" data-name="Trazado 818701" d="M305.359,433.991l.044,1.368h22.012l-.041-1.368Z" transform="translate(30.936 13117.133)"/>
    <path id="Trazado_818702" data-name="Trazado 818702" d="M333.822,443.888l.044,1.368h3.16l-.044-1.368Z" transform="translate(14.316 13111.354)"/>
    <path id="Trazado_818703" data-name="Trazado 818703" d="M183.314,462.163a8.812,8.812,0,0,0-.934-2.912l-.073-.139,1.566-1.577-2.057-2.427L180,456.391l-.122-.094a8.831,8.831,0,0,0-2.723-1.4l-.148-.047L177,452.63l-3.17-.262-.372,2.191-.156.022a8.737,8.737,0,0,0-2.912.934l-.138.073-1.579-1.565-2.429,2.058,1.287,1.813-.1.123a8.827,8.827,0,0,0-1.4,2.724l-.047.148-2.223.008-.26,3.169,2.189.372.024.155a8.743,8.743,0,0,0,.933,2.914l.073.139-1.566,1.577,2.057,2.427,1.815-1.284.122.095a8.834,8.834,0,0,0,2.723,1.4l.148.047.008,2.221,3.17.263.372-2.191.154-.022a8.822,8.822,0,0,0,2.915-.934l.138-.073,1.579,1.565,2.426-2.058-1.284-1.814.1-.125a8.752,8.752,0,0,0,1.4-2.72l.047-.149,2.221-.009.263-3.168-2.19-.374Zm-4.491,6.3a6.66,6.66,0,1,1,.775-9.388,6.66,6.66,0,0,1-.775,9.388" transform="translate(113.768 13106.401)" fill="#fff"/>
    <path id="Trazado_818704" data-name="Trazado 818704" d="M182.249,458.831l1.591-1.606-2.312-2.724-1.844,1.307a8.977,8.977,0,0,0-2.788-1.431l-.008-2.261-3.557-.294-.38,2.23a9.02,9.02,0,0,0-2.983.956l-1.607-1.591-2.723,2.309,1.305,1.845a9.057,9.057,0,0,0-1.43,2.786l-2.263.01-.294,3.556,2.231.378a8.984,8.984,0,0,0,.954,2.986l-1.592,1.6,2.31,2.725,1.846-1.308a9.036,9.036,0,0,0,2.785,1.433L171.5,474l3.557.292.377-2.229a9.014,9.014,0,0,0,2.985-.956l1.607,1.592,2.722-2.31-1.305-1.845a8.957,8.957,0,0,0,1.43-2.786l2.263-.009.291-3.556-2.228-.379a9.011,9.011,0,0,0-.954-2.984m2.5,6.5-1.872.007-.31,0-.094.3a8.6,8.6,0,0,1-1.363,2.655l-.19.248.179.253,1.084,1.528-2.132,1.806-1.329-1.317-.221-.22-.275.146a8.545,8.545,0,0,1-2.845.91l-.307.042-.052.308-.315,1.844-2.78-.229-.008-1.871,0-.312-.3-.092a8.579,8.579,0,0,1-2.655-1.366l-.25-.187-.255.179-1.527,1.081-1.8-2.131,1.316-1.327.221-.222-.146-.275a8.566,8.566,0,0,1-.913-2.844l-.042-.309-.307-.052-1.847-.313.231-2.78,1.87-.008.312,0,.094-.3a8.558,8.558,0,0,1,1.363-2.657l.19-.248-.179-.253-1.085-1.527,2.133-1.807,1.329,1.319.221.22.275-.146a8.583,8.583,0,0,1,2.845-.912l.307-.041.052-.309.315-1.845,2.78.23.007,1.872v.312l.3.092a8.538,8.538,0,0,1,2.655,1.364l.25.188.255-.18,1.527-1.083,1.8,2.131-1.316,1.329-.221.222.146.275a8.578,8.578,0,0,1,.913,2.843l.042.31.307.052,1.844.315Z" transform="translate(114.089 13106.721)"/>
    <path id="Trazado_818705" data-name="Trazado 818705" d="M180.326,462.312a6.873,6.873,0,1,0,5.245,2.429,6.878,6.878,0,0,0-5.245-2.429M184.5,474.1a6.447,6.447,0,1,1,.749-9.087,6.431,6.431,0,0,1-.749,9.087" transform="translate(107.956 13100.595)"/>
    <path id="Trazado_818708" data-name="Trazado 818708" d="M342.539,458.173H481.378l4.171-7.061H338.366Z" transform="translate(11.663 13107.135)" fill="#fff"/>
    <path id="Trazado_818709" data-name="Trazado 818709" d="M341.546,458.042H480.759l4.559-7.714H336.985Zm138.839-.653H341.918l-3.784-6.409H484.172Z" transform="translate(12.469 13107.593)"/>
    <path id="Trazado_818710" data-name="Trazado 818710" d="M600.886,458.173h32.38l4.171-7.061h-38.96Z" transform="translate(-140.225 13107.135)" fill="#fff"/>
    <path id="Trazado_818711" data-name="Trazado 818711" d="M600.01,458.042h32.8l4.559-7.714H597.378Zm32.427-.653H600.478l-2.184-6.409h37.93Z" transform="translate(-139.583 13107.593)"/>
    <rect id="Rectángulo_375786" data-name="Rectángulo 375786" width="2.907" height="40.063" transform="translate(462.795 13619.73)" fill="#fff"/>
    <path id="Trazado_818712" data-name="Trazado 818712" d="M608.615,638.816h3.558V598.1h-3.558Zm.653-40.063h2.252v39.411h-2.252Z" transform="translate(-146.145 13021.304)"/>
    <rect id="Rectángulo_375787" data-name="Rectángulo 375787" width="5.892" height="77.526" transform="translate(461.303 13565.737)" fill="#aab6c2"/>
    <rect id="Rectángulo_375789" data-name="Rectángulo 375789" width="24.654" height="2.469" transform="translate(451.924 13657.324)" fill="#fff"/>
    <path id="Trazado_818713" data-name="Trazado 818713" d="M582.477,691.578h25.31v-3.122h-25.31Zm.653-2.469h24v1.817h-24Z" transform="translate(-130.882 12968.542)"/>
    <path id="Trazado_818714" data-name="Trazado 818714" d="M311.046,56.856H194.469a3.7,3.7,0,0,0-3.69,3.7V148.57a2.854,2.854,0,0,0,2.85,2.855H311.886a2.857,2.857,0,0,0,2.855-2.855V60.547a3.7,3.7,0,0,0-3.7-3.691" transform="translate(97.844 13337.354)" fill="#fff"/>
    <path id="Trazado_818715" data-name="Trazado 818715" d="M310.783,56.406H194.206a3.88,3.88,0,0,0-3.877,3.883v88.018a3.039,3.039,0,0,0,3.037,3.042H311.622a3.044,3.044,0,0,0,3.043-3.042V60.285a3.881,3.881,0,0,0-3.882-3.879m3.508,91.9a2.671,2.671,0,0,1-2.668,2.668H193.366a2.668,2.668,0,0,1-2.663-2.668V60.289a3.509,3.509,0,0,1,3.5-3.508H310.783a3.509,3.509,0,0,1,3.508,3.5Z" transform="translate(98.107 13337.617)"/>
    <path id="Trazado_818716" data-name="Trazado 818716" d="M310.779,56.4H194.2a3.881,3.881,0,0,0-3.882,3.882v9.487H314.659V60.286a3.881,3.881,0,0,0-3.88-3.881" transform="translate(98.111 13337.617)" fill="#263238"/>
    <path id="Trazado_818717" data-name="Trazado 818717" d="M243.774,67.536a2.053,2.053,0,1,0,2.055,2.053,2.052,2.052,0,0,0-2.055-2.053" transform="translate(68.096 13331.118)" fill="#aab6c2"/>
    <path id="Trazado_818718" data-name="Trazado 818718" d="M224.786,67.536a2.053,2.053,0,1,0,2.054,2.053,2.052,2.052,0,0,0-2.054-2.053" transform="translate(79.184 13331.118)" fill="#ffc259"/>
    <path id="Trazado_818719" data-name="Trazado 818719" d="M205.8,67.536a2.053,2.053,0,1,0,2.054,2.053,2.054,2.054,0,0,0-2.054-2.053" transform="translate(90.275 13331.118)" fill="#fff"/>
    <path id="Trazado_818720" data-name="Trazado 818720" d="M469.566,66.42l-1.451,1.452-1.451-1.452-1.016,1.016,1.451,1.452-1.451,1.452,1.016,1.016,1.451-1.452,1.451,1.452,1.017-1.016-1.451-1.452,1.451-1.452Z" transform="translate(-62.661 13331.77)" fill="#fff"/>
    <path id="Trazado_818721" data-name="Trazado 818721" d="M289.753,101.828l.1,1.718h28.724l-.1-1.718Z" transform="translate(40.049 13311.093)" fill="#aab6c2"/>
    <path id="Trazado_818722" data-name="Trazado 818722" d="M323.609,114.259l.111,1.718h46.717l-.1-1.718Z" transform="translate(20.28 13303.834)" fill="#aab6c2"/>
    <path id="Trazado_818723" data-name="Trazado 818723" d="M289.935,114.259l.1,1.718h11.892l-.114-1.718Z" transform="translate(39.944 13303.834)"/>
    <path id="Trazado_818724" data-name="Trazado 818724" d="M289.616,126.686l.1,1.72H313.5l-.172-1.72Z" transform="translate(40.13 13296.578)" fill="#aab6c2"/>
    <path id="Trazado_818725" data-name="Trazado 818725" d="M350.591,126.686l.172,1.72h23.292l-.1-1.72Z" transform="translate(4.524 13296.578)"/>
    <path id="Trazado_818726" data-name="Trazado 818726" d="M239.6,128.405H251.28l.013-1.72H239.607Z" transform="translate(69.338 13296.578)" fill="#aab6c2"/>
    <path id="Trazado_818727" data-name="Trazado 818727" d="M205.46,115.977h19.006l.008-1.718h-19Z" transform="translate(89.271 13303.834)" fill="#aab6c2"/>
    <path id="Trazado_818728" data-name="Trazado 818728" d="M256.378,115.977h4.832l.013-1.718h-4.839Z" transform="translate(59.538 13303.834)" fill="#aab6c2"/>
    <path id="Trazado_818729" data-name="Trazado 818729" d="M245.3,103.546h9.647l.01-1.718h-9.674Z" transform="translate(66.017 13311.093)" fill="#ffc259"/>
    <path id="Trazado_818730" data-name="Trazado 818730" d="M217.795,101.828l-.01,1.718h9.5l-.018-1.718Z" transform="translate(82.075 13311.093)" fill="#ffc259"/>
    <path id="Trazado_818731" data-name="Trazado 818731" d="M239.247,174.934h11.686l.01-1.719H239.258Z" transform="translate(69.542 13269.407)" fill="#aab6c2"/>
    <path id="Trazado_818732" data-name="Trazado 818732" d="M205.109,162.506h19.009l.008-1.718H205.12Z" transform="translate(89.476 13276.665)" fill="#aab6c2"/>
    <path id="Trazado_818733" data-name="Trazado 818733" d="M256.028,162.506h4.834l.01-1.718h-4.837Z" transform="translate(59.743 13276.665)" fill="#aab6c2"/>
    <path id="Trazado_818734" data-name="Trazado 818734" d="M238.8,201.107h11.684l.013-1.72H238.814Z" transform="translate(69.801 13254.125)" fill="#aab6c2"/>
    <path id="Trazado_818735" data-name="Trazado 818735" d="M204.665,188.678h19.006l.008-1.718h-19Z" transform="translate(89.735 13261.382)" fill="#ffc259"/>
    <path id="Trazado_818736" data-name="Trazado 818736" d="M255.584,188.678h4.832l.013-1.718h-4.839Z" transform="translate(60.002 13261.382)" fill="#ffc259"/>
    <path id="Trazado_818737" data-name="Trazado 818737" d="M244.952,150.076H254.6l.013-1.718h-9.676Z" transform="translate(66.221 13283.923)" fill="#ffc259"/>
    <path id="Trazado_818738" data-name="Trazado 818738" d="M217.445,148.358l-.01,1.718h9.5l-.015-1.718Z" transform="translate(82.279 13283.923)" fill="#ffc259"/>
    <path id="Trazado_818739" data-name="Trazado 818739" d="M365.891,101.828l.1,1.718h8.717l-.1-1.718Z" transform="translate(-4.41 13311.093)"/>
    <path id="Trazado_818740" data-name="Trazado 818740" d="M443.141,114.259l.1,1.718H457.2l-.1-1.718Z" transform="translate(-49.519 13303.834)" fill="#aab6c2"/>
    <path id="Trazado_818741" data-name="Trazado 818741" d="M413.147,126.686l.1,1.72H427.4l-.1-1.72Z" transform="translate(-32.004 13296.578)" fill="#aab6c2"/>
    <path id="Trazado_818742" data-name="Trazado 818742" d="M396.228,101.828l.206,1.718H421.07l-.206-1.718Z" transform="translate(-22.125 13311.093)" fill="#aab6c2"/>
    <path id="Trazado_818743" data-name="Trazado 818743" d="M289.4,148.358l.1,1.718h28.724l-.1-1.718Z" transform="translate(40.254 13283.923)" fill="#aab6c2"/>
    <path id="Trazado_818744" data-name="Trazado 818744" d="M323.259,160.787l.112,1.718h46.716l-.1-1.718Z" transform="translate(20.484 13276.665)" fill="#aab6c2"/>
    <path id="Trazado_818745" data-name="Trazado 818745" d="M289.584,160.787l.1,1.718h11.889l-.112-1.718Z" transform="translate(40.148 13276.665)" fill="#aab6c2"/>
    <path id="Trazado_818746" data-name="Trazado 818746" d="M289.266,173.216l.1,1.719H313.15l-.171-1.719Z" transform="translate(40.334 13269.407)" fill="#aab6c2"/>
    <path id="Trazado_818747" data-name="Trazado 818747" d="M350.241,173.216l.171,1.719h23.295l-.1-1.719Z" transform="translate(4.729 13269.407)" fill="#aab6c2"/>
    <path id="Trazado_818748" data-name="Trazado 818748" d="M365.547,148.358l.1,1.718h8.717l-.1-1.718Z" transform="translate(-4.209 13283.923)" fill="#aab6c2"/>
    <path id="Trazado_818749" data-name="Trazado 818749" d="M442.79,160.787l.1,1.718h13.954l-.107-1.718Z" transform="translate(-49.314 13276.665)" fill="#aab6c2"/>
    <path id="Trazado_818750" data-name="Trazado 818750" d="M412.8,173.216l.1,1.719h14.144l-.1-1.719Z" transform="translate(-31.804 13269.407)"/>
    <path id="Trazado_818751" data-name="Trazado 818751" d="M324.2,186.961l.112,1.718h46.716l-.1-1.718Z" transform="translate(19.937 13261.382)" fill="#aab6c2"/>
    <path id="Trazado_818752" data-name="Trazado 818752" d="M290.522,186.961l.1,1.718h11.89l-.112-1.718Z" transform="translate(39.601 13261.382)" fill="#aab6c2"/>
    <path id="Trazado_818753" data-name="Trazado 818753" d="M290.2,199.388l.1,1.72h23.778l-.169-1.72Z" transform="translate(39.787 13254.125)" fill="#aab6c2"/>
    <path id="Trazado_818754" data-name="Trazado 818754" d="M351.178,199.388l.172,1.72h23.294l-.1-1.72Z" transform="translate(4.181 13254.125)"/>
    <path id="Trazado_818755" data-name="Trazado 818755" d="M443.728,186.961l.1,1.718h13.951l-.1-1.718Z" transform="translate(-49.862 13261.382)"/>
    <path id="Trazado_818756" data-name="Trazado 818756" d="M413.741,199.388l.1,1.72h14.146l-.1-1.72Z" transform="translate(-32.351 13254.125)" fill="#aab6c2"/>
    <path id="Trazado_818757" data-name="Trazado 818757" d="M395.884,148.358l.206,1.718h24.637l-.208-1.718Z" transform="translate(-21.924 13283.923)"/>
    <path id="Trazado_818758" data-name="Trazado 818758" d="M238.328,243.914h11.684l.013-1.72H238.339Z" transform="translate(70.078 13229.129)" fill="#aab6c2"/>
    <path id="Trazado_818759" data-name="Trazado 818759" d="M204.19,231.487H223.2l.007-1.718h-19Z" transform="translate(90.012 13236.385)" fill="#aab6c2"/>
    <path id="Trazado_818760" data-name="Trazado 818760" d="M255.109,231.487h4.831l.013-1.718h-4.84Z" transform="translate(60.279 13236.385)" fill="#aab6c2"/>
    <path id="Trazado_818761" data-name="Trazado 818761" d="M237.878,270.088h11.686l.01-1.719H237.888Z" transform="translate(70.341 13213.845)" fill="#aab6c2"/>
    <path id="Trazado_818762" data-name="Trazado 818762" d="M203.741,257.66H222.75l.007-1.718H203.751Z" transform="translate(90.275 13221.101)" fill="#ffc259"/>
    <path id="Trazado_818763" data-name="Trazado 818763" d="M254.659,257.66h4.834l.01-1.718h-4.837Z" transform="translate(60.542 13221.101)" fill="#ffc259"/>
    <path id="Trazado_818764" data-name="Trazado 818764" d="M244.031,219.057h9.647l.01-1.718h-9.674Z" transform="translate(66.757 13243.644)" fill="#ffc259"/>
    <path id="Trazado_818765" data-name="Trazado 818765" d="M216.526,217.339l-.01,1.718h9.5L226,217.339Z" transform="translate(82.815 13243.643)" fill="#ffc259"/>
    <path id="Trazado_818766" data-name="Trazado 818766" d="M288.484,217.339l.1,1.718h28.724l-.1-1.718Z" transform="translate(40.79 13243.643)" fill="#aab6c2"/>
    <path id="Trazado_818767" data-name="Trazado 818767" d="M322.341,229.768l.112,1.718h46.716l-.1-1.718Z" transform="translate(21.02 13236.385)" fill="#aab6c2"/>
    <path id="Trazado_818768" data-name="Trazado 818768" d="M288.665,229.768l.1,1.718h11.892l-.114-1.718Z" transform="translate(40.684 13236.385)" fill="#aab6c2"/>
    <path id="Trazado_818769" data-name="Trazado 818769" d="M288.347,242.2l.1,1.72h23.778l-.169-1.72Z" transform="translate(40.871 13229.129)" fill="#aab6c2"/>
    <path id="Trazado_818770" data-name="Trazado 818770" d="M349.322,242.2l.172,1.72h23.294l-.1-1.72Z" transform="translate(5.265 13229.129)" fill="#aab6c2"/>
    <path id="Trazado_818771" data-name="Trazado 818771" d="M364.622,217.339l.1,1.718h8.716l-.1-1.718Z" transform="translate(-3.669 13243.643)" fill="#aab6c2"/>
    <path id="Trazado_818772" data-name="Trazado 818772" d="M441.872,229.768l.1,1.718h13.951l-.1-1.718Z" transform="translate(-48.778 13236.385)" fill="#aab6c2"/>
    <path id="Trazado_818773" data-name="Trazado 818773" d="M411.878,242.2l.1,1.72h14.146l-.1-1.72Z" transform="translate(-31.263 13229.129)"/>
    <path id="Trazado_818774" data-name="Trazado 818774" d="M323.278,255.942l.112,1.718H370.1l-.1-1.718Z" transform="translate(20.473 13221.102)" fill="#aab6c2"/>
    <path id="Trazado_818775" data-name="Trazado 818775" d="M289.6,255.942l.1,1.718H301.6l-.114-1.718Z" transform="translate(40.137 13221.102)" fill="#aab6c2"/>
    <path id="Trazado_818776" data-name="Trazado 818776" d="M289.284,268.368l.1,1.719h23.778L313,268.368Z" transform="translate(40.323 13213.845)" fill="#aab6c2"/>
    <path id="Trazado_818777" data-name="Trazado 818777" d="M350.259,268.368l.169,1.719h23.3l-.1-1.719Z" transform="translate(4.718 13213.845)"/>
    <path id="Trazado_818778" data-name="Trazado 818778" d="M442.809,255.942l.1,1.718h13.954l-.1-1.718Z" transform="translate(-49.325 13221.102)"/>
    <path id="Trazado_818779" data-name="Trazado 818779" d="M412.815,268.368l.1,1.719h14.144l-.1-1.719Z" transform="translate(-31.811 13213.845)" fill="#aab6c2"/>
    <path id="Trazado_818780" data-name="Trazado 818780" d="M394.96,217.339l.206,1.718H419.8l-.206-1.718Z" transform="translate(-21.384 13243.643)"/>
  </g>
</svg>
