<svg xmlns="http://www.w3.org/2000/svg" width="99" height="99" viewBox="0 0 99 99">
  <g id="Grupo_1071578" data-name="Grupo 1071578" transform="translate(-529 -4811)">
    <rect id="Rectángulo_375604" data-name="Rectángulo 375604" width="99" height="99" rx="12" transform="translate(529 4811)" fill="#fff"/>
    <g id="prioridad" transform="translate(546.59 4828.59)">
      <path id="Trazado_818364" data-name="Trazado 818364" d="M54.239,114.274H22.478A14.978,14.978,0,0,0,7.5,129.252v10.442a14.951,14.951,0,0,0,5.689,11.749,23.06,23.06,0,0,1-3.323,7.71,2.212,2.212,0,0,0,1.54,3.486,16.609,16.609,0,0,0,16.046-7.968H54.239a14.978,14.978,0,0,0,14.978-14.978V129.252a14.978,14.978,0,0,0-14.978-14.978Z" transform="translate(-6.569 -100.084)" fill="#949af8"/>
      <path id="Trazado_818365" data-name="Trazado 818365" d="M167.657,114.274H138.466l1.374,13.858a12.047,12.047,0,0,0,2.049,5.611,12.585,12.585,0,1,0,22.344,0,12.047,12.047,0,0,0,2.049-5.611Z" transform="translate(-121.271 -100.084)" fill="#d6edff"/>
      <path id="Trazado_818366" data-name="Trazado 818366" d="M186.088,10.177A8.16,8.16,0,0,0,180.051,7.5h-6.113a8.146,8.146,0,0,0-8.106,8.949L167.6,34.238a8.121,8.121,0,0,0,3.154,5.674,8.744,8.744,0,1,0,12.489,0,8.121,8.121,0,0,0,3.154-5.675l1.764-17.789a8.16,8.16,0,0,0-2.069-6.272Z" transform="translate(-145.204 -6.569)" fill="#fdbf2d"/>
      <path id="Trazado_818367" data-name="Trazado 818367" d="M211.654,43.589h-6.113a3.664,3.664,0,0,0-3.646,4.026L203.658,65.4a3.664,3.664,0,0,0,3.646,3.3h2.586a3.664,3.664,0,0,0,3.646-3.3L215.3,47.615A3.664,3.664,0,0,0,211.654,43.589Z" transform="translate(-176.808 -38.176)" fill="#949af8"/>
      <path id="Trazado_818368" data-name="Trazado 818368" d="M212.987,71.068c-6.172-4.042-9.874-18.375-9.419-22.836a3.661,3.661,0,0,0-1.673,3.449l1.764,17.789a3.664,3.664,0,0,0,3.646,3.3h2.586A3.664,3.664,0,0,0,212.987,71.068Z" transform="translate(-176.808 -42.243)" fill="#d6e8f5"/>
      <circle id="Elipse_9672" data-name="Elipse 9672" cx="4.263" cy="4.263" r="4.263" transform="translate(27.527 35.194)" fill="#949af8"/>
      <path id="Trazado_818369" data-name="Trazado 818369" d="M46.345,53.657H20.883a.932.932,0,0,0-.806.464A15.672,15.672,0,0,1,4.935,61.63,1.28,1.28,0,0,1,4.06,59.6a24.008,24.008,0,0,0,3.468-8.038.931.931,0,0,0-.33-.936A13.981,13.981,0,0,1,1.863,39.61V29.168a13.929,13.929,0,0,1,4.316-10.13.931.931,0,1,0-1.29-1.343A15.775,15.775,0,0,0,0,29.168V39.61a15.825,15.825,0,0,0,5.577,12.1,21.933,21.933,0,0,1-3.044,6.828,3.143,3.143,0,0,0,2.205,4.946A17.565,17.565,0,0,0,21.409,55.52H46.345a.931.931,0,0,0,0-1.863ZM34.846,4.481H28.733A4.6,4.6,0,0,0,24.16,9.531l1.764,17.788A4.58,4.58,0,0,0,30.5,31.461h2.586a4.58,4.58,0,0,0,4.573-4.142L39.419,9.531a4.6,4.6,0,0,0-4.573-5.049Zm2.72,4.865L35.8,27.135A2.724,2.724,0,0,1,33.083,29.6H30.5a2.724,2.724,0,0,1-2.72-2.463L26.014,9.347a2.731,2.731,0,0,1,2.72-3h6.113a2.731,2.731,0,0,1,2.72,3ZM31.79,34.263a5.194,5.194,0,1,0,5.194,5.194A5.2,5.2,0,0,0,31.79,34.263Zm0,8.525a3.331,3.331,0,1,1,3.331-3.331A3.335,3.335,0,0,1,31.79,42.788ZM47.67,13.259H43.553l.326-3.287A9.082,9.082,0,0,0,34.846,0H28.733A9.081,9.081,0,0,0,19.7,9.973l.326,3.287H15.909a15.742,15.742,0,0,0-7.218,1.728.931.931,0,0,0,.846,1.66,13.894,13.894,0,0,1,6.371-1.525h4.3l1.253,12.64a9.124,9.124,0,0,0,2.758,5.674,9.676,9.676,0,1,0,15.135,0,9.124,9.124,0,0,0,2.758-5.674l1.253-12.639h4.3A14.063,14.063,0,0,1,61.717,29.169V39.61A14.088,14.088,0,0,1,50.5,53.372a.931.931,0,0,0,.374,1.825A15.957,15.957,0,0,0,63.58,39.61V29.168A15.927,15.927,0,0,0,47.67,13.259Zm-5.645-3.47L40.262,27.577A7.143,7.143,0,0,1,37.469,32.6a.932.932,0,0,0-.1,1.392,7.813,7.813,0,1,1-11.158,0,.932.932,0,0,0-.1-1.392,7.144,7.144,0,0,1-2.793-5.026L21.554,9.789a7.219,7.219,0,0,1,7.179-7.926h6.113a7.218,7.218,0,0,1,7.179,7.926Z"/>
    </g>
  </g>
</svg>
