<svg id="Grupo_1071584" data-name="Grupo 1071584" xmlns="http://www.w3.org/2000/svg" width="76" height="76" viewBox="0 0 76 76">
  <circle id="Elipse_9667" data-name="Elipse 9667" cx="38" cy="38" r="38" fill="#949af8"/>
  <g id="cuaderno" transform="translate(18 16)">
    <g id="Grupo_1071582" data-name="Grupo 1071582" transform="translate(0.659 0.659)">
      <g id="Grupo_1071563" data-name="Grupo 1071563" transform="translate(33.27 27.075)">
        <path id="Trazado_818066" data-name="Trazado 818066" d="M413.938,323.494h-4.549v-7.946h4.549a1.758,1.758,0,0,1,1.758,1.758v4.431A1.758,1.758,0,0,1,413.938,323.494Z" transform="translate(-409.389 -315.548)" fill="#ff8086"/>
      </g>
      <g id="Grupo_1071564" data-name="Grupo 1071564" transform="translate(33.27 27.075)">
        <path id="Trazado_818067" data-name="Trazado 818067" d="M409.389,315.548h3.954v7.946h-3.954Z" transform="translate(-409.389 -315.548)" fill="#f46c7a"/>
      </g>
      <g id="Grupo_1071565" data-name="Grupo 1071565" transform="translate(33.27 7.567)">
        <path id="Trazado_818068" data-name="Trazado 818068" d="M413.938,109.167h-4.549V93.6h4.549a1.758,1.758,0,0,1,1.758,1.758v12.052A1.758,1.758,0,0,1,413.938,109.167Z" transform="translate(-409.389 -93.6)" fill="#ff8086"/>
      </g>
      <g id="Grupo_1071566" data-name="Grupo 1071566" transform="translate(33.27 7.567)">
        <path id="Trazado_818069" data-name="Trazado 818069" d="M409.389,93.6h3.954v7.942h-3.954Z" transform="translate(-409.389 -93.6)" fill="#f46c7a"/>
      </g>
      <g id="Grupo_1071567" data-name="Grupo 1071567" transform="translate(33.27 15.509)">
        <path id="Trazado_818070" data-name="Trazado 818070" d="M409.389,183.96v7.625h4.549a1.758,1.758,0,0,0,1.758-1.758V183.96Z" transform="translate(-409.389 -183.96)" fill="#a4ccff"/>
      </g>
      <g id="Grupo_1071568" data-name="Grupo 1071568" transform="translate(33.27 15.509)">
        <path id="Trazado_818071" data-name="Trazado 818071" d="M409.389,183.96h3.954v7.625h-3.954Z" transform="translate(-409.389 -183.96)" fill="#8bb3ea"/>
      </g>
      <g id="Grupo_1071569" data-name="Grupo 1071569" transform="translate(2.97)">
        <path id="Trazado_818072" data-name="Trazado 818072" d="M64.645,8.818V49.863a1.318,1.318,0,0,0,1.318,1.318H94.27a3.076,3.076,0,0,0,3.076-3.076V11.016A3.516,3.516,0,0,0,93.83,7.5H65.963A1.318,1.318,0,0,0,64.645,8.818Z" transform="translate(-64.645 -7.5)" fill="#0ed2b3"/>
      </g>
      <g id="Grupo_1071570" data-name="Grupo 1071570" transform="translate(2.97)">
        <path id="Trazado_818073" data-name="Trazado 818073" d="M67.05,49.863V8.818A1.318,1.318,0,0,1,68.368,7.5h-2.4a1.318,1.318,0,0,0-1.318,1.318V49.863a1.318,1.318,0,0,0,1.318,1.318h2.4A1.318,1.318,0,0,1,67.05,49.863Z" transform="translate(-64.645 -7.5)" fill="#0ab69f"/>
      </g>
      <g id="Grupo_1071571" data-name="Grupo 1071571" transform="translate(12.143 7.268)">
        <path id="Trazado_818074" data-name="Trazado 818074" d="M180.611,97.077H169.893a.879.879,0,0,1-.879-.879V91.073a.879.879,0,0,1,.879-.879h10.718a.879.879,0,0,1,.879.879V96.2A.879.879,0,0,1,180.611,97.077Z" transform="translate(-169.014 -90.194)" fill="#eef5f6"/>
      </g>
      <g id="Grupo_1071572" data-name="Grupo 1071572" transform="translate(12.143 7.268)">
        <path id="Trazado_818075" data-name="Trazado 818075" d="M170.554,96.2V91.073a.879.879,0,0,1,.879-.879h-1.54a.879.879,0,0,0-.879.879V96.2a.879.879,0,0,0,.879.879h1.54A.879.879,0,0,1,170.554,96.2Z" transform="translate(-169.014 -90.194)" fill="#deecf1"/>
      </g>
      <g id="Grupo_1071573" data-name="Grupo 1071573" transform="translate(27.775)">
        <path id="Trazado_818076" data-name="Trazado 818076" d="M346.867,7.5h2.995V51.182h-2.995Z" transform="translate(-346.867 -7.5)" fill="#89b4c9"/>
      </g>
      <g id="Grupo_1071574" data-name="Grupo 1071574" transform="translate(0 6.931)">
        <path id="Trazado_818077" data-name="Trazado 818077" d="M35.65,89.864H31.995a1.143,1.143,0,0,1-1.143-1.143V87.506a1.143,1.143,0,0,1,1.143-1.143H35.65a1.143,1.143,0,0,1,1.143,1.143v1.216A1.143,1.143,0,0,1,35.65,89.864Z" transform="translate(-30.852 -86.363)" fill="#eef5f6"/>
      </g>
      <g id="Grupo_1071575" data-name="Grupo 1071575" transform="translate(0 15.704)">
        <path id="Trazado_818078" data-name="Trazado 818078" d="M35.65,189.678H31.995a1.143,1.143,0,0,1-1.143-1.143V187.32a1.143,1.143,0,0,1,1.143-1.143H35.65a1.143,1.143,0,0,1,1.143,1.143v1.216A1.143,1.143,0,0,1,35.65,189.678Z" transform="translate(-30.852 -186.177)" fill="#eef5f6"/>
      </g>
      <g id="Grupo_1071576" data-name="Grupo 1071576" transform="translate(0 24.477)">
        <path id="Trazado_818079" data-name="Trazado 818079" d="M35.65,289.492H31.995a1.143,1.143,0,0,1-1.143-1.143v-1.216a1.143,1.143,0,0,1,1.143-1.143H35.65a1.143,1.143,0,0,1,1.143,1.143v1.216A1.143,1.143,0,0,1,35.65,289.492Z" transform="translate(-30.852 -285.991)" fill="#eef5f6"/>
      </g>
      <g id="Grupo_1071577" data-name="Grupo 1071577" transform="translate(0 33.249)">
        <path id="Trazado_818080" data-name="Trazado 818080" d="M35.65,389.306H31.995a1.143,1.143,0,0,1-1.143-1.143v-1.216a1.143,1.143,0,0,1,1.143-1.143H35.65a1.143,1.143,0,0,1,1.143,1.143v1.216A1.143,1.143,0,0,1,35.65,389.306Z" transform="translate(-30.852 -385.805)" fill="#eef5f6"/>
      </g>
      <g id="Grupo_1071578" data-name="Grupo 1071578" transform="translate(0 6.931)">
        <path id="Trazado_818081" data-name="Trazado 818081" d="M32.513,88.721V87.506a1.143,1.143,0,0,1,1.143-1.143H31.995a1.143,1.143,0,0,0-1.143,1.143v1.216a1.143,1.143,0,0,0,1.143,1.143h1.661A1.143,1.143,0,0,1,32.513,88.721Z" transform="translate(-30.852 -86.363)" fill="#deecf1"/>
      </g>
      <g id="Grupo_1071579" data-name="Grupo 1071579" transform="translate(0 15.704)">
        <path id="Trazado_818082" data-name="Trazado 818082" d="M32.513,188.534v-1.216a1.143,1.143,0,0,1,1.143-1.143H31.995a1.143,1.143,0,0,0-1.143,1.143v1.216a1.143,1.143,0,0,0,1.143,1.143h1.661A1.143,1.143,0,0,1,32.513,188.534Z" transform="translate(-30.852 -186.176)" fill="#deecf1"/>
      </g>
      <g id="Grupo_1071580" data-name="Grupo 1071580" transform="translate(0 24.477)">
        <path id="Trazado_818083" data-name="Trazado 818083" d="M32.513,288.348v-1.216a1.143,1.143,0,0,1,1.143-1.143H31.995a1.143,1.143,0,0,0-1.143,1.143v1.216a1.143,1.143,0,0,0,1.143,1.143h1.661A1.143,1.143,0,0,1,32.513,288.348Z" transform="translate(-30.852 -285.99)" fill="#deecf1"/>
      </g>
      <g id="Grupo_1071581" data-name="Grupo 1071581" transform="translate(0 33.249)">
        <path id="Trazado_818084" data-name="Trazado 818084" d="M32.513,388.162v-1.216a1.143,1.143,0,0,1,1.143-1.143H31.995a1.143,1.143,0,0,0-1.143,1.143v1.216a1.143,1.143,0,0,0,1.143,1.143h1.661A1.143,1.143,0,0,1,32.513,388.162Z" transform="translate(-30.852 -385.804)" fill="#deecf1"/>
      </g>
    </g>
    <g id="Grupo_1071583" data-name="Grupo 1071583">
      <path id="Trazado_818085" data-name="Trazado 818085" d="M223.536,7.567h-1.489V4.175A4.18,4.18,0,0,0,217.873,0h-8.031a.659.659,0,0,0,0,1.318h2.991V26.711a.659.659,0,1,0,1.318,0V1.318h1.676V43.682h-1.676V29.943a.659.659,0,0,0-1.318,0V43.682H201.3a.659.659,0,0,0,0,1.318h17.013a3.74,3.74,0,0,0,3.735-3.735V36.339h1.489a2.42,2.42,0,0,0,2.417-2.417V29.492a2.42,2.42,0,0,0-2.417-2.417h-1.489V24.453h1.489a2.42,2.42,0,0,0,2.417-2.417V9.984a2.42,2.42,0,0,0-2.417-2.417Zm0,1.318a1.1,1.1,0,0,1,1.1,1.1v5.525h-2.587V8.886Zm-2.807,32.379a2.42,2.42,0,0,1-2.417,2.417h-1.166V1.318h.727a2.86,2.86,0,0,1,2.856,2.856Zm2.807-12.872a1.1,1.1,0,0,1,1.1,1.1v4.431a1.1,1.1,0,0,1-1.1,1.1h-1.489V28.393Zm0-5.258h-1.489V16.828h2.587v5.208a1.1,1.1,0,0,1-1.1,1.1Z" transform="translate(-185.058 0)"/>
      <path id="Trazado_818086" data-name="Trazado 818086" d="M36.153,43.682H28.3a.66.66,0,0,1-.659-.659V38.069h1.168a1.8,1.8,0,0,0,1.8-1.8V35.051a1.8,1.8,0,0,0-1.8-1.8H27.64V29.3h1.168a1.8,1.8,0,0,0,1.8-1.8V26.278a1.8,1.8,0,0,0-1.8-1.8H27.64V20.523h1.168a1.8,1.8,0,0,0,1.8-1.8V17.506a1.8,1.8,0,0,0-1.8-1.8H27.64V11.751h1.168a1.8,1.8,0,0,0,1.8-1.8V8.733a1.8,1.8,0,0,0-1.8-1.8H27.64V1.978a.66.66,0,0,1,.659-.659H44.922a.659.659,0,0,0,0-1.318H28.3a1.98,1.98,0,0,0-1.978,1.978V6.931H25.153a1.8,1.8,0,0,0-1.8,1.8V9.949a1.8,1.8,0,0,0,1.8,1.8h1.168V15.7H25.153a1.8,1.8,0,0,0-1.8,1.8v1.216a1.8,1.8,0,0,0,1.8,1.8h1.168v3.953H25.153a1.8,1.8,0,0,0-1.8,1.8v1.216a1.8,1.8,0,0,0,1.8,1.8h1.168v3.953H25.153a1.8,1.8,0,0,0-1.8,1.8v1.216a1.8,1.8,0,0,0,1.8,1.8h1.168v4.954A1.98,1.98,0,0,0,28.3,45h7.855a.659.659,0,0,0,0-1.318ZM24.669,9.949V8.733a.484.484,0,0,1,.483-.483h3.655a.484.484,0,0,1,.483.483V9.949a.484.484,0,0,1-.483.483H25.153A.484.484,0,0,1,24.669,9.949Zm0,8.773V17.506a.484.484,0,0,1,.483-.483h3.655a.484.484,0,0,1,.483.483v1.216a.484.484,0,0,1-.483.483H25.153A.484.484,0,0,1,24.669,18.721Zm0,8.773V26.278a.484.484,0,0,1,.483-.483h3.655a.484.484,0,0,1,.483.483v1.216a.484.484,0,0,1-.483.483H25.153A.484.484,0,0,1,24.669,27.494Zm0,8.773V35.051a.484.484,0,0,1,.483-.483h3.655a.484.484,0,0,1,.483.483v1.216a.484.484,0,0,1-.483.483H25.153A.484.484,0,0,1,24.669,36.267Z" transform="translate(-23.351 0)"/>
      <path id="Trazado_818087" data-name="Trazado 818087" d="M175.309,89.357V84.232a1.54,1.54,0,0,0-1.538-1.538H163.052a1.54,1.54,0,0,0-1.538,1.538v5.125a1.54,1.54,0,0,0,1.538,1.538h10.718A1.54,1.54,0,0,0,175.309,89.357Zm-12.476,0V84.232a.22.22,0,0,1,.22-.22h10.718a.22.22,0,0,1,.22.22v5.125a.22.22,0,0,1-.22.22H163.052A.22.22,0,0,1,162.832,89.357Z" transform="translate(-149.371 -75.426)"/>
      <path id="Trazado_818088" data-name="Trazado 818088" d="M201.7,121.849h-6.708a.659.659,0,0,0,0,1.318H201.7a.659.659,0,0,0,0-1.318Z" transform="translate(-179.303 -111.14)"/>
    </g>
  </g>
</svg>
