<svg xmlns="http://www.w3.org/2000/svg" width="35.873" height="35.873" viewBox="0 0 35.873 35.873">
  <g id="_x31_7" transform="translate(-2 -2)">
    <path id="Trazado_818372" data-name="Trazado 818372" d="M24.562,10.843V8.281a1.281,1.281,0,0,0-2.562,0v2.562a1.281,1.281,0,0,0,2.562,0Z" transform="translate(5.623 1.406)" fill="#949af8"/>
    <path id="Trazado_818373" data-name="Trazado 818373" d="M27.562,10.843V8.281a1.281,1.281,0,0,0-2.562,0v2.562a1.281,1.281,0,1,0,2.562,0Z" transform="translate(6.467 1.406)" fill="#949af8"/>
    <path id="Trazado_818374" data-name="Trazado 818374" d="M24.562,18.843V16.281a1.281,1.281,0,0,0-2.562,0v2.562a1.281,1.281,0,0,0,2.562,0Z" transform="translate(5.623 3.655)" fill="#949af8"/>
    <path id="Trazado_818375" data-name="Trazado 818375" d="M21.562,18.843V16.281a1.281,1.281,0,0,0-2.562,0v2.562a1.281,1.281,0,0,0,2.562,0Z" transform="translate(4.78 3.655)" fill="#949af8"/>
    <path id="Trazado_818376" data-name="Trazado 818376" d="M27.562,18.843V16.281a1.281,1.281,0,0,0-2.562,0v2.562a1.281,1.281,0,0,0,2.562,0Z" transform="translate(6.467 3.655)" fill="#949af8"/>
    <path id="Trazado_818377" data-name="Trazado 818377" d="M20.281,28.125a1.281,1.281,0,0,0,1.281-1.281V24.281a1.281,1.281,0,1,0-2.562,0v2.562A1.281,1.281,0,0,0,20.281,28.125Z" transform="translate(4.78 5.904)" fill="#949af8"/>
    <path id="Trazado_818378" data-name="Trazado 818378" d="M23.281,28.125a1.281,1.281,0,0,0,1.281-1.281V24.281a1.281,1.281,0,1,0-2.562,0v2.562A1.281,1.281,0,0,0,23.281,28.125Z" transform="translate(5.623 5.904)" fill="#949af8"/>
    <path id="Trazado_818379" data-name="Trazado 818379" d="M26.281,28.125a1.281,1.281,0,0,0,1.281-1.281V24.281a1.281,1.281,0,1,0-2.562,0v2.562A1.281,1.281,0,0,0,26.281,28.125Z" transform="translate(6.467 5.904)" fill="#949af8"/>
    <path id="Trazado_818380" data-name="Trazado 818380" d="M31.831,4H18.968a1.281,1.281,0,0,0,0,2.562H31.831a1.232,1.232,0,0,1,1.23,1.23v6.457H18.968a1.281,1.281,0,1,0,0,2.562H33.061V24.5h-20.5V21.936a1.281,1.281,0,0,0-2.562,0V33.518a3.8,3.8,0,0,0,3.792,3.792H31.831a3.8,3.8,0,0,0,3.792-3.792V7.792A3.8,3.8,0,0,0,31.831,4Zm1.23,29.518a1.232,1.232,0,0,1-1.23,1.23H13.792a1.231,1.231,0,0,1-1.23-1.23V27.061h20.5Z" transform="translate(2.249 0.562)" fill="#949af8"/>
    <path id="Trazado_818381" data-name="Trazado 818381" d="M19.936,10.968a8.907,8.907,0,0,0-1.8-5.36l1.421-1.421a1.281,1.281,0,1,0-1.812-1.812L16.329,3.8A8.95,8.95,0,0,0,3.8,16.329L2.375,17.749a1.281,1.281,0,1,0,1.812,1.812L5.608,18.14a8.95,8.95,0,0,0,14.328-7.172Zm-15.374,0A6.4,6.4,0,0,1,14.5,5.63L5.63,14.5A6.366,6.366,0,0,1,4.562,10.968ZM16.307,7.441a6.4,6.4,0,0,1-8.866,8.866Z" transform="translate(0)" fill="#949af8"/>
  </g>
</svg>
