<svg xmlns="http://www.w3.org/2000/svg" xmlns:xlink="http://www.w3.org/1999/xlink" width="295" height="327" viewBox="0 0 295 327">
  <defs>
    <clipPath id="clip-path">
      <rect id="Rectángulo_375890" data-name="Rectángulo 375890" width="32.342" height="32.342" fill="none"/>
    </clipPath>
    <clipPath id="clip-path-2">
      <rect id="Rectángulo_375891" data-name="Rectángulo 375891" width="32.343" height="32.343" fill="none"/>
    </clipPath>
  </defs>
  <g id="Grupo_1071796" data-name="Grupo 1071796" transform="translate(-1125 -1892)">
    <rect id="Rectángulo_375892" data-name="Rectángulo 375892" width="295" height="327" transform="translate(1125 1892)" fill="#f1f9ff"/>
    <g id="Grupo_1071795" data-name="Grupo 1071795" transform="translate(154 -57)">
      <path id="Trazado_818781" data-name="Trazado 818781" d="M383.376,137.236c-28.551-8.667-53.165-20.916-81.055-54.909S199.477,58.8,177.688,109.783s-6.1,98.05,20.046,106.766,37.367,17.25,51.8,50.693c11.581,26.827,75.962,39.745,95.91,13.874,36.485-47.317,37.493-28.833,54.924-64.131s12.33-70.845-17-79.748" transform="translate(832.611 1921.393)" fill="#d6edff"/>
      <path id="Trazado_818782" data-name="Trazado 818782" d="M564.27,65.153c-21.442,4.626,13.4,41.837,48.916,60.086s23.015-9.4-.733-36.239c-19.4-21.922-26.74-28.474-48.183-23.847" transform="translate(585.95 1920.67)" fill="#d6edff"/>
      <rect id="Rectángulo_375804" data-name="Rectángulo 375804" width="229.891" height="1.698" transform="translate(1006.554 2216.587)"/>
      <path id="Trazado_818791" data-name="Trazado 818791" d="M190.086,326.978c.022.609.048,1.227.083,1.861.407,7.669,1.355,12.317,1.8,12.7h163.81c.533-.541,1.457-5.162,1.857-12.7l.03-.63.047-.363,9.969-189.8H180.165Z" transform="translate(824.537 1873.721)" fill="#fff"/>
      <path id="Trazado_818792" data-name="Trazado 818792" d="M189.019,326.338c.022.613.049,1.233.082,1.869.383,7.228,1.354,13.058,2.171,13.058H355.156c.817,0,1.788-5.83,2.171-13.058.011-.215.021-.423.031-.634h.031l10.006-190.564H179.078Zm167.649.475h-.035l-.034.722-.011.23-.02.4c-.361,6.81-1.178,11.353-1.687,12.341H191.548c-.509-.988-1.326-5.532-1.689-12.341-.033-.63-.059-1.247-.081-1.867l-9.9-188.532H366.595Z" transform="translate(825.224 1874.373)"/>
      <path id="Trazado_818793" data-name="Trazado 818793" d="M375.169,675.088H213.148c-.06,3.719-.394,6.194-.926,6.224H376.1c-.532-.03-.866-2.5-.926-6.224" transform="translate(804.278 1534.321)" fill="#fdbf2d"/>
      <path id="Trazado_818794" data-name="Trazado 818794" d="M225.394,339.366l.234,2.719h15.765l-.2-2.719Z" transform="translate(795.953 1746.489)" fill="#aab6c2"/>
      <path id="Trazado_818795" data-name="Trazado 818795" d="M224,316.937l.237,2.755h33.554l-.164-2.755Z" transform="translate(796.834 1760.663)" fill="#aab6c2"/>
      <path id="Trazado_818796" data-name="Trazado 818796" d="M222.588,294.212l.241,2.792h27.1l-.178-2.792Z" transform="translate(797.727 1775.025)"/>
      <path id="Trazado_818797" data-name="Trazado 818797" d="M222.142,293.8l.268,3.1h27.4l-.2-3.1Zm.543,2.793-.213-2.487h26.856l.16,2.487Z" transform="translate(798.008 1775.288)"/>
      <path id="Trazado_818798" data-name="Trazado 818798" d="M275.444,339.366l.194,2.719h4.784l-.183-2.719Z" transform="translate(764.323 1746.489)" fill="#aab6c2"/>
      <path id="Trazado_818799" data-name="Trazado 818799" d="M221.213,272.022l.243,2.829h16.078l-.206-2.829Z" transform="translate(798.596 1789.049)" fill="#aab6c2"/>
      <path id="Trazado_818800" data-name="Trazado 818800" d="M219.763,248.687l.245,2.867h34.227l-.168-2.867Z" transform="translate(799.512 1803.795)" fill="#aab6c2"/>
      <path id="Trazado_818801" data-name="Trazado 818801" d="M218.294,225.037l.248,2.906h27.65l-.187-2.906Z" transform="translate(800.44 1818.742)" fill="#aab6c2"/>
      <path id="Trazado_818802" data-name="Trazado 818802" d="M271.638,272.022l.2,2.829h4.88l-.191-2.829Z" transform="translate(766.728 1789.049)" fill="#aab6c2"/>
      <path id="Trazado_818803" data-name="Trazado 818803" d="M216.86,201.934l.251,2.945h16.406l-.214-2.945Z" transform="translate(801.347 1833.343)" fill="#aab6c2"/>
      <path id="Trazado_818804" data-name="Trazado 818804" d="M215.35,177.637l.255,2.986h34.927l-.175-2.986Z" transform="translate(802.301 1848.698)" fill="#aab6c2"/>
      <path id="Trazado_818805" data-name="Trazado 818805" d="M267.678,201.934l.208,2.945h4.978l-.2-2.945Z" transform="translate(769.231 1833.343)" fill="#aab6c2"/>
      <path id="Trazado_818806" data-name="Trazado 818806" d="M235.972,509.757l.215,2.45h14.971l-.185-2.45Z" transform="translate(789.268 1638.807)" fill="#aab6c2"/>
      <path id="Trazado_818807" data-name="Trazado 818807" d="M234.717,489.544l.216,2.482h31.853l-.15-2.482Z" transform="translate(790.061 1651.581)" fill="#aab6c2"/>
      <path id="Trazado_818808" data-name="Trazado 818808" d="M233.447,469.075l.219,2.514h25.72l-.166-2.514Z" transform="translate(790.864 1664.516)" fill="#aab6c2"/>
      <path id="Trazado_818809" data-name="Trazado 818809" d="M283.5,509.757l.178,2.45h4.543l-.169-2.45Z" transform="translate(759.234 1638.807)" fill="#aab6c2"/>
      <path id="Trazado_818810" data-name="Trazado 818810" d="M232.208,449.1l.222,2.545h15.252l-.189-2.545Z" transform="translate(791.647 1677.139)" fill="#aab6c2"/>
      <path id="Trazado_818811" data-name="Trazado 818811" d="M230.9,428.115l.224,2.577h32.459l-.156-2.577Z" transform="translate(792.471 1690.402)" fill="#aab6c2"/>
      <path id="Trazado_818812" data-name="Trazado 818812" d="M229.581,406.856l.228,2.612h26.211l-.17-2.612Z" transform="translate(793.307 1703.837)" fill="#aab6c2"/>
      <path id="Trazado_818813" data-name="Trazado 818813" d="M280.039,449.1l.185,2.545h4.628l-.174-2.545Z" transform="translate(761.419 1677.139)" fill="#aab6c2"/>
      <path id="Trazado_818814" data-name="Trazado 818814" d="M228.3,386.106l.229,2.644h15.546l-.2-2.644Z" transform="translate(794.118 1716.951)" fill="#aab6c2"/>
      <path id="Trazado_818815" data-name="Trazado 818815" d="M226.941,364.3l.231,2.678h33.089l-.16-2.678Z" transform="translate(794.976 1730.731)" fill="#aab6c2"/>
      <path id="Trazado_818816" data-name="Trazado 818816" d="M276.447,386.106l.191,2.644h4.718l-.18-2.644Z" transform="translate(763.689 1716.951)" fill="#aab6c2"/>
      <path id="Trazado_818817" data-name="Trazado 818817" d="M335.536,360.7l.145,2.684h26.577l-.087-2.684Z" transform="translate(726.346 1733.006)" fill="#aab6c2"/>
      <path id="Trazado_818818" data-name="Trazado 818818" d="M334.9,339.366l.146,2.719h15.765l-.112-2.719Z" transform="translate(726.746 1746.489)" fill="#aab6c2"/>
      <path id="Trazado_818819" data-name="Trazado 818819" d="M334.241,316.937l.147,2.755h33.555l-.073-2.755Z" transform="translate(727.165 1760.663)"/>
      <path id="Trazado_818820" data-name="Trazado 818820" d="M333.81,316.532l.164,3.054h33.851l-.081-3.054Zm.448,2.755-.13-2.455H367.45l.066,2.455Z" transform="translate(727.437 1760.92)"/>
      <path id="Trazado_818821" data-name="Trazado 818821" d="M337.45,425.237l.141,2.582h26.066l-.084-2.582Z" transform="translate(725.137 1692.221)" fill="#aab6c2"/>
      <path id="Trazado_818822" data-name="Trazado 818822" d="M336.839,404.719l.142,2.614h15.46l-.109-2.614Z" transform="translate(725.523 1705.188)" fill="#aab6c2"/>
      <path id="Trazado_818823" data-name="Trazado 818823" d="M336.2,383.153l.143,2.65h32.9l-.071-2.65Z" transform="translate(725.925 1718.817)" fill="#aab6c2"/>
      <path id="Trazado_818824" data-name="Trazado 818824" d="M333.566,294.212l.149,2.792h27.1l-.089-2.792Z" transform="translate(727.592 1775.025)" fill="#aab6c2"/>
      <path id="Trazado_818825" data-name="Trazado 818825" d="M384.958,339.366l.106,2.719h4.784l-.095-2.719Z" transform="translate(695.113 1746.489)" fill="#aab6c2"/>
      <path id="Trazado_818826" data-name="Trazado 818826" d="M339.313,488.053l.136,2.486h25.57l-.083-2.486Z" transform="translate(723.959 1652.523)" fill="#aab6c2"/>
      <path id="Trazado_818827" data-name="Trazado 818827" d="M338.728,468.315l.138,2.514h15.162l-.1-2.514Z" transform="translate(724.329 1664.996)" fill="#aab6c2"/>
      <path id="Trazado_818828" data-name="Trazado 818828" d="M338.109,447.571l.139,2.549h32.269l-.072-2.549Z" transform="translate(724.72 1678.107)" fill="#aab6c2"/>
      <path id="Trazado_818829" data-name="Trazado 818829" d="M340.519,528.812l.133,2.422h14.883l-.1-2.422Z" transform="translate(723.197 1626.764)" fill="#aab6c2"/>
      <path id="Trazado_818830" data-name="Trazado 818830" d="M339.927,508.841l.135,2.453h31.663l-.069-2.453Z" transform="translate(723.572 1639.386)" fill="#aab6c2"/>
      <path id="Trazado_818831" data-name="Trazado 818831" d="M386.867,468.315l.1,2.514h4.6l-.091-2.514Z" transform="translate(693.907 1664.996)" fill="#aab6c2"/>
      <path id="Trazado_818832" data-name="Trazado 818832" d="M444,488.053l.056,2.486h25.569l0-2.486Z" transform="translate(657.801 1652.523)"/>
      <path id="Trazado_818833" data-name="Trazado 818833" d="M443.6,487.684l.061,2.755h25.852v-2.755Zm.342,2.485-.049-2.214h25.333l0,2.214Z" transform="translate(658.052 1652.756)"/>
      <path id="Trazado_818834" data-name="Trazado 818834" d="M444.055,468.315l.056,2.514h15.163l-.025-2.514Z" transform="translate(657.765 1664.996)" fill="#aab6c2"/>
      <path id="Trazado_818835" data-name="Trazado 818835" d="M444.169,450.12h32.265l.013-2.549H444.112Z" transform="translate(657.73 1678.107)" fill="#aab6c2"/>
      <path id="Trazado_818836" data-name="Trazado 818836" d="M443.886,528.812l.055,2.422h14.881l-.025-2.422Z" transform="translate(657.872 1626.764)" fill="#aab6c2"/>
      <path id="Trazado_818837" data-name="Trazado 818837" d="M444,511.294h31.663l.01-2.453H443.939Z" transform="translate(657.839 1639.386)" fill="#aab6c2"/>
      <path id="Trazado_818838" data-name="Trazado 818838" d="M492.194,468.315l.019,2.514h4.6l-.01-2.514Z" transform="translate(627.343 1664.996)" fill="#aab6c2"/>
      <path id="Trazado_818839" data-name="Trazado 818839" d="M332.906,272.022l.152,2.829h16.078l-.115-2.829Z" transform="translate(728.008 1789.049)" fill="#aab6c2"/>
      <path id="Trazado_818840" data-name="Trazado 818840" d="M332.217,248.687l.152,2.867H366.6l-.076-2.867Z" transform="translate(728.444 1803.795)" fill="#aab6c2"/>
      <path id="Trazado_818841" data-name="Trazado 818841" d="M331.517,225.037l.153,2.906h27.65l-.091-2.906Z" transform="translate(728.886 1818.742)" fill="#aab6c2"/>
      <path id="Trazado_818842" data-name="Trazado 818842" d="M383.336,272.022l.11,2.829h4.879l-.1-2.829Z" transform="translate(696.138 1789.049)" fill="#aab6c2"/>
      <path id="Trazado_818843" data-name="Trazado 818843" d="M330.832,201.934l.156,2.945h16.4l-.117-2.945Z" transform="translate(729.32 1833.343)" fill="#aab6c2"/>
      <path id="Trazado_818844" data-name="Trazado 818844" d="M330.113,177.637l.157,2.986H365.2l-.077-2.986Z" transform="translate(729.774 1848.698)" fill="#aab6c2"/>
      <path id="Trazado_818845" data-name="Trazado 818845" d="M381.65,201.934l.113,2.945h4.978l-.1-2.945Z" transform="translate(697.204 1833.343)" fill="#aab6c2"/>
      <path id="Trazado_818846" data-name="Trazado 818846" d="M444.417,339.366l.058,2.719H460.24l-.024-2.719Z" transform="translate(657.536 1746.489)" fill="#aab6c2"/>
      <path id="Trazado_818847" data-name="Trazado 818847" d="M444.537,319.693h33.554l.015-2.755H444.478Z" transform="translate(657.498 1760.663)" fill="#aab6c2"/>
      <path id="Trazado_818848" data-name="Trazado 818848" d="M444.6,297h27.1v-2.792H444.546Z" transform="translate(657.455 1775.024)" fill="#aab6c2"/>
      <path id="Trazado_818849" data-name="Trazado 818849" d="M494.467,339.366l.018,2.719h4.784l-.007-2.719Z" transform="translate(625.906 1746.489)" fill="#aab6c2"/>
      <path id="Trazado_818850" data-name="Trazado 818850" d="M444.605,272.022l.059,2.829h16.079l-.023-2.829Z" transform="translate(657.418 1789.049)" fill="#aab6c2"/>
      <path id="Trazado_818851" data-name="Trazado 818851" d="M444.731,251.554h34.228l.018-2.867h-34.3Z" transform="translate(657.375 1803.796)" fill="#aab6c2"/>
      <path id="Trazado_818852" data-name="Trazado 818852" d="M444.8,227.943h27.65l0-2.906H444.739Z" transform="translate(657.333 1818.742)" fill="#aab6c2"/>
      <path id="Trazado_818853" data-name="Trazado 818853" d="M495.033,272.022l.019,2.829h4.879l-.007-2.829Z" transform="translate(625.549 1789.049)" fill="#aab6c2"/>
      <path id="Trazado_818854" data-name="Trazado 818854" d="M444.178,423.931l.058,2.584h15.37l-.025-2.584Z" transform="translate(657.688 1693.047)" fill="#aab6c2"/>
      <path id="Trazado_818855" data-name="Trazado 818855" d="M444.3,405.237H477l.014-2.617H444.237Z" transform="translate(657.65 1706.514)" fill="#aab6c2"/>
      <path id="Trazado_818856" data-name="Trazado 818856" d="M444.357,383.68h26.415v-2.652H444.3Z" transform="translate(657.611 1720.16)" fill="#aab6c2"/>
      <path id="Trazado_818857" data-name="Trazado 818857" d="M492.977,423.931l.02,2.584h4.664l-.008-2.584Z" transform="translate(626.848 1693.047)" fill="#aab6c2"/>
      <path id="Trazado_818858" data-name="Trazado 818858" d="M444.358,359.953l.057,2.685h15.67l-.025-2.685Z" transform="translate(657.574 1733.479)" fill="#aab6c2"/>
      <path id="Trazado_818859" data-name="Trazado 818859" d="M493.5,359.953l.019,2.685h4.755l-.009-2.685Z" transform="translate(626.518 1733.479)" fill="#aab6c2"/>
      <path id="Trazado_818860" data-name="Trazado 818860" d="M444.8,201.934l.061,2.945h16.4l-.022-2.945Z" transform="translate(657.293 1833.343)"/>
      <path id="Trazado_818861" data-name="Trazado 818861" d="M444.369,201.5l.068,3.265h16.714l-.025-3.265Zm.372,2.945-.054-2.625h16.13l.021,2.625Z" transform="translate(657.567 1833.617)"/>
      <path id="Trazado_818862" data-name="Trazado 818862" d="M444.931,180.623h34.928l.019-2.986H444.87Z" transform="translate(657.25 1848.698)" fill="#aab6c2"/>
      <path id="Trazado_818863" data-name="Trazado 818863" d="M495.622,201.934l.018,2.945h4.978l-.007-2.945Z" transform="translate(625.177 1833.343)"/>
      <path id="Trazado_818864" data-name="Trazado 818864" d="M495.2,201.5l.02,3.265H500.5L500.5,201.5Zm.329,2.945-.017-2.625h4.679l.005,2.625Z" transform="translate(625.446 1833.617)"/>
      <path id="Trazado_818865" data-name="Trazado 818865" d="M553.1,363.384h26.576l.088-2.684H553.126Z" transform="translate(588.854 1733.007)" fill="#aab6c2"/>
      <path id="Trazado_818866" data-name="Trazado 818866" d="M553.845,342.085H569.61l.065-2.719h-15.8Z" transform="translate(588.381 1746.489)" fill="#aab6c2"/>
      <path id="Trazado_818867" data-name="Trazado 818867" d="M554.636,319.693H588.19l.1-2.755H554.667Z" transform="translate(587.881 1760.663)" fill="#aab6c2"/>
      <path id="Trazado_818868" data-name="Trazado 818868" d="M555.434,297h27.1l.092-2.792H555.466Z" transform="translate(587.377 1775.024)" fill="#ffc259"/>
      <path id="Trazado_818869" data-name="Trazado 818869" d="M603.791,342.085h4.784l.082-2.719h-4.8Z" transform="translate(556.817 1746.489)" fill="#aab6c2"/>
      <path id="Trazado_818870" data-name="Trazado 818870" d="M556.212,274.851h16.079l.069-2.829H556.246Z" transform="translate(586.885 1789.048)" fill="#aab6c2"/>
      <path id="Trazado_818871" data-name="Trazado 818871" d="M557.033,251.554H591.26l.11-2.867h-34.3Z" transform="translate(586.367 1803.796)" fill="#aab6c2"/>
      <path id="Trazado_818872" data-name="Trazado 818872" d="M557.866,227.943h27.65l.1-2.906H557.9Z" transform="translate(585.84 1818.742)" fill="#aab6c2"/>
      <path id="Trazado_818873" data-name="Trazado 818873" d="M606.53,274.851h4.879l.086-2.829H606.6Z" transform="translate(555.086 1789.048)" fill="#aab6c2"/>
      <path id="Trazado_818874" data-name="Trazado 818874" d="M547.886,511.278h25.405l.077-2.453H547.911Z" transform="translate(592.147 1639.396)" fill="#aab6c2"/>
      <path id="Trazado_818875" data-name="Trazado 818875" d="M548.571,491.823h15.066l.056-2.482H548.6Z" transform="translate(591.714 1651.709)" fill="#aab6c2"/>
      <path id="Trazado_818876" data-name="Trazado 818876" d="M549.294,471.381h32.056l.093-2.515H549.318Z" transform="translate(591.257 1664.649)" fill="#aab6c2"/>
      <path id="Trazado_818877" data-name="Trazado 818877" d="M550.02,450.68h25.886l.081-2.546h-25.94Z" transform="translate(590.798 1677.751)" fill="#ffc259"/>
      <path id="Trazado_818878" data-name="Trazado 818878" d="M596.3,491.823h4.571l.072-2.482h-4.582Z" transform="translate(561.549 1651.709)" fill="#aab6c2"/>
      <path id="Trazado_818879" data-name="Trazado 818879" d="M550.878,426.4h15.37l.06-2.585H550.9Z" transform="translate(590.256 1693.118)" fill="#aab6c2"/>
      <path id="Trazado_818880" data-name="Trazado 818880" d="M551.628,405.122h32.711l.1-2.619H551.656Z" transform="translate(589.782 1706.589)" fill="#aab6c2"/>
      <path id="Trazado_818881" data-name="Trazado 818881" d="M552.384,383.565H578.8l.085-2.653H552.413Z" transform="translate(589.304 1720.233)" fill="#aab6c2"/>
      <path id="Trazado_818882" data-name="Trazado 818882" d="M598.977,426.4h4.665l.075-2.585h-4.675Z" transform="translate(559.859 1693.118)" fill="#aab6c2"/>
      <path id="Trazado_818883" data-name="Trazado 818883" d="M243.153,625.428l.2,2.278h30.513l-.139-2.278Z" transform="translate(784.73 1565.706)" fill="#aab6c2"/>
      <path id="Trazado_818884" data-name="Trazado 818884" d="M241.988,606.653l.2,2.306h24.631l-.153-2.306Z" transform="translate(785.466 1577.571)" fill="#aab6c2"/>
      <path id="Trazado_818885" data-name="Trazado 818885" d="M240.849,588.344l.207,2.332h14.6l-.177-2.332Z" transform="translate(786.186 1589.142)" fill="#aab6c2"/>
      <path id="Trazado_818886" data-name="Trazado 818886" d="M239.658,569.112l.208,2.362h31.069l-.145-2.362Z" transform="translate(786.939 1601.295)" fill="#aab6c2"/>
      <path id="Trazado_818887" data-name="Trazado 818887" d="M238.447,549.646l.212,2.391h25.081l-.159-2.391Z" transform="translate(787.704 1613.598)" fill="#aab6c2"/>
      <path id="Trazado_818888" data-name="Trazado 818888" d="M286.644,588.344l.173,2.332h4.431l-.161-2.332Z" transform="translate(757.245 1589.142)" fill="#aab6c2"/>
      <path id="Trazado_818889" data-name="Trazado 818889" d="M341.634,566.478l.133,2.366h24.949l-.082-2.366Z" transform="translate(722.492 1602.961)" fill="#aab6c2"/>
      <path id="Trazado_818890" data-name="Trazado 818890" d="M341.08,547.69l.133,2.393h14.792l-.1-2.393Z" transform="translate(722.843 1614.833)" fill="#aab6c2"/>
      <path id="Trazado_818891" data-name="Trazado 818891" d="M343.342,624.062l.129,2.279h24.492l-.078-2.279Z" transform="translate(721.413 1566.568)" fill="#aab6c2"/>
      <path id="Trazado_818892" data-name="Trazado 818892" d="M342.808,605.956l.128,2.307h14.522l-.1-2.307Z" transform="translate(721.751 1578.012)" fill="#aab6c2"/>
      <path id="Trazado_818893" data-name="Trazado 818893" d="M342.242,586.943l.131,2.335h30.892l-.067-2.335Z" transform="translate(722.108 1590.027)" fill="#aab6c2"/>
      <path id="Trazado_818894" data-name="Trazado 818894" d="M388.906,605.956l.094,2.307h4.407l-.086-2.307Z" transform="translate(692.618 1578.012)" fill="#aab6c2"/>
      <path id="Trazado_818895" data-name="Trazado 818895" d="M443.616,624.062l.054,2.279h24.494l-.005-2.279Z" transform="translate(658.043 1566.568)"/>
      <path id="Trazado_818896" data-name="Trazado 818896" d="M443.234,623.725l.06,2.528h24.764l0-2.528Zm.328,2.281-.047-2.032H467.78l0,2.032Z" transform="translate(658.284 1566.782)"/>
      <path id="Trazado_818897" data-name="Trazado 818897" d="M443.669,605.956l.054,2.307h14.521l-.025-2.307Z" transform="translate(658.009 1578.012)" fill="#aab6c2"/>
      <path id="Trazado_818898" data-name="Trazado 818898" d="M443.776,589.278h30.893l.008-2.335H443.721Z" transform="translate(657.977 1590.027)" fill="#aab6c2"/>
      <path id="Trazado_818899" data-name="Trazado 818899" d="M489.767,605.956l.019,2.307h4.407l-.011-2.307Z" transform="translate(628.877 1578.012)" fill="#aab6c2"/>
      <path id="Trazado_818900" data-name="Trazado 818900" d="M443.781,565.284l.055,2.367h14.712l-.025-2.367Z" transform="translate(657.938 1603.715)" fill="#aab6c2"/>
      <path id="Trazado_818901" data-name="Trazado 818901" d="M443.893,548.165h31.3l.009-2.4H443.838Z" transform="translate(657.903 1616.049)" fill="#aab6c2"/>
      <path id="Trazado_818902" data-name="Trazado 818902" d="M490.481,565.284l.021,2.367h4.464l-.011-2.367Z" transform="translate(628.426 1603.715)" fill="#aab6c2"/>
      <path id="Trazado_818903" data-name="Trazado 818903" d="M543.791,627.519h14.433l.048-2.278H543.812Z" transform="translate(594.735 1565.824)" fill="#aab6c2"/>
      <path id="Trazado_818904" data-name="Trazado 818904" d="M544.455,608.771h30.7l.083-2.306H544.476Z" transform="translate(594.316 1577.69)" fill="#aab6c2"/>
      <path id="Trazado_818905" data-name="Trazado 818905" d="M545.121,589.792H569.9l.072-2.334H545.143Z" transform="translate(593.895 1589.701)" fill="#ffc259"/>
      <path id="Trazado_818906" data-name="Trazado 818906" d="M589.514,627.519h4.38l.062-2.278h-4.388Z" transform="translate(565.839 1565.824)" fill="#aab6c2"/>
      <path id="Trazado_818907" data-name="Trazado 818907" d="M545.9,567.548h14.713l.052-2.367H545.927Z" transform="translate(593.399 1603.78)" fill="#aab6c2"/>
      <path id="Trazado_818908" data-name="Trazado 818908" d="M546.594,548.059h31.3l.087-2.4H546.616Z" transform="translate(592.963 1616.116)" fill="#aab6c2"/>
      <path id="Trazado_818909" data-name="Trazado 818909" d="M591.946,567.548h4.464l.066-2.367H592Z" transform="translate(564.302 1603.78)" fill="#aab6c2"/>
      <path id="Trazado_818910" data-name="Trazado 818910" d="M558.678,204.88h16.405l.072-2.945H558.714Z" transform="translate(585.327 1833.343)" fill="#aab6c2"/>
      <path id="Trazado_818911" data-name="Trazado 818911" d="M559.532,180.623h34.927l.116-2.986H559.568Z" transform="translate(584.787 1848.698)" fill="#ffc259"/>
      <path id="Trazado_818912" data-name="Trazado 818912" d="M609.38,204.88h4.978l.09-2.945h-4.989Z" transform="translate(553.284 1833.343)" fill="#aab6c2"/>
      <path id="Trazado_818913" data-name="Trazado 818913" d="M597.708,312.107c-.972-3.012-1.878-5.859-4.871-5.2l-.058.013-.035.051L579.253,326.2l-19.858-13.305,0-.079a4,4,0,0,0-.506-2.068c-.461-.69-.955-1.375-1.432-2.037-.257-.358-.514-.714-.766-1.072a1.648,1.648,0,0,0-.51-.524.661.661,0,0,0-.807.082.931.931,0,0,0-.1.832c.059.282.108.565.148.838a14.165,14.165,0,0,0-1.266-1.1c-1.64-1.262-4.244-2.271-6.643-1.322-.462.183-.963.579-.85,1.1.14.641.968.657,1.461.667a4.017,4.017,0,0,1,.434.034,5.693,5.693,0,0,0-2.946.94c-.411.278-.813.774-.592,1.253.276.6,1.089.432,1.572.333l.025,0a4.672,4.672,0,0,0-.468.311c-.4.3-.77.82-.52,1.286.306.578,1.111.369,1.588.244a3.927,3.927,0,0,1,1.055-.124,4.419,4.419,0,0,0-.407.243c-.413.279-.814.775-.591,1.255.276.595,1.089.431,1.572.333a4.12,4.12,0,0,1,1.339-.04,4.735,4.735,0,0,0,.508.218,2.57,2.57,0,0,1,.421.186,3.34,3.34,0,0,1,.949,1.171c.145.282.273.582.4.873a6.178,6.178,0,0,0,1.019,1.8,4.4,4.4,0,0,0,2.661,1.276L576.293,338.4a6.491,6.491,0,0,0,4.4,1.734,6.32,6.32,0,0,0,3.121-.824,29.653,29.653,0,0,0,9.5-8.512l8.66-12.007-.165-.08c-2.34-1.128-3.277-4.036-4.1-6.6m-4.642,18.506a29.322,29.322,0,0,1-9.4,8.424,6.1,6.1,0,0,1-7.157-.87L556.275,319.5l-.047-.008a4.134,4.134,0,0,1-2.528-1.186,5.812,5.812,0,0,1-.963-1.712c-.126-.3-.257-.6-.407-.892a3.666,3.666,0,0,0-1.041-1.279,2.373,2.373,0,0,0-.494-.227,4.234,4.234,0,0,1-.5-.213l-.056-.018a4.381,4.381,0,0,0-1.467.04c-.511.1-1.071.185-1.231-.16-.15-.324.233-.7.485-.868a4.868,4.868,0,0,1,.9-.467l.542-.222-.581-.075a4.51,4.51,0,0,0-1.76.09c-.507.132-1.058.243-1.238-.09-.169-.316.194-.711.436-.894a4.915,4.915,0,0,1,1.149-.636l.722-.293-.779,0a4.386,4.386,0,0,0-.9.077c-.511.1-1.071.185-1.231-.16-.151-.324.235-.7.485-.867a5.837,5.837,0,0,1,4.013-.837l1.064.132-.983-.428a4.542,4.542,0,0,0-1.749-.406c-.523-.01-1.086-.053-1.167-.423-.077-.35.38-.63.662-.742,2.278-.9,4.767.071,6.339,1.28a14.039,14.039,0,0,1,1.562,1.4l.326.341-.061-.469c-.056-.417-.12-.868-.217-1.322-.043-.2-.081-.435.032-.558a.369.369,0,0,1,.427-.022,1.431,1.431,0,0,1,.408.435c.253.359.51.715.767,1.073.476.661.969,1.343,1.428,2.029a3.722,3.722,0,0,1,.452,1.914l.014.232,20.239,13.561,13.63-19.43c2.664-.548,3.49,2.03,4.45,5.007.827,2.564,1.763,5.464,4.1,6.7Z" transform="translate(594.004 1767.532)"/>
      <path id="Trazado_818914" data-name="Trazado 818914" d="M593.138,307.33,579.56,326.685l-20.049-13.434a4.18,4.18,0,0,0-.489-2.146c-.7-1.052-1.467-2.071-2.2-3.105a1.514,1.514,0,0,0-.458-.479.517.517,0,0,0-.618.052.784.784,0,0,0-.067.695c.092.434.156.871.215,1.311a14.221,14.221,0,0,0-1.578-1.417,6.854,6.854,0,0,0-6.491-1.3c-.4.16-.849.5-.756.919.11.5.8.535,1.314.545a4.422,4.422,0,0,1,1.691.394,5.969,5.969,0,0,0-4.119.862c-.359.243-.721.668-.539,1.062.216.467.9.348,1.4.246a4.149,4.149,0,0,1,.867-.075,5.119,5.119,0,0,0-1.186.655c-.344.262-.682.708-.477,1.09.242.455.914.3,1.413.167a4.431,4.431,0,0,1,1.7-.085,5.058,5.058,0,0,0-.927.482c-.358.243-.721.668-.539,1.06.217.468.9.35,1.4.247a4.388,4.388,0,0,1,1.417-.039c.3.167.8.3.974.43a3.511,3.511,0,0,1,.994,1.225,11.552,11.552,0,0,0,1.392,2.638,4.372,4.372,0,0,0,2.617,1.234l20.2,18.637a6.283,6.283,0,0,0,7.339.89,29.684,29.684,0,0,0,9.454-8.468l8.554-11.857c-5.146-2.483-3.547-12.96-8.873-11.788" transform="translate(593.737 1767.259)" fill="#fff"/>
      <path id="Trazado_818915" data-name="Trazado 818915" d="M597.709,312.113c-.878-2.723-1.708-5.295-4.052-5.295a3.87,3.87,0,0,0-.819.094l-.059.014-13.526,19.28L559.395,312.9l-.005-.077a4,4,0,0,0-.506-2.069c-.464-.695-.962-1.385-1.443-2.052-.254-.352-.507-.7-.756-1.057a1.661,1.661,0,0,0-.509-.525.685.685,0,0,0-.807.082.935.935,0,0,0-.1.831c.06.282.108.568.148.84a14.018,14.018,0,0,0-1.266-1.1,7.857,7.857,0,0,0-4.643-1.693,5.4,5.4,0,0,0-2,.371c-.463.183-.964.581-.85,1.1.14.641.968.657,1.463.667a3.677,3.677,0,0,1,.443.035,5.741,5.741,0,0,0-2.956.937c-.412.279-.815.775-.592,1.256a.82.82,0,0,0,.827.429,3.811,3.811,0,0,0,.745-.1l.025,0a4.456,4.456,0,0,0-.468.311c-.4.3-.771.819-.521,1.286a.781.781,0,0,0,.754.385,3.441,3.441,0,0,0,.835-.141,4.241,4.241,0,0,1,1.055-.124,4.717,4.717,0,0,0-.406.243c-.412.279-.814.775-.592,1.255a.821.821,0,0,0,.829.43,3.906,3.906,0,0,0,.744-.1,4.318,4.318,0,0,1,1.339-.04,4.691,4.691,0,0,0,.508.216,2.5,2.5,0,0,1,.423.189,3.338,3.338,0,0,1,.948,1.171c.146.281.274.582.4.874a6.167,6.167,0,0,0,1.018,1.8,4.4,4.4,0,0,0,2.661,1.274L576.293,338.4a6.486,6.486,0,0,0,4.408,1.727,6.321,6.321,0,0,0,3.112-.817,30.043,30.043,0,0,0,9.5-8.512l8.662-12.007-.166-.08c-2.339-1.128-3.276-4.036-4.1-6.6m-4.643,18.506a29.734,29.734,0,0,1-9.4,8.424,6.011,6.011,0,0,1-2.959.776,6.174,6.174,0,0,1-4.2-1.646l-20.2-18.637-.035-.031-.045-.008a4.147,4.147,0,0,1-2.528-1.186,5.837,5.837,0,0,1-.961-1.71c-.127-.3-.258-.6-.408-.895a3.65,3.65,0,0,0-1.04-1.278,2.355,2.355,0,0,0-.5-.228,4.141,4.141,0,0,1-.5-.214l-.056-.018a5.164,5.164,0,0,0-.629-.04,4.256,4.256,0,0,0-.838.082,3.64,3.64,0,0,1-.683.089c-.387,0-.5-.142-.548-.251-.15-.323.234-.7.485-.866a4.837,4.837,0,0,1,.9-.467l.543-.222-.581-.076a4.574,4.574,0,0,0-1.762.09,3.229,3.229,0,0,1-.757.13c-.325,0-.43-.125-.48-.221-.169-.315.194-.71.435-.894a4.983,4.983,0,0,1,1.151-.634l.718-.292-.823-.007a4.215,4.215,0,0,0-.851.078,3.648,3.648,0,0,1-.684.089c-.386,0-.5-.141-.547-.25-.15-.324.234-.7.485-.867a5.836,5.836,0,0,1,4.013-.836l1.064.132-.983-.428a4.547,4.547,0,0,0-1.75-.408c-.521-.011-1.085-.052-1.166-.423-.077-.347.38-.63.662-.742a5.128,5.128,0,0,1,1.886-.347,7.537,7.537,0,0,1,4.454,1.629,13.972,13.972,0,0,1,1.561,1.4l.327.34-.062-.468c-.052-.4-.119-.863-.217-1.322-.044-.206-.081-.436.031-.558a.284.284,0,0,1,.207-.078.466.466,0,0,1,.22.056,1.409,1.409,0,0,1,.408.435q.375.53.758,1.058c.479.666.975,1.354,1.436,2.044a3.722,3.722,0,0,1,.454,1.916l.014.23,20.112,13.477.126.084L592.964,307.2a3.4,3.4,0,0,1,.693-.076c2.118,0,2.878,2.354,3.757,5.081.827,2.564,1.763,5.463,4.1,6.7Z" transform="translate(594.003 1767.526)"/>
      <path id="Trazado_818916" data-name="Trazado 818916" d="M546.125,278.847a4.388,4.388,0,0,0-7.981,3.649l11.936,26.931a4.387,4.387,0,1,0,7.98-3.649Z" transform="translate(598.556 1786.356)"/>
      <path id="Trazado_818917" data-name="Trazado 818917" d="M500.289,173.48a18.91,18.91,0,1,0-11.643,25.936l18.081,40.4,2.148-3.526-17.061-38.164a18.935,18.935,0,0,0,8.474-24.643m-31.907,14.59a16.174,16.174,0,1,1,21.435,7.983,16.193,16.193,0,0,1-21.435-7.983" transform="translate(645.045 1858.305)"/>
      <path id="Trazado_818918" data-name="Trazado 818918" d="M502.853,191.536a16.276,16.276,0,0,0-22.014-20.48l.042.092-.042-.092a16.276,16.276,0,1,0,22.014,20.48m-8.563,8.939a16.072,16.072,0,1,1-1.077-29.671,16.4,16.4,0,0,1,2.264,1.046,16.076,16.076,0,0,1-1.187,28.626" transform="translate(640.531 1853.791)"/>
      <path id="Trazado_818919" data-name="Trazado 818919" d="M500.207,173.261a19.012,19.012,0,1,0-11.792,26.1l18.124,40.493,2.277-3.738-17.044-38.128a18.991,18.991,0,0,0,8.434-24.73m8.379,62.843-2.018,3.314-18-40.221-.038-.083-.086.026a18.781,18.781,0,1,1,3.151-1.286l-.085.043Z" transform="translate(645.22 1858.481)"/>
      <path id="Trazado_818920" data-name="Trazado 818920" d="M574.845,363.567l-.727,2.169,2.152.422,2.8-.785.351-3.266-1.483.477Z" transform="translate(575.569 1732.118)"/>
      <path id="Trazado_818921" data-name="Trazado 818921" d="M496.7,171.972a18.91,18.91,0,1,0-11.514,25.9l18.114,40.47,3.111-1.423L488.345,196.55a18.933,18.933,0,0,0,8.356-24.578M464.8,186.563a16.174,16.174,0,1,1,21.435,7.982,16.191,16.191,0,0,1-21.435-7.982" transform="translate(647.313 1859.258)" fill="#e3e6eb"/>
      <path id="Trazado_818922" data-name="Trazado 818922" d="M498.768,177.45A16.342,16.342,0,1,0,475.9,198.49a16.728,16.728,0,0,0,2.3,1.063,16.334,16.334,0,0,0,20.562-22.1M490.563,198.8a16.006,16.006,0,1,1,7.9-21.213,15.893,15.893,0,0,1-7.9,21.213" transform="translate(642.911 1854.848)"/>
      <path id="Trazado_818923" data-name="Trazado 818923" d="M496.568,171.614a19.078,19.078,0,1,0-11.758,26.169l18.053,40.334.069.155,3.415-1.562-18.07-40.375a19.082,19.082,0,0,0,8.291-24.721m9.336,64.929-2.8,1.282L485.055,197.51l-.061-.137-.143.045a18.726,18.726,0,1,1,3.13-1.305l-.138.074Z" transform="translate(647.6 1859.547)"/>
      <path id="Trazado_818924" data-name="Trazado 818924" d="M496.62,171.753a19.012,19.012,0,1,0-11.663,26.062L503.034,238.2l.043.095,3.3-1.508L488.3,196.419a19.018,19.018,0,0,0,8.317-24.666m9.483,64.935-2.924,1.337-18.072-40.376-.037-.083-.087.027a18.8,18.8,0,1,1,3.141-1.311l-.085.045Z" transform="translate(647.487 1859.434)"/>
      <path id="Trazado_818925" data-name="Trazado 818925" d="M499.274,190.027a16.276,16.276,0,0,0-22.015-20.48l.043.093-.043-.093a16.276,16.276,0,1,0,22.015,20.48m-8.562,8.939a16.072,16.072,0,1,1-1.078-29.67,16.411,16.411,0,0,1,2.264,1.044,16.077,16.077,0,0,1-1.186,28.626" transform="translate(642.789 1854.745)"/>
      <path id="Trazado_818926" data-name="Trazado 818926" d="M540.887,278.45a4.388,4.388,0,0,0-7.98,3.649L544.8,308.792a4.388,4.388,0,1,0,7.98-3.649Z" transform="translate(601.865 1786.607)" fill="#e3e6eb"/>
      <path id="Trazado_818927" data-name="Trazado 818927" d="M540.755,278.094a4.555,4.555,0,0,0-8.286,3.787l11.894,26.694a4.555,4.555,0,0,0,8.286-3.787Zm11.706,30.061a4.22,4.22,0,0,1-7.792.283l-11.894-26.694a4.22,4.22,0,0,1,7.674-3.511l11.9,26.695a4.2,4.2,0,0,1,.116,3.228" transform="translate(602.151 1786.893)"/>
      <path id="Trazado_818928" data-name="Trazado 818928" d="M540.8,278.223a4.493,4.493,0,1,0-8.174,3.735l11.894,26.695a4.466,4.466,0,0,0,1.887,2.051,4.621,4.621,0,0,0,.632.291,4.493,4.493,0,0,0,5.655-6.078Zm11.819,30.055a4.282,4.282,0,0,1-7.906.287L532.82,281.872a4.281,4.281,0,0,1,5.387-5.793,4.34,4.34,0,0,1,.6.277,4.248,4.248,0,0,1,1.8,1.953L552.5,305a4.246,4.246,0,0,1,.118,3.274" transform="translate(602.049 1786.791)"/>
      <g id="Grupo_1071791" data-name="Grupo 1071791" transform="translate(1110.646 2022.923)" opacity="0.6">
        <g id="Grupo_1071790" data-name="Grupo 1071790" transform="translate(0 0)">
          <g id="Grupo_1071789" data-name="Grupo 1071789" clip-path="url(#clip-path)">
            <path id="Trazado_818929" data-name="Trazado 818929" d="M487.308,168.669a16.168,16.168,0,1,0,12.767,18.97,16.169,16.169,0,0,0-12.767-18.97" transform="translate(-468.036 -168.367)" fill="#fff"/>
          </g>
        </g>
      </g>
      <g id="Grupo_1071794" data-name="Grupo 1071794" transform="translate(1110.746 2022.743)" opacity="0.6">
        <g id="Grupo_1071793" data-name="Grupo 1071793" transform="translate(0 0)">
          <g id="Grupo_1071792" data-name="Grupo 1071792" clip-path="url(#clip-path-2)">
            <path id="Trazado_818930" data-name="Trazado 818930" d="M487.58,168.182a16.168,16.168,0,1,0,12.766,18.97,16.169,16.169,0,0,0-12.766-18.97" transform="translate(-468.307 -167.879)" fill="#fff"/>
          </g>
        </g>
      </g>
      <path id="Trazado_818931" data-name="Trazado 818931" d="M547.273,322.1a1.062,1.062,0,0,0-.164-.067c.017-.106.033-.2.044-.266a3.1,3.1,0,0,0,.05-1.058,1.116,1.116,0,0,0-.517-.811,1.148,1.148,0,0,0-.8-.083,2.071,2.071,0,0,0-.041-.3,1.321,1.321,0,0,0-.534-.8,1,1,0,0,0-.4-.139,2.209,2.209,0,0,0-.018-.7.992.992,0,0,0-.424-.645,1.032,1.032,0,0,0-1.158.155,1.385,1.385,0,0,0-.457,1.121,1.743,1.743,0,0,0,.489,1.064c.032.036.082.082.137.131a1.682,1.682,0,0,0-.028.471,2.3,2.3,0,0,0,.63,1.3,3.443,3.443,0,0,0,.367.333,2.02,2.02,0,0,0,.556,1.232,3.126,3.126,0,0,0,.412.35,1.582,1.582,0,0,0,0,.167,2.3,2.3,0,0,0,.629,1.3c.238.256,1.035.952,1.426.727.331-.191.36-1.38.388-1.722a2.955,2.955,0,0,0-.049-.976,1.327,1.327,0,0,0-.534-.8" transform="translate(595.331 1760.551)" fill="#fff"/>
      <path id="Trazado_818932" data-name="Trazado 818932" d="M547.09,321.7a.464.464,0,0,0-.074-.039l.022-.135a3.214,3.214,0,0,0,.049-1.112,1.252,1.252,0,0,0-.594-.919,1.187,1.187,0,0,0-.739-.128,1.017,1.017,0,0,0-.029-.163,1.467,1.467,0,0,0-.6-.889,1.076,1.076,0,0,0-.319-.133,2.167,2.167,0,0,0-.032-.605,1.145,1.145,0,0,0-.495-.744,1.186,1.186,0,0,0-1.34.17,1.541,1.541,0,0,0-.511,1.248,1.9,1.9,0,0,0,.53,1.159c.021.023.05.053.084.085a1.709,1.709,0,0,0-.014.429,2.447,2.447,0,0,0,.67,1.393,3.706,3.706,0,0,0,.332.308,2.154,2.154,0,0,0,.591,1.258,3.233,3.233,0,0,0,.368.32.758.758,0,0,0,0,.106,2.469,2.469,0,0,0,.669,1.394c.009.009.776.821,1.362.821a.5.5,0,0,0,.256-.065c.333-.193.406-.936.453-1.68l.011-.162a3.179,3.179,0,0,0-.053-1.027,1.469,1.469,0,0,0-.6-.888m.344,1.889-.011.168c-.053.867-.153,1.349-.3,1.432-.238.14-.891-.322-1.235-.7a2.155,2.155,0,0,1-.59-1.216.574.574,0,0,1,0-.084l0-.066a.156.156,0,0,0-.064-.125,2.968,2.968,0,0,1-.391-.331,1.838,1.838,0,0,1-.514-1.136.158.158,0,0,0-.058-.109,3.429,3.429,0,0,1-.35-.318,2.156,2.156,0,0,1-.591-1.214,1.515,1.515,0,0,1,.027-.428.155.155,0,0,0-.05-.144,1.462,1.462,0,0,1-.126-.122,1.585,1.585,0,0,1-.448-.967,1.226,1.226,0,0,1,.4-.994.978.978,0,0,1,.621-.234.676.676,0,0,1,.356.093.838.838,0,0,1,.354.545,2.124,2.124,0,0,1,.015.647.154.154,0,0,0,.131.169.843.843,0,0,1,.34.116,1.154,1.154,0,0,1,.468.706,1.248,1.248,0,0,1,.032.223l.005.056a.153.153,0,0,0,.186.137,1,1,0,0,1,.694.067.977.977,0,0,1,.439.7,2.967,2.967,0,0,1-.049,1.007l-.044.267a.154.154,0,0,0,.093.168c.022.009.045.016.068.024a.339.339,0,0,1,.073.029,1.166,1.166,0,0,1,.468.7,2.859,2.859,0,0,1,.043.925" transform="translate(595.597 1760.816)"/>
      <path id="Trazado_818933" data-name="Trazado 818933" d="M731.192,252.043a1.029,1.029,0,1,0,.549,1.322,1.012,1.012,0,0,0-.549-1.322" transform="translate(477.173 1801.717)"/>
      <path id="Trazado_818934" data-name="Trazado 818934" d="M735.508,249.781a1.03,1.03,0,1,0,.549,1.322,1.013,1.013,0,0,0-.549-1.322" transform="translate(474.445 1803.146)"/>
      <path id="Trazado_818935" data-name="Trazado 818935" d="M740.3,212.068a1.03,1.03,0,1,0,.549,1.323,1.013,1.013,0,0,0-.549-1.323" transform="translate(471.416 1826.98)"/>
      <path id="Trazado_818936" data-name="Trazado 818936" d="M734.973,209.323c-.848-.335-1.705-.177-1.913.352s.311,1.227,1.159,1.562,1.7.176,1.912-.352-.31-1.228-1.159-1.562" transform="translate(475.151 1828.783)"/>
      <path id="Trazado_818937" data-name="Trazado 818937" d="M745.143,218.258a1.029,1.029,0,1,0,.549,1.322,1.011,1.011,0,0,0-.549-1.322" transform="translate(468.356 1823.069)"/>
      <path id="Trazado_818938" data-name="Trazado 818938" d="M745.587,221.749a1.029,1.029,0,1,0,.549,1.323,1.013,1.013,0,0,0-.549-1.323" transform="translate(468.076 1820.862)"/>
      <path id="Trazado_818939" data-name="Trazado 818939" d="M741.617,240.521a1.029,1.029,0,1,0,.549,1.323,1.013,1.013,0,0,0-.549-1.323" transform="translate(470.584 1808.999)"/>
      <path id="Trazado_818940" data-name="Trazado 818940" d="M745.295,226.024a1.029,1.029,0,1,0,.549,1.321,1.011,1.011,0,0,0-.549-1.321" transform="translate(468.26 1818.161)"/>
      <path id="Trazado_818941" data-name="Trazado 818941" d="M739.405,243.842c-.55-.216-1.272.309-1.613,1.174s-.171,1.742.379,1.96,1.272-.31,1.613-1.175.172-1.741-.379-1.959" transform="translate(472.242 1806.889)"/>
      <path id="Trazado_818942" data-name="Trazado 818942" d="M742.944,234.319c-.551-.217-1.273.308-1.613,1.174s-.171,1.743.378,1.959,1.272-.309,1.613-1.174.171-1.743-.378-1.959" transform="translate(470.006 1812.908)"/>
      <path id="Trazado_818943" data-name="Trazado 818943" d="M746.038,228.366c-.551-.217-1.273.309-1.613,1.174s-.172,1.742.378,1.959,1.272-.31,1.613-1.174.171-1.743-.378-1.959" transform="translate(468.051 1816.669)"/>
      <path id="Trazado_818944" data-name="Trazado 818944" d="M742.452,214.645c-.551-.216-1.272.31-1.613,1.174s-.172,1.743.378,1.959,1.273-.308,1.613-1.174.171-1.741-.378-1.959" transform="translate(470.317 1825.34)"/>
      <path id="Trazado_818945" data-name="Trazado 818945" d="M714.53,212.215a7.641,7.641,0,0,0-4.549-1.9,14.786,14.786,0,0,0-6.858.775,8.552,8.552,0,0,0-3.837,2.584,4.4,4.4,0,0,0-.794,4.183,7.568,7.568,0,0,0,2.9,3.226c2.51,1.793,5.339,3.242,7.356,5.529.563.64.645,1.034,1.544.75a6.784,6.784,0,0,0,1.96-1.346,11.5,11.5,0,0,0,2.8-3.42,10.694,10.694,0,0,0,.955-7.432,6.106,6.106,0,0,0-1.482-2.948" transform="translate(497.116 1828.116)"/>
      <path id="Trazado_818946" data-name="Trazado 818946" d="M703.115,261.108l-1.142,4.451,6.884,1.137.216-4.526.118-2.491-5.477-.905Z" transform="translate(494.768 1797.421)" fill="#bb695b"/>
      <path id="Trazado_818947" data-name="Trazado 818947" d="M705.077,261.109a5.056,5.056,0,0,0,2.08.739,6.443,6.443,0,0,0,3.92-.822l.076-1.345-5.477-.905Z" transform="translate(492.806 1797.42)"/>
      <path id="Trazado_818948" data-name="Trazado 818948" d="M708.111,212.738a6.8,6.8,0,1,0,6.055,7.879,7.034,7.034,0,0,0-6.055-7.879" transform="translate(496.168 1826.581)"/>
      <path id="Trazado_818949" data-name="Trazado 818949" d="M706.819,217.129c-3.818-.63-7.573,2.846-8.386,7.768s1.623,9.423,5.441,10.053,7.573-2.846,8.386-7.768-1.623-9.421-5.441-10.053" transform="translate(497.104 1823.786)" fill="#fff"/>
      <path id="Trazado_818950" data-name="Trazado 818950" d="M706.58,216.709a6.438,6.438,0,0,0-5.451,1.841,10.584,10.584,0,0,0-3.114,6.054c-.826,5,1.672,9.587,5.569,10.232a5.754,5.754,0,0,0,.919.075c3.564,0,6.884-3.369,7.645-7.97.825-5-1.672-9.588-5.569-10.232m5.263,10.181c-.8,4.829-4.485,8.261-8.208,7.641s-6.111-5.046-5.313-9.876a10.268,10.268,0,0,1,3.018-5.877,6.36,6.36,0,0,1,4.311-1.835,5.351,5.351,0,0,1,.879.073c3.728.616,6.112,5.046,5.314,9.875" transform="translate(497.368 1824.053)"/>
      <path id="Trazado_818951" data-name="Trazado 818951" d="M736.062,236.482a2.258,2.258,0,0,0-2.45,1.965c-.319,1.333-.721,3.217.312,3.464s3.114-1.235,3.432-2.568a2.257,2.257,0,0,0-1.294-2.861" transform="translate(474.996 1811.536)" fill="#fff"/>
      <path id="Trazado_818952" data-name="Trazado 818952" d="M735.831,236.065a1.876,1.876,0,0,0-1.626.42,3.026,3.026,0,0,0-1.011,1.66,10.762,10.762,0,0,0-.354,2.172c-.015.853.249,1.35.782,1.479a1.28,1.28,0,0,0,.286.031,3.349,3.349,0,0,0,1.826-.749,3.81,3.81,0,0,0,1.506-1.965,3.021,3.021,0,0,0-.149-1.938,1.877,1.877,0,0,0-1.26-1.111m1.108,2.975a3.557,3.557,0,0,1-1.389,1.788,2.67,2.67,0,0,1-1.856.666c-.14-.033-.563-.135-.547-1.172a10.514,10.514,0,0,1,.347-2.105,2.714,2.714,0,0,1,.9-1.491,1.672,1.672,0,0,1,1.041-.4,1.3,1.3,0,0,1,.319.038h0a1.575,1.575,0,0,1,1.05.936,2.709,2.709,0,0,1,.13,1.737" transform="translate(475.262 1811.802)"/>
      <path id="Trazado_818953" data-name="Trazado 818953" d="M737.948,238.708c-.747-.032-1.633.232-2.574,2.478a.206.206,0,0,0,.188.283.207.207,0,0,0,.166-.086,3.632,3.632,0,0,0,.294-.527c.149-.306.278-.569.509-.648a1.275,1.275,0,0,1,.891.185.2.2,0,1,0,.18-.365,1.943,1.943,0,0,0-.977-.252,1.47,1.47,0,0,1,1.3-.66.207.207,0,0,0,.214-.194.2.2,0,0,0-.194-.214" transform="translate(473.67 1810.104)"/>
      <path id="Trazado_818954" data-name="Trazado 818954" d="M693.343,229.3a2.258,2.258,0,0,0-2.147,2.293c-.127,1.364,1.365,3.437,2.424,3.536s1.284-1.815,1.411-3.179a2.259,2.259,0,0,0-1.688-2.65" transform="translate(501.584 1816.053)" fill="#fff"/>
      <path id="Trazado_818955" data-name="Trazado 818955" d="M693.091,228.88a1.885,1.885,0,0,0-1.551.646,3.022,3.022,0,0,0-.765,1.786,3.812,3.812,0,0,0,.794,2.345,2.863,2.863,0,0,0,1.769,1.359c.032,0,.064,0,.095,0,.5,0,.877-.386,1.122-1.151a10.747,10.747,0,0,0,.363-2.171,3.018,3.018,0,0,0-.423-1.9,1.874,1.874,0,0,0-1.4-.92m1.519,2.789a10.567,10.567,0,0,1-.349,2.1c-.319.989-.755.945-.894.934a2.655,2.655,0,0,1-1.544-1.227,3.553,3.553,0,0,1-.739-2.139,2.706,2.706,0,0,1,.682-1.6,1.609,1.609,0,0,1,1.168-.555c.042,0,.084,0,.127.006a1.578,1.578,0,0,1,1.172.779,2.708,2.708,0,0,1,.376,1.7" transform="translate(501.849 1816.318)"/>
      <path id="Trazado_818956" data-name="Trazado 818956" d="M694.434,230.851a.2.2,0,1,0-.112.391,1.483,1.483,0,0,1,1.022,1.044,1.93,1.93,0,0,0-1.007-.075.2.2,0,0,0,.052.4,1.283,1.283,0,0,1,.9.11c.193.149.229.442.272.779a3.669,3.669,0,0,0,.109.593.2.2,0,0,0,.2.146.21.21,0,0,0,.037,0,.2.2,0,0,0,.166-.215c-.167-2.431-.923-2.969-1.64-3.174" transform="translate(499.706 1815.072)"/>
      <path id="Trazado_818957" data-name="Trazado 818957" d="M714.415,241.1a2.072,2.072,0,0,1-1.051.116.4.4,0,0,1-.212-.075c-.085-.083-.046-.291-.01-.442l.59-2.405a.2.2,0,0,0-.4-.1l-.589,2.406a.86.86,0,0,0,.119.827.763.763,0,0,0,.438.188,2.424,2.424,0,0,0,.364.027,2.475,2.475,0,0,0,.894-.167.2.2,0,1,0-.147-.379" transform="translate(487.993 1810.525)"/>
      <path id="Trazado_818958" data-name="Trazado 818958" d="M710.839,252.288a4.814,4.814,0,0,0,1.166.851,2.071,2.071,0,0,0,2.333-.391,8.042,8.042,0,0,0,.906-1.719,4.552,4.552,0,0,1-4.4,1.259" transform="translate(489.165 1802.315)"/>
      <path id="Trazado_818959" data-name="Trazado 818959" d="M707.218,233.993c-.26-.044-.53.271-.6.7s.082.817.343.86.529-.273.6-.7-.083-.817-.343-.859" transform="translate(491.845 1813.085)"/>
      <path id="Trazado_818960" data-name="Trazado 818960" d="M723.837,236.74c-.26-.044-.53.272-.6.7s.082.816.343.86.529-.273.6-.7-.082-.817-.343-.859" transform="translate(481.342 1811.348)"/>
      <path id="Trazado_818961" data-name="Trazado 818961" d="M725.018,232.493a2.489,2.489,0,0,0-1.076-.446.54.54,0,0,0-.388.634c.051.108.186.139.3.167a2.381,2.381,0,0,1,1.224.737.821.821,0,0,0,.306-.671.733.733,0,0,0-.368-.422" transform="translate(481.145 1814.311)"/>
      <path id="Trazado_818962" data-name="Trazado 818962" d="M706.918,229.525a2.5,2.5,0,0,0-1.163.076.735.735,0,0,0-.484.281.823.823,0,0,0,.074.733,2.38,2.38,0,0,1,1.4-.3.41.41,0,0,0,.34-.06.54.54,0,0,0-.164-.726" transform="translate(492.723 1815.934)"/>
      <path id="Trazado_818963" data-name="Trazado 818963" d="M700.078,222.029a13.465,13.465,0,0,0-.26,2.621,3,3,0,0,0,1.7-2.383c.309-1.868,1.481-3.449,1.084-3.515s-2.213,1.409-2.522,3.277" transform="translate(496.132 1822.715)"/>
      <path id="Trazado_818964" data-name="Trazado 818964" d="M730.9,222.682c-.4-.067.2,1.807-.1,3.675s2.145,3.455,2.145,3.455.237-1.439.546-3.306-2.19-3.76-2.587-3.824" transform="translate(476.575 1820.231)"/>
      <path id="Trazado_818965" data-name="Trazado 818965" d="M718.231,216.2a6.786,6.786,0,0,0-2.787-.542,3.628,3.628,0,0,0-2.613.827l.284-.187a5.728,5.728,0,0,0,1.733,3.2,10.92,10.92,0,0,0,3.083,2.014,3.908,3.908,0,0,1,1.758,1.206c.106.161.264.37.441.292.1-.045.141-.17.167-.281a13.022,13.022,0,0,0,.4-2.322,4.639,4.639,0,0,0-.408-2.3,4.2,4.2,0,0,0-2.058-1.906" transform="translate(487.906 1824.666)"/>
      <path id="Trazado_818966" data-name="Trazado 818966" d="M706.643,216.588a6.965,6.965,0,0,0-1.3.51,5.246,5.246,0,0,0-1.98,1.663,3.8,3.8,0,0,0-.718,2.654,6.851,6.851,0,0,1,1.683-1.284,9.661,9.661,0,0,0,1.744-1.206,2.869,2.869,0,0,0,.96-1.839c.157-.029.207-.4.073-.488a.582.582,0,0,0-.466-.01" transform="translate(494.37 1824.109)"/>
      <path id="Trazado_818967" data-name="Trazado 818967" d="M705.348,203.017a2.736,2.736,0,0,0-1.5-1.02,1.477,1.477,0,0,0-1.623.824,2.488,2.488,0,0,0-1.866-2.087,2.4,2.4,0,0,0-2.532,1.058,5.388,5.388,0,0,0-1.088-.514,1.694,1.694,0,0,0-1.147.066,2.165,2.165,0,0,0-.876.94,1.691,1.691,0,0,0-.234.591.676.676,0,0,0,.178.589,1.723,1.723,0,0,0-1.572,1.266,1.673,1.673,0,0,0,.778,1.827,1.639,1.639,0,0,0-.667.809,1.266,1.266,0,0,0,.069,1.078.98.98,0,0,0,.938.481,2.624,2.624,0,0,0-.434.553,1.059,1.059,0,0,0-.145.7,1.084,1.084,0,0,0,.543.705,3.229,3.229,0,0,0,.862.306c.468.117.874-.263,1.212-.608a15.812,15.812,0,0,0,2.26-2.928,2.072,2.072,0,0,1,.569-.707,1.962,1.962,0,0,1,1.045-.229,25.475,25.475,0,0,0,3.147-.246,14.25,14.25,0,0,0,5.023-1.686,1.176,1.176,0,0,0-.312-1.165,2.364,2.364,0,0,0-2.634-.6" transform="translate(500.411 1834.137)"/>
      <path id="Trazado_818968" data-name="Trazado 818968" d="M711.564,219.011a24.3,24.3,0,0,0-2.223-2.74,5.4,5.4,0,0,0-1.811-1.4,3.382,3.382,0,0,0-3.042.329,4.224,4.224,0,0,0-1.764,2.552,2.515,2.515,0,0,0-.008,1.378,1.307,1.307,0,0,0,.97.906,1,1,0,0,0,1.117-.715,1.232,1.232,0,0,0,.977.061,1.1,1.1,0,0,0,.637-.669,1.161,1.161,0,0,0,.912.74,1.2,1.2,0,0,0,1.08-.509.771.771,0,0,0,.46.867,2.283,2.283,0,0,0,1.054.175.45.45,0,0,0,.145.526,1.078,1.078,0,0,0,.546.2,4,4,0,0,0,1.051.017,1.3,1.3,0,0,0,.283-.981,2.278,2.278,0,0,0-.385-.742" transform="translate(494.357 1825.305)"/>
      <path id="Trazado_818969" data-name="Trazado 818969" d="M675.22,299.226s10.432-15.76,7.082-19.638Z" transform="translate(511.675 1784.267)" fill="#fb4e4e"/>
      <path id="Trazado_818970" data-name="Trazado 818970" d="M601.753,646.964c-.762,2.224-1.956,11.48-4.461,12.358s-4.429,3.009-7.129,3.147a17.278,17.278,0,0,0-2.774.241l-.036.011a1.151,1.151,0,0,0,.411,2.231c5.872-.05,10.048-.187,17.264-.009.939.023,2.68-.312,2.676-2.053-.008-3.828-6.4-4.374,1.874-12.882.917-.943-4.212-3.164-7.826-3.044" transform="translate(567.685 1552.099)" fill="#fff"/>
      <path id="Trazado_818971" data-name="Trazado 818971" d="M601.483,646.54l-.107,0-.034.1c-.2.583-.431,1.65-.7,2.886-.753,3.486-1.892,8.754-3.668,9.375a15.4,15.4,0,0,0-2.805,1.439,9.236,9.236,0,0,1-4.28,1.7l-.293.015a14.331,14.331,0,0,0-2.542.24l.032.153-.045-.149h0a1.23,1.23,0,0,0-.851,1.41,1.3,1.3,0,0,0,1.3,1.124h.013c1.372-.012,2.652-.029,3.9-.045,4.027-.051,7.832-.1,13.362.036a3.372,3.372,0,0,0,2.26-.741,1.966,1.966,0,0,0,.574-1.467,5.2,5.2,0,0,0-1.191-2.951c-1.319-1.946-2.682-3.959,3.022-9.823a.515.515,0,0,0,.1-.6c-.512-1.158-4.925-2.825-8.039-2.708m7.72,3.093c-5.881,6.044-4.445,8.162-3.057,10.212a4.888,4.888,0,0,1,1.138,2.778,1.666,1.666,0,0,1-.481,1.245,3.025,3.025,0,0,1-2.036.652c-5.532-.136-9.341-.086-13.373-.035-1.246.016-2.525.032-3.9.044h-.01a.985.985,0,0,1-.99-.863.918.918,0,0,1,.638-1.066l.034-.011a15.393,15.393,0,0,1,2.443-.22l.293-.014a9.618,9.618,0,0,0,4.424-1.745,15.154,15.154,0,0,1,2.748-1.411c1.938-.678,3.054-5.836,3.868-9.6.25-1.157.468-2.163.655-2.75,3.178-.071,7.218,1.58,7.637,2.528a.206.206,0,0,1-.035.258" transform="translate(567.951 1552.367)"/>
      <path id="Trazado_818972" data-name="Trazado 818972" d="M606.46,682.418a.4.4,0,0,0-.478-.148c-1.226.463-6.023,2.172-8.386,1.549a3.682,3.682,0,0,1-2.4-1.4.554.554,0,0,0-.752-.228,12.473,12.473,0,0,1-4.07,1.665,9.014,9.014,0,0,0-4.06.948,1.8,1.8,0,0,0-.677,1.629.963.963,0,0,0,.965.973l19.87-.01a.8.8,0,0,0,.742-.508,4.255,4.255,0,0,0,.328-2.132,6.662,6.662,0,0,0-1.081-2.331" transform="translate(568.29 1529.879)" fill="#263238"/>
      <path id="Trazado_818973" data-name="Trazado 818973" d="M742.291,653.294c.236-1.453-3.353-2.044-6.041-1.925-.575,2.525.873,10.477-1.813,11.753-5.49,2.607-2.205,4.649-.446,4.637a65.457,65.457,0,0,1,7.345.135c2.838.265,2.828-1.7,1.732-3.35-1.785-2.687-2.227-2.306-.777-11.249" transform="translate(476.172 1549.321)" fill="#fff"/>
      <path id="Trazado_818974" data-name="Trazado 818974" d="M742.506,663.565c-1.394-2.024-1.645-2.388-.327-10.514a.988.988,0,0,0-.267-.843c-.855-.962-3.637-1.361-5.933-1.259l-.118,0-.027.116a19.03,19.03,0,0,0-.134,3.786c.059,3.137.131,7.041-1.594,7.86-2.864,1.361-3.262,2.529-3.093,3.27.246,1.075,1.746,1.662,2.7,1.662h.015c.45,0,.9-.01,1.368-.018a51.486,51.486,0,0,1,5.962.152c.18.018.346.026.5.026a1.979,1.979,0,0,0,1.87-.8,2.762,2.762,0,0,0-.5-2.817c-.152-.229-.294-.434-.425-.627m.655,3.285c-.3.5-1.019.714-2.076.623-1.5-.141-2.8-.177-4.026-.177-.676,0-1.327.011-1.97.023-.463.007-.916.016-1.365.018h-.015c-.869,0-2.192-.537-2.395-1.421s.835-1.928,2.924-2.92c1.906-.905,1.831-4.919,1.77-8.146a21.3,21.3,0,0,1,.1-3.6c2.159-.086,4.8.3,5.568,1.16a.684.684,0,0,1,.193.589c-1.338,8.247-1.075,8.627.378,10.737.131.192.272.4.423.623a2.519,2.519,0,0,1,.488,2.487" transform="translate(476.437 1549.587)"/>
      <path id="Trazado_818975" data-name="Trazado 818975" d="M643.65,403.471c-1.293,1.026-3.739,11.3-5.059,12.285-5.267,20.749-16.054,73.617-18.928,83.274,2.3.69,6.27,1.914,8.447,1.441,5.174-10.462,33.4-54.328,32.562-98.245-3.372-.959-14.17-1.019-17.023,1.245" transform="translate(546.785 1707.16)" fill="#263238"/>
      <path id="Trazado_818976" data-name="Trazado 818976" d="M702.437,400.287c-1.031,1.288-9.02,11.559-10.087,12.811,3.42,22.341,8.006,25.048,10.336,42.325a11.848,11.848,0,0,0,.459,2c4.746,14.92,5.913,29.4,6.355,38.237,4.668-.4,4.837-.261,9.506-.663,5.066-19.387,2.1-82.312-2.589-99.795-3.5-.183-11.7,2.241-13.979,5.084" transform="translate(500.85 1711.208)" fill="#263238"/>
      <path id="Trazado_818977" data-name="Trazado 818977" d="M689.786,274.369c-.122-.049-.243-.107-.357-.151-.421-.185-.835-.35-1.235-.514-2.821-1.121-5.12-1.821-5.12-1.821s-2.221.879-4.949,2.228c-.043.022-.086.043-.136.064-12.147,1.94-7.676,12.025-8.475,14.4a42.279,42.279,0,0,0-1.007,6.355c0,.014-.008.021-.008.036-.035.349-.078.714-.114,1.084-.15,1.415-.3,2.95-.45,4.564v.05c-.036.414-.064.814-.107,1.192-.007.058-.014.172-.028.336-.093,1.028-.179,2.07-.265,3.127a.145.145,0,0,0-.007.05c-.835,10.19-2.73,29.965-2.73,29.965s13-.891,16.889-3.243c10.629-6.426,20.022-3.337,20.022-3.337l-2.748-48.288c-.115-2.571-4.924-4.366-9.176-6.095" transform="translate(518.261 1789.136)" fill="#949af8"/>
      <path id="Trazado_818978" data-name="Trazado 818978" d="M704.241,498.389a.184.184,0,0,0-.114.235l3.042,8.884a.186.186,0,0,0,.176.125.192.192,0,0,0,.06-.01.185.185,0,0,0,.115-.235l-3.044-8.885a.184.184,0,0,0-.235-.115" transform="translate(493.413 1645.997)" fill="#fff"/>
      <path id="Trazado_818979" data-name="Trazado 818979" d="M740.469,682.086a3.761,3.761,0,0,1-2.393.052c-.889-.229-1.738-.616-2.643-.77a3.188,3.188,0,0,0-2.2.336,2.727,2.727,0,0,1-.874.367,4.581,4.581,0,0,0-3.521,4.47.563.563,0,0,0,.566.578h12.638a.639.639,0,0,0,.633-.612,5.814,5.814,0,0,0-1.689-4.352.462.462,0,0,0-.513-.07" transform="translate(477.793 1530.39)" fill="#263238"/>
      <path id="Trazado_818980" data-name="Trazado 818980" d="M742.027,449.43c-.6-.254-1.891,1.287-2.318,1.644l-2.667,2.222a2.415,2.415,0,0,0-.789.931,1.125,1.125,0,0,0,.273,1.238c.409.269,2.708-1.708,3.062-2,.441-.359,4.106-3.33,2.439-4.039" transform="translate(473.153 1676.949)" fill="#bb695b"/>
      <path id="Trazado_818981" data-name="Trazado 818981" d="M734.849,450.152c-.594-.253-1.89,1.287-2.318,1.643l-2.666,2.222a2.418,2.418,0,0,0-.789.931,1.128,1.128,0,0,0,.273,1.24c.41.268,2.708-1.709,3.062-2,.441-.36,4.106-3.331,2.439-4.04" transform="translate(477.689 1676.493)" fill="#bb695b"/>
      <path id="Trazado_818982" data-name="Trazado 818982" d="M731.8,446.465c-.6-.253-1.89,1.287-2.318,1.644l-2.667,2.222a2.421,2.421,0,0,0-.789.932,1.127,1.127,0,0,0,.273,1.24c.41.268,2.708-1.709,3.062-2,.441-.36,4.107-3.331,2.439-4.04" transform="translate(479.614 1678.823)" fill="#bb695b"/>
      <path id="Trazado_818983" data-name="Trazado 818983" d="M740.469,317.757l8.254,13.018L739.8,351.814c-1.637.586-3.41,2.287-5.154,4.226-.51.569-1.414,1.042-1.608,1.548-.293.767.686.592,1.817.245a9.425,9.425,0,0,0-1.272,2.092,1.767,1.767,0,0,0,.021,1.8,1.334,1.334,0,0,0,1.127.4,3.919,3.919,0,0,0,1.187-.353l2.208-.92-.322.268a2.423,2.423,0,0,0-.789.931,1.126,1.126,0,0,0,.273,1.24c.41.268,2.709-1.709,3.062-2a17.226,17.226,0,0,0,2.069-1.961,6.515,6.515,0,0,0,1.842-3.534c3.082-3.738,14.246-17.645,15.666-24.686,1.277-6.33-16.239-26.1-16.239-26.1-5.117.088.566,9.664-3.221,12.75" transform="translate(475.169 1768.203)" fill="#fff"/>
      <path id="Trazado_818984" data-name="Trazado 818984" d="M743.494,304.582h-.072a2.272,2.272,0,0,0-1.773.7c-.9,1.029-.677,3.044-.436,5.178.29,2.578.62,5.5-1.106,6.909l-.107.086,8.284,13.065-8.864,20.9c-1.786.669-3.689,2.616-5.153,4.245a5.882,5.882,0,0,1-.724.638,2.765,2.765,0,0,0-.913.958.571.571,0,0,0,.009.542c.186.268.63.283,1.553.035a8.7,8.7,0,0,0-1.015,1.755,1.867,1.867,0,0,0,.045,1.955,1.482,1.482,0,0,0,1.259.456,4.062,4.062,0,0,0,1.234-.365l1.321-.55a1.852,1.852,0,0,0-.427.63,1.284,1.284,0,0,0,.332,1.426.331.331,0,0,0,.185.05c.407,0,1.306-.6,2.914-1.936l.152-.125a16.351,16.351,0,0,0,2.072-1.964,6.745,6.745,0,0,0,1.884-3.582c3.359-4.077,14.256-17.717,15.669-24.719,1.278-6.333-15.557-25.427-16.274-26.237Zm16.018,26.229c-1.4,6.953-12.32,20.6-15.633,24.619l-.03.037,0,.047a6.38,6.38,0,0,1-1.806,3.449,16.255,16.255,0,0,1-2.05,1.942l-.148.122c-1.85,1.541-2.5,1.864-2.716,1.864l0,.009a.972.972,0,0,1-.225-1.062,2.279,2.279,0,0,1,.743-.869l1.108-.924-3.154,1.314a3.853,3.853,0,0,1-1.14.342,1.183,1.183,0,0,1-1-.348c-.4-.469-.168-1.226,0-1.635a9.214,9.214,0,0,1,1.252-2.058l.3-.385-.465.142a5.3,5.3,0,0,1-1.364.29c-.15,0-.255-.027-.289-.076s-.02-.135.025-.255a2.649,2.649,0,0,1,.816-.826,6.128,6.128,0,0,0,.762-.674c1.457-1.621,3.352-3.561,5.091-4.185l.064-.022,8.981-21.177-8.225-12.973c1.74-1.54,1.407-4.488,1.113-7.095-.232-2.064-.452-4.012.362-4.937a1.944,1.944,0,0,1,1.475-.592c1.012,1.153,17.37,19.894,16.155,25.916" transform="translate(475.434 1768.472)"/>
      <path id="Trazado_818985" data-name="Trazado 818985" d="M743.493,304.582h-.071a2.272,2.272,0,0,0-1.773.7c-.9,1.029-.677,3.044-.436,5.178.29,2.578.62,5.5-1.106,6.907l-.107.088,8.284,13.066-8.864,20.9c-1.785.669-3.689,2.616-5.152,4.245a6.012,6.012,0,0,1-.722.636,2.786,2.786,0,0,0-.916.961.536.536,0,0,0,.045.587c.206.219.656.22,1.516-.01a8.716,8.716,0,0,0-1.014,1.755,1.865,1.865,0,0,0,.046,1.956,1.475,1.475,0,0,0,1.258.456,4.059,4.059,0,0,0,1.234-.365l1.322-.552a1.884,1.884,0,0,0-.429.633,1.285,1.285,0,0,0,.332,1.425.326.326,0,0,0,.183.051c.363,0,1.109-.431,2.914-1.934l.148-.123a16.515,16.515,0,0,0,2.079-1.969,6.751,6.751,0,0,0,1.884-3.582c3.359-4.077,14.257-17.719,15.669-24.72,1.278-6.332-15.557-25.426-16.275-26.236Zm16.019,26.229c-1.4,6.951-12.32,20.6-15.633,24.62l-.03.037,0,.046a6.386,6.386,0,0,1-1.805,3.449,16.436,16.436,0,0,1-2.05,1.942l-.15.124c-2.208,1.838-2.658,1.889-2.717,1.871a.971.971,0,0,1-.225-1.062,2.307,2.307,0,0,1,.744-.87l1.105-.923-3.151,1.314a3.828,3.828,0,0,1-1.139.342,1.168,1.168,0,0,1-1-.348c-.4-.469-.168-1.226,0-1.636a9.2,9.2,0,0,1,1.253-2.057l.3-.385-.466.144c-1.253.385-1.568.306-1.645.221-.05-.054-.01-.187.018-.262a2.649,2.649,0,0,1,.818-.83,5.98,5.98,0,0,0,.76-.67c1.457-1.622,3.352-3.562,5.091-4.184l.064-.023,8.949-21.1.032-.076-8.225-12.973c1.739-1.54,1.407-4.486,1.113-7.092-.232-2.064-.452-4.013.361-4.939a1.945,1.945,0,0,1,1.476-.592c1.012,1.153,17.37,19.894,16.155,25.916" transform="translate(475.434 1768.472)"/>
      <path id="Trazado_818986" data-name="Trazado 818986" d="M729.806,440.035a12.391,12.391,0,0,1-3.153-7.329c-2.118-.74-4.652,1.083-5.485,3.112a8.939,8.939,0,0,0,.311,6.339,13.4,13.4,0,0,0,4.062,6.169,8.058,8.058,0,0,0,7.269,1.553c2.484-.8,4.689-3.373,4.119-5.782a13.409,13.409,0,0,1-7.122-4.062" transform="translate(482.927 1687.607)"/>
      <path id="Trazado_818987" data-name="Trazado 818987" d="M746.826,443.838a13.2,13.2,0,0,1-7.013-4,12.18,12.18,0,0,1-3.1-7.207.216.216,0,0,0-.218-.188.2.2,0,0,0-.189.217,12.59,12.59,0,0,0,3.206,7.45,13.6,13.6,0,0,0,7.231,4.125.166.166,0,0,0,.043,0,.2.2,0,0,0,.042-.4" transform="translate(473.071 1687.667)" fill="#fff"/>
      <path id="Trazado_818988" data-name="Trazado 818988" d="M661.713,280.926c-2.12-.359-5.147,3.558-6.5,4.969-3.067,3.189-9.476,14.994-11.546,18.9-1.175,2.221,7.711,4.508,8.932,16.246,4.1-3,6.641-15.781,9.537-19.957a13.249,13.249,0,0,0,2.607-5.856,8.863,8.863,0,0,0-2.951-7.375c-1.521-1.383,1.954-6.588-.074-6.931" transform="translate(531.686 1783.436)" fill="#949af8"/>
      <path id="Trazado_818989" data-name="Trazado 818989" d="M744.407,292.221c-2.5-3.83-5.041-7.7-8.391-10.819s-7.648-5.451-12.223-5.549a24.841,24.841,0,0,1,4.554,8.023c.906,2.755,1.337,5.642,2.072,8.448a40.272,40.272,0,0,0,11.014,18.735,17.479,17.479,0,0,1,11.545-4.574c-1.878-2.874-3.205-6.053-5.083-8.926l-3.489-5.339" transform="translate(480.979 1786.628)" fill="#949af8"/>
      <path id="Trazado_818990" data-name="Trazado 818990" d="M705.723,271.884s-2.221.879-4.948,2.228c-.043.022-.086.042-.136.064-.086.307,5.963,3.346,5.963,3.346s5.555-3.01,5.476-3.3c-.421-.185-.836-.35-1.235-.514-2.82-1.121-5.12-1.821-5.12-1.821" transform="translate(495.612 1789.136)" fill="#bb695b"/>
      <path id="Trazado_818991" data-name="Trazado 818991" d="M706.411,258.764a32.8,32.8,0,0,0-3.32.382,22.156,22.156,0,0,1-6.541-.723,6.854,6.854,0,0,0-1.611-.313,1.917,1.917,0,0,0-1.489.567,2.808,2.808,0,0,0-.511,1.246q-.522,2.281-1.044,4.562a6.787,6.787,0,0,0-.245,1.787,2.3,2.3,0,0,0,.677,1.626,3.367,3.367,0,0,0,1.734.653q3.6.618,7.23.966a8.59,8.59,0,0,0,4.461-.4,5.516,5.516,0,0,0,2.923-4.925,8.061,8.061,0,0,0-.719-3.334c-.292-.668-.8-2.043-1.546-2.1" transform="translate(501.294 1797.842)" fill="#949af8"/>
      <path id="Trazado_818992" data-name="Trazado 818992" d="M711.3,282.978a16.353,16.353,0,0,1-13.631.49.185.185,0,0,0-.144.34,16.724,16.724,0,0,0,13.943-.5.185.185,0,1,0-.168-.329" transform="translate(497.654 1782.138)"/>
      <path id="Trazado_818993" data-name="Trazado 818993" d="M713.158,271.6a15.875,15.875,0,0,1-8.6,1.832.185.185,0,1,0-.028.368q.573.043,1.15.043a16.285,16.285,0,0,0,7.651-1.919.184.184,0,1,0-.176-.324" transform="translate(493.259 1789.332)"/>
    </g>
  </g>
</svg>
