<svg xmlns="http://www.w3.org/2000/svg" width="138" height="122" viewBox="0 0 138 122">
  <g id="Grupo_1071937" data-name="Grupo 1071937" transform="translate(-180 -3228)">
    <rect id="Rectángulo_375893" data-name="Rectángulo 375893" width="138" height="122" transform="translate(180 3228)" fill="#dfe7fe"/>
    <g id="_x31_57_x2C__Analytics_x2C__Data_Filter_x2C__Document_x2C__Filter_x2C__Funnel" transform="translate(166.564 3222.841)">
      <g id="Grupo_1071802" data-name="Grupo 1071802" transform="translate(46 21)">
        <path id="Trazado_818994" data-name="Trazado 818994" d="M204.465,58.086a243.752,243.752,0,0,1-25.965.048V26h21.061l4.9,4.9Z" transform="translate(-155.564 -25.134)" fill="#edf5ff"/>
        <path id="Trazado_818995" data-name="Trazado 818995" d="M278.5,121h4.328v9.521H278.5Z" transform="translate(-238.254 -103.69)" fill="#b9dd39"/>
        <path id="Trazado_818996" data-name="Trazado 818996" d="M257.828,92.059v9.521H253.5V86h4.328Z" transform="translate(-217.581 -74.748)" fill="#ffda2d"/>
        <path id="Trazado_818997" data-name="Trazado 818997" d="M232.828,111v11.252H228.5V111Z" transform="translate(-196.909 -95.421)" fill="#928bff"/>
        <path id="Trazado_818998" data-name="Trazado 818998" d="M203.5,131h4.328v7.79H203.5Z" transform="translate(-176.236 -111.959)" fill="#ff8fc3"/>
        <path id="Trazado_818999" data-name="Trazado 818999" d="M414.462,331A3.462,3.462,0,1,1,411,334.462,3.461,3.461,0,0,1,414.462,331Z" transform="translate(-347.817 -277.338)" fill="#ffda2d"/>
        <circle id="Elipse_9676" data-name="Elipse 9676" cx="5.795" cy="5.795" r="5.795" transform="translate(2.173 58.179)" fill="#ffda2d"/>
        <g id="Grupo_1071801" data-name="Grupo 1071801" transform="translate(0.866 24.124)">
          <path id="Trazado_819000" data-name="Trazado 819000" d="M218.31,366v20.772L201,378.983V366Z" transform="translate(-175.035 -330.403)" fill="#dfe7fe"/>
          <path id="Trazado_819001" data-name="Trazado 819001" d="M73.071,160.36v8.877q-1.072-.057-2.11-.125c-9.486-.611-16.628-1.8-19.057-3.228-.592-.35-.9-.711-.9-1.085C51,162.778,60.154,161.052,73.071,160.36Z" transform="translate(-51 -160.36)" fill="#dfe7fe"/>
          <path id="Trazado_819002" data-name="Trazado 819002" d="M349.705,165.03c0,.374-.313.736-.9,1.085-2.43,1.433-9.571,2.619-19.057,3.228-.41.026-.826.052-1.244.076v-8.78C340.958,161.36,349.705,163.055,349.705,165.03Z" transform="translate(-280.464 -160.592)" fill="#dfe7fe"/>
        </g>
        <path id="Trazado_819003" data-name="Trazado 819003" d="M195.556,210.92l.016.234-10.909,26.611h-7.533L166.22,211.154l.016-.234A240.8,240.8,0,0,0,195.556,210.92Z" transform="translate(-145.41 -178.044)" fill="#4bb9ec"/>
        <path id="Trazado_819004" data-name="Trazado 819004" d="M302.71,192.27l-25.062,30.073H272.76l10.909-26.611-.016-.234C293.139,194.889,300.28,193.7,302.71,192.27Z" transform="translate(-233.507 -162.623)" fill="#dadcfd"/>
        <path id="Trazado_819005" data-name="Trazado 819005" d="M75.261,195.732,86.17,222.343H81.282L56.22,192.27c2.429,1.433,9.571,2.617,19.057,3.228Z" transform="translate(-54.451 -162.623)" fill="#949af8"/>
        <ellipse id="Elipse_9677" data-name="Elipse 9677" cx="1.087" cy="1.449" rx="1.087" ry="1.449" transform="translate(70.263 42.968)"/>
        <circle id="Elipse_9678" data-name="Elipse 9678" cx="1.298" cy="1.298" r="1.298" transform="translate(57.557 10.386)"/>
        <ellipse id="Elipse_9679" data-name="Elipse 9679" cx="1.087" cy="1.449" rx="1.087" ry="1.449" transform="translate(52.878 62.525)"/>
        <ellipse id="Elipse_9680" data-name="Elipse 9680" cx="1.449" cy="1.087" rx="1.449" ry="1.087" transform="translate(18.833 69.769)"/>
        <circle id="Elipse_9681" data-name="Elipse 9681" cx="1.298" cy="1.298" r="1.298" transform="translate(14.281 6.059)"/>
        <ellipse id="Elipse_9682" data-name="Elipse 9682" cx="1.087" cy="1.449" rx="1.087" ry="1.449" transform="translate(2.173 47.314)"/>
        <circle id="Elipse_9683" data-name="Elipse 9683" cx="1.298" cy="1.298" r="1.298" transform="translate(0.433 14.714)"/>
        <path id="Trazado_819006" data-name="Trazado 819006" d="M214.176,383.5a.868.868,0,0,1-.355-.076l-17.31-7.79a.866.866,0,0,1-.51-.789V361.866a.866.866,0,1,1,1.731,0v12.423L213.31,381.3V361.866a.866.866,0,1,1,1.731,0v20.772a.865.865,0,0,1-.866.866Z" transform="translate(-170.035 -302.145)"/>
        <path id="Trazado_819007" data-name="Trazado 819007" d="M57.924,364.848a6.924,6.924,0,1,1,6.924-6.924A6.932,6.932,0,0,1,57.924,364.848Zm0-12.117a5.193,5.193,0,1,0,5.193,5.193A5.2,5.2,0,0,0,57.924,352.731Z" transform="translate(-50.134 -293.876)"/>
        <path id="Trazado_819008" data-name="Trazado 819008" d="M410.328,334.655a4.328,4.328,0,1,1,4.328-4.328A4.332,4.332,0,0,1,410.328,334.655Zm0-6.924a2.6,2.6,0,1,0,2.6,2.6A2.6,2.6,0,0,0,410.328,327.731Z" transform="translate(-343.683 -273.204)"/>
        <path id="Trazado_819009" data-name="Trazado 819009" d="M273.514,219.074h-4.888a.866.866,0,1,1,0-1.731h4.483l24.8-29.762a.866.866,0,0,1,1.33,1.108l-25.062,30.073A.866.866,0,0,1,273.514,219.074Z" transform="translate(-229.373 -158.488)"/>
        <path id="Trazado_819010" data-name="Trazado 819010" d="M82.036,219.074H77.147a.865.865,0,0,1-.665-.311L51.421,188.689a.866.866,0,0,1,1.33-1.108l24.8,29.762h4.483a.866.866,0,0,1,0,1.731Z" transform="translate(-50.316 -158.488)"/>
        <path id="Trazado_819011" data-name="Trazado 819011" d="M180.527,235.611h-7.533a.865.865,0,0,1-.8-.537l-10.909-26.611a.866.866,0,1,1,1.6-.657l10.689,26.074h6.372l10.689-26.074a.865.865,0,1,1,1.6.657l-10.909,26.611a.865.865,0,0,1-.8.537Z" transform="translate(-141.274 -175.025)"/>
        <path id="Trazado_819012" data-name="Trazado 819012" d="M269.366,373.117a.865.865,0,0,1-.866-.866V361.866a.866.866,0,1,1,1.731,0v10.386A.865.865,0,0,1,269.366,373.117Z" transform="translate(-229.985 -302.145)"/>
        <path id="Trazado_819013" data-name="Trazado 819013" d="M68.937,165.967H68.89c-.726-.039-1.44-.081-2.121-.125-9.823-.633-16.909-1.853-19.44-3.347A2.217,2.217,0,0,1,46,160.663c0-1.546,2.06-2.613,6.889-3.566a120.782,120.782,0,0,1,16-1.736.865.865,0,1,1,.093,1.728,123.893,123.893,0,0,0-15.176,1.595c-4.818.894-5.85,1.756-6.044,1.98a1.792,1.792,0,0,0,.447.339c2.271,1.34,9.252,2.5,18.672,3.11.675.044,1.381.086,2.1.124a.866.866,0,0,1-.046,1.73Z" transform="translate(-46 -132.101)"/>
        <path id="Trazado_819014" data-name="Trazado 819014" d="M324.365,166.152a.866.866,0,0,1-.049-1.73q.626-.036,1.24-.076c9.415-.6,16.4-1.767,18.672-3.11a1.8,1.8,0,0,0,.446-.34c-.191-.22-1.189-1.054-5.776-1.93a118.438,118.438,0,0,0-14.582-1.6.865.865,0,1,1,.1-1.728,115.364,115.364,0,0,1,15.4,1.74c4.643.943,6.624,1.994,6.624,3.513a2.219,2.219,0,0,1-1.328,1.83c-2.538,1.5-9.625,2.717-19.443,3.347q-.619.039-1.25.077Z" transform="translate(-275.464 -132.335)"/>
        <path id="Trazado_819015" data-name="Trazado 819015" d="M186.915,55.188c-4.34,0-8.578-.109-12.6-.323A.865.865,0,0,1,173.5,54V21.866a.866.866,0,0,1,.866-.866h21.061a.866.866,0,0,1,.612.253l4.9,4.9a.865.865,0,0,1,.254.612V53.952a.866.866,0,0,1-.815.864C196.121,55.063,191.59,55.188,186.915,55.188Zm-11.684-2.01c3.743.185,7.669.279,11.684.279,4.344,0,8.562-.109,12.55-.324V27.128l-4.4-4.4H175.231Z" transform="translate(-151.429 -21)"/>
        <path id="Trazado_819016" data-name="Trazado 819016" d="M203.693,135.521h-4.328a.866.866,0,0,1-.866-.866v-7.79a.866.866,0,0,1,.866-.866h4.328a.866.866,0,0,1,0,1.731h-3.462v6.059h3.462a.866.866,0,0,1,0,1.731Z" transform="translate(-172.102 -107.824)"/>
        <path id="Trazado_819017" data-name="Trazado 819017" d="M228.693,118.983h-4.328a.866.866,0,0,1-.866-.866V106.866a.866.866,0,0,1,.866-.866h4.328a.866.866,0,1,1,0,1.731h-3.462v9.521h3.462a.866.866,0,1,1,0,1.731Z" transform="translate(-192.774 -91.286)"/>
        <path id="Trazado_819018" data-name="Trazado 819018" d="M253.693,98.31h-4.328a.866.866,0,0,1-.866-.866V81.866a.866.866,0,0,1,.866-.866h4.328a.866.866,0,0,1,.866.866v6.059a.866.866,0,0,1-1.731,0V82.731h-2.6V96.579h3.462a.866.866,0,1,1,0,1.731Z" transform="translate(-213.447 -70.614)"/>
        <path id="Trazado_819019" data-name="Trazado 819019" d="M278.693,127.252h-4.328a.866.866,0,0,1-.866-.866v-9.521a.866.866,0,0,1,.866-.866h4.328a.865.865,0,0,1,.866.866v9.521A.865.865,0,0,1,278.693,127.252Zm-3.462-1.731h2.6v-7.79h-2.6Z" transform="translate(-234.119 -99.555)"/>
        <path id="Trazado_819020" data-name="Trazado 819020" d="M202.828,87.731h-3.462a.866.866,0,0,1,0-1.731h3.462a.866.866,0,1,1,0,1.731Z" transform="translate(-172.102 -74.748)"/>
        <path id="Trazado_819021" data-name="Trazado 819021" d="M202.828,67.731h-3.462a.866.866,0,0,1,0-1.731h3.462a.866.866,0,1,1,0,1.731Z" transform="translate(-172.102 -58.21)"/>
        <path id="Trazado_819022" data-name="Trazado 819022" d="M202.828,47.731h-3.462a.866.866,0,0,1,0-1.731h3.462a.866.866,0,1,1,0,1.731Z" transform="translate(-172.102 -41.672)"/>
      </g>
    </g>
  </g>
</svg>
