<svg id="Grupo_1071568" data-name="Grupo 1071568" xmlns="http://www.w3.org/2000/svg" xmlns:xlink="http://www.w3.org/1999/xlink" width="400" height="253.981" viewBox="0 0 400 253.981">
  <defs>
    <clipPath id="clip-path">
      <rect id="Rectángulo_375598" data-name="Rectángulo 375598" width="400" height="253.981" fill="none"/>
    </clipPath>
  </defs>
  <rect id="Rectángulo_375587" data-name="Rectángulo 375587" width="57.527" height="51.084" transform="translate(170.675 193.673)" fill="#fff"/>
  <path id="Trazado_818183" data-name="Trazado 818183" d="M404.939,445.311H346.306V393.122h58.633Zm-57.527-1.105h56.421V394.227H347.412Z" transform="translate(-176.183 -200.001)" fill="#050e12"/>
  <g id="Grupo_1071567" data-name="Grupo 1071567">
    <g id="Grupo_1071566" data-name="Grupo 1071566" clip-path="url(#clip-path)">
      <path id="Trazado_818184" data-name="Trazado 818184" d="M405.2,498.251H273.578v-.988a16.04,16.04,0,0,1,16.04-16.04H389.16a16.04,16.04,0,0,1,16.04,16.04Z" transform="translate(-139.183 -244.822)" fill="#fff"/>
      <path id="Trazado_818185" data-name="Trazado 818185" d="M405.18,498.232H272.452v-1.54A16.611,16.611,0,0,1,289.045,480.1h99.542a16.611,16.611,0,0,1,16.592,16.593Zm-131.622-1.105H404.074v-.435A15.5,15.5,0,0,0,388.587,481.2H289.045a15.505,15.505,0,0,0-15.487,15.488Z" transform="translate(-138.61 -244.25)" fill="#050e12"/>
      <path id="Trazado_818186" data-name="Trazado 818186" d="M385.6,250.291H158.776A17.291,17.291,0,0,1,141.485,233V87.177a17.291,17.291,0,0,1,17.291-17.291H385.6a17.291,17.291,0,0,1,17.291,17.291V233A17.291,17.291,0,0,1,385.6,250.291" transform="translate(-71.981 -35.555)" fill="#fff"/>
      <path id="Trazado_818187" data-name="Trazado 818187" d="M403.055,94.205V205.972c0,4.822-4.425,8.736-9.891,8.736H162.789c-5.458,0-9.883-3.914-9.883-8.736V94.205c0-6.4,4.558-11.884,10.967-14.025a18.86,18.86,0,0,1,6-.966H386.081c9.375,0,16.975,6.712,16.975,14.99" transform="translate(-77.791 -40.301)" fill="#fff"/>
      <path id="Trazado_818188" data-name="Trazado 818188" d="M385.024,250.271H158.2a17.864,17.864,0,0,1-17.844-17.844V86.6A17.864,17.864,0,0,1,158.2,68.76H385.024A17.864,17.864,0,0,1,402.868,86.6V232.427a17.864,17.864,0,0,1-17.844,17.844M158.2,69.866A16.757,16.757,0,0,0,141.465,86.6V232.427A16.757,16.757,0,0,0,158.2,249.166H385.024a16.757,16.757,0,0,0,16.738-16.738V86.6a16.757,16.757,0,0,0-16.738-16.738Z" transform="translate(-71.408 -34.982)" fill="#050e12"/>
      <path id="Trazado_818189" data-name="Trazado 818189" d="M392.592,214.688H162.217c-5.754,0-10.436-4.167-10.436-9.289V93.633c0-6.436,4.559-12.283,11.344-14.55a19.421,19.421,0,0,1,6.175-.994H385.509c9.664,0,17.527,6.973,17.527,15.544V205.4c0,5.122-4.685,9.289-10.444,9.289M169.3,79.195a18.322,18.322,0,0,0-5.825.937c-6.333,2.115-10.588,7.541-10.588,13.5V205.4c0,4.513,4.185,8.184,9.33,8.184H392.592c5.149,0,9.339-3.671,9.339-8.184V93.633c0-7.961-7.367-14.438-16.422-14.438Z" transform="translate(-77.219 -39.728)" fill="#050e12"/>
      <rect id="Rectángulo_375588" data-name="Rectángulo 375588" width="47.537" height="32.91" transform="translate(121.729 88.541)" fill="#dfe7fe"/>
      <rect id="Rectángulo_375589" data-name="Rectángulo 375589" width="47.537" height="32.91" transform="translate(176.58 88.541)" fill="#dfe7fe"/>
      <rect id="Rectángulo_375590" data-name="Rectángulo 375590" width="47.537" height="32.91" transform="translate(231.431 88.541)" fill="#dfe7fe"/>
      <rect id="Rectángulo_375591" data-name="Rectángulo 375591" width="47.537" height="32.91" transform="translate(121.729 129.68)" fill="#dfe7fe"/>
      <rect id="Rectángulo_375592" data-name="Rectángulo 375592" width="47.537" height="32.91" transform="translate(176.58 129.68)" fill="#dfe7fe"/>
      <rect id="Rectángulo_375593" data-name="Rectángulo 375593" width="47.537" height="32.91" transform="translate(231.431 129.68)" fill="#2b5cf9"/>
      <path id="Trazado_818190" data-name="Trazado 818190" d="M400.4,152.711h-136.6a4.833,4.833,0,0,1-4.833-4.833V145.66a4.833,4.833,0,0,1,4.833-4.833H400.4a4.833,4.833,0,0,1,4.833,4.833v2.218a4.833,4.833,0,0,1-4.833,4.833" transform="translate(-131.747 -71.646)" fill="#050e12"/>
      <path id="Trazado_818191" data-name="Trazado 818191" d="M273.651,150.264a3.091,3.091,0,1,1,2.693-1.564,3.074,3.074,0,0,1-2.693,1.564m.008-4.894a1.805,1.805,0,1,0,.887.236,1.8,1.8,0,0,0-.887-.236" transform="translate(-137.649 -73.302)" fill="#fff"/>
      <path id="Trazado_818192" data-name="Trazado 818192" d="M269.409,158.535l-.477-.271c-.282-.161-.424-.436-.312-.6l2.272-3.429c.106-.159.4-.166.664-.015s.41.406.327.579l-1.795,3.7c-.088.182-.4.2-.679.041" transform="translate(-136.641 -78.402)" fill="#fff"/>
      <path id="Trazado_818193" data-name="Trazado 818193" d="M281.542,78.886l-2.442,3.43a22.035,22.035,0,0,1-17.935,9.226H210.49V86.4a7.519,7.519,0,0,1,7.518-7.518Z" transform="translate(-107.087 -40.133)" fill="#050e12"/>
      <path id="Trazado_818194" data-name="Trazado 818194" d="M224.863,78.886l-2.443,3.43a22.033,22.033,0,0,1-17.934,9.226H153.811V86.4a7.519,7.519,0,0,1,7.518-7.518Z" transform="translate(-78.251 -40.133)" fill="#d6edff"/>
      <rect id="Rectángulo_375594" data-name="Rectángulo 375594" width="0.982" height="6.477" transform="translate(155.542 41.209)" fill="#d1e2dc"/>
      <rect id="Rectángulo_375595" data-name="Rectángulo 375595" width="6.478" height="0.982" transform="translate(152.794 43.957)" fill="#d1e2dc"/>
      <path id="Trazado_818195" data-name="Trazado 818195" d="M576.693,252.713v-70.9a1.572,1.572,0,0,1,1.572-1.572h.512a1.572,1.572,0,0,1,1.572,1.572v70.9a1.572,1.572,0,0,1-1.572,1.573h-.512a1.572,1.572,0,0,1-1.572-1.573" transform="translate(-293.393 -91.696)" fill="#fff"/>
      <path id="Trazado_818196" data-name="Trazado 818196" d="M578.52,244.325h0a1.828,1.828,0,0,1-1.828-1.828v-2.743a1.828,1.828,0,0,1,3.657,0V242.5a1.828,1.828,0,0,1-1.828,1.828" transform="translate(-293.392 -121.045)" fill="#050e12"/>
      <path id="Trazado_818197" data-name="Trazado 818197" d="M399.447,515.866H.553a.553.553,0,0,1,0-1.105H399.447a.553.553,0,0,1,0,1.105" transform="translate(0 -261.885)" fill="#050e12"/>
      <path id="Trazado_818198" data-name="Trazado 818198" d="M227.59,272.989a.444.444,0,0,1-.072-.006,4.472,4.472,0,0,1-3.294-2.509c-.805-2.043.186-4.877,2.946-8.424,2.484-3.193,3.475-5.943,2.864-7.954A4.448,4.448,0,0,0,227.4,251.4a.455.455,0,0,1,.282-.864,5.3,5.3,0,0,1,3.221,3.282c.718,2.341-.3,5.3-3.013,8.789-2.509,3.225-3.484,5.827-2.82,7.526a3.616,3.616,0,0,0,2.6,1.952.454.454,0,0,1-.072.9" transform="translate(-113.936 -127.449)" fill="#050e12"/>
      <path id="Trazado_818199" data-name="Trazado 818199" d="M235.18,278.813a.454.454,0,0,1-.213-.856c4-2.115,3.729-7.386,3.726-7.439a.455.455,0,0,1,.907-.056c.015.24.315,5.906-4.208,8.3a.455.455,0,0,1-.212.053" transform="translate(-119.416 -137.382)" fill="#050e12"/>
      <path id="Trazado_818200" data-name="Trazado 818200" d="M232.6,310.667l-.109,1.358q-.076.953-.153,1.907-.294,3.67-.589,7.338-.158,1.973-.316,3.944a1.605,1.605,0,0,1-1.609,1.478l-6.343-.036a1.605,1.605,0,0,1-1.592-1.5q-.136-1.974-.271-3.947l-.5-7.344q-.068-.957-.132-1.91c-.031-.452-.062-.906-.093-1.359a1.607,1.607,0,0,1,1.612-1.716l8.507.049a1.586,1.586,0,0,1,.924.3,1.6,1.6,0,0,1,.669,1.435" transform="translate(-112.376 -157.145)" fill="#949af8"/>
      <path id="Trazado_818201" data-name="Trazado 818201" d="M232.576,319.1l-.588,7.338-10.132-.058-.5-7.345Z" transform="translate(-112.613 -162.307)" fill="#4f76c6"/>
      <path id="Trazado_818202" data-name="Trazado 818202" d="M232.636,305.446l-11.159-.064c.026-.147.053-.293.079-.44q.119-.66.238-1.32c.029-.162.057-.321.086-.483a1.364,1.364,0,0,1,1.351-1.124l7.688.044a1.365,1.365,0,0,1,1.338,1.14l.081.484q.113.661.223,1.322c.024.147.05.294.074.441" transform="translate(-112.677 -153.65)" fill="#050e12"/>
      <path id="Trazado_818203" data-name="Trazado 818203" d="M231.469,309.787l-12.046-.069a1.1,1.1,0,0,1-1.092-1.1v-.154a1.1,1.1,0,0,1,1.1-1.092l12.046.069a1.1,1.1,0,0,1,1.092,1.1v.154a1.1,1.1,0,0,1-1.1,1.092" transform="translate(-111.076 -156.374)" fill="#050e12"/>
      <path id="Trazado_818204" data-name="Trazado 818204" d="M232.57,327.195a2.842,2.842,0,0,1-2.937,1.917c-1.606-.009-2.907-1.009-2.95-2.249a5.112,5.112,0,0,0,2.385.835,1.774,1.774,0,0,0,.857-.2c.191-.1.365-.2.518-.291.828-.479,1.2-.692,2.128-.017" transform="translate(-115.325 -166.242)" fill="#fff"/>
      <path id="Trazado_818205" data-name="Trazado 818205" d="M226.845,323.914a2.908,2.908,0,0,1,2.9-1.76,2.8,2.8,0,0,1,2.931,2.05c-1.016-.636-1.553-.324-2.358.142-.158.091-.322.185-.506.283-.874.466-2.265-.274-2.963-.716" transform="translate(-115.407 -163.896)" fill="#fff"/>
      <path id="Trazado_818206" data-name="Trazado 818206" d="M578.575,21.444a.435.435,0,0,1-.435-.435V.938l-.454-.074a.435.435,0,1,1,.138-.858L579.01.2V21.009a.435.435,0,0,1-.435.435" transform="translate(-293.712 0)" fill="#050e12"/>
      <path id="Trazado_818207" data-name="Trazado 818207" d="M515.985,16.4a.435.435,0,0,1-.435-.435V.436a.435.435,0,0,1,.87,0V15.965a.435.435,0,0,1-.435.435" transform="translate(-262.286 -0.001)" fill="#050e12"/>
      <path id="Trazado_818208" data-name="Trazado 818208" d="M574.7,48.51h5.245l-2.622-4.542L574.7,39.426l-2.622,4.542-2.622,4.542Z" transform="translate(-289.71 -20.058)" fill="#050e12"/>
      <path id="Trazado_818209" data-name="Trazado 818209" d="M511.006,35.155h5.245l-2.622-4.542-2.622-4.542-2.622,4.542-2.622,4.542Z" transform="translate(-257.306 -13.264)" fill="#050e12"/>
      <path id="Trazado_818210" data-name="Trazado 818210" d="M486.54.871H366.675a.435.435,0,0,1,0-.87H486.54a.435.435,0,0,1,0,.87" transform="translate(-186.325 -0.001)" fill="#050e12"/>
      <path id="Trazado_818211" data-name="Trazado 818211" d="M277.512,341.733H207.273q.842,3.65,1.685,7.3l33.434-.284,33.434.284q.843-3.65,1.686-7.3" transform="translate(-105.45 -173.857)" fill="#050e12"/>
      <path id="Trazado_818212" data-name="Trazado 818212" d="M212.541,433.824a.647.647,0,0,1-.632-.786l17.312-78.387a.647.647,0,0,1,1.263.279l-17.312,78.388a.647.647,0,0,1-.631.507" transform="translate(-107.801 -180.17)" fill="#050e12"/>
      <path id="Trazado_818213" data-name="Trazado 818213" d="M327.08,433.824a.647.647,0,0,1-.631-.507l-17.312-78.388a.647.647,0,0,1,1.263-.279l17.312,78.387a.647.647,0,0,1-.632.786" transform="translate(-157.266 -180.17)" fill="#050e12"/>
      <path id="Trazado_818214" data-name="Trazado 818214" d="M278.035,419.976H235.144a.624.624,0,1,1,0-1.247h42.891a.624.624,0,0,1,0,1.247" transform="translate(-119.312 -213.029)" fill="#050e12"/>
      <path id="Trazado_818215" data-name="Trazado 818215" d="M253.452,433.825h-.032a.624.624,0,0,1-.591-.654l3.97-78.387a.623.623,0,1,1,1.245.063l-3.969,78.388a.624.624,0,0,1-.622.592" transform="translate(-128.626 -180.194)" fill="#050e12"/>
      <path id="Trazado_818216" data-name="Trazado 818216" d="M300.887,433.825a.624.624,0,0,1-.622-.592L296.3,354.845a.624.624,0,0,1,.591-.654.631.631,0,0,1,.654.591l3.969,78.387a.624.624,0,0,1-.591.654h-.032" transform="translate(-150.74 -180.194)" fill="#050e12"/>
      <path id="Trazado_818217" data-name="Trazado 818217" d="M276.428,351.8h-67.41a.562.562,0,1,1,0-1.124h67.41a.562.562,0,1,1,0,1.124" transform="translate(-106.052 -178.409)" fill="#fff"/>
      <path id="Trazado_818218" data-name="Trazado 818218" d="M679.186,102.671l-.059,12.65a6.614,6.614,0,0,1-6.646,6.584l-24.46-.113a9.889,9.889,0,0,0-7.5,3.393l-2.1,2.408a1.478,1.478,0,0,1-2.592-.978l.023-4.88.029-6.47.059-12.795a6.615,6.615,0,0,1,6.646-6.584l30.016.14a6.615,6.615,0,0,1,6.584,6.646" transform="translate(-323.478 -48.782)" fill="#d1e2dc"/>
      <path id="Trazado_818219" data-name="Trazado 818219" d="M679.186,102.671l-.059,12.65a6.614,6.614,0,0,1-6.646,6.584l-24.46-.113a9.889,9.889,0,0,0-7.5,3.393l-2.1,2.408a1.478,1.478,0,0,1-2.592-.978l.023-4.88.029-6.47.059-12.795a6.615,6.615,0,0,1,6.646-6.584l30.016.14a6.615,6.615,0,0,1,6.584,6.646" transform="translate(-323.478 -48.782)" fill="#dfe7fe"/>
      <path id="Trazado_818220" data-name="Trazado 818220" d="M657.833,114.761h1.394v7.793h-1.394Zm.654,3.28h3.575v1.324h-3.575Zm2.669-3.28h1.394v7.793h-1.394Z" transform="translate(-334.673 -58.385)" fill="#fff"/>
      <path id="Trazado_818221" data-name="Trazado 818221" d="M668.526,114.761h4.8v1.345h-4.8Zm1.7.648h1.4v7.144h-1.4Z" transform="translate(-340.113 -58.385)" fill="#fff"/>
      <path id="Trazado_818222" data-name="Trazado 818222" d="M683.786,114.761h1.586v7.793h-1.259v-5.746l.07.343-1.313,4.277h-.976l-1.312-4.17.08-.45v5.746h-1.27v-7.793h1.6l1.393,4.738Z" transform="translate(-345.641 -58.384)" fill="#fff"/>
      <path id="Trazado_818223" data-name="Trazado 818223" d="M694.294,114.761h1.394v7.793h-1.394Zm.6,6.447h3.687v1.345h-3.687Z" transform="translate(-353.222 -58.385)" fill="#fff"/>
      <path id="Trazado_818224" data-name="Trazado 818224" d="M563.429,478.686c2.983,1.143,7.345,2.146,10.887.184,3.493-1.932,2.36-4.612,8.118-11.45,1.651-1.962,2.142-2.947,2.252-3.733a3.06,3.06,0,0,0,.017-.68,5.584,5.584,0,0,0-1.73-3.2c-.81-1.024-.712-2.752-.518-6.209a43.239,43.239,0,0,1,1.035-7.244l-8.8-1.035c-.553,12.658-1.587,22-2.346,24.69a7.182,7.182,0,0,1-2.659,4.233,9.019,9.019,0,0,1-1.1.574,20.518,20.518,0,0,1-5.346,1.715.031.031,0,0,0-.018.013,1.2,1.2,0,0,0,.2,2.146" transform="translate(-286.25 -226.554)" fill="#050e12"/>
      <path id="Trazado_818225" data-name="Trazado 818225" d="M563.429,492.7c2.983,1.143,7.345,2.146,10.887.184,3.493-1.932,2.36-4.612,8.118-11.45,2.151-2.555,2.334-3.454,2.269-4.413-.117-1.79-1.8-3.043-2.623-3.581-.087-.178-.178-.37-.26-.58-1.559,4.225-3.092,7.649-4.282,10.131-2.985,6.223-4.279,7.489-5.452,7.423-1.042-.058-1.852-1.159-2.4-2.163q-.524.295-1.1.574a20.516,20.516,0,0,1-5.346,1.715.031.031,0,0,0-.018.013,1.2,1.2,0,0,0,.2,2.146" transform="translate(-286.25 -240.567)" fill="#050e12"/>
      <path id="Trazado_818226" data-name="Trazado 818226" d="M599.252,482.819l3.1-1.982.734,16.229-1.337.429-.989-6.372a3.366,3.366,0,0,0-1.509-2.38c-1.469-.9-1.856.369-1.856.369Z" transform="translate(-303.926 -244.626)" fill="#050e12"/>
      <path id="Trazado_818227" data-name="Trazado 818227" d="M672.858,481.547l-3.1-1.982-.734,16.229,1.336.429.989-6.371a3.368,3.368,0,0,1,1.509-2.38c1.469-.9,1.856.37,1.856.37Z" transform="translate(-340.366 -243.979)" fill="#050e12"/>
      <path id="Trazado_818228" data-name="Trazado 818228" d="M660.221,454.827s4.089,12.543,4.574,16.654l6.68-.79s-3.424-15.747-3.789-18.831Z" transform="translate(-335.888 -229.884)" fill="#050e12"/>
      <path id="Trazado_818229" data-name="Trazado 818229" d="M669.371,477.559c-.032,2.8-.05,5-.059,6.324-.039,5.707-.01,7.05,1.035,8.279,1.4,1.652,3.627,1.9,5.174,2.07.5.055,5.643.626,6.727-1.552,1-2.016-2.436-4.453-5.175-10.349a31.329,31.329,0,0,1-2.587-8.8l-5.116,4.025" transform="translate(-340.508 -240.911)" fill="#050e12"/>
      <path id="Trazado_818230" data-name="Trazado 818230" d="M577.754,256.439c-2.539,14.164-2.2,25.342-1.309,40.782.931,16.176,1.481,20.107,2.456,35.37.777,12.157,1.221,22.076,1.474,28.492a17.48,17.48,0,0,0,3.071.4,17.776,17.776,0,0,0,6.263-.888,120.564,120.564,0,0,0,2.456-24.562c-.024-8.611-.946-8.3-.982-18.176-.03-8.019.567-11.234,1.474-28.492.232-4.413.394-8.016.491-10.316,2.661,11.8,6.03,24.476,10.316,37.826a441.293,441.293,0,0,0,16.211,42.739,9.913,9.913,0,0,0,4.649-.2,9.75,9.75,0,0,0,2.72-1.275,163.145,163.145,0,0,0-5.4-27.51c-2.115-7.338-3.073-8.694-4.912-15.72-2.811-10.74-3.15-17.421-4.421-27.51-.943-7.484-2.578-18.268-5.575-31.474l-3.1-5.692-24.837,1.035c-.262,1.183-.642,2.979-1.035,5.174" transform="translate(-292.932 -127.305)" fill="#050e12"/>
      <path id="Trazado_818231" data-name="Trazado 818231" d="M608.677,219.316c-11.387,5.178-31.568,1.037-34.152,1.037q.368-18.37.747-36.741a2.443,2.443,0,0,1,2.063-2.373c1.277-.2,2.609-.373,3.984-.516.448-.044.9-.088,1.361-.128a75.805,75.805,0,0,1,8.454-.255,77.686,77.686,0,0,1,8.744.688q4.4,19.144,8.8,38.288" transform="translate(-292.29 -91.735)" fill="#949af8"/>
      <path id="Trazado_818232" data-name="Trazado 818232" d="M571.747,182.2s-6.064,1.333-6.984,6.791.283,27.793.283,27.793,4.244,4.848,8.371-2.891-1.67-31.693-1.67-31.693" transform="translate(-287.147 -92.695)" fill="#949af8"/>
      <path id="Trazado_818233" data-name="Trazado 818233" d="M620.87,181.681a12.045,12.045,0,0,1,5.174.517c4.516,1.528,6.929,5.559,9.314,10.349,3.168,6.36,10.865,21.818,7.762,23.8-1.955,1.25-7.085-3.567-8.8-5.175-9.444-8.87-12.468-21.026-13.453-29.494" transform="translate(-315.868 -92.389)" fill="#949af8"/>
      <path id="Trazado_818234" data-name="Trazado 818234" d="M630.3,215.276a.491.491,0,0,1-.416-.229,51.849,51.849,0,0,1-6.246-14.336.491.491,0,1,1,.949-.252,50.872,50.872,0,0,0,6.128,14.064.491.491,0,0,1-.415.753" transform="translate(-317.269 -101.797)" fill="#050e12"/>
      <path id="Trazado_818235" data-name="Trazado 818235" d="M627.954,219.354l-11.736-2.782q-.046,3.025-.092,6.049c3.46,2.706,15.605,11.942,23.312,12.285,2.067.092,2.579-.51,2.734-.747,1.267-1.937-3.2-7.316-6.963-10.436a28.464,28.464,0,0,0-7.255-4.369" transform="translate(-313.454 -110.181)" fill="#fff"/>
      <path id="Trazado_818236" data-name="Trazado 818236" d="M631.56,276.2a19.708,19.708,0,0,1-6.045-3.526,20.075,20.075,0,0,1-5.756-8.324l.922-.339a19.1,19.1,0,0,0,5.473,7.916,18.744,18.744,0,0,0,5.745,3.351Z" transform="translate(-315.303 -134.316)" fill="#fff"/>
      <path id="Trazado_818237" data-name="Trazado 818237" d="M575.982,280.207l-.685-.7a30.887,30.887,0,0,0,8.457-14.768l.953.238a31.853,31.853,0,0,1-8.725,15.235" transform="translate(-292.683 -134.684)" fill="#fff"/>
      <path id="Trazado_818238" data-name="Trazado 818238" d="M639.27,234.747q-.21,0-.434-.01c-7.169-.319-17.881-7.907-23.628-12.4l-.217-.169.107-7.012,12.49,2.968a29,29,0,0,1,7.4,4.454c3.04,2.523,8.769,8.57,7.072,11.165-.437.669-1.374,1.006-2.787,1.006m-23.164-13.113c4.677,3.64,15.772,11.687,22.78,12,1.729.079,2.158-.361,2.246-.5.861-1.316-2.534-6.124-6.853-9.708a27.864,27.864,0,0,0-7.073-4.266l-11.023-2.613Z" transform="translate(-312.877 -109.46)" fill="#050e12"/>
      <path id="Trazado_818239" data-name="Trazado 818239" d="M586.292,475.75c-4.345,0-5.643-.7-5.713-.735l.446-.789-.223.395.217-.4c.023.012,2.343,1.169,11.127.294l.09.9c-2.431.242-4.384.332-5.944.332" transform="translate(-295.37 -241.261)" fill="#fff"/>
      <path id="Trazado_818240" data-name="Trazado 818240" d="M667.248,471.41a5.191,5.191,0,0,1-2.543-.555l.411-.689c.031.019,3.151,1.763,8.407-1.947l.463.655a11.8,11.8,0,0,1-6.737,2.536" transform="translate(-338.169 -238.207)" fill="#fff"/>
      <path id="Trazado_818241" data-name="Trazado 818241" d="M569.156,252.98a1,1,0,0,1-.791,1.739c-19.237-.962-21.874-4.053-22.227-5.652a4.137,4.137,0,0,1,1.7-3.958c.807-.52,2.127-.849,6.376.366a58.082,58.082,0,0,1,12.278,5.255Z" transform="translate(-277.818 -124.461)" fill="#fff"/>
      <path id="Trazado_818242" data-name="Trazado 818242" d="M567.971,254.7l-.087,0c-14.3-.716-21.918-2.734-22.638-6a4.6,4.6,0,0,1,1.9-4.426c1.042-.671,2.586-.875,6.737.312a59.079,59.079,0,0,1,12.383,5.3.486.486,0,0,1,.06.042l2.661,2.25a1.388,1.388,0,0,1,.419,1.584,1.5,1.5,0,0,1-1.43.939m-18.711-10.077a2.841,2.841,0,0,0-1.639.395,3.694,3.694,0,0,0-1.51,3.489c.351,1.592,3.652,4.4,21.816,5.305a.631.631,0,0,0,.648-.377.493.493,0,0,0-.166-.582l-2.632-2.226a58.181,58.181,0,0,0-12.142-5.192,16.891,16.891,0,0,0-4.375-.814" transform="translate(-277.359 -123.999)" fill="#050e12"/>
      <path id="Trazado_818243" data-name="Trazado 818243" d="M579.432,255.669c-.416.432-1.424.213-2.052-.1-.979-.489-.98-1.18-2.332-3.182-.957-1.417-1.667-2.124-1.444-2.428.169-.23.768-.092,1-.038a3.425,3.425,0,0,1,1.129.561c.594.38.531.422.942.647.352.193.595.265.89.444a4.863,4.863,0,0,1,.519.39c.684.6,2.063,2.959,1.344,3.707" transform="translate(-291.8 -127.101)" fill="#fff"/>
      <path id="Trazado_818244" data-name="Trazado 818244" d="M578.2,255.89a3.771,3.771,0,0,1-1.556-.393,3.4,3.4,0,0,1-1.5-1.684c-.243-.429-.546-.963-1.018-1.663-.283-.42-.545-.777-.766-1.078-.646-.881-1.036-1.412-.666-1.915s1.136-.311,1.51-.226a3.889,3.889,0,0,1,1.284.626,6.24,6.24,0,0,1,.568.4,2.048,2.048,0,0,0,.345.229c.15.082.279.141.4.2a4.748,4.748,0,0,1,.508.259,5.354,5.354,0,0,1,.588.44,6.191,6.191,0,0,1,1.711,3.38,1.35,1.35,0,0,1-.337,1.037h0a1.437,1.437,0,0,1-1.069.39m.716-.73h0Zm-5.236-5.331c.122.189.3.435.47.663.227.31.5.677.788,1.11.495.732.808,1.285,1.06,1.728.418.737.591,1.042,1.085,1.29.625.312,1.32.366,1.479.2a.462.462,0,0,0,.064-.314,5.321,5.321,0,0,0-1.376-2.683,4.412,4.412,0,0,0-.46-.346,3.707,3.707,0,0,0-.4-.2c-.141-.064-.29-.133-.464-.228a2.894,2.894,0,0,1-.481-.319,5.517,5.517,0,0,0-.49-.346,3.032,3.032,0,0,0-.975-.5c-.124-.028-.224-.047-.3-.059" transform="translate(-291.285 -126.592)" fill="#050e12"/>
      <path id="Trazado_818245" data-name="Trazado 818245" d="M605.278,215.061a6.6,6.6,0,0,0-.952-.115,17.1,17.1,0,0,0-4.389.183c-.118,0-.232,0-.354,0a2.053,2.053,0,0,0-1.8,1.132c-3.641,7.227-3.643,8.826-3.226,9.171a1.12,1.12,0,0,0,.81.27c.59-.086.86-.835,1.621-2.43.686-1.441.517-.936,1.08-2.161.306-.664.678-1.515,1.074-2.523-.376,1.01-.631,1.869-.8,2.523-.15.569-.247,1.016,0,1.35a1.428,1.428,0,0,0,1.62.27,1.794,1.794,0,0,0,.81-.81c.353-.6.817-1.415,1.346-2.435a11.59,11.59,0,0,0-.806,2.165c-.2.765-.206,1.136,0,1.35.174.181.566.211,1.35.27a1.668,1.668,0,0,0,.54,0c.486-.161.664-.826.81-1.35-.113.45-.187.793,0,1.08a1.291,1.291,0,0,0,1.62.27,1.374,1.374,0,0,0,.54-.81c.115-.363.256-.839.406-1.425a9.885,9.885,0,0,1,1.755-.736c1.176-.365,1.325-.23,1.457-.406.55-.738-1.417-4.163-4.506-4.833" transform="translate(-302.387 -109.324)" fill="#fff"/>
      <path id="Trazado_818246" data-name="Trazado 818246" d="M593.906,225.956a1.416,1.416,0,0,1-.93-.318c-1.053-.907-.2-3.112.854-5.484a26.56,26.56,0,0,1,2.091-3.826,5.724,5.724,0,0,1,2.765-1.975c1.446-.53,2.713-.3,5.014.113a31.2,31.2,0,0,1,3.993,1,.491.491,0,0,1-.3.935,30.093,30.093,0,0,0-3.867-.966c-2.351-.424-3.351-.579-4.5-.158a4.886,4.886,0,0,0-2.283,1.593,25.665,25.665,0,0,0-2.013,3.684c-.42.949-1.7,3.836-1.111,4.342a.533.533,0,0,0,.391.074c.751-.1,1.973-2.954,2.374-3.891a.475.475,0,0,1,.482-.3.491.491,0,0,1,.441.356,1.242,1.242,0,0,0,.645.77,1.639,1.639,0,0,0,1.307-.42.491.491,0,0,1,.735.193c.058.118.639,1.179,2.5.319a.49.49,0,0,1,.613.17.969.969,0,0,0,.611.337,2.2,2.2,0,0,0,1.52-.542l1.925-2.407a.491.491,0,1,1,.767.614l-1.965,2.456a.473.473,0,0,1-.089.086,3.09,3.09,0,0,1-2.337.759,1.967,1.967,0,0,1-.956-.443,3.137,3.137,0,0,1-2.258.135,2.264,2.264,0,0,1-.9-.611,2.14,2.14,0,0,1-1.792.281,1.768,1.768,0,0,1-.728-.488c-1.137,2.513-1.89,3.477-2.756,3.6a1.757,1.757,0,0,1-.236.016" transform="translate(-301.432 -108.895)" fill="#050e12"/>
      <path id="Trazado_818247" data-name="Trazado 818247" d="M635.255,250.775l-.934-2.611h-3.849l-.537,2.75Z" transform="translate(-320.479 -126.254)" fill="#fdbf2d"/>
      <path id="Trazado_818248" data-name="Trazado 818248" d="M625.66,250.819l-.935-2.611h-3.849l-.537,2.75Z" transform="translate(-315.598 -126.276)" fill="#fdbf2d"/>
      <path id="Trazado_818249" data-name="Trazado 818249" d="M615.628,250.819l-.935-2.611h-3.849l-.537,2.75Z" transform="translate(-310.494 -126.276)" fill="#fdbf2d"/>
      <path id="Trazado_818250" data-name="Trazado 818250" d="M605.888,250.819l-.934-2.611H601.1l-.537,2.75Z" transform="translate(-305.538 -126.276)" fill="#050e12"/>
      <path id="Trazado_818251" data-name="Trazado 818251" d="M542.905,256.094h47.322a1.8,1.8,0,0,0,1.8-1.8v-.162a1.8,1.8,0,0,0-1.8-1.8H542.905a1.8,1.8,0,0,0-1.8,1.8v.162a1.8,1.8,0,0,0,1.8,1.8" transform="translate(-275.289 -128.377)" fill="#fdbf2d"/>
      <path id="Trazado_818252" data-name="Trazado 818252" d="M522.764,209.562l8.1,18.1a3.214,3.214,0,0,0,2.933,1.9h31.575a3.213,3.213,0,0,0,2.915-4.565l-8.46-18.247a3.213,3.213,0,0,0-2.931-1.861l-31.217.149a3.213,3.213,0,0,0-2.917,4.526" transform="translate(-265.812 -104.236)" fill="#fdbf2d"/>
      <path id="Trazado_818253" data-name="Trazado 818253" d="M585.671,251.469l-1.732,4.068a1.922,1.922,0,0,1-1.909.521l-.017-.005a1.026,1.026,0,0,1-.526-1.487c1.655-2.906,3.581-5.962,4.325-5.928a.647.647,0,0,1,.41.152c.407.375.185,1.43-.551,2.679" transform="translate(-295.761 -126.494)" fill="#fff"/>
      <path id="Trazado_818254" data-name="Trazado 818254" d="M594.495,255.033c-.01.025-.036.1-.069.18-.371.844-1.657,1.639-2.206,1.274-.1-.067-.306-.259-.3-.879l-.063.006c-1.2.8-2.247,1.047-2.617.663a.7.7,0,0,1-.154-.559,1.477,1.477,0,0,1-1.8.744,1.165,1.165,0,0,1-.508-.776c.837-1.741,3.361-6.825,4.625-6.76,1.413.073.792,1.174.792,1.174a1.385,1.385,0,0,1,1.344,1.481,12.922,12.922,0,0,1-1.323,3.431c.618-.986,1.291-1.79,1.8-1.706a.927.927,0,0,1,.553.313c.306.41.062,1.07-.073,1.413" transform="translate(-298.522 -126.641)" fill="#fff"/>
      <path id="Trazado_818255" data-name="Trazado 818255" d="M598.171,180.34c-1.189,7.541-2.992,17.243-2.992,17.243q-3.411-8.422-6.823-16.86c.447-.044.9-.088,1.36-.128a75.816,75.816,0,0,1,8.455-.255" transform="translate(-299.326 -91.735)" fill="#fff"/>
      <path id="Trazado_818256" data-name="Trazado 818256" d="M597.254,161.987c.09,1.506.234,3.121.453,4.829.231,1.8.516,3.474.826,5.01a6.549,6.549,0,0,1-5.3,2.553,6.083,6.083,0,0,1-3.73-1.807q.263-4.995.526-9.989l7.222-.6" transform="translate(-299.911 -82.411)" fill="#fff"/>
      <path id="Trazado_818257" data-name="Trazado 818257" d="M588.206,177.811a.4.4,0,0,1-.4-.4v-3.439a.4.4,0,0,1,.809,0v3.439a.4.4,0,0,1-.4.4" transform="translate(-299.044 -88.3)" fill="#050e12"/>
      <path id="Trazado_818258" data-name="Trazado 818258" d="M605.68,171.2a.406.406,0,0,1-.4-.345l-1.474-9.825a.4.4,0,0,1,.8-.12l1.474,9.825a.4.4,0,0,1-.4.465" transform="translate(-307.184 -81.686)" fill="#050e12"/>
      <path id="Trazado_818259" data-name="Trazado 818259" d="M578.3,139.08c1.173,5.444,7.33,10.287,11.645,8.5a4.567,4.567,0,0,0,.514-.251l0,0a6.368,6.368,0,0,0,1.674-1.388,10.981,10.981,0,0,0,1.6-2.516,9.471,9.471,0,0,0,.9-5.844,7.308,7.308,0,0,0-.722-1.985,9.945,9.945,0,0,0-8.263-4.811c-.68-.019-4.994-.132-6.835,3.047a7.414,7.414,0,0,0-.522,5.255" transform="translate(-294.081 -66.531)" fill="#fff"/>
      <rect id="Rectángulo_375596" data-name="Rectángulo 375596" width="1.242" height="7.86" transform="translate(285.593 79.035)" fill="#ed6f6e"/>
      <path id="Trazado_818260" data-name="Trazado 818260" d="M588.266,148.708a10.571,10.571,0,0,0,5.158-13.509,10.419,10.419,0,0,0-11.62-5.745,8.814,8.814,0,0,0-1.908.654,9.064,9.064,0,0,0-4.232,11.833,11.272,11.272,0,0,0,1.793,2.837c4.144,4.8,10.38,3.992,10.807,3.93" transform="translate(-292.472 -65.742)" fill="#050e12"/>
      <path id="Trazado_818261" data-name="Trazado 818261" d="M577.081,137.807c-.681,1.628-3.4,8.482-1.314,14.025.474,1.261,1.314,3.5,3.412,4.377a5.975,5.975,0,0,0,2.925.344,7.938,7.938,0,0,0,3.7-1.523,10.7,10.7,0,0,0,4.748-7.072c1.2-3.236.629-6.8-13.475-10.151" transform="translate(-292.529 -70.109)" fill="#fff"/>
      <path id="Trazado_818262" data-name="Trazado 818262" d="M588.651,152.662c-.068.538.12,1.006.419,1.043s.6-.368.665-.907-.12-1.006-.419-1.043-.6.369-.665.907" transform="translate(-299.469 -77.204)" fill="#050e12"/>
      <path id="Trazado_818263" data-name="Trazado 818263" d="M581.656,157.516c-1.161,0-1.764-.225-1.938-.715-.146-.412.109-.759.355-1.095a5.089,5.089,0,0,0,.367-.55,4.1,4.1,0,0,0,.419-2.433.4.4,0,1,1,.8-.078,4.881,4.881,0,0,1-.517,2.906,6.012,6.012,0,0,1-.42.633,1.938,1.938,0,0,0-.24.373,3.428,3.428,0,0,0,1.169.149c.109,0,.227,0,.356-.007a.4.4,0,0,1,.419.39.405.405,0,0,1-.39.419c-.135,0-.262.007-.384.007" transform="translate(-294.91 -77.472)" fill="#050e12"/>
      <path id="Trazado_818264" data-name="Trazado 818264" d="M589.719,152.807a.328.328,0,0,1-.282-.159,2.062,2.062,0,0,0-1.554-.972,1.936,1.936,0,0,0-1.326.444.327.327,0,1,1-.415-.506,2.633,2.633,0,0,1,1.779-.591,2.747,2.747,0,0,1,2.078,1.29.327.327,0,0,1-.28.5" transform="translate(-298.139 -76.83)" fill="#050e12"/>
      <path id="Trazado_818265" data-name="Trazado 818265" d="M578.945,151.441c-.068.538.12,1.006.419,1.043s.6-.368.665-.907-.12-1.006-.419-1.043-.6.368-.665.907" transform="translate(-294.531 -76.583)" fill="#050e12"/>
      <path id="Trazado_818266" data-name="Trazado 818266" d="M579.458,151.609a.328.328,0,0,1-.314-.235,1.248,1.248,0,0,0-.807-.811,1.169,1.169,0,0,0-1.211.407.328.328,0,1,1-.509-.412,1.823,1.823,0,0,1,1.892-.628,1.9,1.9,0,0,1,1.264,1.259.328.328,0,0,1-.222.407.333.333,0,0,1-.092.013" transform="translate(-293.317 -76.245)" fill="#050e12"/>
      <path id="Trazado_818267" data-name="Trazado 818267" d="M570.492,131.994a.4.4,0,0,1-.326-.165l-1.2-1.626a.4.4,0,1,1,.65-.481l1.2,1.627a.4.4,0,0,1-.325.645" transform="translate(-289.42 -65.913)" fill="#050e12"/>
      <path id="Trazado_818268" data-name="Trazado 818268" d="M567.141,137.992a.409.409,0,0,1-.168-.036c-.172-.079-.352-.169-.538-.274a7.026,7.026,0,0,1-1.111-.781.4.4,0,0,1,.527-.614,6.237,6.237,0,0,0,.982.69c.164.092.323.172.476.242a.4.4,0,0,1-.168.773" transform="translate(-287.537 -69.287)" fill="#050e12"/>
      <path id="Trazado_818269" data-name="Trazado 818269" d="M581.751,166a.367.367,0,0,1-.221-.659,1.6,1.6,0,0,1,.22-.14,2.008,2.008,0,0,1,1.407-.1,2.375,2.375,0,0,0,.782.061,1.626,1.626,0,0,0,.842-.428.367.367,0,0,1,.487.548,2.339,2.339,0,0,1-1.227.606,3.051,3.051,0,0,1-1.02-.066,1.352,1.352,0,0,0-.93.028.889.889,0,0,0-.12.077.365.365,0,0,1-.221.074" transform="translate(-295.779 -83.76)" fill="#050e12"/>
      <path id="Trazado_818270" data-name="Trazado 818270" d="M584.495,169.053a1.788,1.788,0,0,1-.77-.177.33.33,0,0,1,.285-.6,1.162,1.162,0,0,0,.54.111,1.194,1.194,0,0,0,.806-.407.331.331,0,0,1,.5.438,1.864,1.864,0,0,1-1.265.628l-.092,0" transform="translate(-296.875 -85.405)" fill="#050e12"/>
      <path id="Trazado_818271" data-name="Trazado 818271" d="M584.125,135.8a12.841,12.841,0,0,0,3.386,5.735,13.186,13.186,0,0,0,8.4,3.6,10.475,10.475,0,0,0-2.974-6.475,10.921,10.921,0,0,0-8.816-2.859" transform="translate(-297.174 -69.051)" fill="#050e12"/>
      <path id="Trazado_818272" data-name="Trazado 818272" d="M580.793,134.838a34.748,34.748,0,0,1-5.691,6.214c-.2.172-2.057-6.645,4.027-8.641s1.664,2.426,1.664,2.426" transform="translate(-292.368 -67.101)" fill="#050e12"/>
      <path id="Trazado_818273" data-name="Trazado 818273" d="M600.868,125.693a8.3,8.3,0,0,1,.1-2.509c.123-.626.921-4.7,3.93-5.4a5.041,5.041,0,0,1,4.912,1.965c2.066,2.745.744,7.388-2.013,8.71a4.721,4.721,0,0,1-2.9.3s-3.638-.557-4.03-3.066" transform="translate(-305.665 -59.868)" fill="#050e12"/>
      <path id="Trazado_818274" data-name="Trazado 818274" d="M607.124,130.934l-.116-.477c5.1-1.235,7.854-2.94,8.2-5.067.5-3.042-4.187-6.02-4.235-6.05l.261-.416c.2.128,5.005,3.181,4.459,6.544-.381,2.341-3.264,4.181-8.569,5.467" transform="translate(-308.816 -60.502)" fill="#050e12"/>
      <path id="Trazado_818275" data-name="Trazado 818275" d="M580.859,156.515a5.852,5.852,0,0,1-2.255-.423c-2.259-.949-3.153-3.329-3.634-4.607-2-5.312.258-11.786,1.32-14.323l.133-.317.334.08c7.957,1.889,12.311,3.975,13.7,6.566a4.845,4.845,0,0,1,.073,4.089,11.1,11.1,0,0,1-4.916,7.3,8.323,8.323,0,0,1-3.885,1.587,8.063,8.063,0,0,1-.869.05m-3.953-18.724c-1.065,2.637-3,8.574-1.178,13.408.468,1.247,1.252,3.333,3.19,4.147a5.541,5.541,0,0,0,2.727.314,7.526,7.526,0,0,0,3.522-1.458,10.3,10.3,0,0,0,4.575-6.812l.017-.061a3.967,3.967,0,0,0-.016-3.457c-1.235-2.3-5.436-4.295-12.837-6.08" transform="translate(-292.111 -69.619)" fill="#050e12"/>
      <path id="Trazado_818276" data-name="Trazado 818276" d="M602.176,153.44s2.141-1.272,2.927-.513a2.765,2.765,0,0,1-1.439,4.443c-2.765.973-1.487-3.93-1.487-3.93" transform="translate(-306.207 -77.679)" fill="#fff"/>
      <path id="Trazado_818277" data-name="Trazado 818277" d="M603.846,157.053a.328.328,0,0,1-.07-.647.86.86,0,0,0,.736-.859.649.649,0,0,0-.342-.394.984.984,0,0,0-.831-.036.328.328,0,0,1-.244-.609,1.64,1.64,0,0,1,1.384.067,1.273,1.273,0,0,1,.674.836,1.5,1.5,0,0,1-1.236,1.634.316.316,0,0,1-.071.008" transform="translate(-306.721 -78.544)" fill="#050e12"/>
      <rect id="Rectángulo_375597" data-name="Rectángulo 375597" width="1.242" height="7.86" transform="translate(296.647 79.035)" fill="#ed6f6e"/>
      <path id="Trazado_818278" data-name="Trazado 818278" d="M36.379,308.358a.729.729,0,0,1-.193-.027.721.721,0,0,1-.5-.887L90.7,108.947a.721.721,0,1,1,1.389.385l-55.018,198.5a.72.72,0,0,1-.694.529" transform="translate(-18.141 -55.158)" fill="#050e12"/>
      <path id="Trazado_818279" data-name="Trazado 818279" d="M99.383,308.358a.729.729,0,0,1-.193-.027.721.721,0,0,1-.5-.887l55.018-198.5a.721.721,0,0,1,1.39.385l-55.018,198.5a.721.721,0,0,1-.694.529" transform="translate(-50.194 -55.158)" fill="#050e12"/>
      <path id="Trazado_818280" data-name="Trazado 818280" d="M170.691,140.422H139.429a.721.721,0,1,1,0-1.442h31.262a.721.721,0,0,1,0,1.442" transform="translate(-70.568 -70.706)" fill="#050e12"/>
      <path id="Trazado_818281" data-name="Trazado 818281" d="M160.26,177.867H129a.721.721,0,0,1,0-1.442H160.26a.721.721,0,0,1,0,1.442" transform="translate(-65.261 -89.756)" fill="#050e12"/>
      <path id="Trazado_818282" data-name="Trazado 818282" d="M149.828,215.311H118.566a.721.721,0,0,1,0-1.442h31.263a.721.721,0,0,1,0,1.442" transform="translate(-59.954 -108.806)" fill="#050e12"/>
      <path id="Trazado_818283" data-name="Trazado 818283" d="M139.4,252.756H108.134a.721.721,0,0,1,0-1.442H139.4a.721.721,0,0,1,0,1.442" transform="translate(-54.646 -127.856)" fill="#050e12"/>
      <path id="Trazado_818284" data-name="Trazado 818284" d="M128.964,290.2H97.7a.721.721,0,0,1,0-1.442h31.263a.721.721,0,0,1,0,1.442" transform="translate(-49.339 -146.906)" fill="#050e12"/>
      <path id="Trazado_818285" data-name="Trazado 818285" d="M118.532,327.644H87.27a.721.721,0,0,1,0-1.442h31.263a.721.721,0,0,1,0,1.442" transform="translate(-44.032 -165.955)" fill="#050e12"/>
      <path id="Trazado_818286" data-name="Trazado 818286" d="M108.1,365.088H76.838a.721.721,0,0,1,0-1.442H108.1a.721.721,0,0,1,0,1.442" transform="translate(-38.725 -185.005)" fill="#050e12"/>
      <path id="Trazado_818287" data-name="Trazado 818287" d="M97.668,402.533H66.406a.721.721,0,0,1,0-1.442H97.668a.721.721,0,0,1,0,1.442" transform="translate(-33.417 -204.055)" fill="#050e12"/>
      <path id="Trazado_818288" data-name="Trazado 818288" d="M87.236,439.977H55.974a.721.721,0,0,1,0-1.442H87.236a.721.721,0,0,1,0,1.442" transform="translate(-28.11 -223.105)" fill="#050e12"/>
      <path id="Trazado_818289" data-name="Trazado 818289" d="M76.8,477.422H45.542a.721.721,0,0,1,0-1.442H76.8a.721.721,0,0,1,0,1.442" transform="translate(-22.803 -242.155)" fill="#050e12"/>
      <path id="Trazado_818290" data-name="Trazado 818290" d="M30.173,31.671l.059,12.65A6.614,6.614,0,0,0,36.877,50.9l24.46-.113a9.888,9.888,0,0,1,7.5,3.393l2.1,2.408a1.478,1.478,0,0,0,2.592-.978l-.023-4.88-.03-6.47L73.419,31.47a6.615,6.615,0,0,0-6.646-6.584l-30.016.14a6.615,6.615,0,0,0-6.584,6.646" transform="translate(-15.35 -12.661)" fill="#d1e2dc"/>
      <path id="Trazado_818291" data-name="Trazado 818291" d="M30.173,31.671l.059,12.65A6.614,6.614,0,0,0,36.877,50.9l24.46-.113a9.888,9.888,0,0,1,7.5,3.393l2.1,2.408a1.478,1.478,0,0,0,2.592-.978l-.023-4.88-.03-6.47L73.419,31.47a6.615,6.615,0,0,0-6.646-6.584l-30.016.14a6.615,6.615,0,0,0-6.584,6.646" transform="translate(-15.35 -12.661)" fill="#dfe7fe"/>
      <path id="Trazado_818292" data-name="Trazado 818292" d="M69.422,36.672l5.5,15.512a.83.83,0,0,1-1.564.555l-5.5-15.512a.829.829,0,0,1,.782-1.107h0a.829.829,0,0,1,.782.552" transform="translate(-34.499 -18.376)" fill="#fff"/>
      <path id="Trazado_818293" data-name="Trazado 818293" d="M83.279,48.556h0a.891.891,0,0,0,.446.772l2.308,1.332-2.306,1.323a.891.891,0,0,0-.448.773v.015a.891.891,0,0,0,1.356.759l3.442-2.109a.891.891,0,0,0,0-1.52l-3.442-2.1a.891.891,0,0,0-1.355.76" transform="translate(-42.368 -24.249)" fill="#fff"/>
      <path id="Trazado_818294" data-name="Trazado 818294" d="M61.518,52.77h0A.891.891,0,0,0,61.073,52l-2.308-1.332,2.306-1.323a.891.891,0,0,0,.448-.773v-.015a.891.891,0,0,0-1.356-.759L56.72,49.906a.891.891,0,0,0,0,1.52l3.442,2.1a.891.891,0,0,0,1.356-.76" transform="translate(-28.64 -24.249)" fill="#fff"/>
      <path id="Trazado_818295" data-name="Trazado 818295" d="M268.036,167.387s3.915-1.994,5.382-2.987,2.933-1.987,2.94-1a6,6,0,0,1-2.911,4.934c-2.445,1.492-5.382,2.987-5.411-.943" transform="translate(-136.363 -82.922)" fill="#fff"/>
      <path id="Trazado_818296" data-name="Trazado 818296" d="M269.166,169.88a2.017,2.017,0,0,1-1-.242c-.759-.422-1.133-1.325-1.144-2.761l0-.307.273-.139c.039-.02,3.9-1.992,5.329-2.956,1.659-1.124,2.631-1.744,3.284-1.4a.845.845,0,0,1,.43.8,6.523,6.523,0,0,1-3.149,5.361,8.98,8.98,0,0,1-4.023,1.641m-1.141-2.708c.035.645.181,1.353.625,1.6.922.513,3.095-.813,4.022-1.379A5.535,5.535,0,0,0,275.343,163a13.283,13.283,0,0,0-2.163,1.3c-1.262.855-4.224,2.4-5.155,2.875" transform="translate(-135.848 -82.408)" fill="#050e12"/>
      <path id="Trazado_818297" data-name="Trazado 818297" d="M279.672,133.633a8.539,8.539,0,0,1-.357,1.152,8.9,8.9,0,0,1-.986,1.9,7.035,7.035,0,0,1-2.182,2.252c-1.815,1.111-3.31.627-5.006,1.957a6.428,6.428,0,0,0-1.385,1.516L252.9,171.619a9.668,9.668,0,0,0-.843,3.388c-.14,2.472.834,3.217.418,4.943a5.121,5.121,0,0,1-1.673,2.607,7.966,7.966,0,0,1-.689.546c-.363.263-.707.479-.989.654-1.873,1.174-4.521,1.88-4.965,1.207a.515.515,0,0,1-.057-.357l3.861-4.161a5.057,5.057,0,0,0-4.764-4.188q-1.975,1.74-3.955,3.475a6.961,6.961,0,0,1,1.882-5.767,8.029,8.029,0,0,1,2.351-1.638c5.083-2.389,4.719-4.005,7.545-8.571s13.931-25.32,13.931-25.32a6.918,6.918,0,0,0,.727-2.74c.078-1.74-.6-2.524-.5-4.518a6.762,6.762,0,0,1,.394-2.136,7.616,7.616,0,0,1,4.635-4.07c.183-.066.3-.1.333-.107a4.739,4.739,0,0,1,.721-.125c.45-.062,1.23-.168,2.685-.361l.354.51-3.783,3.729a6.328,6.328,0,0,0,1.161,3.311,6.408,6.408,0,0,0,3.542,2.416l3.855-4.156.858.156a10.747,10.747,0,0,1-.26,3.288" transform="translate(-121.689 -63.278)" fill="#2b5cf9"/>
      <path id="Trazado_818298" data-name="Trazado 818298" d="M252.177,232.734a5.355,5.355,0,0,1-.089.84,7.861,7.861,0,0,1-.689.545,5.657,5.657,0,0,0,.224-1.4,6.782,6.782,0,0,0-1.37-4.183l-.036-.051a7.35,7.35,0,0,0-4.132-3.08,6.77,6.77,0,0,0-4.367.428,7.261,7.261,0,0,1,.695-.845,7.107,7.107,0,0,1,3.81-.12,7.879,7.879,0,0,1,4.448,3.3l.035.051a7.269,7.269,0,0,1,1.471,4.521" transform="translate(-122.974 -114.295)" fill="#050e12"/>
      <path id="Trazado_818299" data-name="Trazado 818299" d="M309.768,134.007a8.542,8.542,0,0,1-.357,1.152,6.065,6.065,0,0,1-3.291,1.505,5.623,5.623,0,0,1-.9.027c-2.923-.159-4.983-2.669-5.4-3.214a5.7,5.7,0,0,1,.48-8.132c.183-.066.3-.1.333-.107a4.738,4.738,0,0,1,.721-.125,6.154,6.154,0,0,0-2.444,4.865,5.8,5.8,0,0,0,1.349,3.163c.427.563,2.7,3.324,5.8,2.969a5.739,5.739,0,0,0,3.711-2.1" transform="translate(-151.784 -63.652)" fill="#050e12"/>
      <path id="Trazado_818300" data-name="Trazado 818300" d="M274.144,171.965a1.7,1.7,0,0,0-.5-.979c-1.36-1.4-12.15-.283-15.217.059l-8.365-.376-2.864,11.32,8.353-.9a44.307,44.307,0,0,0,10.321,1.742c1.122.032,2.649.01,3.432-1.008a2.547,2.547,0,0,0,.48-1.477,2.355,2.355,0,0,0,1.73-1.066,2.33,2.33,0,0,0,.212-1.9,2.057,2.057,0,0,0,1.564-1.59,2.156,2.156,0,0,0-.607-1.856c.323-.2,1.524-.985,1.459-1.976" transform="translate(-125.763 -86.641)" fill="#fff"/>
      <path id="Trazado_818301" data-name="Trazado 818301" d="M265.919,182.826c-.193,0-.368-.005-.518-.009a43.389,43.389,0,0,1-10.346-1.736l-8.268.888a.442.442,0,0,1-.476-.548l2.864-11.32a.45.45,0,0,1,.448-.334l8.331.375c6.376-.711,14.234-1.273,15.549.075a2.118,2.118,0,0,1,.623,1.259,2.612,2.612,0,0,1-1.256,2.1,2.427,2.427,0,0,1-1.08,3.643,2.668,2.668,0,0,1-2.052,3.044,2.8,2.8,0,0,1-.543,1.372,4.032,4.032,0,0,1-3.277,1.19m-10.826-2.637a.453.453,0,0,1,.12.017,42.591,42.591,0,0,0,10.214,1.726c1.23.036,2.457-.041,3.068-.835a2.072,2.072,0,0,0,.389-1.222.442.442,0,0,1,.4-.426,1.913,1.913,0,0,0,1.393-.857,1.887,1.887,0,0,0,.169-1.525.443.443,0,0,1,.319-.57,1.611,1.611,0,0,0,1.23-1.243,1.7,1.7,0,0,0-.478-1.452.443.443,0,0,1,.073-.7c.3-.189,1.292-.858,1.251-1.567a1.283,1.283,0,0,0-.374-.7c-.785-.8-6.614-.73-14.852.19a.458.458,0,0,1-.069,0l-8-.361-2.62,10.354,7.721-.83.047,0" transform="translate(-125.304 -86.181)" fill="#050e12"/>
      <path id="Trazado_818302" data-name="Trazado 818302" d="M296.884,176.986l-.044,0-2.334-.2a.5.5,0,1,1,.085-.988l2.335.2a.5.5,0,0,1-.043.99" transform="translate(-149.599 -89.434)" fill="#050e12"/>
      <path id="Trazado_818303" data-name="Trazado 818303" d="M294.573,184.062l-.043,0-2.969-.255a.5.5,0,1,1,.085-.988l2.969.255a.5.5,0,0,1-.042.99" transform="translate(-148.101 -93.007)" fill="#050e12"/>
      <path id="Trazado_818304" data-name="Trazado 818304" d="M290.609,191l-.045,0-1.956-.172a.5.5,0,1,1,.089-.988l1.957.172a.5.5,0,0,1-.044.99" transform="translate(-146.599 -96.578)" fill="#050e12"/>
      <path id="Trazado_818305" data-name="Trazado 818305" d="M262.893,187.886a.44.44,0,0,1-.36-.185c-.154-.214-.454-1.062.077-4.288a.442.442,0,0,1,.873.144c-.471,2.862-.235,3.591-.206,3.667a.443.443,0,0,1-.384.662" transform="translate(-133.449 -93.123)" fill="#050e12"/>
      <path id="Trazado_818306" data-name="Trazado 818306" d="M65.37,417.73a.417.417,0,0,1-.408-.5c.142-.723,1.457-7.08,3.688-7.815a1.608,1.608,0,0,1,1.657.449,2.117,2.117,0,0,1,.739,1.828c-.243,2.686-5.243,5.839-5.455,5.972a.415.415,0,0,1-.221.063m3.74-7.556a.636.636,0,0,0-.2.034c-1.171.386-2.311,3.667-2.913,6.184,1.607-1.138,4.077-3.2,4.219-4.772a1.307,1.307,0,0,0-.472-1.137.959.959,0,0,0-.635-.309" transform="translate(-33.045 -208.253)" fill="#050e12"/>
      <path id="Trazado_818307" data-name="Trazado 818307" d="M67.764,423.106a23.2,23.2,0,0,1-2.37-.118.416.416,0,0,1-.225-.73c.56-.478,5.533-4.651,7.74-3.843a1.613,1.613,0,0,1,1.021,1.38,2.117,2.117,0,0,1-.554,1.892c-1.116,1.176-3.687,1.418-5.613,1.418m-1.26-.865c1.968.105,5.185.016,6.269-1.126a1.307,1.307,0,0,0,.336-1.184c-.087-.53-.319-.672-.485-.733-1.155-.422-4.087,1.443-6.119,3.044" transform="translate(-33.081 -212.816)" fill="#050e12"/>
      <path id="Trazado_818308" data-name="Trazado 818308" d="M50.33,383.5l-4.857,19.845a4.505,4.505,0,0,0,4,3.214,4.667,4.667,0,0,0,4.333-5.056L60.7,380.886Z" transform="translate(-23.134 -193.776)" fill="#fff"/>
      <path id="Trazado_818309" data-name="Trazado 818309" d="M49.117,406.55h-.045a4.91,4.91,0,0,1-4.362-3.474.385.385,0,0,1-.009-.215l4.857-19.845a.385.385,0,0,1,.279-.281L60.2,380.116a.384.384,0,0,1,.458.494L53.8,401.164a5.44,5.44,0,0,1-1.5,3.954,4.493,4.493,0,0,1-3.183,1.432m-3.643-3.618a4.117,4.117,0,0,0,3.607,2.85h.036a3.725,3.725,0,0,0,2.631-1.2,4.671,4.671,0,0,0,1.278-3.457.385.385,0,0,1,.02-.139l6.665-19.955-9.461,2.39Z" transform="translate(-22.736 -193.378)" fill="#050e12"/>
      <path id="Trazado_818310" data-name="Trazado 818310" d="M42.083,438.374H61.717a.414.414,0,0,0,.414-.414v-.878a.414.414,0,0,0-.414-.414H42.083a.414.414,0,0,0-.414.414v.878a.414.414,0,0,0,.414.414" transform="translate(-21.199 -222.155)" fill="#050e12"/>
      <path id="Trazado_818311" data-name="Trazado 818311" d="M45.521,429.478H62.573v-2.131a1.652,1.652,0,0,0,0-.426c-.208-.726-1.5-.8-2.553-1.136a6.794,6.794,0,0,1-2.947-1.965c-2.066-2.224-2.813-2.811-3.425-2.931a1.718,1.718,0,0,0-.5-.017c-1.934.186-2.6,3.1-3.439,2.948-.6-.11-.3-1.59-1.474-2.456a2.924,2.924,0,0,0-1.965-.491,3.128,3.128,0,0,0-1.965.982,27.815,27.815,0,0,0-1.763,7.624Z" transform="translate(-21.641 -214.111)" fill="#050e12"/>
      <path id="Trazado_818312" data-name="Trazado 818312" d="M61.742,437.1H42.658a.2.2,0,1,1,0-.41H61.742a.2.2,0,1,1,0,.41" transform="translate(-21.598 -222.164)" fill="#fff"/>
      <path id="Trazado_818313" data-name="Trazado 818313" d="M142.713,394.287,138.9,416.1a4.885,4.885,0,0,1-5.372,1.449c-2.26-.959-3.482-4.11-2.1-6.905q1.068-11.734,2.136-23.468Z" transform="translate(-66.566 -196.976)" fill="#fff"/>
      <path id="Trazado_818314" data-name="Trazado 818314" d="M134.658,417.844a4.4,4.4,0,0,1-1.723-.34,4.862,4.862,0,0,1-2.582-2.827,5.9,5.9,0,0,1,.236-4.576l2.129-23.392a.416.416,0,0,1,.67-.291l9.151,7.11a.416.416,0,0,1,.154.4l-3.814,21.814a.419.419,0,0,1-.1.209,5.68,5.68,0,0,1-4.12,1.892m-1.179-30.3-2.067,22.711a.407.407,0,0,1-.041.146,5.067,5.067,0,0,0-.236,3.988,4.03,4.03,0,0,0,2.127,2.35,4.463,4.463,0,0,0,4.821-1.259l3.749-21.446Z" transform="translate(-66.138 -196.546)" fill="#050e12"/>
      <path id="Trazado_818315" data-name="Trazado 818315" d="M130.771,426c.933.617.484,2.4.529,4.327a12.808,12.808,0,0,0,1.4,5.4l4.638,8.972a3.153,3.153,0,0,1-.982,3.524l-1.128.913L114.3,423.278l9.677-3.584a3.572,3.572,0,0,1,1.064,1.431c.731,1.86-.733,3.3.1,5.267.191.451.416.954.872,1.078.915.248,1.591-1.364,3.455-1.607a1.83,1.83,0,0,1,1.3.137" transform="translate(-58.151 -213.52)" fill="#050e12"/>
      <path id="Trazado_818316" data-name="Trazado 818316" d="M151.258,441.4a23.442,23.442,0,0,1-2.4-.121.416.416,0,0,1-.224-.731c.561-.477,5.541-4.644,7.746-3.832A1.612,1.612,0,0,1,157.4,438.1a2.118,2.118,0,0,1-.557,1.892c-1.112,1.168-3.659,1.41-5.581,1.41m-1.292-.867c1.966.106,5.185.024,6.271-1.118a1.308,1.308,0,0,0,.337-1.184c-.086-.53-.317-.673-.484-.734-1.156-.423-4.089,1.436-6.124,3.036" transform="translate(-75.542 -222.128)" fill="#050e12"/>
      <path id="Trazado_818317" data-name="Trazado 818317" d="M154.484,450.241c-2.672,0-6.534-3.8-6.7-3.966a.416.416,0,0,1,.278-.711c.735-.027,7.225-.2,8.452,1.8a1.612,1.612,0,0,1-.058,1.716,2.117,2.117,0,0,1-1.609,1.139,2.543,2.543,0,0,1-.359.025m-5.37-3.862c1.477,1.3,4.049,3.228,5.612,3.013a1.308,1.308,0,0,0,1-.72c.261-.469.168-.725.075-.876-.644-1.052-4.1-1.409-6.686-1.418" transform="translate(-75.12 -226.673)" fill="#050e12"/>
      <path id="Trazado_818318" data-name="Trazado 818318" d="M133.64,452.619,112.832,426.9a.556.556,0,0,1,.083-.783l.571-.463a.556.556,0,0,1,.783.083l20.808,25.715a.557.557,0,0,1-.083.783l-.571.462a.557.557,0,0,1-.783-.083" transform="translate(-57.34 -216.491)" fill="#050e12"/>
      <path id="Trazado_818319" data-name="Trazado 818319" d="M136.511,451.73a.229.229,0,0,1-.18-.086L115.746,426.2a.231.231,0,0,1,.359-.291l20.585,25.44a.231.231,0,0,1-.034.325.228.228,0,0,1-.145.052" transform="translate(-58.859 -216.64)" fill="#fff"/>
      <path id="Trazado_818320" data-name="Trazado 818320" d="M95.609,173.785q-7.061,26.1-16.17,54.217c-6.5,19.9-13.277,38.749-20.174,56.529L46.5,280.184c2.581-22.023,6.4-34.393,9.626-41.745a103.7,103.7,0,0,0,4.758-12.621,128.021,128.021,0,0,0,3.971-18.4c1.13-7.329.529-6.44,1.624-13.546,1.351-8.775,2.24-14.255,5.337-20.378a42.922,42.922,0,0,1,6.387-9.31l17.4,9.6" transform="translate(-23.658 -83.528)" fill="#050e12"/>
      <path id="Trazado_818321" data-name="Trazado 818321" d="M146.622,173.748c-.264,18.025-.984,36.895-2.282,56.531-1.381,20.884-3.3,40.827-5.591,59.76l-13.44-1.062c-2.937-21.978-2.3-34.907-.981-42.829a103.739,103.739,0,0,0,1.494-13.405,128.058,128.058,0,0,0-.7-18.813c-.715-7.381-1.078-6.372-1.772-13.527-.857-8.837-1.349-14.366.141-21.065a42.9,42.9,0,0,1,3.89-10.6l19.235,5.009" transform="translate(-62.343 -85.846)" fill="#050e12"/>
      <path id="Trazado_818322" data-name="Trazado 818322" d="M81.375,138.684s-3.876,1.047-3.152,4.869,23.2,13.817,23.2,13.817l28.8-63.253L120.1,91.678a14.954,14.954,0,0,0-16.564,7.255L81.375,138.684" transform="translate(-39.75 -46.429)" fill="#050e12"/>
      <path id="Trazado_818323" data-name="Trazado 818323" d="M172.251,154.75c2.173-1.687,4.664-3.577,4.664-3.577l7.31-.577a.927.927,0,0,1,.829,1.461,1.6,1.6,0,0,1-1.072.656l-5.746.837-5.125,4.147a1.651,1.651,0,0,1-.86-2.947" transform="translate(-87.307 -76.615)" fill="#fff"/>
      <path id="Trazado_818324" data-name="Trazado 818324" d="M170.266,154.964c.173-.336,7.834-6.149,7.834-6.149l7.31-.577a.927.927,0,0,1,.829,1.461,1.6,1.6,0,0,1-1.072.656l-5.746.837-5.125,4.147Z" transform="translate(-86.623 -75.414)" fill="#fff"/>
      <path id="Trazado_818325" data-name="Trazado 818325" d="M174.092,150.887c.173-.336,7.834-6.149,7.834-6.149l7.309-.577a.927.927,0,0,1,.829,1.461,1.6,1.6,0,0,1-1.072.656l-5.745.837-5.125,4.147Z" transform="translate(-88.569 -73.341)" fill="#fff"/>
      <path id="Trazado_818326" data-name="Trazado 818326" d="M180.544,153.685a.3.3,0,0,1-.162-.558l6.221-3.942,4.675-.729a.3.3,0,1,1,.093.6l-4.551.709-6.114,3.874a.3.3,0,0,1-.162.047" transform="translate(-91.698 -75.526)" fill="#050e12"/>
      <path id="Trazado_818327" data-name="Trazado 818327" d="M174.123,163.542a11.4,11.4,0,0,0,1.223-.092,12.527,12.527,0,0,0,5.934-2.46c2.14-1.189,5.665-3.485,5.283-4.492-.214-.573-1.687-.712-2.693-.538a10.377,10.377,0,0,0-2.62,1.1l0,0a.013.013,0,0,0-.008,0,1.117,1.117,0,0,1-.926.036.219.219,0,0,1-.058-.034,8.012,8.012,0,0,0-3.6,1.264,5.518,5.518,0,0,0-2.532,5.213" transform="translate(-88.551 -79.309)" fill="#fff"/>
      <path id="Trazado_818328" data-name="Trazado 818328" d="M166.407,150.033l10.4-9.492c8.941-1.49,10.592-.938,10.8-.377a1.192,1.192,0,0,1-.01.844c-.3.654-1.319.774-1.7.823-1.475.192-4.146.739-7.791,1.534-.095.26-.232.633-.4,1.08-.252.656-.6,1.545-1,2.476a46.715,46.715,0,0,1-2.557,4.555c-1.079,1.822-1.382,3-2.418,3.5a4.081,4.081,0,0,1-1.435.362,3.548,3.548,0,0,1-1.314-.2,4.842,4.842,0,0,1-2.412-2.661,4.645,4.645,0,0,1-.164-2.436" transform="translate(-84.613 -71.012)" fill="#fff"/>
      <path id="Trazado_818329" data-name="Trazado 818329" d="M184.658,151.21a.3.3,0,0,1-.268-.441l2.414-4.689a2.131,2.131,0,0,1,1.462-1.114l6.755-1.417a.3.3,0,1,1,.124.591l-6.755,1.417a1.526,1.526,0,0,0-1.049.8l-2.415,4.689a.3.3,0,0,1-.269.164" transform="translate(-93.791 -73.028)" fill="#050e12"/>
      <path id="Trazado_818330" data-name="Trazado 818330" d="M167.19,147.88a.3.3,0,0,1-.209-.521c.865-.825,8.487-8.06,10.048-8.236.339-.038,1.111-.2,2.089-.395,5.849-1.193,9.127-1.647,9.691-.631a.3.3,0,0,1-.529.294c-.457-.821-6.694.45-9.042.929-.993.2-1.776.363-2.142.4-1.023.115-6.492,5.013-9.7,8.073a.3.3,0,0,1-.209.084" transform="translate(-84.904 -69.971)" fill="#050e12"/>
      <path id="Trazado_818331" data-name="Trazado 818331" d="M174.648,163.439a4.3,4.3,0,0,1-.785-.058.3.3,0,0,1,.118-.593c.029,0,2.947.528,7.132-2.31.4-.272.843-.561,1.3-.856,1.458-.951,4.172-2.721,3.953-3.286-.1-.248-1-.407-1.932-.341a4.947,4.947,0,0,0-1.654.469c-.175.071-.366.148-.582.232a25.753,25.753,0,0,1-2.864.917l-3.735.98a.3.3,0,0,1-.153-.585l3.736-.98a25.213,25.213,0,0,0,2.8-.9c.213-.083.4-.159.574-.228a5.466,5.466,0,0,1,1.838-.512c.515-.037,2.221-.091,2.538.726.37.954-1.335,2.152-4.186,4.011-.45.294-.89.58-1.288.85a12.348,12.348,0,0,1-6.8,2.461" transform="translate(-88.329 -79.046)" fill="#050e12"/>
      <path id="Trazado_818332" data-name="Trazado 818332" d="M199.782,146.833a.3.3,0,0,1-.072-.6,2.1,2.1,0,0,0,1.246-.81.807.807,0,0,0-.024-.712.3.3,0,0,1,.342-.417,1.613,1.613,0,0,0,1.233-.251,1.639,1.639,0,0,0,.4-1.4.3.3,0,0,1,.268-.32,1.167,1.167,0,0,0,1.069-1.342.3.3,0,0,1,.6-.067,1.655,1.655,0,0,1-.74,1.69,2.155,2.155,0,0,1-.586.261,2.051,2.051,0,0,1-.625,1.643,1.954,1.954,0,0,1-1.278.424,1.3,1.3,0,0,1-.123.763,2.723,2.723,0,0,1-1.645,1.128.273.273,0,0,1-.071.009" transform="translate(-101.486 -71.553)" fill="#050e12"/>
      <path id="Trazado_818333" data-name="Trazado 818333" d="M100.554,118a.033.033,0,0,1-.009.012c-2.039,1.615-3.912,3.02-5.36,4.073-4.492,2.294-11.822,3.928-22.065-.315,0-.091.013-.182.021-.272.269-2.588,1.594-4.152,12.1-12.9,16.178-13.472,20-15.561,24.553-14.694,1.007.193,4.883.933,6.026,3.629,2.236,5.289-7.619,14.393-15.262,20.466" transform="translate(-37.2 -47.687)" fill="#fff"/>
      <path id="Trazado_818334" data-name="Trazado 818334" d="M106.136,152.258a25.9,25.9,0,0,1-6.91-1.344.5.5,0,0,1,.286-.963c5.865,1.74,7.386,1.238,7.4,1.233a.51.51,0,0,1,.644.279.494.494,0,0,1-.245.643,3.043,3.043,0,0,1-1.176.153" transform="translate(-50.299 -76.277)" fill="#050e12"/>
      <path id="Trazado_818335" data-name="Trazado 818335" d="M94.54,134.245l22.878,5.9-4.408,13.547c-10.43-.473-19.1-1.337-25.648-2.148-6.347-.786-12.278-1.715-14.028-5.728A6.949,6.949,0,0,1,73,141.7a19.373,19.373,0,0,1,5.941-5.5c6.765-3.988,13.828-2.409,15.6-1.958" transform="translate(-37.056 -67.947)" fill="#fff"/>
      <path id="Trazado_818336" data-name="Trazado 818336" d="M99.442,146.641q-.434,0-.867-.03a.5.5,0,1,1,.07-1c7.775.538,16.6-7.275,16.689-7.354A.5.5,0,0,1,116,139c-.36.322-8.618,7.637-16.562,7.637" transform="translate(-49.912 -70.272)" fill="#050e12"/>
      <path id="Trazado_818337" data-name="Trazado 818337" d="M112.85,133.432l-.382-.018c-8.7-.393-17.34-1.117-25.687-2.151-6.824-.844-12.619-1.881-14.426-6.026a7.36,7.36,0,0,1-.367-4.408l.006-.033c.334-2.787,1.994-4.551,12.26-13.1,15.9-13.239,20.1-15.728,24.968-14.8,3.419.657,5.568,1.978,6.394,3.927,1.676,3.963-2.469,10.192-12.318,18.521l14.246,3.672Zm-39.9-12.3a6.324,6.324,0,0,0,.323,3.7c1.6,3.659,7.116,4.625,13.629,5.431,8.2,1.015,16.685,1.73,25.228,2.127l4.125-12.675-15.106-3.893.754-.627c9.868-8.211,14.288-14.43,12.785-17.986-.472-1.115-1.836-2.6-5.651-3.331-4.246-.808-7.728.917-24.142,14.586-10.526,8.766-11.654,10.2-11.912,12.507Z" transform="translate(-36.536 -47.172)" fill="#050e12"/>
      <path id="Trazado_818338" data-name="Trazado 818338" d="M157.836,142.8l-3.676,17.453,7.475.317,3.406-14.681-7.206-3.089" transform="translate(-78.429 -72.65)" fill="#fff"/>
      <path id="Trazado_818339" data-name="Trazado 818339" d="M161.395,160.362,152.911,160l3.925-18.632,8.155,3.5Zm-7.257-1.314,6.467.275,3.217-13.866-6.256-2.682Z" transform="translate(-77.794 -71.922)" fill="#050e12"/>
      <path id="Trazado_818340" data-name="Trazado 818340" d="M77.971,139.455a27.228,27.228,0,0,0,3.081,7.13c6.967,11.29,21.79,16.143,34.1,14.847a37.433,37.433,0,0,0,12.96-3.868q2.183-13,4.014-26.889,2.1-16.065,3.408-31.129a29.054,29.054,0,0,0-6.231-9.9c-2.132-2.212-6-6.229-10.765-6.671-5.589-.519-10.522,4.057-15.079,9.468-12.3,14.607-20.643,33.826-25.489,47.016" transform="translate(-39.668 -42.191)" fill="#fff"/>
      <path id="Trazado_818341" data-name="Trazado 818341" d="M84.067,140.649a.5.5,0,0,1-.46-.7,185.43,185.43,0,0,1,21.356-36.2.5.5,0,0,1,.789.622,184.309,184.309,0,0,0-21.223,35.974.5.5,0,0,1-.461.3" transform="translate(-42.514 -52.686)" fill="#050e12"/>
      <path id="Trazado_818342" data-name="Trazado 818342" d="M155.732,213.571a.5.5,0,0,1-.481-.646l8.289-27.7a.5.5,0,0,1,.962.288l-8.289,27.7a.5.5,0,0,1-.481.358" transform="translate(-78.973 -94.05)" fill="#050e12"/>
      <path id="Trazado_818343" data-name="Trazado 818343" d="M110.682,161.605c-10.916,0-24.152-4.527-30.821-15.333a27.767,27.767,0,0,1-3.151-7.291l-.052-.19.068-.184c7.269-19.786,15.881-35.666,25.6-47.2,4.3-5.106,9.52-10.25,15.606-9.684,4.989.463,9,4.621,11.149,6.855a29.484,29.484,0,0,1,6.364,10.115l.05.132-.012.14c-.916,10.366-2.064,20.848-3.411,31.155-1.171,8.955-2.522,18.01-4.016,26.911l-.052.307-.279.14a38.165,38.165,0,0,1-13.172,3.93,37.091,37.091,0,0,1-3.867.2m-32.733-22.76a26.521,26.521,0,0,0,2.959,6.781c7.2,11.669,22.42,15.727,33.514,14.558a36.853,36.853,0,0,0,12.47-3.667c1.471-8.786,2.8-17.72,3.958-26.557,1.34-10.244,2.481-20.66,3.393-30.963a28.238,28.238,0,0,0-6.048-9.565c-2.043-2.12-5.845-6.064-10.379-6.485-5.527-.516-10.456,4.389-14.552,9.251-9.593,11.39-18.109,27.082-25.315,46.647" transform="translate(-39 -41.555)" fill="#050e12"/>
      <path id="Trazado_818344" data-name="Trazado 818344" d="M178.089,111.689l4.442,24.484,27.733-.455-.436,13.3s-27.812,10.645-38.817.76c-8.537-7.669-10.51-27.955-10.966-36.666a7.21,7.21,0,0,1,5.148-7.352,13.7,13.7,0,0,1,7.833.251,7.3,7.3,0,0,1,5.063,5.673" transform="translate(-81.418 -53.577)" fill="#fff"/>
      <path id="Trazado_818345" data-name="Trazado 818345" d="M172.945,165.9a.618.618,0,0,1-.33-.1,30.768,30.768,0,0,1-8.52-8.021c-7.026-9.8-6.033-21.028-5.278-25.4a.614.614,0,1,1,1.211.209c-.727,4.219-1.69,15.048,5.067,24.475a29.522,29.522,0,0,0,8.182,7.7.615.615,0,0,1-.331,1.133" transform="translate(-80.529 -67.09)" fill="#050e12"/>
      <path id="Trazado_818346" data-name="Trazado 818346" d="M197.872,172.432a.5.5,0,0,1-.383-.827l3.653-4.315a.5.5,0,1,1,.766.649l-3.652,4.315a.5.5,0,0,1-.384.178" transform="translate(-100.412 -85.018)" fill="#050e12"/>
      <path id="Trazado_818347" data-name="Trazado 818347" d="M196,142.039l-4.348-23.973-1.208.221,4.534,25,27.609-.457-.4,12.247c-3.218,1.164-25.875,8.951-36.486,1.768-.064.447-.128.894-.192,1.336,3.478,2.162,7.968,2.933,12.63,2.933,11.53,0,24.091-4.731,24.867-5.03l.378-.142.472-14.359Z" transform="translate(-94.381 -60.066)" fill="#050e12"/>
      <path id="Trazado_818348" data-name="Trazado 818348" d="M256.194,164.835l-7.125-.333-.411,17.314,7.253-1.837Z" transform="translate(-126.505 -83.691)" fill="#fff"/>
      <path id="Trazado_818349" data-name="Trazado 818349" d="M248.022,181.794a.615.615,0,0,1-.614-.629l.411-17.315a.615.615,0,0,1,.643-.6l7.125.334a.614.614,0,0,1,.586.625l-.283,15.143a.614.614,0,0,1-.463.584l-7.253,1.838a.6.6,0,0,1-.151.019m1.011-17.286-.377,15.877,6.014-1.523.263-14.077Z" transform="translate(-125.869 -83.054)" fill="#050e12"/>
      <path id="Trazado_818350" data-name="Trazado 818350" d="M181.57,42.126c.73,5.012,1.127,15.463-2.96,16.924-.71.254-2.049-.037-4.713-.577-2.112-.428-3.168-.642-3.958-1.222-1.862-1.367-.769-2.719-2.661-5.283-1.739-2.357-3.852-2.831-4.578-5.646-.019-.071-.057-.257-.133-.649-.718-3.7-1.4-7.246.826-10.19,2.889-3.814,8.287-3.478,8.858-3.434a10.191,10.191,0,0,1,6.53,2.882c.96.985,2.127,2.65,2.79,7.2" transform="translate(-82.353 -16.291)" fill="#fff"/>
      <path id="Trazado_818351" data-name="Trazado 818351" d="M172.495,69.261l-.207.434-.908,1.861-.359.727-1.167,2.387-.98,1.99-.5,1.014-.217.447-.828,1.7a7.5,7.5,0,0,1-6.479-1.2,8.881,8.881,0,0,1-3.14-6.277l4.126-6.612c.6-.968,1.212-1.939,1.815-2.907s1.216-1.949,1.827-2.925q2.935,3.922,5.879,7.848c.374.507.757,1.007,1.135,1.516" transform="translate(-80.237 -30.473)" fill="#fff"/>
      <path id="Trazado_818352" data-name="Trazado 818352" d="M164.773,79.708a7.553,7.553,0,0,1-4.685-1.566,9.347,9.347,0,0,1-3.317-6.61l-.01-.147,8.2-13.137.4.535q2.934,3.922,5.879,7.848c.214.29.428.575.643.86q.247.327.493.657l.165.222-1.6,3.277-3.779,7.718-.2.056a8.415,8.415,0,0,1-2.2.287M157.7,71.617a8.362,8.362,0,0,0,2.951,5.8,6.986,6.986,0,0,0,5.879,1.171l4.949-10.113-.324-.431c-.217-.288-.433-.576-.647-.866q-2.738-3.653-5.475-7.309Z" transform="translate(-79.753 -29.634)" fill="#050e12"/>
      <path id="Trazado_818353" data-name="Trazado 818353" d="M214.567,63.806a.457.457,0,0,1-.342-.153,7.024,7.024,0,0,0-1-.923c-.17-.129-.337-.243-.5-.344a.459.459,0,0,1,.488-.777c.182.114.371.244.563.389a7.953,7.953,0,0,1,1.132,1.043.459.459,0,0,1-.342.764" transform="translate(-108.115 -31.308)" fill="#050e12"/>
      <path id="Trazado_818354" data-name="Trazado 818354" d="M215.425,55.365a.471.471,0,0,1-.141-.022,7.067,7.067,0,0,0-1.33-.289c-.211-.025-.413-.038-.6-.044a.458.458,0,0,1-.445-.472.452.452,0,0,1,.472-.445c.215.006.443.023.683.05a7.961,7.961,0,0,1,1.5.327.459.459,0,0,1-.14.9" transform="translate(-108.316 -27.52)" fill="#050e12"/>
      <path id="Trazado_818355" data-name="Trazado 818355" d="M201.775,39.418l.037-.465a4.837,4.837,0,0,0,4.88-2.706,5.041,5.041,0,0,0-.8-4.86,5.763,5.763,0,0,0-4.645-2.11l-.021-.466a6.248,6.248,0,0,1,5.037,2.294,5.509,5.509,0,0,1,.857,5.331,5.3,5.3,0,0,1-5.344,2.982" transform="translate(-102.373 -14.656)" fill="#050e12"/>
      <path id="Trazado_818356" data-name="Trazado 818356" d="M177.467,59.131a23.026,23.026,0,0,1-3.782-.607l-.36-.073c-2.175-.441-3.266-.662-4.138-1.3a3.761,3.761,0,0,1-1.521-2.569,6.792,6.792,0,0,0-1.237-2.812,12.382,12.382,0,0,0-2-2.046,6.965,6.965,0,0,1-2.654-3.758c-.019-.074-.059-.268-.139-.676-.743-3.83-1.444-7.447.91-10.554,3.012-3.976,8.629-3.662,9.259-3.614a10.455,10.455,0,0,1,6.822,3.018c1.064,1.092,2.242,2.831,2.915,7.451.779,5.344,1.1,15.863-3.259,17.422a2.4,2.4,0,0,1-.817.121M171.02,32.009c-1.639,0-5.513.333-7.743,3.277-2.106,2.781-1.443,6.2-.741,9.826.073.375.109.554.126.622a6.142,6.142,0,0,0,2.368,3.294,13.328,13.328,0,0,1,2.136,2.194,7.68,7.68,0,0,1,1.393,3.147,2.863,2.863,0,0,0,1.17,2.039c.709.521,1.735.729,3.779,1.143l.359.073c2.215.449,3.553.721,4.108.521,3.5-1.252,3.489-10.74,2.661-16.426-.639-4.386-1.76-6.015-2.665-6.943a9.551,9.551,0,0,0-6.237-2.744c-.1-.008-.355-.024-.714-.024" transform="translate(-81.873 -15.819)" fill="#050e12"/>
      <path id="Trazado_818357" data-name="Trazado 818357" d="M175.742,25.457c4.016,1.166,5.841,6.112,4.751,8.89-1.31,3.34-6.158,1.826-9.232,6.3-1.749,2.545-1.1,4.38-3.356,6.619a10.294,10.294,0,0,1-5.283,2.66l-3.45-.409a16.364,16.364,0,0,1-4.433-6.263c-.6-1.536-2.422-6.155-.2-10.727a9.54,9.54,0,0,1,5.44-5.16,9.72,9.72,0,0,1,7.848,1.071,7.485,7.485,0,0,1,7.91-2.978" transform="translate(-78.076 -12.824)" fill="#050e12"/>
      <path id="Trazado_818358" data-name="Trazado 818358" d="M182.937,48.2c-.621,5.6.367,9.69,2.347,10.283a2.676,2.676,0,0,0,2.152-.444c.988,6.4-.163,11.7-2.937,12.944a6.747,6.747,0,0,1-2.152.444,9.313,9.313,0,0,1-6.519-2.244c-3.211-3.016-4.35-8.377-2.665-12.91,2.4-6.446,9.3-7.977,9.774-8.074" transform="translate(-87.702 -24.522)" fill="#050e12"/>
      <path id="Trazado_818359" data-name="Trazado 818359" d="M179.8,63.953a1.186,1.186,0,0,1-1.388.179h0a3.233,3.233,0,0,1-1.413-1.779,3.8,3.8,0,0,1,.344-3.261,1.931,1.931,0,0,1,.689-.692c.707-.339,1.783.02,2.907.929l-.005,0s.659,2.91-1.131,4.621" transform="translate(-89.932 -29.646)" fill="#fff"/>
      <path id="Trazado_818360" data-name="Trazado 818360" d="M180.307,64.167l-.021-.008a2.354,2.354,0,0,1-1.384-1.686,1.206,1.206,0,0,1,.3-1.076,1.529,1.529,0,0,1,1.892.167.233.233,0,1,1-.28.373,1.11,1.11,0,0,0-1.3-.2.785.785,0,0,0-.155.682c.088.814,1.012,1.264,1.117,1.313a.233.233,0,0,1-.175.432" transform="translate(-91.009 -31.105)" fill="#050e12"/>
      <path id="Trazado_818361" data-name="Trazado 818361" d="M167.156,91.366l.265-3.5s-8.265-3.007-11.323-7.621l-4.527,2.632s3.979,11.013,15.585,8.485" transform="translate(-77.112 -40.827)" fill="#fff"/>
      <path id="Trazado_818362" data-name="Trazado 818362" d="M163.652,95.684a12.765,12.765,0,0,1-4.178-.7,13.8,13.8,0,0,1-7.889-7.481.5.5,0,1,1,.924-.4,12.77,12.77,0,0,0,7.293,6.927,12.144,12.144,0,0,0,7.207.182.5.5,0,1,1,.269.967,13.6,13.6,0,0,1-3.625.5" transform="translate(-77.098 -44.162)" fill="#050e12"/>
      <path id="Trazado_818363" data-name="Trazado 818363" d="M166.817,87.388a.5.5,0,0,1-.179-.033c-8.135-3.1-10.613-6.248-11.332-7.568l-4.412,3.089a.5.5,0,1,1-.576-.823l5.51-3.857.177.708c.008.03,1.149,3.763,10.99,7.512a.5.5,0,0,1-.179.972" transform="translate(-76.365 -39.782)" fill="#050e12"/>
    </g>
  </g>
</svg>
