<svg xmlns="http://www.w3.org/2000/svg" xmlns:xlink="http://www.w3.org/1999/xlink" width="610" height="245.473" viewBox="0 0 610 245.473">
  <defs>
    <clipPath id="clip-path">
      <rect id="Rectángulo_376137" data-name="Rectángulo 376137" width="312.696" height="229.946" fill="none"/>
    </clipPath>
    <clipPath id="clip-path-3">
      <rect id="Rectángulo_376108" data-name="Rectángulo 376108" width="105.761" height="113.966" fill="none"/>
    </clipPath>
  </defs>
  <g id="Grupo_1071919" data-name="Grupo 1071919" transform="translate(-810 -9892)">
    <rect id="Rectángulo_376138" data-name="Rectángulo 376138" width="610" height="245" transform="translate(810 9892)" fill="#f1f9ff"/>
    <g id="Grupo_1071918" data-name="Grupo 1071918" transform="translate(895 9907.527)">
      <g id="Grupo_1071917" data-name="Grupo 1071917" clip-path="url(#clip-path)">
        <rect id="Rectángulo_376107" data-name="Rectángulo 376107" width="309.708" height="3.088" transform="translate(0 226.857)"/>
        <g id="Grupo_1071916" data-name="Grupo 1071916">
          <g id="Grupo_1071915" data-name="Grupo 1071915" clip-path="url(#clip-path)">
            <path id="Trazado_819520" data-name="Trazado 819520" d="M199.54,101.064c-1.019-2.464-2.048-9.325-4.721-7.406-4.452,3.193-2.134,10.651-.273,13.9,2.027,3.54,4.6,13.2,4.6,13.2a14.014,14.014,0,0,0-6.657-2.076c-5.938-.4-6.929-.016-7.99,2.186s.621,5.668-1.156,7.1c-2.42,1.948-.527,6.473-.527,6.473a9.676,9.676,0,0,0,1.775,7.194c1.657,2.155,3.132,4.36,7.062,4.2,2.832-.113-.569,8.536,3.791,11.651,4.837,3.453,3.665,20.981,7.556,28.049l23.938-14.159c-6.363-10.89-15.809-46.369-19.3-50.946s-5.377-12.786-8.1-19.358" transform="translate(-106.458 -54.554)" fill="#fff"/>
            <path id="Trazado_819521" data-name="Trazado 819521" d="M215.019,139.7c-3.285-9.9-6.121-18.451-7.794-20.64-2.276-2.989-3.914-7.75-5.5-12.35-.791-2.3-1.612-4.679-2.512-6.855-.226-.543-.461-1.347-.71-2.2-.818-2.795-1.746-5.959-3.741-5.959a2.212,2.212,0,0,0-1.29.459c-4.615,3.311-2.734,10.827-.467,14.783,1.484,2.585,3.3,8.646,4.108,11.5a15.745,15.745,0,0,0-5.526-1.387c-1.429-.1-2.491-.145-3.34-.145-3.1,0-4.294.608-5.3,2.709a7.5,7.5,0,0,0-.4,3.723c.076,1.376.145,2.564-.574,3.14-2.512,2.019-1.156,6.135-.8,7.073a10.306,10.306,0,0,0,1.935,7.532l.248.32c1.563,2.042,3.177,4.155,6.961,4.155l.445-.008c.543,0,.564,1.607.58,3.159.032,2.722.074,6.444,2.766,8.366,2.42,1.727,3.269,7.928,4.092,13.921.713,5.217,1.453,10.612,3.267,13.9l.336.611,25.11-14.857-.338-.58c-3.406-5.833-7.736-18.87-11.553-30.374M202.33,183.63c-1.465-3.13-2.144-8.046-2.795-12.812-.9-6.567-1.751-12.773-4.645-14.841-2.131-1.52-2.168-4.714-2.2-7.28-.027-2.31-.05-4.493-2.011-4.493l-.364.007c-3.117,0-4.4-1.68-5.888-3.626l-.251-.322a9.111,9.111,0,0,1-1.644-6.654l.039-.2-.081-.187c-.016-.042-1.667-4.084.33-5.686,1.258-1.015,1.164-2.669,1.075-4.273a6.6,6.6,0,0,1,.268-3.06c.691-1.439,1.193-1.943,4.087-1.943.879,0,1.943.05,3.248.139a13.513,13.513,0,0,1,6.31,1.953l1.52,1.069-.479-1.793c-.1-.4-2.621-9.784-4.669-13.36-1.715-2.994-3.956-10.117.081-13.014a.915.915,0,0,1,.5-.207c.986,0,1.935,3.245,2.446,4.989.26.886.506,1.727.758,2.336.886,2.139,1.7,4.5,2.483,6.78,1.62,4.7,3.29,9.566,5.7,12.728,1.531,2.011,4.473,10.869,7.587,20.25,3.715,11.2,7.917,23.846,11.336,30.044Z" transform="translate(-105.507 -53.603)"/>
            <path id="Trazado_819522" data-name="Trazado 819522" d="M192.383,166.933l.467,1.266a5.74,5.74,0,0,1,6.247,1.486,2.737,2.737,0,0,1,.81,2.884c-.538,1.1-2.354,1.623-5.01,1.444-7.5-.511-8.03-4.973-8.051-5.162l-1.345.118c.021.236.592,5.8,9.307,6.389.38.026.737.039,1.075.039,3.578,0,4.813-1.371,5.235-2.239a4.011,4.011,0,0,0-1.02-4.378,7.073,7.073,0,0,0-7.715-1.848" transform="translate(-108.437 -97.316)"/>
            <path id="Trazado_819523" data-name="Trazado 819523" d="M195.358,188.655c.441.684,1.437,2.719.737,3.906-.524.889-2.029,1.274-4.326,1.12-6.006-.409-8.1-4.276-8.187-4.438l-1.2.621c.1.191,2.5,4.7,9.294,5.165.356.024.7.037,1.025.037,2.312,0,3.84-.611,4.554-1.819,1.261-2.139-.682-5.2-.765-5.325Z" transform="translate(-106.615 -109.852)"/>
            <path id="Trazado_819524" data-name="Trazado 819524" d="M205.912,133.449c-1.817-.241-5.831,4.611-3.052,9.039,5.857,9.323-1.9,17.825,9.485,26.89l2.184-18.231s-3.154-8.35-4.465-10.017-2.9-7.514-4.153-7.681" transform="translate(-118.029 -78.004)" fill="#fff"/>
            <path id="Trazado_819525" data-name="Trazado 819525" d="M207.99,136.348c-1.167-2.789-1.877-4.375-2.936-4.517-1.086-.149-2.506.829-3.539,2.431a6.978,6.978,0,0,0-.173,7.634c2.333,3.717,2.412,7.23,2.493,10.95.118,5.22.241,10.615,7.141,16.11l.842-1.056c-6.407-5.1-6.514-9.949-6.63-15.082-.086-3.741-.173-7.608-2.7-11.64a5.74,5.74,0,0,1,.165-6.185,3.768,3.768,0,0,1,2.176-1.835c.464.233,1.373,2.412,1.919,3.712a18.644,18.644,0,0,0,1.843,3.726c1.022,1.3,3.5,7.545,4.362,9.842l1.264-.477c-.33-.865-3.23-8.5-4.564-10.2a18.745,18.745,0,0,1-1.659-3.414" transform="translate(-117.081 -77.055)"/>
            <path id="Trazado_819526" data-name="Trazado 819526" d="M266.205,257.643l-30.463-49.449a271.44,271.44,0,0,1-29.75,15.8s13.362,52.285,30.817,73.188c47.664,57.07,71.224-10.18,71.224-10.18l.608-97.322s-32.98,1.342-42.436,67.96" transform="translate(-120.416 -110.882)" fill="#4048be"/>
            <path id="Trazado_819527" data-name="Trazado 819527" d="M264.693,254.718l-29.844-48.448-.576.362A273.277,273.277,0,0,1,204.6,222.391l-.519.233.142.548c.131.527,13.6,52.676,30.951,73.455,12.862,15.4,25.212,23.212,36.711,23.212h0c23.619,0,35.545-33.268,35.66-33.6l.04-.105L308.2,188.7l.005-.708-.705.029c-.336.013-33.033,2.1-42.809,66.7m41.548,31.173c-.739,2.029-12.311,32.6-34.346,32.6h0c-11.079,0-23.083-7.647-35.675-22.727-16.2-19.4-29.045-66.73-30.534-72.372a276.09,276.09,0,0,0,28.728-15.256L265.5,258.6l.262-1.848c8.486-59.781,36.283-66.571,41.089-67.3Z" transform="translate(-119.302 -109.892)"/>
            <path id="Trazado_819528" data-name="Trazado 819528" d="M346.182,344.3c-2.613-.739-2.847,12.516-2.847,12.516l5.65-2.158s-.186-9.619-2.8-10.358" transform="translate(-200.702 -201.248)" fill="#f29500"/>
            <path id="Trazado_819529" data-name="Trazado 819529" d="M345.417,342.7a1.4,1.4,0,0,0-1.253.243c-2.145,1.592-2.42,11.032-2.451,12.909l1.35.024c.076-4.392.718-10.967,1.987-11.879,1.319.372,2.224,5.338,2.313,9.723l1.348-.026c-.032-1.691-.344-10.162-3.293-10.995" transform="translate(-199.754 -200.297)"/>
            <path id="Trazado_819530" data-name="Trazado 819530" d="M198.249,246.7l6.666,24.622a70.166,70.166,0,0,0,9.013-2.5l-1.555-8.172,5.584,7.254a101.883,101.883,0,0,0,26.94-18.671l-13.21-20.543s-11.648,9.152-33.438,18.008" transform="translate(-115.889 -133.687)" fill="#fff"/>
            <path id="Trazado_819531" data-name="Trazado 819531" d="M230.139,226.767c-.116.092-11.842,9.2-33.276,17.914l-.55.226,6.984,25.81.621-.126a69.521,69.521,0,0,0,9.128-2.532l.521-.2-1.132-5.938,4.179,5.427.482-.21a103.491,103.491,0,0,0,27.139-18.808l.4-.386-13.908-21.631Zm-13.108,38.91-6.979-9.073,1.977,10.4a69.031,69.031,0,0,1-7.763,2.131l-6.342-23.427c18.59-7.619,29.834-15.5,32.453-17.434L242.9,247.74a103.173,103.173,0,0,1-25.865,17.937" transform="translate(-114.757 -132.292)"/>
            <g id="Grupo_1071914" data-name="Grupo 1071914" transform="translate(82.36 95.306)" opacity="0.8" style="mix-blend-mode: multiply;isolation: isolate">
              <g id="Grupo_1071913" data-name="Grupo 1071913">
                <g id="Grupo_1071912" data-name="Grupo 1071912" clip-path="url(#clip-path-3)">
                  <path id="Trazado_819532" data-name="Trazado 819532" d="M275.71,269.414c-1.8,7.487,2.955,53.89-21.592,53.89-20,0-43.044-52.9-43.044-52.9l2.855-1.153c-2.118-1.675-7.833-22.092-8.266-25.322-2.323,1.059-4.785,2.129-7.414,3.2l6.666,24.622s1.636-.341,3.668-.857c5.581,16.634,14.007,37.914,23.7,49.522,47.664,57.07,71.224-10.18,71.224-10.18l.5-80.817c-3.878.241-22.035,13.968-28.3,40" transform="translate(-198.249 -229.413)" fill="#856494"/>
                </g>
              </g>
            </g>
            <path id="Trazado_819533" data-name="Trazado 819533" d="M446.891,171.93c-30.694,0-50.343,14.031-53.581,27.37-9.115,37.555-10.051,52.129-11.254,128.533H519.618c-1.02-81.454-2-99.412-15.617-131.432-7.592-17.856-21.374-24.47-57.109-24.47" transform="translate(-223.337 -100.504)" fill="#949af8"/>
            <path id="Trazado_819534" data-name="Trazado 819534" d="M503.655,195.184c-7.907-18.6-22.478-24.882-57.731-24.882a81.869,81.869,0,0,0-29.837,5.191l.5,1.256a80.565,80.565,0,0,1,29.341-5.1c34.587,0,48.841,6.072,56.488,24.061,13.244,31.145,14.524,48.353,15.554,130.494H381.773c1.1-69.667,2.031-87.664,9.136-118.856l-1.316-.3c-7.157,31.417-8.072,49.475-9.181,119.818l-.011.687h138.93l-.008-.684c-1.038-82.951-2.292-100.23-15.669-131.689" transform="translate(-222.37 -99.553)"/>
            <path id="Trazado_819535" data-name="Trazado 819535" d="M485.209,176.158c-3.851,26,1.085,42.192,1.085,42.192,14.315-14.409,40.206-46.363,29.619-58.777-8.247-9.671-27.312-6.295-30.7,16.584" transform="translate(-282.778 -90.308)" fill="#fff"/>
            <path id="Trazado_819536" data-name="Trazado 819536" d="M503.79,152.867c-7.789,0-17.751,5.825-20.186,22.244-3.828,25.846,1.059,42.326,1.111,42.489l.329,1.08.794-.8c15-15.09,40.489-46.984,29.655-59.689a15.328,15.328,0,0,0-11.7-5.322m-18.081,63.218c-.994-4.082-3.985-19.059-.765-40.774,2.307-15.57,11.6-21.1,18.847-21.1a13.974,13.974,0,0,1,10.676,4.85c9.306,10.914-11.811,39.731-28.757,57.02" transform="translate(-281.843 -89.361)"/>
            <path id="Trazado_819537" data-name="Trazado 819537" d="M481.186,72.164c-7.33-6.528-29.816-9.577-34.834.024a21.943,21.943,0,0,0-2.438,9.855c-.055,1.421-.037,3.015.066,4.813.43,7.5-.734,6.114-2.267,11.475-3.765,13.136,6.166,27.516,13.771,30.919,13.578,6.074,32.841-16.073,33.135-16.516,6.462-9.748-.1-34.047-7.432-40.57" transform="translate(-257.728 -38.625)" fill="#fff"/>
            <path id="Trazado_819538" data-name="Trazado 819538" d="M480.706,70.71c-4.072-3.628-12.77-6.261-20.684-6.261-7.616,0-13.014,2.3-15.2,6.475a22.77,22.77,0,0,0-2.511,10.14c-.058,1.476-.037,3.07.068,4.879.281,4.926-.136,5.862-.892,7.564a25.5,25.5,0,0,0-1.355,3.686c-3.741,13.058,5.853,28.012,14.146,31.721a13.062,13.062,0,0,0,5.382,1.112h0c13.4,0,28.471-17.69,28.586-17.869,6.667-10.054-.076-34.8-7.545-41.448m6.436,40.682c-.134.173-14.82,17.287-27.48,17.287a11.741,11.741,0,0,1-4.831-1c-6.885-3.078-17.2-16.852-13.4-30.117a24.047,24.047,0,0,1,1.295-3.51c.813-1.83,1.3-2.937,1-8.188-.1-1.741-.121-3.337-.065-4.748a21.221,21.221,0,0,1,2.36-9.572c1.913-3.655,7.015-5.749,14-5.749,7.616,0,15.936,2.491,19.788,5.92,6.994,6.221,13.546,30.3,7.332,39.673" transform="translate(-256.8 -37.675)"/>
            <path id="Trazado_819539" data-name="Trazado 819539" d="M447.537,155.8c.69-1.379,2.669-4.871,2.687-4.908l-1.174-.666c-.084.147-2.016,3.56-2.722,4.971a1.5,1.5,0,0,0-.063,1.172c.509,1.494,3.243,2.884,3.783,3.148l.59-1.216c-1.14-.553-2.852-1.654-3.1-2.5" transform="translate(-260.819 -87.815)"/>
            <path id="Trazado_819540" data-name="Trazado 819540" d="M466.177,190.38l-.457,1.269a12.993,12.993,0,0,0,4.074.658,9.143,9.143,0,0,0,5.666-1.786l-.821-1.067c-3.476,2.667-8.41.944-8.462.926" transform="translate(-272.244 -110.748)"/>
            <path id="Trazado_819541" data-name="Trazado 819541" d="M480.745,124.734c-.852-.139-1.311-.233-1.625-.65l-1.081.808a3.449,3.449,0,0,0,2.486,1.177c1.565.257,3.34.548,5.01,4.559l1.248-.519c-1.958-4.7-4.318-5.091-6.037-5.374" transform="translate(-279.445 -72.535)"/>
            <path id="Trazado_819542" data-name="Trazado 819542" d="M447.017,122.352l.828,1.067a2.66,2.66,0,0,1,3.2-.063l.82-1.072a4,4,0,0,0-4.847.068" transform="translate(-261.311 -71.021)"/>
            <path id="Trazado_819543" data-name="Trazado 819543" d="M480.5,149.168a1.161,1.161,0,1,0,1.366.907,1.164,1.164,0,0,0-1.366-.907" transform="translate(-280.34 -87.185)"/>
            <path id="Trazado_819544" data-name="Trazado 819544" d="M479.415,147.557a1.835,1.835,0,0,0,.362,3.633,1.943,1.943,0,0,0,.365-.036,1.835,1.835,0,0,0-.727-3.6m.766,2.066a.461.461,0,0,1-.309.207.5.5,0,0,1-.572-.378.508.508,0,0,1,.48-.582.487.487,0,0,1,.474.391.48.48,0,0,1-.074.362" transform="translate(-279.389 -86.235)"/>
            <path id="Trazado_819545" data-name="Trazado 819545" d="M451.33,137.683a1.16,1.16,0,1,0,1.156,1.159,1.158,1.158,0,0,0-1.156-1.159" transform="translate(-263.154 -80.485)"/>
            <path id="Trazado_819546" data-name="Trazado 819546" d="M450.379,136.062a1.834,1.834,0,1,0,1.832,1.832,1.836,1.836,0,0,0-1.832-1.832m0,2.32a.485.485,0,1,1,.482-.488.488.488,0,0,1-.482.488" transform="translate(-262.203 -79.537)"/>
            <path id="Trazado_819547" data-name="Trazado 819547" d="M458.811,133.91c-1.985-2.231-7.154-6.947-13.559-4.308a6.556,6.556,0,0,0-2.866-1.282c-.435-1.447-1.982-4.994-6.987-7.383-1.832-.873-3.332-.477-4.111,1.086-1.691,3.395.485,11.414,4.386,13.37a3.57,3.57,0,0,0,3.314.147c2.163-1.064,3.13-4.373,3.414-5.545A5.17,5.17,0,0,1,444.369,131c.052,1.3.723,10.476,8.528,12.94a7.636,7.636,0,0,0,2.268.386,4.206,4.206,0,0,0,2.7-.9c1.686-1.345,2.089-3.886,2.163-5.539a1.519,1.519,0,0,1,1.025-1.379l13.94-4.889v-2.3l-14.545,5a1.5,1.5,0,0,1-1.633-.411M441.3,129.365c-.215,1.135-1.143,4.26-2.847,5.1a2.4,2.4,0,0,1-2.228-.142c-3.275-1.646-5.264-8.916-3.849-11.763a1.355,1.355,0,0,1,1.256-.873,2.969,2.969,0,0,1,1.245.338c5.676,2.708,6.436,6.947,6.467,7.126a1.609,1.609,0,0,1-.044.215M457.1,142.5c-.9.718-2.189.818-3.835.3-7.524-2.373-7.689-11.86-7.689-11.955a.573.573,0,0,0-.005-.065c7.359-3.173,12.877,4.559,13.115,4.892a2.694,2.694,0,0,1,.105.757c.005.047.378,4.42-1.691,6.072" transform="translate(-251.778 -70.431)" fill="#fff"/>
            <path id="Trazado_819548" data-name="Trazado 819548" d="M458.368,132.529c-1.762-1.987-5.437-5.314-10.232-5.314a10.525,10.525,0,0,0-3.715.687,8.456,8.456,0,0,0-2.467-1.114c-.606-1.7-2.368-5.083-7.207-7.391-2.155-1.027-4.077-.469-5.007,1.4-1.833,3.678.4,12.125,4.688,14.272a4.833,4.833,0,0,0,2.168.558,3.919,3.919,0,0,0,1.746-.409c2.042-1,3.106-3.649,3.584-5.275a6.5,6.5,0,0,1,.836.414c.129,1.893,1.13,10.82,8.99,13.3a8.209,8.209,0,0,0,2.464.419h.011a4.882,4.882,0,0,0,3.114-1.046c1.841-1.471,2.328-4.1,2.415-6.038a.845.845,0,0,1,.574-.774l14.393-5.044v-3.731l-15.441,5.311a.849.849,0,0,1-.913-.223m-18.676-4.223c-.231,1.224-1.143,3.961-2.483,4.616a1.736,1.736,0,0,1-1.629-.136c-2.952-1.484-4.821-8.295-3.544-10.861.207-.414.4-.5.65-.5a2.327,2.327,0,0,1,.954.275c4.908,2.339,5.92,5.825,6.072,6.512Zm4.213,1.285a5.74,5.74,0,0,0-2.4-1.2l-.446-.034.029-.118-.027-.134a.166.166,0,0,0-.007-.042h.411a6.581,6.581,0,0,1,2.344,1.067l.2.212-.139.047Zm11.837,11.446c-.724.577-1.8.629-3.214.183-6.2-1.958-7.078-9.186-7.2-10.932a8.175,8.175,0,0,1,2.871-.533c5.159,0,8.84,5.149,8.932,5.243a2.378,2.378,0,0,1,.037.372l.013.189c0,.039.323,4.071-1.437,5.477m17.628-11.706v.881l-13.488,4.732a2.226,2.226,0,0,0-1.332,1.285c0-.54-.037-.9-.039-.946a1.816,1.816,0,0,0-.215-.936c-.055-.079-.168-.233-.336-.446a2.217,2.217,0,0,0,1.762.126Z" transform="translate(-250.835 -69.498)"/>
            <path id="Trazado_819549" data-name="Trazado 819549" d="M501.6,27.324s6.337-8.062-5.327-11.36c0,0,1.468-7.828-8.269-5.754,0,0-8.733-17.374-19.72-2.687,0,0-5.2-12.112-9.789-.383,0,0-13.425-11.362-15.195,5.3,0,0-11.834-7.472-9.139,8.866,0,0-12.259-8.248-5.524,4.2,0,0-12.447,5.437-1.392,12.248,0,0-5.885,6.973,2.116,6.761,0,0-1.777,6.856,3.437,4.945,0-.027-.356-4.8,1.363-7.642,0,0,4.727,4.124,9.06-2.488,0,0-.695,8.376,7.587,5.605,0,0-1.237,3.458,2.011,3.379,0,0-.385,7.988,4.8,5.6,0,0,3.091,4.913,5.568,2.454,0,0-4.952,5.917,2.475,9.752,0,0-3.172,7.9,5.694,7.889,0,0,4.176,6.46,8.508.207,0,0,9.172,7.225,13.711-2.451,0,0,11.039-.855,7.023-8.835,0,0,10.064-4.824,2.627-12.264,0,0,9.8-2.558,2.16-9.459,0,0,10.578-9.294-3.785-13.892" transform="translate(-247.079 -0.951)" fill="#263238"/>
            <path id="Trazado_819550" data-name="Trazado 819550" d="M508.748,32.165c-.545-2.606-2.91-4.672-7.045-6.148a7.768,7.768,0,0,0,1.057-6.221c-.766-2.354-3.017-4.124-6.7-5.267a6.334,6.334,0,0,0-1.221-4.4c-1.429-1.72-3.925-2.284-7.427-1.628-1.022-1.846-5.139-8.5-11.05-8.5-3.044,0-6.032,1.78-8.89,5.3-.889-1.714-2.886-4.9-5.44-4.9-1.825,0-3.39,1.544-4.769,4.711-1.471-1.094-4.949-3.377-8.308-3.377-2.724,0-6.116,1.539-7.151,8.685a11.1,11.1,0,0,0-4.68-1.306,4.357,4.357,0,0,0-3.5,1.508c-1.366,1.609-1.788,4.365-1.287,8.394-1.418-.834-3.7-2.008-5.285-2.008a1.9,1.9,0,0,0-1.764.878c-.666,1.12-.2,3.151,1.476,6.376-1.586.816-5.476,3.149-5.71,6.465-.152,2.174,1.28,4.273,4.253,6.253-.845,1.153-2.37,3.625-1.523,5.448.519,1.125,1.8,1.736,3.8,1.817-.189,1.143-.343,3.141.577,4.334.781,1.009,2.133,1.229,3.916.574a.692.692,0,0,0,.44-.69,16.1,16.1,0,0,1,.936-6.6,6.311,6.311,0,0,0,3.251.954,6.6,6.6,0,0,0,4.981-2.54,6.488,6.488,0,0,0,1.491,3.468c1.29,1.4,3.241,1.822,5.789,1.2a3.091,3.091,0,0,0,.451,2.071,2.428,2.428,0,0,0,1.772.98c.021,1.217.236,3.791,1.542,5.16a3.234,3.234,0,0,0,3.686.645c.685.954,2.336,2.934,4.208,2.984a6.676,6.676,0,0,0-.571,4.061,7.11,7.11,0,0,0,3.835,4.653c-.344,1.149-.894,3.786.474,5.807,1.046,1.55,2.955,2.368,5.691,2.43.605.811,2.415,2.937,4.811,2.937a5.426,5.426,0,0,0,4.2-2.462,12.957,12.957,0,0,0,6.753,2.328c2.166,0,5.151-.894,7.251-5.086,1.368-.168,5.862-.933,7.519-3.872a5.75,5.75,0,0,0-.058-5.3c1.342-.774,4.52-2.912,5.075-6.171.346-2.013-.367-4.053-2.121-6.079,1.432-.553,3.888-1.812,4.433-4.043.427-1.756-.412-3.681-2.5-5.731,1.23-1.248,4.064-4.58,3.332-8.093m-4.755,7.592a.7.7,0,0,0-.231.5.675.675,0,0,0,.226.5c2.076,1.877,2.957,3.524,2.622,4.9-.569,2.344-4.465,3.395-4.5,3.405a.684.684,0,0,0-.48.477.669.669,0,0,0,.176.653c1.95,1.953,2.787,3.864,2.475,5.679-.569,3.371-4.874,5.479-4.915,5.5a.67.67,0,0,0-.312.91c.933,1.848,1.054,3.405.367,4.625-1.568,2.784-6.787,3.23-6.84,3.232a.678.678,0,0,0-.559.388c-1.447,3.086-3.534,4.653-6.2,4.653-3.33,0-6.454-2.422-6.488-2.446a.657.657,0,0,0-.516-.136.666.666,0,0,0-.454.283c-1.12,1.615-2.294,2.433-3.492,2.433-2.158,0-3.875-2.6-3.891-2.624a.715.715,0,0,0-.587-.307c-2.43,0-4.077-.619-4.905-1.837-1.361-2.006-.157-5.1-.147-5.128a.675.675,0,0,0-.317-.849c-2.1-1.083-3.322-2.425-3.639-3.988a6.411,6.411,0,0,1,1.376-4.735.677.677,0,0,0-.519-1.106.668.668,0,0,0-.477.2,1.473,1.473,0,0,1-1.059.493c-1.377,0-2.968-2.04-3.463-2.826a.675.675,0,0,0-.855-.252c-1.177.543-2.053.519-2.674-.133-1.088-1.141-1.211-3.872-1.167-4.827a.752.752,0,0,0-.238-.5.825.825,0,0,0-.545-.207,1.424,1.424,0,0,1-1.235-.454,2.7,2.7,0,0,1-.032-2.026.674.674,0,0,0-.85-.865c-2.527.844-4.362.682-5.468-.516-1.437-1.557-1.235-4.365-1.23-4.394a.676.676,0,0,0-1.238-.425c-1.5,2.292-3.185,3.453-5,3.453a5.194,5.194,0,0,1-3.052-1.106.679.679,0,0,0-1.02.162c-1.473,2.441-1.53,6.072-1.486,7.508-1.109.312-1.712-.018-1.916-.28-.737-.949-.359-3.272-.165-4.011a.683.683,0,0,0-.128-.59.694.694,0,0,0-.545-.255l-.328.005c-1.172,0-2.655-.181-3.056-1.046-.6-1.3,1.14-3.827,1.8-4.611a.682.682,0,0,0,.15-.543.668.668,0,0,0-.315-.467c-2.939-1.814-4.37-3.633-4.247-5.414.23-3.269,5.507-5.618,5.56-5.642a.667.667,0,0,0,.364-.4.659.659,0,0,0-.042-.54c-2.3-4.255-1.985-5.414-1.835-5.665.034-.056.128-.221.606-.221,1.617,0,4.724,1.848,5.783,2.561a.675.675,0,0,0,1.043-.668c-.71-4.294-.44-7.32.779-8.756a3.026,3.026,0,0,1,2.464-1.03,11.036,11.036,0,0,1,4.866,1.6.676.676,0,0,0,1.033-.5c.6-5.629,2.593-8.481,5.932-8.481,3.825,0,8.115,3.586,8.156,3.623a.674.674,0,0,0,.6.136.683.683,0,0,0,.461-.406c1.2-3.067,2.532-4.687,3.856-4.687,2.047,0,4.074,3.673,4.684,5.089a.674.674,0,0,0,1.159.139c2.8-3.733,5.647-5.626,8.487-5.626,5.883,0,10.049,8.13,10.088,8.211a.66.66,0,0,0,.747.357c3.183-.679,5.448-.317,6.6,1.064a5.339,5.339,0,0,1,.868,3.911.682.682,0,0,0,.479.774c3.545,1,5.676,2.527,6.334,4.54.918,2.8-1.329,5.721-1.352,5.75a.674.674,0,0,0-.113.616.666.666,0,0,0,.438.443c4.155,1.329,6.5,3.156,6.979,5.421.749,3.584-3.392,7.283-3.435,7.32" transform="translate(-246.129)"/>
            <path id="Trazado_819551" data-name="Trazado 819551" d="M323.867,485.424a15.054,15.054,0,0,0-12.844-7.273H252.6a1.282,1.282,0,0,0,0,2.565h2.813a12.476,12.476,0,0,1,10.646,6.029l3.89,6.482a6.733,6.733,0,0,1-5.775,10.2H245.02a1.281,1.281,0,0,0,0,2.563h74.764a9.3,9.3,0,0,0,7.973-14.081Z" transform="translate(-142.481 -279.51)" fill="#dfe7fe"/>
            <path id="Trazado_819552" data-name="Trazado 819552" d="M323.62,484.56a15.509,15.509,0,0,0-13.23-7.491H251.97a1.732,1.732,0,0,0,0,3.464h2.813a12.027,12.027,0,0,1,10.261,5.809l3.889,6.485a6.283,6.283,0,0,1-5.389,9.517H244.387a1.731,1.731,0,0,0,0,3.463h74.764a9.748,9.748,0,0,0,8.358-14.764Zm3.23,15.859a8.75,8.75,0,0,1-7.7,4.488H244.387a.832.832,0,0,1,0-1.664h19.157a7.184,7.184,0,0,0,6.161-10.88l-3.89-6.484a12.927,12.927,0,0,0-11.032-6.247H251.97a.832.832,0,0,1,0-1.664H310.39a14.606,14.606,0,0,1,12.458,7.054l3.889,6.483a8.747,8.747,0,0,1,.113,8.914" transform="translate(-141.848 -278.878)"/>
            <path id="Trazado_819553" data-name="Trazado 819553" d="M403.748,485.424a15.066,15.066,0,0,0-12.849-7.273h-2.813a1.282,1.282,0,0,0,0,2.565H390.9a12.481,12.481,0,0,1,10.649,6.029l3.889,6.482a6.734,6.734,0,0,1-5.775,10.2H380.506a1.281,1.281,0,1,0,0,2.563h19.157a9.3,9.3,0,0,0,7.973-14.081Z" transform="translate(-221.681 -279.51)"/>
            <path id="Trazado_819554" data-name="Trazado 819554" d="M403.5,484.56a15.514,15.514,0,0,0-13.232-7.491h-2.813a1.732,1.732,0,0,0,0,3.464h2.813a12.035,12.035,0,0,1,10.263,5.809l3.888,6.485a6.283,6.283,0,0,1-5.387,9.517H379.872a1.731,1.731,0,0,0,0,3.463H399.03a9.75,9.75,0,0,0,8.359-14.764Zm3.229,15.859a8.743,8.743,0,0,1-7.7,4.488H379.872a.832.832,0,0,1,0-1.664H399.03a7.185,7.185,0,0,0,6.16-10.88l-3.889-6.484a12.934,12.934,0,0,0-11.034-6.247h-2.813a.832.832,0,0,1,0-1.664h2.813a14.609,14.609,0,0,1,12.461,7.054l3.889,6.483a8.747,8.747,0,0,1,.111,8.914" transform="translate(-221.048 -278.878)"/>
            <path id="Trazado_819555" data-name="Trazado 819555" d="M292.4,209.7H144.574a4.579,4.579,0,0,0-4.578,4.58V319.23a4.577,4.577,0,0,0,4.578,4.578H292.4a4.578,4.578,0,0,0,4.58-4.578V214.275a4.579,4.579,0,0,0-4.58-4.58" transform="translate(-81.837 -122.58)"/>
            <path id="Trazado_819556" data-name="Trazado 819556" d="M291.771,208.612H143.941a5.035,5.035,0,0,0-5.028,5.03V318.6a5.035,5.035,0,0,0,5.028,5.03h147.83a5.037,5.037,0,0,0,5.032-5.03V213.642a5.037,5.037,0,0,0-5.032-5.03M295.9,318.6a4.133,4.133,0,0,1-4.13,4.129H143.941a4.133,4.133,0,0,1-4.127-4.129V213.642a4.132,4.132,0,0,1,4.127-4.128h147.83a4.133,4.133,0,0,1,4.13,4.128Z" transform="translate(-81.204 -121.947)"/>
            <path id="Trazado_819557" data-name="Trazado 819557" d="M285.6,209.7H137.769a4.58,4.58,0,0,0-4.58,4.58V319.23a4.579,4.579,0,0,0,4.58,4.578H285.6a4.578,4.578,0,0,0,4.578-4.578V214.275a4.579,4.579,0,0,0-4.578-4.58" transform="translate(-77.858 -122.58)" fill="#dfe7fe"/>
            <path id="Trazado_819558" data-name="Trazado 819558" d="M284.966,208.612H137.136a5.035,5.035,0,0,0-5.03,5.03V318.6a5.035,5.035,0,0,0,5.03,5.03h147.83A5.036,5.036,0,0,0,290,318.6V213.642a5.037,5.037,0,0,0-5.03-5.03M289.1,318.6a4.135,4.135,0,0,1-4.13,4.129H137.136a4.133,4.133,0,0,1-4.129-4.129V213.642a4.133,4.133,0,0,1,4.129-4.128h147.83a4.135,4.135,0,0,1,4.13,4.128Z" transform="translate(-77.225 -121.947)"/>
            <rect id="Rectángulo_376109" data-name="Rectángulo 376109" width="148.93" height="98.832" transform="translate(59.36 90.44)" fill="#eff0fe"/>
            <path id="Trazado_819559" data-name="Trazado 819559" d="M291.186,216.616H142.256a.448.448,0,0,0-.448.449V315.9a.449.449,0,0,0,.448.449h148.93a.45.45,0,0,0,.45-.449V217.065a.448.448,0,0,0-.45-.449m-.452,98.831H142.707V217.515H290.735Z" transform="translate(-82.896 -126.626)"/>
            <rect id="Rectángulo_376110" data-name="Rectángulo 376110" width="130.154" height="0.415" transform="translate(72.421 117.596)"/>
            <rect id="Rectángulo_376111" data-name="Rectángulo 376111" width="130.154" height="0.415" transform="translate(72.421 133.643)"/>
            <rect id="Rectángulo_376112" data-name="Rectángulo 376112" width="130.154" height="0.415" transform="translate(72.421 149.691)"/>
            <rect id="Rectángulo_376113" data-name="Rectángulo 376113" width="130.154" height="0.415" transform="translate(72.421 165.738)"/>
            <rect id="Rectángulo_376114" data-name="Rectángulo 376114" width="130.154" height="0.415" transform="translate(72.421 181.786)"/>
            <rect id="Rectángulo_376115" data-name="Rectángulo 376115" width="12.643" height="39.632" transform="translate(81.871 140.019)" fill="#2b5cf9"/>
            <rect id="Rectángulo_376116" data-name="Rectángulo 376116" width="12.643" height="19.816" transform="translate(98.306 159.835)" fill="#2b5cf9"/>
            <rect id="Rectángulo_376117" data-name="Rectángulo 376117" width="12.643" height="57.772" transform="translate(114.741 121.879)" fill="#2b5cf9"/>
            <rect id="Rectángulo_376118" data-name="Rectángulo 376118" width="12.643" height="35.881" transform="translate(131.177 143.77)" fill="#2b5cf9"/>
            <rect id="Rectángulo_376119" data-name="Rectángulo 376119" width="12.643" height="9.908" transform="translate(147.613 169.743)" fill="#2b5cf9"/>
            <rect id="Rectángulo_376120" data-name="Rectángulo 376120" width="12.643" height="29.539" transform="translate(164.048 150.112)" fill="#2b5cf9"/>
            <rect id="Rectángulo_376121" data-name="Rectángulo 376121" width="12.643" height="49.622" transform="translate(180.484 130.029)" fill="#2b5cf9"/>
            <path id="Trazado_819560" data-name="Trazado 819560" d="M151.562,411.6l5.711,3.347.8-1.36,1.835-9.648-7.595,6.274Z" transform="translate(-88.598 -236.131)" fill="#fff"/>
            <path id="Trazado_819561" data-name="Trazado 819561" d="M159.208,403.193l-7.595,6.272a.359.359,0,0,0-.083.1l-.756,1.387a.343.343,0,0,0,.128.463l5.712,3.347a.333.333,0,0,0,.173.047.344.344,0,0,0,.3-.169l.8-1.363a.3.3,0,0,0,.042-.109l1.837-9.646a.344.344,0,0,0-.558-.33m-1.945,9.788-.6,1.015-5.127-3.006.564-1.036,6.807-5.622Z" transform="translate(-88.112 -235.645)" fill="#101c2f"/>
            <path id="Trazado_819562" data-name="Trazado 819562" d="M167.6,407.07l.6-3.127-2.464,2.034Z" transform="translate(-96.881 -236.131)" fill="#101c2f"/>
            <path id="Trazado_819563" data-name="Trazado 819563" d="M167.009,406.389l.864-4.546-3.578,2.954Zm-.5-1.089-1.021-.6,1.348-1.112Z" transform="translate(-96.041 -234.903)" fill="#101c2f"/>
            <path id="Trazado_819564" data-name="Trazado 819564" d="M153.392,419.1a.213.213,0,0,1,.025-.035l0,0Z" transform="translate(-89.668 -244.967)" fill="#f3d933"/>
            <path id="Trazado_819565" data-name="Trazado 819565" d="M152.618,418.285h0a.328.328,0,0,0-.042.163.343.343,0,0,0,.344.343.347.347,0,0,0,.293-.161l.277-.318-.691-.347Z" transform="translate(-89.191 -244.328)" fill="#101c2f"/>
            <path id="Trazado_819566" data-name="Trazado 819566" d="M122.445,422.847a.822.822,0,0,1-.31-1.091l-.023-.012a.819.819,0,0,1-1.412-.829l-.023-.013a.819.819,0,0,1-1.412-.829l-.023-.012a.821.821,0,0,1-1.416-.829l0,0-25.243,45.1,5.728,3.357,25.245-45.1,0,0a.82.82,0,0,1-1.1.263" transform="translate(-54.119 -245.067)" fill="#fdbf2d"/>
            <path id="Trazado_819567" data-name="Trazado 819567" d="M122.995,421.764a.341.341,0,0,0-.219.149.49.49,0,0,1-.643.152.474.474,0,0,1-.178-.632.373.373,0,0,0-.153-.472.344.344,0,0,0-.463.112.487.487,0,0,1-.641.153.477.477,0,0,1-.178-.635.373.373,0,0,0-.153-.469.343.343,0,0,0-.465.108.484.484,0,0,1-.639.153.475.475,0,0,1-.182-.632.366.366,0,0,0-.153-.472.345.345,0,0,0-.461.11.489.489,0,0,1-.643.153.476.476,0,0,1-.178-.635.348.348,0,0,0-.4-.494.34.34,0,0,0-.215.166l-25.242,45.1a.34.34,0,0,0,.124.465l5.731,3.357a.341.341,0,0,0,.173.048.315.315,0,0,0,.091-.013.34.34,0,0,0,.209-.163l25.245-45.1a.344.344,0,0,0-.112-.454.336.336,0,0,0-.26-.052m-25.3,44.964-5.135-3.01,24.57-43.893a1.163,1.163,0,0,0,1.242.43,1.152,1.152,0,0,0,.542.721,1.173,1.173,0,0,0,.895.12,1.166,1.166,0,0,0,.539.723,1.185,1.185,0,0,0,.9.12,1.16,1.16,0,0,0,1.029.877Z" transform="translate(-53.633 -244.584)"/>
            <path id="Trazado_819568" data-name="Trazado 819568" d="M167.181,427.178l.023-.037h0c-.006.012-.015.025-.021.037" transform="translate(-97.728 -249.692)" fill="#f3d933"/>
            <path id="Trazado_819569" data-name="Trazado 819569" d="M166.471,426.377l0,0,.3.179-.093.285.1-.285.292.167.017-.033h0l.215-.368-.707-.251Z" transform="translate(-97.312 -249.069)" fill="#101c2f"/>
            <path id="Trazado_819570" data-name="Trazado 819570" d="M88,532.816a3.319,3.319,0,1,0,5.726,3.357l.7-1.2L88.7,531.613Z" transform="translate(-51.176 -310.762)" fill="#11aaa0"/>
            <path id="Trazado_819571" data-name="Trazado 819571" d="M94.118,534.188l-5.728-3.355a.345.345,0,0,0-.472.122l-.7,1.2a3.664,3.664,0,0,0,3.159,5.515,3.679,3.679,0,0,0,3.165-1.811l.7-1.2a.342.342,0,0,0-.122-.471m-1.176,1.325a2.975,2.975,0,1,1-5.133-3.008l.529-.9,5.135,3.008Z" transform="translate(-50.688 -310.279)"/>
            <rect id="Rectángulo_376122" data-name="Rectángulo 376122" width="1.873" height="6.639" transform="matrix(0.505, -0.863, 0.863, 0.505, 37.51, 220.883)" fill="#fff"/>
            <path id="Trazado_819572" data-name="Trazado 819572" d="M96.654,530.375l-5.728-3.355a.334.334,0,0,0-.263-.037.34.34,0,0,0-.206.159l-.947,1.616a.34.34,0,0,0,.122.471l5.728,3.355a.345.345,0,0,0,.174.047.417.417,0,0,0,.087-.01.351.351,0,0,0,.211-.159l.947-1.616a.345.345,0,0,0-.124-.472m-1.242,1.443-5.135-3.009.6-1.022,5.135,3.01Z" transform="translate(-52.296 -308.049)" fill="#101c2f"/>
            <rect id="Rectángulo_376123" data-name="Rectángulo 376123" width="43.049" height="0.688" transform="translate(46.848 214.131) rotate(-61.019)"/>
            <path id="Trazado_819573" data-name="Trazado 819573" d="M108.956,461.159l.6.333,20.879-37.646-.6-.333Z" transform="translate(-63.692 -247.571)"/>
            <path id="Trazado_819574" data-name="Trazado 819574" d="M105.473,459.026l.6.333,20.879-37.646-.6-.335Z" transform="translate(-61.656 -246.323)"/>
            <path id="Trazado_819575" data-name="Trazado 819575" d="M77.01,446.992l-37.474-57.21a.806.806,0,0,0-1.114-.232l-1.681,1.1a.8.8,0,0,0-.231,1.114l37.474,57.21,4.854,5.311a.493.493,0,0,0,.823-.513Z" transform="translate(-21.265 -227.641)" fill="#fff"/>
            <path id="Trazado_819576" data-name="Trazado 819576" d="M76.81,446.332l-37.474-57.21a1.173,1.173,0,0,0-1.589-.331l-1.681,1.1a1.15,1.15,0,0,0-.332,1.592l37.51,57.252,4.851,5.313a.824.824,0,0,0,.612.275.867.867,0,0,0,.707-.374.822.822,0,0,0,.081-.771Zm2.032,7.229a.169.169,0,0,1-.137.072.132.132,0,0,1-.1-.052l-4.821-5.27L36.308,391.1a.469.469,0,0,1-.064-.345.456.456,0,0,1,.2-.292l1.68-1.1a.449.449,0,0,1,.253-.074.459.459,0,0,1,.385.209L76.2,446.644l2.65,6.782a.135.135,0,0,1-.009.135" transform="translate(-20.778 -227.169)"/>
            <rect id="Rectángulo_376124" data-name="Rectángulo 376124" width="3.618" height="8.451" transform="matrix(0.837, -0.548, 0.548, 0.837, 21.979, 174.406)" fill="#f2821d"/>
            <path id="Trazado_819577" data-name="Trazado 819577" d="M55.735,414.373a.344.344,0,0,0-.476-.1l-3.029,1.982a.345.345,0,0,0-.1.478l4.633,7.068a.34.34,0,0,0,.287.155.331.331,0,0,0,.186-.056l3.029-1.982a.345.345,0,0,0,.1-.477Zm1.416,8.763L52.9,416.645l2.451-1.606,4.25,6.493Z" transform="translate(-30.442 -242.137)"/>
            <path id="Trazado_819578" data-name="Trazado 819578" d="M74.145,442.489a1.269,1.269,0,0,0-1.755-.368l-.9.593a1.268,1.268,0,0,0-.366,1.757l1.6,2.442a1.265,1.265,0,0,0,1.755.366l.906-.591a1.269,1.269,0,0,0,.364-1.757Z" transform="translate(-41.452 -258.328)" fill="#f2821d"/>
            <path id="Trazado_819579" data-name="Trazado 819579" d="M73.949,441.833a1.654,1.654,0,0,0-2.233-.465l-.9.594a1.608,1.608,0,0,0-.465,2.233l1.6,2.444a1.6,1.6,0,0,0,1.348.73,1.622,1.622,0,0,0,.885-.265l.9-.593a1.608,1.608,0,0,0,.466-2.233Zm1.158,3.516a.93.93,0,0,1-.4.585l-.9.591a.926.926,0,0,1-1.28-.267l-1.6-2.443a.923.923,0,0,1,.265-1.28l.907-.592a.911.911,0,0,1,.5-.151.925.925,0,0,1,.777.418l1.6,2.444a.926.926,0,0,1,.134.694" transform="translate(-40.968 -257.862)"/>
            <path id="Trazado_819580" data-name="Trazado 819580" d="M77.413,495.091h23.116l5.829-36.925H71.582Zm22.527-.69H78l-5.615-35.546h33.169Z" transform="translate(-41.844 -267.828)"/>
            <path id="Trazado_819581" data-name="Trazado 819581" d="M103.974,451.792H66.364a1.286,1.286,0,0,0-1.286,1.286v.446a1.284,1.284,0,0,0,1.286,1.286h37.611a1.285,1.285,0,0,0,1.284-1.286v-.446a1.287,1.287,0,0,0-1.284-1.286" transform="translate(-38.042 -264.102)"/>
            <path id="Trazado_819582" data-name="Trazado 819582" d="M103.491,450.966H65.881a1.632,1.632,0,0,0-1.629,1.629v.446a1.631,1.631,0,0,0,1.629,1.629h37.611a1.631,1.631,0,0,0,1.629-1.629v-.446a1.632,1.632,0,0,0-1.629-1.629m.939,2.075a.941.941,0,0,1-.939.941H65.881a.943.943,0,0,1-.941-.941v-.446a.943.943,0,0,1,.941-.941h37.611a.941.941,0,0,1,.939.941Z" transform="translate(-37.559 -263.619)"/>
            <rect id="Rectángulo_376125" data-name="Rectángulo 376125" width="40.742" height="0.691" transform="matrix(0.707, -0.707, 0.707, 0.707, 34.804, 219.496)"/>
            <path id="Trazado_819583" data-name="Trazado 819583" d="M86.534,508.915l.486.488,26.094-26.093-.489-.488Z" transform="translate(-50.585 -282.241)"/>
            <rect id="Rectángulo_376126" data-name="Rectángulo 376126" width="33.799" height="0.689" transform="translate(33.113 212.073) rotate(-45)"/>
            <rect id="Rectángulo_376127" data-name="Rectángulo 376127" width="22.096" height="0.689" transform="matrix(0.707, -0.707, 0.707, 0.707, 44.834, 226.643)"/>
            <rect id="Rectángulo_376128" data-name="Rectángulo 376128" width="22.098" height="0.689" transform="translate(32.009 204.33) rotate(-44.976)"/>
            <path id="Trazado_819584" data-name="Trazado 819584" d="M128.442,537.812l.49.486,5.707-5.705-.488-.488Z" transform="translate(-75.083 -311.05)"/>
            <rect id="Rectángulo_376129" data-name="Rectángulo 376129" width="8.069" height="0.689" transform="translate(30.718 196.34) rotate(-45.147)"/>
            <rect id="Rectángulo_376130" data-name="Rectángulo 376130" width="0.689" height="40.743" transform="matrix(0.707, -0.707, 0.707, 0.707, 30.548, 191.591)"/>
            <rect id="Rectángulo_376131" data-name="Rectángulo 376131" width="0.691" height="36.899" transform="matrix(0.707, -0.707, 0.707, 0.707, 31.568, 201.069)"/>
            <rect id="Rectángulo_376132" data-name="Rectángulo 376132" width="0.69" height="33.801" transform="translate(36.595 188.661) rotate(-45.002)"/>
            <rect id="Rectángulo_376133" data-name="Rectángulo 376133" width="0.689" height="22.098" transform="translate(33.149 211.505) rotate(-44.999)"/>
            <rect id="Rectángulo_376134" data-name="Rectángulo 376134" width="0.689" height="22.096" transform="matrix(0.707, -0.707, 0.707, 0.707, 45.972, 189.195)"/>
            <rect id="Rectángulo_376135" data-name="Rectángulo 376135" width="0.69" height="8.072" transform="translate(34.54 221.543) rotate(-45.013)"/>
            <path id="Trazado_819585" data-name="Trazado 819585" d="M137.668,459.345l5.705,5.705.49-.486-5.71-5.708Z" transform="translate(-80.476 -268.232)"/>
            <path id="Trazado_819586" data-name="Trazado 819586" d="M513.3,345.409c-8.292-9.351-4.554-17.52-13.889-18.12s-15.74-2.719-17.111-.944-3.815,3.833-5.757,6.806-.656,4.664-.973,7.529,1.455,4.58,2.742,3.922,2.1-3.827,2.1-3.827.592,4.475,1.162,7.028a10.618,10.618,0,0,0,2.286,4.709,26.6,26.6,0,0,0,2.388,1.463s6.407,7.506,9.173,5.713c2.954-1.911-2.27-5.909-2.27-5.909.679-1.549-.747-3.563-.747-3.563,4.971-.648,5.414,1.722,9.606,11.186s6.735,2.978,11.679,5.092,16.377,6.764,16.377,6.764c18.076-5.314,18-19.25,18-19.25s-26.478.755-34.768-8.6" transform="translate(-277.927 -190.365)" fill="#fff"/>
            <path id="Trazado_819587" data-name="Trazado 819587" d="M547.1,352.38s-.512.016-1.4.016c-5.964,0-25.948-.6-32.849-8.384a29.727,29.727,0,0,1-5.836-10.536c-1.5-4.153-2.69-7.433-8.512-7.807-3.518-.226-6.669-.676-9.2-1.038a44.4,44.4,0,0,0-5.623-.6,3.533,3.533,0,0,0-2.871.954c-.487.634-1.117,1.3-1.843,2.076a34.121,34.121,0,0,0-3.94,4.774,7.263,7.263,0,0,0-1.125,5.358,11.637,11.637,0,0,1,.042,2.467,5.052,5.052,0,0,0,1.035,3.922,2.247,2.247,0,0,0,2.687.674,3.96,3.96,0,0,0,1.5-1.732c.221,1.439.508,3.19.8,4.48a11.135,11.135,0,0,0,2.493,5.062,21.364,21.364,0,0,0,2.4,1.492c.828.96,5.455,6.135,8.612,6.135a2.455,2.455,0,0,0,1.363-.385,2.4,2.4,0,0,0,1.211-1.969c.076-1.906-2.134-3.961-3.065-4.742a4.467,4.467,0,0,0-.438-2.748c2.976-.126,3.736,1.356,6.727,8.219.359.818.744,1.7,1.172,2.663,1.775,4.014,3.487,5.726,5.728,5.726a9.3,9.3,0,0,0,2.132-.338,6.591,6.591,0,0,1,4.168.047c4.9,2.092,16.27,6.724,16.386,6.772l.22.088.226-.068c18.354-5.392,18.493-19.759,18.493-19.9l-.005-.692ZM529.15,371.593c-1.61-.658-11.64-4.745-16.146-6.672a6.16,6.16,0,0,0-2.456-.508,10.871,10.871,0,0,0-2.557.388,8.088,8.088,0,0,1-1.817.3c-1.145,0-2.572-.585-4.5-4.924-.425-.954-.807-1.84-1.167-2.656-3.2-7.346-4.1-9.582-9.147-8.929l-1.114.147.653.915c.01.016,1.19,1.733.678,2.9l-.212.483.422.322c.769.59,2.963,2.58,2.908,3.917a1.061,1.061,0,0,1-.595.891,1.12,1.12,0,0,1-.629.168c-2.252,0-6.3-4.152-7.666-5.755l-.186-.149a24.713,24.713,0,0,1-2.262-1.374,10.083,10.083,0,0,1-2.079-4.355c-.555-2.493-1.143-6.926-1.148-6.971l-.459-3.455-.862,3.377c-.31,1.193-1.054,3.036-1.756,3.395-.325.16-.719.008-1.065-.372a3.758,3.758,0,0,1-.7-2.874,12.986,12.986,0,0,0-.042-2.739,5.918,5.918,0,0,1,.906-4.5,33.178,33.178,0,0,1,3.794-4.588c.723-.765,1.4-1.489,1.933-2.176.152-.2.587-.43,1.8-.43a44.4,44.4,0,0,1,5.435.587c2.553.367,5.728.82,9.3,1.049,4.942.317,5.839,2.805,7.33,6.924a30.85,30.85,0,0,0,6.1,10.972c7.267,8.2,27.747,8.838,33.856,8.838.27,0,.508,0,.7,0-.243,2.808-2.176,13.318-17.26,17.851" transform="translate(-276.978 -189.415)"/>
            <path id="Trazado_819588" data-name="Trazado 819588" d="M491.793,338.646l-.566-.293-.328.548a14.822,14.822,0,0,1-4.569,4.182l-.3.189-.015.351c0,.034-.147,3.482-.3,4.892l1.342.142c.129-1.2.246-3.7.288-4.628a17.193,17.193,0,0,0,4.357-3.924,6.427,6.427,0,0,0,4.129.616l-.362-1.3a5.518,5.518,0,0,1-3.68-.773" transform="translate(-283.934 -197.789)"/>
            <path id="Trazado_819589" data-name="Trazado 819589" d="M502.944,365.357c-1.909,1.035-4.881,3.259-5.243,5.128-.307,1.592.755,5.246.878,5.657l1.292-.383c-.424-1.434-1.03-4.063-.844-5.018.2-1.025,2.328-2.989,4.562-4.2a28.08,28.08,0,0,1,5.2-1.995l-.349-1.3a29.174,29.174,0,0,0-5.5,2.11" transform="translate(-290.906 -212.342)"/>
            <path id="Trazado_819590" data-name="Trazado 819590" d="M486.521,346.263l1,.9c3.746-4.171,11.291-6.9,11.367-6.929l-.453-1.271c-.325.115-7.946,2.871-11.918,7.3" transform="translate(-284.403 -198.147)"/>
            <path id="Trazado_819591" data-name="Trazado 819591" d="M503.426,349.336l-.6-1.208c-.273.136-6.717,3.382-9.074,6.761-2.48,3.558,1.185,11.375,1.34,11.706l1.221-.577c-.98-2.058-3.146-7.93-1.458-10.358,2.163-3.1,8.51-6.292,8.573-6.323" transform="translate(-288.127 -203.503)"/>
            <path id="Trazado_819592" data-name="Trazado 819592" d="M620.69,197.28s-20.208,16.5-19.7,39.563l6.8,23.563a87.135,87.135,0,0,0,7.055,14.539l-8.9.524s-5.978,28.374-7.711,31.711c0,0,17.656,7.063,30.549,7.763,23.589,1.285,34.949-6.457,32.658-33.138-2.525-29.425-13.143-62.879-40.753-84.526" transform="translate(-349.708 -115.323)" fill="#949af8"/>
            <path id="Trazado_819593" data-name="Trazado 819593" d="M619.783,195.536l-.425-.333-.417.341c-.2.168-20.459,16.978-19.945,40.1l1.353-.032c-.462-20.643,16.194-36.175,19.039-38.672,29.142,23.123,37.874,58.252,40.061,83.711,1.056,12.314-.832,20.776-5.773,25.873-4.992,5.157-13.3,7.231-26.18,6.53-11.254-.611-26.4-6.208-29.69-7.466,1.9-5.033,6.575-26.95,7.369-30.689l9.532-.56-.616-.97a87.76,87.76,0,0,1-6.989-14.416l-1.266.474a90.7,90.7,0,0,0,6.532,13.7l-8.3.491-.108.506c-2.058,9.781-6.307,28.961-7.644,31.536l-.344.661.69.278c.178.071,17.914,7.113,30.763,7.81q2.442.133,4.679.133c10.676,0,17.906-2.283,22.544-7.07,5.227-5.4,7.238-14.2,6.148-26.932-2.221-25.849-11.137-61.579-41.01-85" transform="translate(-348.383 -114.109)"/>
            <path id="Trazado_819594" data-name="Trazado 819594" d="M580.521,380.866s.975,16.516-3.073,28.9l16.3,14.59a32.8,32.8,0,0,0,2.619-5.718l-5.463-4.942,6.788,2.5s5.906-21.579.514-34.49Z" transform="translate(-337.557 -222.641)" fill="#fff"/>
            <path id="Trazado_819595" data-name="Trazado 819595" d="M597.574,380.05l-18.863-.894.045.75c.01.163.923,16.529-3.041,28.652l-.134.42,17.245,15.436.417-.718a32.787,32.787,0,0,0,2.682-5.87l.115-.4-3.19-2.889,4.21,1.552.194-.71c.241-.889,5.9-21.954.485-34.931ZM596.132,414.3l-9.351-3.448,7.726,7a30.865,30.865,0,0,1-2.027,4.436l-15.344-13.735c3.4-10.8,3.128-24.638,3-27.98l16.514.784c4.441,11.273.417,29.168-.519,32.946" transform="translate(-336.465 -221.641)"/>
            <path id="Trazado_819596" data-name="Trazado 819596" d="M600.787,452a1.376,1.376,0,1,0,.679,1.825,1.375,1.375,0,0,0-.679-1.825" transform="translate(-350.06 -264.153)"/>
            <path id="Trazado_819597" data-name="Trazado 819597" d="M600.122,450.457a2.094,2.094,0,0,0-2.721,1.012,2.051,2.051,0,0,0,3.73,1.707,2.058,2.058,0,0,0-1.01-2.719m-.217,2.157a.718.718,0,0,1-.931.346.7.7,0,0,1,.294-1.34.7.7,0,0,1,.655.456.709.709,0,0,1-.018.538" transform="translate(-349.112 -263.218)"/>
          </g>
        </g>
      </g>
    </g>
  </g>
</svg>
