<svg xmlns="http://www.w3.org/2000/svg" width="190" height="151" viewBox="0 0 190 151">
  <g id="Grupo_1071725" data-name="Grupo 1071725" transform="translate(-705 -6933)">
    <rect id="Rectángulo_375669" data-name="Rectángulo 375669" width="190" height="151" transform="translate(705 6933)" fill="#fff6df"/>
    <g id="Layer_6" transform="translate(747.762 6966.825)">
      <g id="Grupo_1071724" data-name="Grupo 1071724" transform="translate(10.239 0.001)">
        <g id="Grupo_1071589" data-name="Grupo 1071589" transform="translate(6.024 6.811)">
          <g id="Grupo_1071588" data-name="Grupo 1071588" transform="translate(0)">
            <path id="Trazado_818510" data-name="Trazado 818510" d="M30.43,20.92H92.806a1.69,1.69,0,0,1,1.69,1.69V88.957a1.69,1.69,0,0,1-1.69,1.69H30.43a1.69,1.69,0,0,1-1.69-1.69V22.61a1.69,1.69,0,0,1,1.69-1.69Z" transform="translate(-28.74 -20.92)" fill="#edf4fc"/>
          </g>
        </g>
        <g id="Grupo_1071591" data-name="Grupo 1071591" transform="translate(6.024 6.811)">
          <g id="Grupo_1071590" data-name="Grupo 1071590">
            <path id="Trazado_818511" data-name="Trazado 818511" d="M30.43,20.92H92.806a1.69,1.69,0,0,1,1.69,1.69v4.981H28.74V22.61a1.69,1.69,0,0,1,1.69-1.69Z" transform="translate(-28.74 -20.92)" fill="#fdbf2d"/>
          </g>
        </g>
        <g id="Grupo_1071593" data-name="Grupo 1071593" transform="translate(6.024 17.055)">
          <g id="Grupo_1071592" data-name="Grupo 1071592">
            <path id="Trazado_818512" data-name="Trazado 818512" d="M28.74,52.385v57.793a1.69,1.69,0,0,0,1.69,1.69H92.806a1.69,1.69,0,0,0,1.69-1.69V52.385Z" transform="translate(-28.74 -52.385)" fill="#949af8"/>
          </g>
        </g>
        <g id="Grupo_1071595" data-name="Grupo 1071595" transform="translate(6.024 71.693)">
          <g id="Grupo_1071594" data-name="Grupo 1071594">
            <path id="Trazado_818513" data-name="Trazado 818513" d="M28.74,220.2v3.155a1.69,1.69,0,0,0,1.69,1.69H92.806a1.69,1.69,0,0,0,1.69-1.69V220.2Z" transform="translate(-28.74 -220.201)" fill="#fdbf2d"/>
          </g>
        </g>
        <g id="Grupo_1071597" data-name="Grupo 1071597" transform="translate(66.935 17.055)">
          <g id="Grupo_1071596" data-name="Grupo 1071596">
            <path id="Trazado_818514" data-name="Trazado 818514" d="M215.825,52.385h4.844v54.638h-4.844Z" transform="translate(-215.825 -52.385)" fill="#fdbf2d"/>
          </g>
        </g>
        <g id="Grupo_1071599" data-name="Grupo 1071599" transform="translate(64.632 6.811)">
          <g id="Grupo_1071598" data-name="Grupo 1071598">
            <path id="Trazado_818515" data-name="Trazado 818515" d="M208.751,20.92h5.457a1.69,1.69,0,0,1,1.69,1.69v4.981h-7.148V20.92Z" transform="translate(-208.751 -20.92)" fill="#d6edff"/>
          </g>
        </g>
        <g id="Grupo_1071601" data-name="Grupo 1071601" transform="translate(40.033)">
          <g id="Grupo_1071600" data-name="Grupo 1071600">
            <path id="Trazado_818516" data-name="Trazado 818516" d="M137.8,2.228A2.782,2.782,0,0,1,135.57.042a.05.05,0,0,0-.1,0,2.783,2.783,0,0,1-2.231,2.186.049.049,0,0,0,0,.1,2.783,2.783,0,0,1,2.231,2.186.05.05,0,0,0,.1,0A2.783,2.783,0,0,1,137.8,2.325a.049.049,0,0,0,0-.1Z" transform="translate(-133.197 -0.001)" fill="#f5c84c"/>
          </g>
        </g>
        <g id="Grupo_1071603" data-name="Grupo 1071603" transform="translate(0 56.651)">
          <g id="Grupo_1071602" data-name="Grupo 1071602">
            <path id="Trazado_818517" data-name="Trazado 818517" d="M13.525,175.589a1.986,1.986,0,0,1-1.592-1.56.036.036,0,0,0-.071,0,1.987,1.987,0,0,1-1.593,1.56.035.035,0,0,0,0,.069,1.987,1.987,0,0,1,1.593,1.56.036.036,0,0,0,.071,0,1.987,1.987,0,0,1,1.592-1.56A.035.035,0,0,0,13.525,175.589Z" transform="translate(-10.239 -174)" fill="#fc657e"/>
          </g>
        </g>
        <g id="Grupo_1071605" data-name="Grupo 1071605" transform="translate(32.287 78.941)">
          <g id="Grupo_1071604" data-name="Grupo 1071604">
            <path id="Trazado_818518" data-name="Trazado 818518" d="M113.009,243.86h-.594v-.594a.805.805,0,1,0-1.61,0v.594h-.594a.805.805,0,1,0,0,1.61h.594v.594a.805.805,0,1,0,1.61,0v-.594h.594a.805.805,0,1,0,0-1.61Z" transform="translate(-109.406 -242.461)" fill="#70d6f9"/>
          </g>
        </g>
        <g id="Grupo_1071607" data-name="Grupo 1071607" transform="translate(31.18 1.709)">
          <g id="Grupo_1071606" data-name="Grupo 1071606">
            <circle id="Elipse_9673" data-name="Elipse 9673" cx="1.099" cy="1.099" r="1.099" fill="#70d6f9"/>
          </g>
        </g>
        <g id="Grupo_1071609" data-name="Grupo 1071609" transform="translate(74.483 23.849)">
          <g id="Grupo_1071608" data-name="Grupo 1071608">
            <circle id="Elipse_9674" data-name="Elipse 9674" cx="1.099" cy="1.099" r="1.099" fill="#f5c84c"/>
          </g>
        </g>
        <g id="Grupo_1071611" data-name="Grupo 1071611" transform="translate(43.553 79.523)">
          <g id="Grupo_1071610" data-name="Grupo 1071610">
            <circle id="Elipse_9675" data-name="Elipse 9675" cx="1.099" cy="1.099" r="1.099" fill="#87d147"/>
          </g>
        </g>
        <g id="Grupo_1071613" data-name="Grupo 1071613" transform="translate(5.21 5.997)">
          <g id="Grupo_1071612" data-name="Grupo 1071612">
            <path id="Trazado_818519" data-name="Trazado 818519" d="M91.12,89.775H28.744a2.507,2.507,0,0,1-2.5-2.5V20.924a2.506,2.506,0,0,1,2.5-2.5H91.12a2.507,2.507,0,0,1,2.5,2.5V87.271A2.507,2.507,0,0,1,91.12,89.775ZM28.744,20.048a.877.877,0,0,0-.876.876V87.271a.877.877,0,0,0,.876.876H91.12A.877.877,0,0,0,92,87.271V20.924a.877.877,0,0,0-.876-.876Z" transform="translate(-26.24 -18.42)"/>
          </g>
        </g>
        <g id="Grupo_1071615" data-name="Grupo 1071615" transform="translate(26.223 9.333)">
          <g id="Grupo_1071614" data-name="Grupo 1071614">
            <path id="Trazado_818520" data-name="Trazado 818520" d="M115.271,30.293H91.594a.814.814,0,1,1,0-1.628h23.677a.814.814,0,1,1,0,1.628Z" transform="translate(-90.78 -28.665)"/>
          </g>
        </g>
        <g id="Grupo_1071617" data-name="Grupo 1071617" transform="translate(8.93 9.333)">
          <g id="Grupo_1071616" data-name="Grupo 1071616">
            <path id="Trazado_818521" data-name="Trazado 818521" d="M41.939,30.293H38.481a.814.814,0,1,1,0-1.628h3.458a.814.814,0,1,1,0,1.628Z" transform="translate(-37.667 -28.665)"/>
          </g>
        </g>
        <g id="Grupo_1071619" data-name="Grupo 1071619" transform="translate(9.975 20.371)">
          <g id="Grupo_1071618" data-name="Grupo 1071618">
            <path id="Trazado_818522" data-name="Trazado 818522" d="M53.442,64.2H41.689a.814.814,0,0,1,0-1.628H53.442a.814.814,0,0,1,0,1.628Z" transform="translate(-40.875 -62.569)"/>
          </g>
        </g>
        <g id="Grupo_1071621" data-name="Grupo 1071621" transform="translate(25.54 20.371)">
          <g id="Grupo_1071620" data-name="Grupo 1071620">
            <path id="Trazado_818523" data-name="Trazado 818523" d="M97.756,64.2H89.5a.814.814,0,1,1,0-1.628h8.259a.814.814,0,0,1,0,1.628Z" transform="translate(-88.683 -62.569)"/>
          </g>
        </g>
        <g id="Grupo_1071623" data-name="Grupo 1071623" transform="translate(39.564 20.371)">
          <g id="Grupo_1071622" data-name="Grupo 1071622">
            <path id="Trazado_818524" data-name="Trazado 818524" d="M134.7,64.2h-2.131a.814.814,0,1,1,0-1.628H134.7a.814.814,0,0,1,0,1.628Z" transform="translate(-131.755 -62.569)"/>
          </g>
        </g>
        <g id="Grupo_1071625" data-name="Grupo 1071625" transform="translate(9.975 24.01)">
          <g id="Grupo_1071624" data-name="Grupo 1071624">
            <path id="Trazado_818525" data-name="Trazado 818525" d="M53.442,75.373H41.689a.814.814,0,0,1,0-1.628H53.442a.814.814,0,0,1,0,1.628Z" transform="translate(-40.875 -73.745)"/>
          </g>
        </g>
        <g id="Grupo_1071627" data-name="Grupo 1071627" transform="translate(25.54 24.01)">
          <g id="Grupo_1071626" data-name="Grupo 1071626">
            <path id="Trazado_818526" data-name="Trazado 818526" d="M97.756,75.373H89.5a.814.814,0,0,1,0-1.628h8.259a.814.814,0,0,1,0,1.628Z" transform="translate(-88.683 -73.745)"/>
          </g>
        </g>
        <g id="Grupo_1071629" data-name="Grupo 1071629" transform="translate(39.564 24.01)">
          <g id="Grupo_1071628" data-name="Grupo 1071628">
            <path id="Trazado_818527" data-name="Trazado 818527" d="M134.7,75.373h-2.131a.814.814,0,1,1,0-1.628H134.7a.814.814,0,0,1,0,1.628Z" transform="translate(-131.755 -73.745)"/>
          </g>
        </g>
        <g id="Grupo_1071631" data-name="Grupo 1071631" transform="translate(9.975 27.649)">
          <g id="Grupo_1071630" data-name="Grupo 1071630">
            <path id="Trazado_818528" data-name="Trazado 818528" d="M53.442,86.549H41.689a.814.814,0,0,1,0-1.628H53.442a.814.814,0,0,1,0,1.628Z" transform="translate(-40.875 -84.921)"/>
          </g>
        </g>
        <g id="Grupo_1071633" data-name="Grupo 1071633" transform="translate(25.54 27.649)">
          <g id="Grupo_1071632" data-name="Grupo 1071632">
            <path id="Trazado_818529" data-name="Trazado 818529" d="M97.756,86.549H89.5a.814.814,0,0,1,0-1.628h8.259a.814.814,0,0,1,0,1.628Z" transform="translate(-88.683 -84.921)"/>
          </g>
        </g>
        <g id="Grupo_1071635" data-name="Grupo 1071635" transform="translate(39.564 27.649)">
          <g id="Grupo_1071634" data-name="Grupo 1071634">
            <path id="Trazado_818530" data-name="Trazado 818530" d="M134.7,86.549h-2.131a.814.814,0,1,1,0-1.628H134.7a.814.814,0,0,1,0,1.628Z" transform="translate(-131.755 -84.921)"/>
          </g>
        </g>
        <g id="Grupo_1071637" data-name="Grupo 1071637" transform="translate(9.975 31.287)">
          <g id="Grupo_1071636" data-name="Grupo 1071636">
            <path id="Trazado_818531" data-name="Trazado 818531" d="M53.442,97.725H41.689a.814.814,0,0,1,0-1.628H53.442a.814.814,0,1,1,0,1.628Z" transform="translate(-40.875 -96.097)"/>
          </g>
        </g>
        <g id="Grupo_1071639" data-name="Grupo 1071639" transform="translate(25.54 31.287)">
          <g id="Grupo_1071638" data-name="Grupo 1071638">
            <path id="Trazado_818532" data-name="Trazado 818532" d="M97.756,97.725H89.5a.814.814,0,1,1,0-1.628h8.259a.814.814,0,0,1,0,1.628Z" transform="translate(-88.683 -96.097)"/>
          </g>
        </g>
        <g id="Grupo_1071641" data-name="Grupo 1071641" transform="translate(9.975 34.926)">
          <g id="Grupo_1071640" data-name="Grupo 1071640">
            <path id="Trazado_818533" data-name="Trazado 818533" d="M53.442,108.9H41.689a.814.814,0,1,1,0-1.628H53.442a.814.814,0,1,1,0,1.628Z" transform="translate(-40.875 -107.272)"/>
          </g>
        </g>
        <g id="Grupo_1071643" data-name="Grupo 1071643" transform="translate(25.54 34.926)">
          <g id="Grupo_1071642" data-name="Grupo 1071642">
            <path id="Trazado_818534" data-name="Trazado 818534" d="M97.756,108.9H89.5a.814.814,0,1,1,0-1.628h8.259a.814.814,0,0,1,0,1.628Z" transform="translate(-88.683 -107.272)"/>
          </g>
        </g>
        <g id="Grupo_1071645" data-name="Grupo 1071645" transform="translate(39.564 34.926)">
          <g id="Grupo_1071644" data-name="Grupo 1071644">
            <path id="Trazado_818535" data-name="Trazado 818535" d="M134.7,108.9h-2.131a.814.814,0,1,1,0-1.628H134.7a.814.814,0,0,1,0,1.628Z" transform="translate(-131.755 -107.272)"/>
          </g>
        </g>
        <g id="Grupo_1071647" data-name="Grupo 1071647" transform="translate(9.975 38.565)">
          <g id="Grupo_1071646" data-name="Grupo 1071646">
            <path id="Trazado_818536" data-name="Trazado 818536" d="M53.442,120.077H41.689a.814.814,0,0,1,0-1.628H53.442a.814.814,0,0,1,0,1.628Z" transform="translate(-40.875 -118.449)"/>
          </g>
        </g>
        <g id="Grupo_1071649" data-name="Grupo 1071649" transform="translate(25.54 38.565)">
          <g id="Grupo_1071648" data-name="Grupo 1071648">
            <path id="Trazado_818537" data-name="Trazado 818537" d="M97.756,120.077H89.5a.814.814,0,0,1,0-1.628h8.259a.814.814,0,0,1,0,1.628Z" transform="translate(-88.683 -118.449)"/>
          </g>
        </g>
        <g id="Grupo_1071651" data-name="Grupo 1071651" transform="translate(9.975 42.204)">
          <g id="Grupo_1071650" data-name="Grupo 1071650">
            <path id="Trazado_818538" data-name="Trazado 818538" d="M53.442,131.253H41.689a.814.814,0,0,1,0-1.628H53.442a.814.814,0,1,1,0,1.628Z" transform="translate(-40.875 -129.625)"/>
          </g>
        </g>
        <g id="Grupo_1071653" data-name="Grupo 1071653" transform="translate(25.54 42.204)">
          <g id="Grupo_1071652" data-name="Grupo 1071652">
            <path id="Trazado_818539" data-name="Trazado 818539" d="M97.756,131.253H89.5a.814.814,0,1,1,0-1.628h8.259a.814.814,0,0,1,0,1.628Z" transform="translate(-88.683 -129.625)"/>
          </g>
        </g>
        <g id="Grupo_1071655" data-name="Grupo 1071655" transform="translate(9.975 45.842)">
          <g id="Grupo_1071654" data-name="Grupo 1071654">
            <path id="Trazado_818540" data-name="Trazado 818540" d="M53.442,142.428H41.689a.814.814,0,0,1,0-1.628H53.442a.814.814,0,1,1,0,1.628Z" transform="translate(-40.875 -140.8)"/>
          </g>
        </g>
        <g id="Grupo_1071657" data-name="Grupo 1071657" transform="translate(25.54 45.842)">
          <g id="Grupo_1071656" data-name="Grupo 1071656">
            <path id="Trazado_818541" data-name="Trazado 818541" d="M97.756,142.428H89.5a.814.814,0,1,1,0-1.628h8.259a.814.814,0,0,1,0,1.628Z" transform="translate(-88.683 -140.8)"/>
          </g>
        </g>
        <g id="Grupo_1071659" data-name="Grupo 1071659" transform="translate(39.564 45.842)">
          <g id="Grupo_1071658" data-name="Grupo 1071658">
            <path id="Trazado_818542" data-name="Trazado 818542" d="M134.7,142.428h-2.131a.814.814,0,1,1,0-1.628H134.7a.814.814,0,0,1,0,1.628Z" transform="translate(-131.755 -140.8)"/>
          </g>
        </g>
        <g id="Grupo_1071661" data-name="Grupo 1071661" transform="translate(9.975 49.481)">
          <g id="Grupo_1071660" data-name="Grupo 1071660">
            <path id="Trazado_818543" data-name="Trazado 818543" d="M53.442,153.6H41.689a.814.814,0,0,1,0-1.628H53.442a.814.814,0,0,1,0,1.628Z" transform="translate(-40.875 -151.976)"/>
          </g>
        </g>
        <g id="Grupo_1071663" data-name="Grupo 1071663" transform="translate(25.54 49.481)">
          <g id="Grupo_1071662" data-name="Grupo 1071662">
            <path id="Trazado_818544" data-name="Trazado 818544" d="M97.756,153.6H89.5a.814.814,0,0,1,0-1.628h8.259a.814.814,0,0,1,0,1.628Z" transform="translate(-88.683 -151.976)"/>
          </g>
        </g>
        <g id="Grupo_1071665" data-name="Grupo 1071665" transform="translate(9.975 53.119)">
          <g id="Grupo_1071664" data-name="Grupo 1071664">
            <path id="Trazado_818545" data-name="Trazado 818545" d="M53.442,164.78H41.689a.814.814,0,0,1,0-1.628H53.442a.814.814,0,1,1,0,1.628Z" transform="translate(-40.875 -163.152)"/>
          </g>
        </g>
        <g id="Grupo_1071667" data-name="Grupo 1071667" transform="translate(25.54 53.119)">
          <g id="Grupo_1071666" data-name="Grupo 1071666">
            <path id="Trazado_818546" data-name="Trazado 818546" d="M97.756,164.78H89.5a.814.814,0,1,1,0-1.628h8.259a.814.814,0,0,1,0,1.628Z" transform="translate(-88.683 -163.152)"/>
          </g>
        </g>
        <g id="Grupo_1071669" data-name="Grupo 1071669" transform="translate(9.975 56.758)">
          <g id="Grupo_1071668" data-name="Grupo 1071668">
            <path id="Trazado_818547" data-name="Trazado 818547" d="M53.442,175.956H41.689a.814.814,0,0,1,0-1.628H53.442a.814.814,0,0,1,0,1.628Z" transform="translate(-40.875 -174.328)"/>
          </g>
        </g>
        <g id="Grupo_1071671" data-name="Grupo 1071671" transform="translate(25.54 56.758)">
          <g id="Grupo_1071670" data-name="Grupo 1071670">
            <path id="Trazado_818548" data-name="Trazado 818548" d="M97.756,175.956H89.5a.814.814,0,0,1,0-1.628h8.259a.814.814,0,0,1,0,1.628Z" transform="translate(-88.683 -174.328)"/>
          </g>
        </g>
        <g id="Grupo_1071673" data-name="Grupo 1071673" transform="translate(9.975 60.397)">
          <g id="Grupo_1071672" data-name="Grupo 1071672">
            <path id="Trazado_818549" data-name="Trazado 818549" d="M53.442,187.132H41.689a.814.814,0,0,1,0-1.628H53.442a.814.814,0,0,1,0,1.628Z" transform="translate(-40.875 -185.504)"/>
          </g>
        </g>
        <g id="Grupo_1071675" data-name="Grupo 1071675" transform="translate(25.54 60.397)">
          <g id="Grupo_1071674" data-name="Grupo 1071674">
            <path id="Trazado_818550" data-name="Trazado 818550" d="M97.756,187.132H89.5a.814.814,0,0,1,0-1.628h8.259a.814.814,0,0,1,0,1.628Z" transform="translate(-88.683 -185.504)"/>
          </g>
        </g>
        <g id="Grupo_1071677" data-name="Grupo 1071677" transform="translate(47.247 31.287)">
          <g id="Grupo_1071676" data-name="Grupo 1071676">
            <path id="Trazado_818551" data-name="Trazado 818551" d="M161.653,97.725h-5.486a.814.814,0,0,1,0-1.628h5.486a.814.814,0,1,1,0,1.628Z" transform="translate(-155.353 -96.097)"/>
          </g>
        </g>
        <g id="Grupo_1071679" data-name="Grupo 1071679" transform="translate(47.247 38.565)">
          <g id="Grupo_1071678" data-name="Grupo 1071678">
            <path id="Trazado_818552" data-name="Trazado 818552" d="M161.653,120.077h-5.486a.814.814,0,0,1,0-1.628h5.486a.814.814,0,1,1,0,1.628Z" transform="translate(-155.353 -118.449)"/>
          </g>
        </g>
        <g id="Grupo_1071681" data-name="Grupo 1071681" transform="translate(47.247 42.204)">
          <g id="Grupo_1071680" data-name="Grupo 1071680">
            <path id="Trazado_818553" data-name="Trazado 818553" d="M161.653,131.253h-5.486a.814.814,0,0,1,0-1.628h5.486a.814.814,0,1,1,0,1.628Z" transform="translate(-155.353 -129.625)"/>
          </g>
        </g>
        <g id="Grupo_1071683" data-name="Grupo 1071683" transform="translate(47.247 49.481)">
          <g id="Grupo_1071682" data-name="Grupo 1071682">
            <path id="Trazado_818554" data-name="Trazado 818554" d="M161.653,153.6h-5.486a.814.814,0,0,1,0-1.628h5.486a.814.814,0,0,1,0,1.628Z" transform="translate(-155.353 -151.976)"/>
          </g>
        </g>
        <g id="Grupo_1071685" data-name="Grupo 1071685" transform="translate(50.106 53.119)">
          <g id="Grupo_1071684" data-name="Grupo 1071684">
            <path id="Trazado_818555" data-name="Trazado 818555" d="M167.576,164.78h-2.627a.814.814,0,1,1,0-1.628h2.627a.814.814,0,0,1,0,1.628Z" transform="translate(-164.135 -163.152)"/>
          </g>
        </g>
        <g id="Grupo_1071687" data-name="Grupo 1071687" transform="translate(50.106 56.758)">
          <g id="Grupo_1071686" data-name="Grupo 1071686">
            <path id="Trazado_818556" data-name="Trazado 818556" d="M167.576,175.956h-2.627a.814.814,0,1,1,0-1.628h2.627a.814.814,0,0,1,0,1.628Z" transform="translate(-164.135 -174.328)"/>
          </g>
        </g>
        <g id="Grupo_1071689" data-name="Grupo 1071689" transform="translate(47.247 60.397)">
          <g id="Grupo_1071688" data-name="Grupo 1071688">
            <path id="Trazado_818557" data-name="Trazado 818557" d="M161.653,187.132h-5.486a.814.814,0,0,1,0-1.628h5.486a.814.814,0,1,1,0,1.628Z" transform="translate(-155.353 -185.504)"/>
          </g>
        </g>
        <g id="Grupo_1071691" data-name="Grupo 1071691" transform="translate(56.459 20.371)">
          <g id="Grupo_1071690" data-name="Grupo 1071690">
            <path id="Trazado_818558" data-name="Trazado 818558" d="M189.947,64.2h-5.486a.814.814,0,1,1,0-1.628h5.486a.814.814,0,1,1,0,1.628Z" transform="translate(-183.647 -62.569)"/>
          </g>
        </g>
        <g id="Grupo_1071693" data-name="Grupo 1071693" transform="translate(56.459 24.01)">
          <g id="Grupo_1071692" data-name="Grupo 1071692">
            <path id="Trazado_818559" data-name="Trazado 818559" d="M187.089,75.373h-2.627a.814.814,0,1,1,0-1.628h2.627a.814.814,0,0,1,0,1.628Z" transform="translate(-183.648 -73.745)"/>
          </g>
        </g>
        <g id="Grupo_1071695" data-name="Grupo 1071695" transform="translate(56.459 27.649)">
          <g id="Grupo_1071694" data-name="Grupo 1071694">
            <path id="Trazado_818560" data-name="Trazado 818560" d="M187.089,86.549h-2.627a.814.814,0,1,1,0-1.628h2.627a.814.814,0,0,1,0,1.628Z" transform="translate(-183.648 -84.921)"/>
          </g>
        </g>
        <g id="Grupo_1071697" data-name="Grupo 1071697" transform="translate(56.459 31.287)">
          <g id="Grupo_1071696" data-name="Grupo 1071696">
            <path id="Trazado_818561" data-name="Trazado 818561" d="M189.947,97.725h-5.486a.814.814,0,1,1,0-1.628h5.486a.814.814,0,1,1,0,1.628Z" transform="translate(-183.647 -96.097)"/>
          </g>
        </g>
        <g id="Grupo_1071699" data-name="Grupo 1071699" transform="translate(56.459 34.926)">
          <g id="Grupo_1071698" data-name="Grupo 1071698">
            <path id="Trazado_818562" data-name="Trazado 818562" d="M189.947,108.9h-5.486a.814.814,0,1,1,0-1.628h5.486a.814.814,0,1,1,0,1.628Z" transform="translate(-183.647 -107.272)"/>
          </g>
        </g>
        <g id="Grupo_1071701" data-name="Grupo 1071701" transform="translate(56.459 38.565)">
          <g id="Grupo_1071700" data-name="Grupo 1071700">
            <path id="Trazado_818563" data-name="Trazado 818563" d="M187.089,120.077h-2.627a.814.814,0,1,1,0-1.628h2.627a.814.814,0,0,1,0,1.628Z" transform="translate(-183.648 -118.449)"/>
          </g>
        </g>
        <g id="Grupo_1071703" data-name="Grupo 1071703" transform="translate(56.459 42.204)">
          <g id="Grupo_1071702" data-name="Grupo 1071702">
            <path id="Trazado_818564" data-name="Trazado 818564" d="M187.089,131.253h-2.627a.814.814,0,1,1,0-1.628h2.627a.814.814,0,0,1,0,1.628Z" transform="translate(-183.648 -129.625)"/>
          </g>
        </g>
        <g id="Grupo_1071705" data-name="Grupo 1071705" transform="translate(56.459 45.842)">
          <g id="Grupo_1071704" data-name="Grupo 1071704">
            <path id="Trazado_818565" data-name="Trazado 818565" d="M185.626,142.428h-1.165a.814.814,0,1,1,0-1.628h1.165a.814.814,0,1,1,0,1.628Z" transform="translate(-183.647 -140.8)"/>
          </g>
        </g>
        <g id="Grupo_1071707" data-name="Grupo 1071707" transform="translate(56.459 49.481)">
          <g id="Grupo_1071706" data-name="Grupo 1071706">
            <path id="Trazado_818566" data-name="Trazado 818566" d="M189.947,153.6h-5.486a.814.814,0,0,1,0-1.628h5.486a.814.814,0,0,1,0,1.628Z" transform="translate(-183.647 -151.976)"/>
          </g>
        </g>
        <g id="Grupo_1071709" data-name="Grupo 1071709" transform="translate(56.459 53.119)">
          <g id="Grupo_1071708" data-name="Grupo 1071708">
            <path id="Trazado_818567" data-name="Trazado 818567" d="M189.947,164.78h-5.486a.814.814,0,1,1,0-1.628h5.486a.814.814,0,1,1,0,1.628Z" transform="translate(-183.647 -163.152)"/>
          </g>
        </g>
        <g id="Grupo_1071711" data-name="Grupo 1071711" transform="translate(56.459 56.758)">
          <g id="Grupo_1071710" data-name="Grupo 1071710">
            <path id="Trazado_818568" data-name="Trazado 818568" d="M189.947,175.956h-5.486a.814.814,0,1,1,0-1.628h5.486a.814.814,0,1,1,0,1.628Z" transform="translate(-183.647 -174.328)"/>
          </g>
        </g>
        <g id="Grupo_1071713" data-name="Grupo 1071713" transform="translate(56.459 60.397)">
          <g id="Grupo_1071712" data-name="Grupo 1071712">
            <path id="Trazado_818569" data-name="Trazado 818569" d="M189.947,187.132h-5.486a.814.814,0,1,1,0-1.628h5.486a.814.814,0,1,1,0,1.628Z" transform="translate(-183.647 -185.504)"/>
          </g>
        </g>
        <g id="Grupo_1071715" data-name="Grupo 1071715" transform="translate(5.559 12.668)">
          <g id="Grupo_1071714" data-name="Grupo 1071714">
            <path id="Trazado_818570" data-name="Trazado 818570" d="M93.169,40.537H28.127a.814.814,0,1,1,0-1.628H93.169a.814.814,0,1,1,0,1.628Z" transform="translate(-27.313 -38.909)"/>
          </g>
        </g>
        <g id="Grupo_1071717" data-name="Grupo 1071717" transform="translate(5.362 16.242)">
          <g id="Grupo_1071716" data-name="Grupo 1071716">
            <path id="Trazado_818571" data-name="Trazado 818571" d="M92.944,51.513H27.522a.814.814,0,1,1,0-1.628H92.944a.814.814,0,0,1,0,1.628Z" transform="translate(-26.708 -49.885)"/>
          </g>
        </g>
        <g id="Grupo_1071719" data-name="Grupo 1071719" transform="translate(5.416 70.88)">
          <g id="Grupo_1071718" data-name="Grupo 1071718">
            <path id="Trazado_818572" data-name="Trazado 818572" d="M93.117,219.329H27.689a.814.814,0,0,1,0-1.628H93.117a.814.814,0,0,1,0,1.628Z" transform="translate(-26.875 -217.701)"/>
          </g>
        </g>
        <g id="Grupo_1071721" data-name="Grupo 1071721" transform="translate(66.121 16.591)">
          <g id="Grupo_1071720" data-name="Grupo 1071720">
            <path id="Trazado_818573" data-name="Trazado 818573" d="M214.139,106.575a.814.814,0,0,1-.814-.814V51.772a.814.814,0,1,1,1.628,0v53.989A.814.814,0,0,1,214.139,106.575Z" transform="translate(-213.325 -50.958)"/>
          </g>
        </g>
        <g id="Grupo_1071723" data-name="Grupo 1071723" transform="translate(63.818 6.329)">
          <g id="Grupo_1071722" data-name="Grupo 1071722">
            <path id="Trazado_818574" data-name="Trazado 818574" d="M207.065,27.15a.814.814,0,0,1-.814-.814V20.252a.814.814,0,0,1,1.628,0v6.084A.814.814,0,0,1,207.065,27.15Z" transform="translate(-206.251 -19.438)"/>
          </g>
        </g>
      </g>
    </g>
  </g>
</svg>
