<svg xmlns="http://www.w3.org/2000/svg" width="50.227" height="45.63" viewBox="0 0 50.227 45.63">
  <g id="Grupo_1071484" data-name="Grupo 1071484" transform="translate(0 -3.638)">
    <g id="Grupo_1071485" data-name="Grupo 1071485">
      <path id="Trazado_818025" data-name="Trazado 818025" d="M50.227,7.252V2.079A2.072,2.072,0,0,0,48.148,0H2.079A2.071,2.071,0,0,0,0,2.079V7.252Z" transform="translate(0 3.638)" fill="#f6f6f6"/>
      <path id="Trazado_818026" data-name="Trazado 818026" d="M0,49.338V85.817a2,2,0,0,0,2.079,1.9H48.137a2,2,0,0,0,2.079-1.9V49.338Z" transform="translate(0 -38.449)" fill="#12263f"/>
      <rect id="Rectángulo_375520" data-name="Rectángulo 375520" width="41.079" height="29.868" transform="translate(4.568 14.832)" fill="#fcfcfd"/>
      <rect id="Rectángulo_375521" data-name="Rectángulo 375521" width="36.511" height="3.977" transform="translate(6.852 17.522)" fill="#fdbf2d"/>
      <path id="Trazado_818027" data-name="Trazado 818027" d="M250.037,17.222a1.1,1.1,0,1,1-1.1,1.1,1.1,1.1,0,0,1,1.1-1.1" transform="translate(-212.293 -11.049)" fill="#6eb1e1"/>
      <path id="Trazado_818028" data-name="Trazado 818028" d="M273.154,17.222a1.1,1.1,0,1,1-1.1,1.1,1.1,1.1,0,0,1,1.1-1.1" transform="translate(-232.007 -11.049)" fill="#f0582f"/>
      <path id="Trazado_818029" data-name="Trazado 818029" d="M296.35,17.222a1.1,1.1,0,1,1-1.1,1.1,1.1,1.1,0,0,1,1.1-1.1" transform="translate(-251.788 -11.049)" fill="#fbd303"/>
      <rect id="Rectángulo_375522" data-name="Rectángulo 375522" width="14.607" height="1.313" transform="translate(12.54 24.2)" fill="#646b79"/>
      <rect id="Rectángulo_375523" data-name="Rectángulo 375523" width="5.356" height="1.313" transform="translate(38.03 24.2)" fill="#6eb1e1"/>
      <rect id="Rectángulo_375524" data-name="Rectángulo 375524" width="6.498" height="1.313" transform="translate(29.739 24.2)" fill="#646b79"/>
      <rect id="Rectángulo_375525" data-name="Rectángulo 375525" width="8.394" height="1.313" transform="translate(6.841 27.146)" fill="#646b79"/>
      <rect id="Rectángulo_375526" data-name="Rectángulo 375526" width="11.969" height="1.313" transform="translate(14.504 33.051)" fill="#646b79"/>
      <rect id="Rectángulo_375527" data-name="Rectángulo 375527" width="6.167" height="1.313" transform="translate(37.219 33.051)" fill="#646b79"/>
      <rect id="Rectángulo_375528" data-name="Rectángulo 375528" width="6.167" height="1.313" transform="translate(28.757 33.051)" fill="#646b79"/>
      <rect id="Rectángulo_375529" data-name="Rectángulo 375529" width="3.677" height="1.313" transform="translate(6.841 30.093)" fill="#f0582f"/>
      <rect id="Rectángulo_375530" data-name="Rectángulo 375530" width="4.168" height="1.313" transform="translate(39.229 30.093)" fill="#f0582f"/>
      <rect id="Rectángulo_375531" data-name="Rectángulo 375531" width="17.268" height="1.313" transform="translate(12.54 35.997)" fill="#f0582f"/>
      <rect id="Rectángulo_375532" data-name="Rectángulo 375532" width="8.417" height="1.313" transform="translate(17.153 27.146)" fill="#6eb1e1"/>
      <rect id="Rectángulo_375533" data-name="Rectángulo 375533" width="8.417" height="1.313" transform="translate(34.969 27.146)" fill="#6eb1e1"/>
      <rect id="Rectángulo_375534" data-name="Rectángulo 375534" width="5.436" height="1.313" transform="translate(27.557 27.146)" fill="#6eb1e1"/>
      <rect id="Rectángulo_375535" data-name="Rectángulo 375535" width="5.63" height="1.313" transform="translate(6.841 33.051)" fill="#6eb1e1"/>
      <rect id="Rectángulo_375536" data-name="Rectángulo 375536" width="12.482" height="1.313" transform="translate(6.841 38.944)" fill="#6eb1e1"/>
      <rect id="Rectángulo_375537" data-name="Rectángulo 375537" width="36.557" height="1.211" transform="translate(6.841 41.799)" fill="#dededf"/>
      <rect id="Rectángulo_375538" data-name="Rectángulo 375538" width="4.191" height="1.313" transform="translate(6.841 24.2)" fill="#dededf"/>
      <rect id="Rectángulo_375539" data-name="Rectángulo 375539" width="24.817" height="1.313" transform="translate(12.54 30.093)" fill="#dededf"/>
      <rect id="Rectángulo_375540" data-name="Rectángulo 375540" width="3.677" height="1.313" transform="translate(6.841 35.997)" fill="#dededf"/>
      <rect id="Rectángulo_375541" data-name="Rectángulo 375541" width="4.397" height="1.313" transform="translate(39.001 35.997)" fill="#f0582f"/>
      <rect id="Rectángulo_375542" data-name="Rectángulo 375542" width="4.397" height="1.313" transform="translate(32.548 35.997)" fill="#dededf"/>
      <rect id="Rectángulo_375543" data-name="Rectángulo 375543" width="4.934" height="1.313" transform="translate(21.356 38.944)" fill="#dededf"/>
      <rect id="Rectángulo_375544" data-name="Rectángulo 375544" width="9.65" height="1.313" transform="translate(33.747 38.944)" fill="#6eb1e1"/>
      <rect id="Rectángulo_375545" data-name="Rectángulo 375545" width="3.141" height="1.313" transform="translate(28.568 38.945)" fill="#dededf"/>
    </g>
  </g>
</svg>
