<svg xmlns="http://www.w3.org/2000/svg" width="662" height="330" viewBox="0 0 662 330">
  <g id="Grupo_1071970" data-name="Grupo 1071970" transform="translate(5704 5174.942)">
    <path id="Trazado_819791" data-name="Trazado 819791" d="M12,0H650a12,12,0,0,1,12,12V318a12,12,0,0,1-12,12H12A12,12,0,0,1,0,318V12A12,12,0,0,1,12,0Z" transform="translate(-5704 -5174.942)" fill="#eff0fe"/>
    <g id="Trazado_819792" data-name="Trazado 819792" transform="translate(-5672 -5147.942)" fill="#fff">
      <path d="M 142.5 250.4023590087891 L 0.5 250.4023590087891 L 0.5 0.5000156164169312 L 142.5 0.5000156164169312 L 142.5 250.4023590087891 Z" stroke="none"/>
      <path d="M 1 0.9999847412109375 L 1 249.9023284912109 L 142 249.9023284912109 L 142 0.9999847412109375 L 1 0.9999847412109375 M 0 -1.52587890625e-05 L 143 -1.52587890625e-05 L 143 250.9023284912109 L 0 250.9023284912109 L 0 -1.52587890625e-05 Z" stroke="none" fill="#949af8"/>
    </g>
    <path id="Trazado_818408" data-name="Trazado 818408" d="M-7101.481-5177c-.426,1.351-.467,52.741-.384,108.751.1,67.7.384,142.15.384,142.15" transform="translate(1501.391 29.058)" fill="none" stroke="#949af8" stroke-width="1"/>
    <path id="Trazado_818409" data-name="Trazado 818409" d="M-7173-5150.3h143" transform="translate(1501 29.058)" fill="none" stroke="#949af8" stroke-width="1"/>
    <path id="Trazado_819793" data-name="Trazado 819793" d="M-.2,0H-1.711L-7.437-8.766V0H-8.945V-11.375h1.508L-1.7-2.57v-8.8H-.2ZM1.852-4.3A4.993,4.993,0,0,1,2.34-6.539,3.643,3.643,0,0,1,3.7-8.07a3.7,3.7,0,0,1,1.988-.539,3.565,3.565,0,0,1,2.793,1.2,4.6,4.6,0,0,1,1.066,3.18v.1a5.036,5.036,0,0,1-.473,2.215A3.589,3.589,0,0,1,7.723-.391,3.743,3.743,0,0,1,5.7.156a3.556,3.556,0,0,1-2.785-1.2A4.575,4.575,0,0,1,1.852-4.2ZM3.3-4.133a3.616,3.616,0,0,0,.652,2.258A2.088,2.088,0,0,0,5.7-1.023a2.075,2.075,0,0,0,1.75-.863A3.955,3.955,0,0,0,8.1-4.3a3.61,3.61,0,0,0-.66-2.254,2.1,2.1,0,0,0-1.754-.863,2.075,2.075,0,0,0-1.727.852A3.925,3.925,0,0,0,3.3-4.133Z" transform="translate(-5646 -5127.942)" fill="#12263f"/>
    <path id="Trazado_819794" data-name="Trazado 819794" d="M-10.1-5.258h-4.93v4.031H-9.3V0h-7.227V-11.375h7.148v1.227h-5.648v3.664h4.93ZM-8.16-4.3a4.952,4.952,0,0,1,.922-3.129A2.915,2.915,0,0,1-4.824-8.609,2.932,2.932,0,0,1-2.473-7.594V-12h1.445V0H-2.355l-.07-.906A2.943,2.943,0,0,1-4.84.156a2.887,2.887,0,0,1-2.395-1.2A5.008,5.008,0,0,1-8.16-4.187Zm1.445.164a3.749,3.749,0,0,0,.594,2.25A1.92,1.92,0,0,0-4.48-1.07,2.108,2.108,0,0,0-2.473-2.3V-6.187a2.125,2.125,0,0,0-1.992-1.2,1.929,1.929,0,0,0-1.656.82A4.128,4.128,0,0,0-6.715-4.133ZM6.434,0a3.036,3.036,0,0,1-.2-.891A3.225,3.225,0,0,1,3.824.156,2.984,2.984,0,0,1,1.773-.551a2.287,2.287,0,0,1-.8-1.793,2.39,2.39,0,0,1,1-2.051A4.733,4.733,0,0,1,4.8-5.125H6.207v-.664A1.623,1.623,0,0,0,5.754-7a1.821,1.821,0,0,0-1.336-.449,2.107,2.107,0,0,0-1.3.391,1.151,1.151,0,0,0-.523.945H1.145a2,2,0,0,1,.449-1.223,3.066,3.066,0,0,1,1.219-.934A4.1,4.1,0,0,1,4.5-8.609a3.342,3.342,0,0,1,2.289.73,2.635,2.635,0,0,1,.859,2.012v3.891a4.757,4.757,0,0,0,.3,1.852V0Zm-2.4-1.1a2.54,2.54,0,0,0,1.289-.352,2.127,2.127,0,0,0,.883-.914V-4.1H5.074q-2.656,0-2.656,1.555a1.316,1.316,0,0,0,.453,1.063A1.742,1.742,0,0,0,4.035-1.1ZM9.566-4.3a4.952,4.952,0,0,1,.922-3.129A2.915,2.915,0,0,1,12.9-8.609a2.932,2.932,0,0,1,2.352,1.016V-12H16.7V0H15.371L15.3-.906A2.943,2.943,0,0,1,12.887.156a2.887,2.887,0,0,1-2.395-1.2,5.008,5.008,0,0,1-.926-3.141Zm1.445.164a3.749,3.749,0,0,0,.594,2.25,1.92,1.92,0,0,0,1.641.813A2.108,2.108,0,0,0,15.254-2.3V-6.187a2.125,2.125,0,0,0-1.992-1.2,1.929,1.929,0,0,0-1.656.82A4.128,4.128,0,0,0,11.012-4.133Z" transform="translate(-5570 -5127.942)" fill="#12263f"/>
    <path id="Trazado_819795" data-name="Trazado 819795" d="M5.7,0H4.242V-9.633L1.328-8.562V-9.875L5.469-11.43H5.7ZM8.4,22H.945V20.961l3.938-4.375A9.355,9.355,0,0,0,6.09,14.973a2.693,2.693,0,0,0,.332-1.285,2.041,2.041,0,0,0-.539-1.461,1.885,1.885,0,0,0-1.437-.57,2.232,2.232,0,0,0-1.676.613,2.343,2.343,0,0,0-.6,1.707H.727a3.355,3.355,0,0,1,1.012-2.539,3.751,3.751,0,0,1,2.707-.969,3.6,3.6,0,0,1,2.508.832,2.838,2.838,0,0,1,.922,2.215q0,1.68-2.141,4l-3.047,3.3H8.4ZM3.047,37.609H4.133a2.387,2.387,0,0,0,1.609-.539,1.8,1.8,0,0,0,.586-1.414,1.764,1.764,0,0,0-1.992-2,2.072,2.072,0,0,0-1.5.535,1.873,1.873,0,0,0-.559,1.418H.836a2.9,2.9,0,0,1,.988-2.246,3.6,3.6,0,0,1,2.512-.895,3.558,3.558,0,0,1,2.523.852,3.076,3.076,0,0,1,.914,2.367,2.5,2.5,0,0,1-.48,1.438,2.9,2.9,0,0,1-1.309,1.039,2.8,2.8,0,0,1,1.449.984,2.734,2.734,0,0,1,.512,1.68,3.1,3.1,0,0,1-1,2.43,3.745,3.745,0,0,1-2.6.9,3.844,3.844,0,0,1-2.605-.867A2.877,2.877,0,0,1,.734,41H2.188a1.859,1.859,0,0,0,.586,1.438,2.229,2.229,0,0,0,1.57.539,2.187,2.187,0,0,0,1.6-.547,2.108,2.108,0,0,0,.555-1.57,1.912,1.912,0,0,0-.609-1.523,2.655,2.655,0,0,0-1.758-.547H3.047Zm4,24.57H8.625v1.18H7.047V66H5.594V63.359H.414v-.852l5.094-7.883H7.047Zm-4.992,0H5.594V56.6l-.172.313ZM1.609,82.3l.578-5.672H8.016v1.336h-4.6l-.344,3.1a3.671,3.671,0,0,1,1.9-.492A3.138,3.138,0,0,1,7.438,81.6a4.026,4.026,0,0,1,.914,2.777,3.886,3.886,0,0,1-.949,2.77A3.46,3.46,0,0,1,4.75,88.156a3.6,3.6,0,0,1-2.461-.836A3.337,3.337,0,0,1,1.2,85.008H2.57a2.3,2.3,0,0,0,.7,1.473,2.162,2.162,0,0,0,1.484.5,1.95,1.95,0,0,0,1.582-.687,2.874,2.874,0,0,0,.574-1.9,2.638,2.638,0,0,0-.621-1.832,2.113,2.113,0,0,0-1.652-.691,2.383,2.383,0,0,0-1.484.414l-.383.313Zm5.008,16.32v1.227H6.352a3.805,3.805,0,0,0-2.687,1,4.161,4.161,0,0,0-1.156,2.727,3.085,3.085,0,0,1,2.453-1.031,2.95,2.95,0,0,1,2.371,1.047,4.588,4.588,0,0,1-.07,5.516A3.3,3.3,0,0,1,4.7,110.156,3.247,3.247,0,0,1,2.047,108.9a4.97,4.97,0,0,1-1.016-3.23v-.555a7.488,7.488,0,0,1,1.34-4.8,4.921,4.921,0,0,1,3.988-1.7Zm-1.9,5.125a2.306,2.306,0,0,0-1.367.445,2.32,2.32,0,0,0-.867,1.117v.531a3.731,3.731,0,0,0,.633,2.266,1.9,1.9,0,0,0,1.578.859,1.838,1.838,0,0,0,1.535-.719,3.452,3.452,0,0,0-.008-3.777A1.816,1.816,0,0,0,4.719,103.742Zm3.57,17.7L3.578,132H2.063l4.7-10.187H.6v-1.187H8.289Zm-.445,24.156a2.641,2.641,0,0,1-.449,1.516,3.057,3.057,0,0,1-1.215,1.039,3.26,3.26,0,0,1,1.41,1.117,2.811,2.811,0,0,1,.52,1.664,2.972,2.972,0,0,1-1,2.352,3.827,3.827,0,0,1-2.621.875,3.81,3.81,0,0,1-2.629-.879,2.986,2.986,0,0,1-.988-2.348,2.9,2.9,0,0,1,.5-1.664,3.136,3.136,0,0,1,1.395-1.125,2.981,2.981,0,0,1-1.2-1.039,2.679,2.679,0,0,1-.437-1.508,2.94,2.94,0,0,1,.922-2.281,3.458,3.458,0,0,1,2.43-.844,3.461,3.461,0,0,1,2.426.844A2.934,2.934,0,0,1,7.844,145.594Zm-1.18,5.3a2.1,2.1,0,0,0-.605-1.555,2.147,2.147,0,0,0-1.582-.6,2.11,2.11,0,0,0-1.566.594,2.12,2.12,0,0,0-.59,1.563,2.019,2.019,0,0,0,.574,1.523,2.2,2.2,0,0,0,1.6.555,2.2,2.2,0,0,0,1.594-.559A2.014,2.014,0,0,0,6.664,150.9Zm-2.172-7.242a1.865,1.865,0,0,0-1.379.527,2.182,2.182,0,0,0-.008,2.836,1.844,1.844,0,0,0,1.387.535,1.844,1.844,0,0,0,1.387-.535,2.138,2.138,0,0,0-.02-2.816A1.839,1.839,0,0,0,4.492,143.656ZM6.484,171a3.536,3.536,0,0,1-1.082.867,2.936,2.936,0,0,1-1.379.328,3.031,3.031,0,0,1-1.715-.484,3.149,3.149,0,0,1-1.129-1.363,4.648,4.648,0,0,1-.4-1.941,4.735,4.735,0,0,1,.434-2.055,3.185,3.185,0,0,1,1.23-1.4,3.509,3.509,0,0,1,1.859-.484,3.177,3.177,0,0,1,2.66,1.262,5.5,5.5,0,0,1,.973,3.441v.422q0,3.32-1.312,4.848a5.043,5.043,0,0,1-3.961,1.566H2.383v-1.227h.3a3.979,3.979,0,0,0,2.75-.932A4,4,0,0,0,6.484,171Zm-2.227,0a2.232,2.232,0,0,0,1.34-.445,2.625,2.625,0,0,0,.895-1.1v-.578a3.977,3.977,0,0,0-.617-2.312,1.887,1.887,0,0,0-3.094-.16,3.013,3.013,0,0,0-.578,1.926,3.136,3.136,0,0,0,.559,1.918A1.769,1.769,0,0,0,4.258,171ZM5.7,198H4.242v-9.633l-2.914,1.07v-1.312l4.141-1.555H5.7Zm11.367-4.852a6.61,6.61,0,0,1-.867,3.773,3.084,3.084,0,0,1-2.711,1.234,3.107,3.107,0,0,1-2.7-1.207,6.274,6.274,0,0,1-.906-3.605v-1.93a6.463,6.463,0,0,1,.867-3.727,3.108,3.108,0,0,1,2.719-1.219,3.136,3.136,0,0,1,2.7,1.176,6.237,6.237,0,0,1,.891,3.629Zm-1.445-1.977A5.3,5.3,0,0,0,15.1,188.5a1.775,1.775,0,0,0-1.633-.84,1.751,1.751,0,0,0-1.617.836,5.171,5.171,0,0,0-.523,2.57v2.313a5.381,5.381,0,0,0,.535,2.723,1.771,1.771,0,0,0,1.621.879,1.747,1.747,0,0,0,1.59-.828,5.186,5.186,0,0,0,.543-2.609Z" transform="translate(-5651 -5100.942)" fill="#12263f"/>
    <path id="Trazado_819796" data-name="Trazado 819796" d="M-3.289,0H-4.742V-9.633l-2.914,1.07V-9.875l4.141-1.555h.227ZM7.844-8.406a2.641,2.641,0,0,1-.449,1.516A3.057,3.057,0,0,1,6.18-5.852,3.26,3.26,0,0,1,7.59-4.734a2.811,2.811,0,0,1,.52,1.664,2.972,2.972,0,0,1-1,2.352A3.827,3.827,0,0,1,4.492.156,3.81,3.81,0,0,1,1.863-.723,2.986,2.986,0,0,1,.875-3.07a2.9,2.9,0,0,1,.5-1.664A3.136,3.136,0,0,1,2.773-5.859,2.981,2.981,0,0,1,1.578-6.9a2.679,2.679,0,0,1-.437-1.508,2.94,2.94,0,0,1,.922-2.281,3.458,3.458,0,0,1,2.43-.844,3.461,3.461,0,0,1,2.426.844A2.934,2.934,0,0,1,7.844-8.406ZM6.664-3.1a2.1,2.1,0,0,0-.605-1.555,2.147,2.147,0,0,0-1.582-.6,2.11,2.11,0,0,0-1.566.594A2.12,2.12,0,0,0,2.32-3.1a2.019,2.019,0,0,0,.574,1.523,2.2,2.2,0,0,0,1.6.555,2.2,2.2,0,0,0,1.594-.559A2.014,2.014,0,0,0,6.664-3.1ZM4.492-10.344a1.865,1.865,0,0,0-1.379.527,1.937,1.937,0,0,0-.527,1.434,1.928,1.928,0,0,0,.52,1.4,1.844,1.844,0,0,0,1.387.535A1.844,1.844,0,0,0,5.879-6.98a1.928,1.928,0,0,0,.52-1.4A1.929,1.929,0,0,0,5.859-9.8,1.839,1.839,0,0,0,4.492-10.344ZM-.586,44H-8.039V42.961L-4.1,38.586a9.354,9.354,0,0,0,1.207-1.613,2.693,2.693,0,0,0,.332-1.285A2.041,2.041,0,0,0-3.1,34.227a1.885,1.885,0,0,0-1.437-.57,2.232,2.232,0,0,0-1.676.613,2.343,2.343,0,0,0-.6,1.707H-8.258a3.355,3.355,0,0,1,1.012-2.539,3.751,3.751,0,0,1,2.707-.969,3.6,3.6,0,0,1,2.508.832,2.838,2.838,0,0,1,.922,2.215q0,1.68-2.141,4L-6.3,42.82H-.586Zm2.2-5.7.578-5.672H8.016v1.336h-4.6l-.344,3.1a3.671,3.671,0,0,1,1.9-.492A3.138,3.138,0,0,1,7.438,37.6a4.026,4.026,0,0,1,.914,2.777,3.886,3.886,0,0,1-.949,2.77A3.46,3.46,0,0,1,4.75,44.156a3.6,3.6,0,0,1-2.461-.836A3.337,3.337,0,0,1,1.2,41.008H2.57a2.3,2.3,0,0,0,.7,1.473,2.162,2.162,0,0,0,1.484.5,1.95,1.95,0,0,0,1.582-.687,2.874,2.874,0,0,0,.574-1.9,2.638,2.638,0,0,0-.621-1.832,2.113,2.113,0,0,0-1.652-.691,2.383,2.383,0,0,0-1.484.414l-.383.313ZM-1.937,62.18H-.359v1.18H-1.937V66H-3.391V63.359H-8.57v-.852l5.094-7.883h1.539Zm-4.992,0h3.539V56.6l-.172.313ZM1.609,60.3l.578-5.672H8.016v1.336h-4.6l-.344,3.1a3.671,3.671,0,0,1,1.9-.492A3.138,3.138,0,0,1,7.438,59.6a4.026,4.026,0,0,1,.914,2.777,3.886,3.886,0,0,1-.949,2.77A3.46,3.46,0,0,1,4.75,66.156a3.6,3.6,0,0,1-2.461-.836A3.337,3.337,0,0,1,1.2,63.008H2.57a2.3,2.3,0,0,0,.7,1.473,2.162,2.162,0,0,0,1.484.5,1.95,1.95,0,0,0,1.582-.687,2.874,2.874,0,0,0,.574-1.9,2.638,2.638,0,0,0-.621-1.832,2.113,2.113,0,0,0-1.652-.691,2.383,2.383,0,0,0-1.484.414l-.383.313ZM-.586,88H-8.039V86.961L-4.1,82.586a9.355,9.355,0,0,0,1.207-1.613,2.693,2.693,0,0,0,.332-1.285A2.041,2.041,0,0,0-3.1,78.227a1.885,1.885,0,0,0-1.437-.57,2.232,2.232,0,0,0-1.676.613,2.343,2.343,0,0,0-.6,1.707H-8.258a3.355,3.355,0,0,1,1.012-2.539,3.751,3.751,0,0,1,2.707-.969,3.6,3.6,0,0,1,2.508.832,2.838,2.838,0,0,1,.922,2.215q0,1.68-2.141,4L-6.3,86.82H-.586Zm3.633-6.391H4.133a2.387,2.387,0,0,0,1.609-.539,1.8,1.8,0,0,0,.586-1.414,1.764,1.764,0,0,0-1.992-2,2.072,2.072,0,0,0-1.5.535,1.873,1.873,0,0,0-.559,1.418H.836a2.9,2.9,0,0,1,.988-2.246,3.6,3.6,0,0,1,2.512-.895,3.558,3.558,0,0,1,2.523.852,3.076,3.076,0,0,1,.914,2.367,2.5,2.5,0,0,1-.48,1.438,2.9,2.9,0,0,1-1.309,1.039,2.8,2.8,0,0,1,1.449.984,2.734,2.734,0,0,1,.512,1.68,3.1,3.1,0,0,1-1,2.43,3.745,3.745,0,0,1-2.6.9,3.844,3.844,0,0,1-2.605-.867A2.877,2.877,0,0,1,.734,85H2.188a1.859,1.859,0,0,0,.586,1.438,2.229,2.229,0,0,0,1.57.539,2.187,2.187,0,0,0,1.6-.547,2.108,2.108,0,0,0,.555-1.57,1.912,1.912,0,0,0-.609-1.523,2.655,2.655,0,0,0-1.758-.547H3.047ZM-3.289,110H-4.742v-9.633l-2.914,1.07v-1.312l4.141-1.555h.227Zm11.133-8.406a2.641,2.641,0,0,1-.449,1.516,3.056,3.056,0,0,1-1.215,1.039,3.26,3.26,0,0,1,1.41,1.117,2.811,2.811,0,0,1,.52,1.664,2.972,2.972,0,0,1-1,2.352,3.827,3.827,0,0,1-2.621.875,3.81,3.81,0,0,1-2.629-.879,2.986,2.986,0,0,1-.988-2.348,2.9,2.9,0,0,1,.5-1.664,3.136,3.136,0,0,1,1.395-1.125,2.981,2.981,0,0,1-1.2-1.039,2.679,2.679,0,0,1-.437-1.508,2.94,2.94,0,0,1,.922-2.281,3.458,3.458,0,0,1,2.43-.844,3.461,3.461,0,0,1,2.426.844A2.934,2.934,0,0,1,7.844,101.594Zm-1.18,5.3a2.1,2.1,0,0,0-.605-1.555,2.147,2.147,0,0,0-1.582-.6,2.11,2.11,0,0,0-1.566.594,2.12,2.12,0,0,0-.59,1.563,2.019,2.019,0,0,0,.574,1.523,2.2,2.2,0,0,0,1.6.555,2.2,2.2,0,0,0,1.594-.559A2.014,2.014,0,0,0,6.664,106.9ZM4.492,99.656a1.865,1.865,0,0,0-1.379.527,2.182,2.182,0,0,0-.008,2.836,1.844,1.844,0,0,0,1.387.535,1.844,1.844,0,0,0,1.387-.535,2.138,2.138,0,0,0-.02-2.816A1.839,1.839,0,0,0,4.492,99.656ZM-.586,154H-8.039v-1.039l3.938-4.375a9.354,9.354,0,0,0,1.207-1.613,2.693,2.693,0,0,0,.332-1.285,2.041,2.041,0,0,0-.539-1.461,1.885,1.885,0,0,0-1.437-.57,2.232,2.232,0,0,0-1.676.613,2.343,2.343,0,0,0-.6,1.707H-8.258a3.355,3.355,0,0,1,1.012-2.539,3.751,3.751,0,0,1,2.707-.969,3.6,3.6,0,0,1,2.508.832,2.838,2.838,0,0,1,.922,2.215q0,1.68-2.141,4l-3.047,3.3H-.586Zm8.43-8.406a2.641,2.641,0,0,1-.449,1.516,3.057,3.057,0,0,1-1.215,1.039,3.26,3.26,0,0,1,1.41,1.117,2.811,2.811,0,0,1,.52,1.664,2.972,2.972,0,0,1-1,2.352,3.827,3.827,0,0,1-2.621.875,3.81,3.81,0,0,1-2.629-.879,2.986,2.986,0,0,1-.988-2.348,2.9,2.9,0,0,1,.5-1.664,3.136,3.136,0,0,1,1.395-1.125,2.981,2.981,0,0,1-1.2-1.039,2.679,2.679,0,0,1-.437-1.508,2.94,2.94,0,0,1,.922-2.281,3.458,3.458,0,0,1,2.43-.844,3.461,3.461,0,0,1,2.426.844A2.934,2.934,0,0,1,7.844,145.594Zm-1.18,5.3a2.1,2.1,0,0,0-.605-1.555,2.147,2.147,0,0,0-1.582-.6,2.11,2.11,0,0,0-1.566.594,2.12,2.12,0,0,0-.59,1.563,2.019,2.019,0,0,0,.574,1.523,2.2,2.2,0,0,0,1.6.555,2.2,2.2,0,0,0,1.594-.559A2.014,2.014,0,0,0,6.664,150.9Zm-2.172-7.242a1.865,1.865,0,0,0-1.379.527,2.182,2.182,0,0,0-.008,2.836,1.844,1.844,0,0,0,1.387.535,1.844,1.844,0,0,0,1.387-.535,2.138,2.138,0,0,0-.02-2.816A1.839,1.839,0,0,0,4.492,143.656Z" transform="translate(-5570 -5100.942)" fill="#12263f"/>
    <path id="Trazado_818410" data-name="Trazado 818410" d="M-7115-5142.1h142.98" transform="translate(1443 47.058)" fill="none" stroke="#949af8" stroke-width="1"/>
    <path id="Trazado_818411" data-name="Trazado 818411" d="M-7115-5142.1h142.98" transform="translate(1443 68.058)" fill="none" stroke="#949af8" stroke-width="1"/>
    <path id="Trazado_818412" data-name="Trazado 818412" d="M-7115-5142.1h142.98" transform="translate(1443 90.058)" fill="none" stroke="#949af8" stroke-width="1"/>
    <path id="Trazado_818413" data-name="Trazado 818413" d="M-7115-5142.1h142.98" transform="translate(1443 112.058)" fill="none" stroke="#949af8" stroke-width="1"/>
    <path id="Trazado_818414" data-name="Trazado 818414" d="M-7115-5142.1h142.98" transform="translate(1443 133.058)" fill="none" stroke="#949af8" stroke-width="1"/>
    <path id="Trazado_818415" data-name="Trazado 818415" d="M-7115-5142.1h142.98" transform="translate(1443 156.058)" fill="none" stroke="#949af8" stroke-width="1"/>
    <path id="Trazado_818416" data-name="Trazado 818416" d="M-7115-5142.1h142.98" transform="translate(1443 178.058)" fill="none" stroke="#949af8" stroke-width="1"/>
    <path id="Trazado_818417" data-name="Trazado 818417" d="M-7115-5142.1h142.98" transform="translate(1443 201.058)" fill="none" stroke="#949af8" stroke-width="1"/>
    <path id="Trazado_818418" data-name="Trazado 818418" d="M-7115-5142.1h142.98" transform="translate(1443 223.058)" fill="none" stroke="#949af8" stroke-width="1"/>
    <path id="Trazado_819797" data-name="Trazado 819797" d="M7995,11743h-55v-34h55v-10l35,26.5-35,26.5Z" transform="translate(-13462.5 -16738.941)" fill="#2b5cf9"/>
    <path id="Trazado_819798" data-name="Trazado 819798" d="M-20.571-5.985A7.916,7.916,0,0,1-21.2-2.7,4.793,4.793,0,0,1-23-.562,4.933,4.933,0,0,1-25.7.176a4.891,4.891,0,0,1-2.681-.743A4.908,4.908,0,0,1-30.2-2.685a7.6,7.6,0,0,1-.664-3.186v-.923a7.822,7.822,0,0,1,.642-3.261,4.891,4.891,0,0,1,1.815-2.167,4.87,4.87,0,0,1,2.685-.751,4.961,4.961,0,0,1,2.711.743A4.784,4.784,0,0,1-21.2-10.077a7.955,7.955,0,0,1,.633,3.283Zm-1.679-.826a5.738,5.738,0,0,0-.914-3.494,3.015,3.015,0,0,0-2.558-1.217,2.982,2.982,0,0,0-2.518,1.217,5.62,5.62,0,0,0-.945,3.379v.94a5.746,5.746,0,0,0,.927,3.467A3,3,0,0,0-25.7-1.257a2.983,2.983,0,0,0,2.531-1.191,5.714,5.714,0,0,0,.923-3.415ZM-13.7-8.051a4.873,4.873,0,0,0-.8-.062A2.143,2.143,0,0,0-16.668-6.75V0h-1.626V-9.51h1.582l.026,1.1a2.532,2.532,0,0,1,2.268-1.274,1.661,1.661,0,0,1,.721.123Zm.932,3.217a5.571,5.571,0,0,1,1.037-3.52A3.28,3.28,0,0,1-9.013-9.686,3.3,3.3,0,0,1-6.368-8.543V-13.5h1.626V0H-6.236l-.079-1.02A3.311,3.311,0,0,1-9.031.176a3.248,3.248,0,0,1-2.694-1.354,5.634,5.634,0,0,1-1.042-3.533Zm1.626.185a4.218,4.218,0,0,0,.668,2.531A2.159,2.159,0,0,0-8.626-1.2,2.372,2.372,0,0,0-6.368-2.593V-6.961A2.39,2.39,0,0,0-8.609-8.306a2.17,2.17,0,0,0-1.863.923A4.644,4.644,0,0,0-11.14-4.649ZM1.727.176a4.155,4.155,0,0,1-3.146-1.27,4.714,4.714,0,0,1-1.213-3.4v-.3a5.707,5.707,0,0,1,.541-2.527A4.217,4.217,0,0,1-.58-9.057a3.8,3.8,0,0,1,2.1-.628A3.562,3.562,0,0,1,4.408-8.464a5.289,5.289,0,0,1,1.028,3.5v.677H-1.006A3.38,3.38,0,0,0-.185-2.017a2.583,2.583,0,0,0,2,.866A2.832,2.832,0,0,0,3.274-1.5,3.666,3.666,0,0,0,4.32-2.435l.993.773A3.993,3.993,0,0,1,1.727.176Zm-.2-8.525a2.169,2.169,0,0,0-1.652.716A3.482,3.482,0,0,0-.954-5.625H3.81v-.123a3.1,3.1,0,0,0-.668-1.92A2.042,2.042,0,0,0,1.525-8.35Zm7.33-1.16.053,1.2a3.465,3.465,0,0,1,2.848-1.371q3.015,0,3.041,3.4V0H13.17V-6.293a2.189,2.189,0,0,0-.47-1.521,1.884,1.884,0,0,0-1.437-.492,2.347,2.347,0,0,0-1.389.422,2.865,2.865,0,0,0-.932,1.107V0H7.317V-9.51ZM23.12,0a3.416,3.416,0,0,1-.229-1A3.628,3.628,0,0,1,20.184.176a3.357,3.357,0,0,1-2.307-.8,2.573,2.573,0,0,1-.9-2.017,2.688,2.688,0,0,1,1.129-2.307,5.325,5.325,0,0,1,3.177-.822h1.582v-.747a1.826,1.826,0,0,0-.51-1.358,2.049,2.049,0,0,0-1.5-.505,2.371,2.371,0,0,0-1.459.439A1.3,1.3,0,0,0,18.8-6.873H17.169a2.244,2.244,0,0,1,.505-1.375A3.449,3.449,0,0,1,19.046-9.3a4.613,4.613,0,0,1,1.9-.387,3.759,3.759,0,0,1,2.575.822A2.964,2.964,0,0,1,24.491-6.6v4.377a5.351,5.351,0,0,0,.334,2.083V0Zm-2.7-1.239a2.858,2.858,0,0,0,1.45-.4,2.392,2.392,0,0,0,.993-1.028V-4.614H21.59q-2.988,0-2.988,1.749a1.48,1.48,0,0,0,.51,1.2A1.959,1.959,0,0,0,20.421-1.239ZM31.636-8.051a4.873,4.873,0,0,0-.8-.062A2.143,2.143,0,0,0,28.666-6.75V0H27.04V-9.51h1.582l.026,1.1a2.532,2.532,0,0,1,2.268-1.274,1.661,1.661,0,0,1,.721.123Z" transform="translate(-5483.5 -5006.942)" fill="#fff"/>
    <g id="Trazado_819799" data-name="Trazado 819799" transform="translate(-5247 -5139.649)" fill="#fff">
      <path d="M 142.5 250.5 L 0.5 250.5 L 0.5 0.5 L 142.5 0.5 L 142.5 250.5 Z" stroke="none"/>
      <path d="M 1 1 L 1 250 L 142 250 L 142 1 L 1 1 M 0 0 L 143 0 L 143 251 L 0 251 L 0 0 Z" stroke="none" fill="#949af8"/>
    </g>
    <path id="Trazado_818420" data-name="Trazado 818420" d="M-7101.481-5177c-.426,1.352-.467,52.762-.384,108.794.1,67.728.384,142.206.384,142.206" transform="translate(1926.392 37.351)" fill="none" stroke="#949af8" stroke-width="1"/>
    <path id="Trazado_818421" data-name="Trazado 818421" d="M-7173-5150.3h143" transform="translate(1926 37.351)" fill="none" stroke="#949af8" stroke-width="1"/>
    <path id="Trazado_819800" data-name="Trazado 819800" d="M-.2,0H-1.711L-7.437-8.766V0H-8.945V-11.375h1.508L-1.7-2.57v-8.8H-.2ZM1.852-4.3A4.993,4.993,0,0,1,2.34-6.539,3.643,3.643,0,0,1,3.7-8.07a3.7,3.7,0,0,1,1.988-.539,3.565,3.565,0,0,1,2.793,1.2,4.6,4.6,0,0,1,1.066,3.18v.1a5.036,5.036,0,0,1-.473,2.215A3.589,3.589,0,0,1,7.723-.391,3.743,3.743,0,0,1,5.7.156a3.556,3.556,0,0,1-2.785-1.2A4.575,4.575,0,0,1,1.852-4.2ZM3.3-4.133a3.616,3.616,0,0,0,.652,2.258A2.088,2.088,0,0,0,5.7-1.023a2.075,2.075,0,0,0,1.75-.863A3.955,3.955,0,0,0,8.1-4.3a3.61,3.61,0,0,0-.66-2.254,2.1,2.1,0,0,0-1.754-.863,2.075,2.075,0,0,0-1.727.852A3.925,3.925,0,0,0,3.3-4.133Z" transform="translate(-5221 -5119.649)" fill="#12263f"/>
    <path id="Trazado_819801" data-name="Trazado 819801" d="M-10.1-5.258h-4.93v4.031H-9.3V0h-7.227V-11.375h7.148v1.227h-5.648v3.664h4.93ZM-8.16-4.3a4.952,4.952,0,0,1,.922-3.129A2.915,2.915,0,0,1-4.824-8.609,2.932,2.932,0,0,1-2.473-7.594V-12h1.445V0H-2.355l-.07-.906A2.943,2.943,0,0,1-4.84.156a2.887,2.887,0,0,1-2.395-1.2A5.008,5.008,0,0,1-8.16-4.187Zm1.445.164a3.749,3.749,0,0,0,.594,2.25A1.92,1.92,0,0,0-4.48-1.07,2.108,2.108,0,0,0-2.473-2.3V-6.187a2.125,2.125,0,0,0-1.992-1.2,1.929,1.929,0,0,0-1.656.82A4.128,4.128,0,0,0-6.715-4.133ZM6.434,0a3.036,3.036,0,0,1-.2-.891A3.225,3.225,0,0,1,3.824.156,2.984,2.984,0,0,1,1.773-.551a2.287,2.287,0,0,1-.8-1.793,2.39,2.39,0,0,1,1-2.051A4.733,4.733,0,0,1,4.8-5.125H6.207v-.664A1.623,1.623,0,0,0,5.754-7a1.821,1.821,0,0,0-1.336-.449,2.107,2.107,0,0,0-1.3.391,1.151,1.151,0,0,0-.523.945H1.145a2,2,0,0,1,.449-1.223,3.066,3.066,0,0,1,1.219-.934A4.1,4.1,0,0,1,4.5-8.609a3.342,3.342,0,0,1,2.289.73,2.635,2.635,0,0,1,.859,2.012v3.891a4.757,4.757,0,0,0,.3,1.852V0Zm-2.4-1.1a2.54,2.54,0,0,0,1.289-.352,2.127,2.127,0,0,0,.883-.914V-4.1H5.074q-2.656,0-2.656,1.555a1.316,1.316,0,0,0,.453,1.063A1.742,1.742,0,0,0,4.035-1.1ZM9.566-4.3a4.952,4.952,0,0,1,.922-3.129A2.915,2.915,0,0,1,12.9-8.609a2.932,2.932,0,0,1,2.352,1.016V-12H16.7V0H15.371L15.3-.906A2.943,2.943,0,0,1,12.887.156a2.887,2.887,0,0,1-2.395-1.2,5.008,5.008,0,0,1-.926-3.141Zm1.445.164a3.749,3.749,0,0,0,.594,2.25,1.92,1.92,0,0,0,1.641.813A2.108,2.108,0,0,0,15.254-2.3V-6.187a2.125,2.125,0,0,0-1.992-1.2,1.929,1.929,0,0,0-1.656.82A4.128,4.128,0,0,0,11.012-4.133Z" transform="translate(-5145 -5119.649)" fill="#12263f"/>
    <path id="Trazado_819802" data-name="Trazado 819802" d="M5.7,0H4.242V-9.633L1.328-8.562V-9.875L5.469-11.43H5.7ZM8.4,22H.945V20.961l3.938-4.375A9.355,9.355,0,0,0,6.09,14.973a2.693,2.693,0,0,0,.332-1.285,2.041,2.041,0,0,0-.539-1.461,1.885,1.885,0,0,0-1.437-.57,2.232,2.232,0,0,0-1.676.613,2.343,2.343,0,0,0-.6,1.707H.727a3.355,3.355,0,0,1,1.012-2.539,3.751,3.751,0,0,1,2.707-.969,3.6,3.6,0,0,1,2.508.832,2.838,2.838,0,0,1,.922,2.215q0,1.68-2.141,4l-3.047,3.3H8.4ZM3.047,37.609H4.133a2.387,2.387,0,0,0,1.609-.539,1.8,1.8,0,0,0,.586-1.414,1.764,1.764,0,0,0-1.992-2,2.072,2.072,0,0,0-1.5.535,1.873,1.873,0,0,0-.559,1.418H.836a2.9,2.9,0,0,1,.988-2.246,3.6,3.6,0,0,1,2.512-.895,3.558,3.558,0,0,1,2.523.852,3.076,3.076,0,0,1,.914,2.367,2.5,2.5,0,0,1-.48,1.438,2.9,2.9,0,0,1-1.309,1.039,2.8,2.8,0,0,1,1.449.984,2.734,2.734,0,0,1,.512,1.68,3.1,3.1,0,0,1-1,2.43,3.745,3.745,0,0,1-2.6.9,3.844,3.844,0,0,1-2.605-.867A2.877,2.877,0,0,1,.734,41H2.188a1.859,1.859,0,0,0,.586,1.438,2.229,2.229,0,0,0,1.57.539,2.187,2.187,0,0,0,1.6-.547,2.108,2.108,0,0,0,.555-1.57,1.912,1.912,0,0,0-.609-1.523,2.655,2.655,0,0,0-1.758-.547H3.047Zm4,24.57H8.625v1.18H7.047V66H5.594V63.359H.414v-.852l5.094-7.883H7.047Zm-4.992,0H5.594V56.6l-.172.313ZM1.609,82.3l.578-5.672H8.016v1.336h-4.6l-.344,3.1a3.671,3.671,0,0,1,1.9-.492A3.138,3.138,0,0,1,7.438,81.6a4.026,4.026,0,0,1,.914,2.777,3.886,3.886,0,0,1-.949,2.77A3.46,3.46,0,0,1,4.75,88.156a3.6,3.6,0,0,1-2.461-.836A3.337,3.337,0,0,1,1.2,85.008H2.57a2.3,2.3,0,0,0,.7,1.473,2.162,2.162,0,0,0,1.484.5,1.95,1.95,0,0,0,1.582-.687,2.874,2.874,0,0,0,.574-1.9,2.638,2.638,0,0,0-.621-1.832,2.113,2.113,0,0,0-1.652-.691,2.383,2.383,0,0,0-1.484.414l-.383.313Zm5.008,16.32v1.227H6.352a3.805,3.805,0,0,0-2.687,1,4.161,4.161,0,0,0-1.156,2.727,3.085,3.085,0,0,1,2.453-1.031,2.95,2.95,0,0,1,2.371,1.047,4.588,4.588,0,0,1-.07,5.516A3.3,3.3,0,0,1,4.7,110.156,3.247,3.247,0,0,1,2.047,108.9a4.97,4.97,0,0,1-1.016-3.23v-.555a7.488,7.488,0,0,1,1.34-4.8,4.921,4.921,0,0,1,3.988-1.7Zm-1.9,5.125a2.306,2.306,0,0,0-1.367.445,2.32,2.32,0,0,0-.867,1.117v.531a3.731,3.731,0,0,0,.633,2.266,1.9,1.9,0,0,0,1.578.859,1.838,1.838,0,0,0,1.535-.719,3.452,3.452,0,0,0-.008-3.777A1.816,1.816,0,0,0,4.719,103.742Zm3.57,17.7L3.578,132H2.063l4.7-10.187H.6v-1.187H8.289Zm-.445,24.156a2.641,2.641,0,0,1-.449,1.516,3.057,3.057,0,0,1-1.215,1.039,3.26,3.26,0,0,1,1.41,1.117,2.811,2.811,0,0,1,.52,1.664,2.972,2.972,0,0,1-1,2.352,3.827,3.827,0,0,1-2.621.875,3.81,3.81,0,0,1-2.629-.879,2.986,2.986,0,0,1-.988-2.348,2.9,2.9,0,0,1,.5-1.664,3.136,3.136,0,0,1,1.395-1.125,2.981,2.981,0,0,1-1.2-1.039,2.679,2.679,0,0,1-.437-1.508,2.94,2.94,0,0,1,.922-2.281,3.458,3.458,0,0,1,2.43-.844,3.461,3.461,0,0,1,2.426.844A2.934,2.934,0,0,1,7.844,145.594Zm-1.18,5.3a2.1,2.1,0,0,0-.605-1.555,2.147,2.147,0,0,0-1.582-.6,2.11,2.11,0,0,0-1.566.594,2.12,2.12,0,0,0-.59,1.563,2.019,2.019,0,0,0,.574,1.523,2.2,2.2,0,0,0,1.6.555,2.2,2.2,0,0,0,1.594-.559A2.014,2.014,0,0,0,6.664,150.9Zm-2.172-7.242a1.865,1.865,0,0,0-1.379.527,2.182,2.182,0,0,0-.008,2.836,1.844,1.844,0,0,0,1.387.535,1.844,1.844,0,0,0,1.387-.535,2.138,2.138,0,0,0-.02-2.816A1.839,1.839,0,0,0,4.492,143.656ZM6.484,171a3.536,3.536,0,0,1-1.082.867,2.936,2.936,0,0,1-1.379.328,3.031,3.031,0,0,1-1.715-.484,3.149,3.149,0,0,1-1.129-1.363,4.648,4.648,0,0,1-.4-1.941,4.735,4.735,0,0,1,.434-2.055,3.185,3.185,0,0,1,1.23-1.4,3.509,3.509,0,0,1,1.859-.484,3.177,3.177,0,0,1,2.66,1.262,5.5,5.5,0,0,1,.973,3.441v.422q0,3.32-1.312,4.848a5.043,5.043,0,0,1-3.961,1.566H2.383v-1.227h.3a3.979,3.979,0,0,0,2.75-.932A4,4,0,0,0,6.484,171Zm-2.227,0a2.232,2.232,0,0,0,1.34-.445,2.625,2.625,0,0,0,.895-1.1v-.578a3.977,3.977,0,0,0-.617-2.312,1.887,1.887,0,0,0-3.094-.16,3.013,3.013,0,0,0-.578,1.926,3.136,3.136,0,0,0,.559,1.918A1.769,1.769,0,0,0,4.258,171ZM5.7,198H4.242v-9.633l-2.914,1.07v-1.312l4.141-1.555H5.7Zm11.367-4.852a6.61,6.61,0,0,1-.867,3.773,3.084,3.084,0,0,1-2.711,1.234,3.107,3.107,0,0,1-2.7-1.207,6.274,6.274,0,0,1-.906-3.605v-1.93a6.463,6.463,0,0,1,.867-3.727,3.108,3.108,0,0,1,2.719-1.219,3.136,3.136,0,0,1,2.7,1.176,6.237,6.237,0,0,1,.891,3.629Zm-1.445-1.977A5.3,5.3,0,0,0,15.1,188.5a1.775,1.775,0,0,0-1.633-.84,1.751,1.751,0,0,0-1.617.836,5.171,5.171,0,0,0-.523,2.57v2.313a5.381,5.381,0,0,0,.535,2.723,1.771,1.771,0,0,0,1.621.879,1.747,1.747,0,0,0,1.59-.828,5.186,5.186,0,0,0,.543-2.609Z" transform="translate(-5226 -5092.649)" fill="#12263f"/>
    <path id="Trazado_818423" data-name="Trazado 818423" d="M-7115-5142.1h142.98" transform="translate(1868 120.351)" fill="none" stroke="#949af8" stroke-width="1"/>
    <path id="Trazado_818424" data-name="Trazado 818424" d="M-7115-5142.1h142.98" transform="translate(1868 141.351)" fill="none" stroke="#949af8" stroke-width="1"/>
    <path id="Trazado_818425" data-name="Trazado 818425" d="M-7115-5142.1h142.98" transform="translate(1868 164.351)" fill="none" stroke="#949af8" stroke-width="1"/>
    <path id="Trazado_819803" data-name="Trazado 819803" d="M0,0H71V21H0Z" transform="translate(-5175 -5086.649)" fill="#fdbf2d"/>
    <path id="Trazado_819804" data-name="Trazado 819804" d="M0,0H71V22H0Z" transform="translate(-5175 -4977.649)" fill="#fdbf2d"/>
    <path id="Trazado_819805" data-name="Trazado 819805" d="M0,0H71V22H0Z" transform="translate(-5175 -4932.649)" fill="#fdbf2d"/>
    <path id="Trazado_819806" data-name="Trazado 819806" d="M0,0H71V21H0Z" transform="translate(-5175 -4910.649)" fill="#fdbf2d"/>
    <path id="Trazado_818426" data-name="Trazado 818426" d="M-7115-5142.1h142.98" transform="translate(1868 231.351)" fill="none" stroke="#949af8" stroke-width="1"/>
    <path id="Trazado_818427" data-name="Trazado 818427" d="M-7115-5142.1h142.98" transform="translate(1868 186.351)" fill="none" stroke="#949af8" stroke-width="1"/>
    <path id="Trazado_818428" data-name="Trazado 818428" d="M-7115-5142.1h142.98" transform="translate(1868 76.351)" fill="none" stroke="#949af8" stroke-width="1"/>
    <path id="Trazado_818429" data-name="Trazado 818429" d="M-7115-5142.1h142.98" transform="translate(1868 55.351)" fill="none" stroke="#949af8" stroke-width="1"/>
    <path id="Trazado_818430" data-name="Trazado 818430" d="M-7115-5142.1h142.98" transform="translate(1868 209.351)" fill="none" stroke="#949af8" stroke-width="1"/>
    <g id="Trazado_819807" data-name="Trazado 819807" transform="translate(-5414.519 -5121.247)" fill="#fff">
      <path d="M 71.009765625 187.5 L 0.500001847743988 187.5 L 0.500001847743988 0.5 L 71.009765625 0.5 L 71.009765625 187.5 Z" stroke="none"/>
      <path d="M 1 1 L 1 187 L 70.509765625 187 L 70.509765625 1 L 1 1 M 0 0 L 71.509765625 0 L 71.509765625 188 L 0 188 L 0 0 Z" stroke="none" fill="#949af8"/>
    </g>
    <path id="Trazado_818432" data-name="Trazado 818432" d="M-7173-5150.3h71.51" transform="translate(1758.481 55.753)" fill="none" stroke="#949af8" stroke-width="1"/>
    <path id="Trazado_819808" data-name="Trazado 819808" d="M-10.1-5.258h-4.93v4.031H-9.3V0h-7.227V-11.375h7.148v1.227h-5.648v3.664h4.93ZM-8.16-4.3a4.952,4.952,0,0,1,.922-3.129A2.915,2.915,0,0,1-4.824-8.609,2.932,2.932,0,0,1-2.473-7.594V-12h1.445V0H-2.355l-.07-.906A2.943,2.943,0,0,1-4.84.156a2.887,2.887,0,0,1-2.395-1.2A5.008,5.008,0,0,1-8.16-4.187Zm1.445.164a3.749,3.749,0,0,0,.594,2.25A1.92,1.92,0,0,0-4.48-1.07,2.108,2.108,0,0,0-2.473-2.3V-6.187a2.125,2.125,0,0,0-1.992-1.2,1.929,1.929,0,0,0-1.656.82A4.128,4.128,0,0,0-6.715-4.133ZM6.434,0a3.036,3.036,0,0,1-.2-.891A3.225,3.225,0,0,1,3.824.156,2.984,2.984,0,0,1,1.773-.551a2.287,2.287,0,0,1-.8-1.793,2.39,2.39,0,0,1,1-2.051A4.733,4.733,0,0,1,4.8-5.125H6.207v-.664A1.623,1.623,0,0,0,5.754-7a1.821,1.821,0,0,0-1.336-.449,2.107,2.107,0,0,0-1.3.391,1.151,1.151,0,0,0-.523.945H1.145a2,2,0,0,1,.449-1.223,3.066,3.066,0,0,1,1.219-.934A4.1,4.1,0,0,1,4.5-8.609a3.342,3.342,0,0,1,2.289.73,2.635,2.635,0,0,1,.859,2.012v3.891a4.757,4.757,0,0,0,.3,1.852V0Zm-2.4-1.1a2.54,2.54,0,0,0,1.289-.352,2.127,2.127,0,0,0,.883-.914V-4.1H5.074q-2.656,0-2.656,1.555a1.316,1.316,0,0,0,.453,1.063A1.742,1.742,0,0,0,4.035-1.1ZM9.566-4.3a4.952,4.952,0,0,1,.922-3.129A2.915,2.915,0,0,1,12.9-8.609a2.932,2.932,0,0,1,2.352,1.016V-12H16.7V0H15.371L15.3-.906A2.943,2.943,0,0,1,12.887.156a2.887,2.887,0,0,1-2.395-1.2,5.008,5.008,0,0,1-.926-3.141Zm1.445.164a3.749,3.749,0,0,0,.594,2.25,1.92,1.92,0,0,0,1.641.813A2.108,2.108,0,0,0,15.254-2.3V-6.187a2.125,2.125,0,0,0-1.992-1.2,1.929,1.929,0,0,0-1.656.82A4.128,4.128,0,0,0,11.012-4.133Z" transform="translate(-5384.009 -5101.247)" fill="#12263f"/>
    <path id="Trazado_818433" data-name="Trazado 818433" d="M-7115-5142.1h71.49" transform="translate(1700.481 73.753)" fill="none" stroke="#949af8" stroke-width="1"/>
    <path id="Trazado_818434" data-name="Trazado 818434" d="M-7115-5142.1h71.49" transform="translate(1700.481 94.753)" fill="none" stroke="#949af8" stroke-width="1"/>
    <path id="Trazado_818435" data-name="Trazado 818435" d="M-7115-5142.1h71.49" transform="translate(1700.481 116.753)" fill="none" stroke="#949af8" stroke-width="1"/>
    <path id="Trazado_818436" data-name="Trazado 818436" d="M-7115-5142.1h71.49" transform="translate(1700.481 138.753)" fill="none" stroke="#949af8" stroke-width="1"/>
    <path id="Trazado_818437" data-name="Trazado 818437" d="M-7115-5142.1h71.49" transform="translate(1700.481 159.753)" fill="none" stroke="#949af8" stroke-width="1"/>
    <path id="Trazado_818438" data-name="Trazado 818438" d="M-7115-5142.1h71.49" transform="translate(1700.481 182.753)" fill="none" stroke="#949af8" stroke-width="1"/>
    <path id="Trazado_819809" data-name="Trazado 819809" d="M0,0H68.98V21H0Z" transform="translate(-5413.009 -5024.649)" fill="#fdbf2d"/>
    <path id="Trazado_819810" data-name="Trazado 819810" d="M-3.289,0H-4.742V-9.633l-2.914,1.07V-9.875l4.141-1.555h.227ZM7.844-8.406a2.641,2.641,0,0,1-.449,1.516A3.057,3.057,0,0,1,6.18-5.852,3.26,3.26,0,0,1,7.59-4.734a2.811,2.811,0,0,1,.52,1.664,2.972,2.972,0,0,1-1,2.352A3.827,3.827,0,0,1,4.492.156,3.81,3.81,0,0,1,1.863-.723,2.986,2.986,0,0,1,.875-3.07a2.9,2.9,0,0,1,.5-1.664A3.136,3.136,0,0,1,2.773-5.859,2.981,2.981,0,0,1,1.578-6.9a2.679,2.679,0,0,1-.437-1.508,2.94,2.94,0,0,1,.922-2.281,3.458,3.458,0,0,1,2.43-.844,3.461,3.461,0,0,1,2.426.844A2.934,2.934,0,0,1,7.844-8.406ZM6.664-3.1a2.1,2.1,0,0,0-.605-1.555,2.147,2.147,0,0,0-1.582-.6,2.11,2.11,0,0,0-1.566.594A2.12,2.12,0,0,0,2.32-3.1a2.019,2.019,0,0,0,.574,1.523,2.2,2.2,0,0,0,1.6.555,2.2,2.2,0,0,0,1.594-.559A2.014,2.014,0,0,0,6.664-3.1ZM4.492-10.344a1.865,1.865,0,0,0-1.379.527,1.937,1.937,0,0,0-.527,1.434,1.928,1.928,0,0,0,.52,1.4,1.844,1.844,0,0,0,1.387.535A1.844,1.844,0,0,0,5.879-6.98a1.928,1.928,0,0,0,.52-1.4A1.929,1.929,0,0,0,5.859-9.8,1.839,1.839,0,0,0,4.492-10.344ZM-3.289,22H-4.742V12.367l-2.914,1.07V12.125l4.141-1.555h.227ZM7.844,13.594a2.641,2.641,0,0,1-.449,1.516A3.057,3.057,0,0,1,6.18,16.148a3.26,3.26,0,0,1,1.41,1.117,2.811,2.811,0,0,1,.52,1.664,2.972,2.972,0,0,1-1,2.352,3.827,3.827,0,0,1-2.621.875,3.81,3.81,0,0,1-2.629-.879A2.986,2.986,0,0,1,.875,18.93a2.9,2.9,0,0,1,.5-1.664,3.136,3.136,0,0,1,1.395-1.125,2.981,2.981,0,0,1-1.2-1.039,2.679,2.679,0,0,1-.437-1.508,2.94,2.94,0,0,1,.922-2.281,3.458,3.458,0,0,1,2.43-.844,3.461,3.461,0,0,1,2.426.844A2.934,2.934,0,0,1,7.844,13.594Zm-1.18,5.3a2.1,2.1,0,0,0-.605-1.555,2.147,2.147,0,0,0-1.582-.6,2.11,2.11,0,0,0-1.566.594A2.12,2.12,0,0,0,2.32,18.9a2.019,2.019,0,0,0,.574,1.523,2.2,2.2,0,0,0,1.6.555,2.2,2.2,0,0,0,1.594-.559A2.014,2.014,0,0,0,6.664,18.9ZM4.492,11.656a1.865,1.865,0,0,0-1.379.527,1.937,1.937,0,0,0-.527,1.434,1.928,1.928,0,0,0,.52,1.4,1.844,1.844,0,0,0,1.387.535,1.844,1.844,0,0,0,1.387-.535,1.928,1.928,0,0,0,.52-1.4A1.929,1.929,0,0,0,5.859,12.2,1.839,1.839,0,0,0,4.492,11.656ZM-.586,44H-8.039V42.961L-4.1,38.586a9.354,9.354,0,0,0,1.207-1.613,2.693,2.693,0,0,0,.332-1.285A2.041,2.041,0,0,0-3.1,34.227a1.885,1.885,0,0,0-1.437-.57,2.232,2.232,0,0,0-1.676.613,2.343,2.343,0,0,0-.6,1.707H-8.258a3.355,3.355,0,0,1,1.012-2.539,3.751,3.751,0,0,1,2.707-.969,3.6,3.6,0,0,1,2.508.832,2.838,2.838,0,0,1,.922,2.215q0,1.68-2.141,4L-6.3,42.82H-.586Zm3.633-6.391H4.133a2.387,2.387,0,0,0,1.609-.539,1.8,1.8,0,0,0,.586-1.414,1.764,1.764,0,0,0-1.992-2,2.072,2.072,0,0,0-1.5.535,1.873,1.873,0,0,0-.559,1.418H.836a2.9,2.9,0,0,1,.988-2.246,3.6,3.6,0,0,1,2.512-.895,3.558,3.558,0,0,1,2.523.852,3.076,3.076,0,0,1,.914,2.367,2.5,2.5,0,0,1-.48,1.438,2.9,2.9,0,0,1-1.309,1.039,2.8,2.8,0,0,1,1.449.984,2.734,2.734,0,0,1,.512,1.68,3.1,3.1,0,0,1-1,2.43,3.745,3.745,0,0,1-2.6.9,3.844,3.844,0,0,1-2.605-.867A2.877,2.877,0,0,1,.734,41H2.188a1.859,1.859,0,0,0,.586,1.438,2.229,2.229,0,0,0,1.57.539,2.187,2.187,0,0,0,1.6-.547,2.108,2.108,0,0,0,.555-1.57,1.912,1.912,0,0,0-.609-1.523,2.655,2.655,0,0,0-1.758-.547H3.047ZM-.586,66H-8.039V64.961L-4.1,60.586a9.354,9.354,0,0,0,1.207-1.613,2.693,2.693,0,0,0,.332-1.285A2.041,2.041,0,0,0-3.1,56.227a1.885,1.885,0,0,0-1.437-.57,2.232,2.232,0,0,0-1.676.613,2.343,2.343,0,0,0-.6,1.707H-8.258a3.355,3.355,0,0,1,1.012-2.539,3.751,3.751,0,0,1,2.707-.969,3.6,3.6,0,0,1,2.508.832,2.838,2.838,0,0,1,.922,2.215q0,1.68-2.141,4L-6.3,64.82H-.586Zm2.2-5.7.578-5.672H8.016v1.336h-4.6l-.344,3.1a3.671,3.671,0,0,1,1.9-.492A3.138,3.138,0,0,1,7.438,59.6a4.026,4.026,0,0,1,.914,2.777,3.886,3.886,0,0,1-.949,2.77A3.46,3.46,0,0,1,4.75,66.156a3.6,3.6,0,0,1-2.461-.836A3.337,3.337,0,0,1,1.2,63.008H2.57a2.3,2.3,0,0,0,.7,1.473,2.162,2.162,0,0,0,1.484.5,1.95,1.95,0,0,0,1.582-.687,2.874,2.874,0,0,0,.574-1.9,2.638,2.638,0,0,0-.621-1.832,2.113,2.113,0,0,0-1.652-.691,2.383,2.383,0,0,0-1.484.414l-.383.313ZM-.586,88H-8.039V86.961L-4.1,82.586a9.355,9.355,0,0,0,1.207-1.613,2.693,2.693,0,0,0,.332-1.285A2.041,2.041,0,0,0-3.1,78.227a1.885,1.885,0,0,0-1.437-.57,2.232,2.232,0,0,0-1.676.613,2.343,2.343,0,0,0-.6,1.707H-8.258a3.355,3.355,0,0,1,1.012-2.539,3.751,3.751,0,0,1,2.707-.969,3.6,3.6,0,0,1,2.508.832,2.838,2.838,0,0,1,.922,2.215q0,1.68-2.141,4L-6.3,86.82H-.586Zm7.2-11.383v1.227H6.352a3.805,3.805,0,0,0-2.687,1A4.161,4.161,0,0,0,2.508,81.57a3.085,3.085,0,0,1,2.453-1.031,2.95,2.95,0,0,1,2.371,1.047,4.588,4.588,0,0,1-.07,5.516A3.3,3.3,0,0,1,4.7,88.156,3.247,3.247,0,0,1,2.047,86.9a4.97,4.97,0,0,1-1.016-3.23v-.555a7.488,7.488,0,0,1,1.34-4.8,4.921,4.921,0,0,1,3.988-1.7Zm-1.9,5.125a2.306,2.306,0,0,0-1.367.445A2.32,2.32,0,0,0,2.484,83.3v.531A3.731,3.731,0,0,0,3.117,86.1a1.9,1.9,0,0,0,1.578.859,1.838,1.838,0,0,0,1.535-.719,3.452,3.452,0,0,0-.008-3.777A1.816,1.816,0,0,0,4.719,81.742ZM-.586,110H-8.039v-1.039l3.938-4.375a9.355,9.355,0,0,0,1.207-1.613,2.693,2.693,0,0,0,.332-1.285,2.041,2.041,0,0,0-.539-1.461,1.885,1.885,0,0,0-1.437-.57,2.232,2.232,0,0,0-1.676.613,2.343,2.343,0,0,0-.6,1.707H-8.258a3.355,3.355,0,0,1,1.012-2.539,3.751,3.751,0,0,1,2.707-.969,3.6,3.6,0,0,1,2.508.832,2.838,2.838,0,0,1,.922,2.215q0,1.68-2.141,4l-3.047,3.3H-.586Zm8.43-8.406a2.641,2.641,0,0,1-.449,1.516,3.056,3.056,0,0,1-1.215,1.039,3.26,3.26,0,0,1,1.41,1.117,2.811,2.811,0,0,1,.52,1.664,2.972,2.972,0,0,1-1,2.352,3.827,3.827,0,0,1-2.621.875,3.81,3.81,0,0,1-2.629-.879,2.986,2.986,0,0,1-.988-2.348,2.9,2.9,0,0,1,.5-1.664,3.136,3.136,0,0,1,1.395-1.125,2.981,2.981,0,0,1-1.2-1.039,2.679,2.679,0,0,1-.437-1.508,2.94,2.94,0,0,1,.922-2.281,3.458,3.458,0,0,1,2.43-.844,3.461,3.461,0,0,1,2.426.844A2.934,2.934,0,0,1,7.844,101.594Zm-1.18,5.3a2.1,2.1,0,0,0-.605-1.555,2.147,2.147,0,0,0-1.582-.6,2.11,2.11,0,0,0-1.566.594,2.12,2.12,0,0,0-.59,1.563,2.019,2.019,0,0,0,.574,1.523,2.2,2.2,0,0,0,1.6.555,2.2,2.2,0,0,0,1.594-.559A2.014,2.014,0,0,0,6.664,106.9ZM4.492,99.656a1.865,1.865,0,0,0-1.379.527,2.182,2.182,0,0,0-.008,2.836,1.844,1.844,0,0,0,1.387.535,1.844,1.844,0,0,0,1.387-.535,2.138,2.138,0,0,0-.02-2.816A1.839,1.839,0,0,0,4.492,99.656Zm-6.43,28.523H-.359v1.18H-1.937V132H-3.391v-2.641H-8.57v-.852l5.094-7.883h1.539Zm-4.992,0h3.539V122.6l-.172.313ZM1.609,126.3l.578-5.672H8.016v1.336h-4.6l-.344,3.1a3.671,3.671,0,0,1,1.9-.492A3.138,3.138,0,0,1,7.438,125.6a4.026,4.026,0,0,1,.914,2.777,3.886,3.886,0,0,1-.949,2.77,3.46,3.46,0,0,1-2.652,1.012,3.6,3.6,0,0,1-2.461-.836A3.337,3.337,0,0,1,1.2,129.008H2.57a2.3,2.3,0,0,0,.7,1.473,2.162,2.162,0,0,0,1.484.5,1.95,1.95,0,0,0,1.582-.687,2.874,2.874,0,0,0,.574-1.9,2.638,2.638,0,0,0-.621-1.832,2.113,2.113,0,0,0-1.652-.691,2.383,2.383,0,0,0-1.484.414l-.383.313Z" transform="translate(-5384.009 -5074.247)" fill="#12263f"/>
    <path id="Trazado_819811" data-name="Trazado 819811" d="M7995,11743h-42v-34h42v-10l35,26.5-35,26.5Z" transform="translate(-13289.51 -16738.941)" fill="#2b5cf9"/>
    <path id="Trazado_819812" data-name="Trazado 819812" d="M-.659,0H-9.044V-1.169l4.43-4.922A10.524,10.524,0,0,0-3.256-7.906a3.029,3.029,0,0,0,.374-1.446A2.3,2.3,0,0,0-3.489-11a2.12,2.12,0,0,0-1.617-.642,2.511,2.511,0,0,0-1.885.69,2.635,2.635,0,0,0-.672,1.92H-9.29a3.774,3.774,0,0,1,1.138-2.856,4.219,4.219,0,0,1,3.045-1.09,4.054,4.054,0,0,1,2.821.936A3.193,3.193,0,0,1-1.248-9.545q0,1.89-2.408,4.5L-7.084-1.327H-.659Zm2.47-6.416.65-6.381H9.018v1.5H3.841L3.454-7.8A4.13,4.13,0,0,1,5.59-8.358,3.531,3.531,0,0,1,8.367-7.2,4.53,4.53,0,0,1,9.4-4.078,4.372,4.372,0,0,1,8.328-.962,3.892,3.892,0,0,1,5.344.176a4.045,4.045,0,0,1-2.769-.94,3.754,3.754,0,0,1-1.222-2.6H2.892a2.582,2.582,0,0,0,.782,1.657,2.432,2.432,0,0,0,1.67.558,2.194,2.194,0,0,0,1.78-.773A3.233,3.233,0,0,0,7.77-4.061a2.968,2.968,0,0,0-.7-2.061A2.377,2.377,0,0,0,5.212-6.9a2.681,2.681,0,0,0-1.67.466l-.431.352Z" transform="translate(-5308.009 -5006.942)" fill="#fff"/>
    <path id="Trazado_819813" data-name="Trazado 819813" d="M0,0H71V21H0Z" transform="translate(-5175 -5064.747)" fill="#fdbf2d"/>
    <path id="Trazado_819814" data-name="Trazado 819814" d="M-3.289,0H-4.742V-9.633l-2.914,1.07V-9.875l4.141-1.555h.227ZM7.844-8.406a2.641,2.641,0,0,1-.449,1.516A3.057,3.057,0,0,1,6.18-5.852,3.26,3.26,0,0,1,7.59-4.734a2.811,2.811,0,0,1,.52,1.664,2.972,2.972,0,0,1-1,2.352A3.827,3.827,0,0,1,4.492.156,3.81,3.81,0,0,1,1.863-.723,2.986,2.986,0,0,1,.875-3.07a2.9,2.9,0,0,1,.5-1.664A3.136,3.136,0,0,1,2.773-5.859,2.981,2.981,0,0,1,1.578-6.9a2.679,2.679,0,0,1-.437-1.508,2.94,2.94,0,0,1,.922-2.281,3.458,3.458,0,0,1,2.43-.844,3.461,3.461,0,0,1,2.426.844A2.934,2.934,0,0,1,7.844-8.406ZM6.664-3.1a2.1,2.1,0,0,0-.605-1.555,2.147,2.147,0,0,0-1.582-.6,2.11,2.11,0,0,0-1.566.594A2.12,2.12,0,0,0,2.32-3.1a2.019,2.019,0,0,0,.574,1.523,2.2,2.2,0,0,0,1.6.555,2.2,2.2,0,0,0,1.594-.559A2.014,2.014,0,0,0,6.664-3.1ZM4.492-10.344a1.865,1.865,0,0,0-1.379.527,1.937,1.937,0,0,0-.527,1.434,1.928,1.928,0,0,0,.52,1.4,1.844,1.844,0,0,0,1.387.535A1.844,1.844,0,0,0,5.879-6.98a1.928,1.928,0,0,0,.52-1.4A1.929,1.929,0,0,0,5.859-9.8,1.839,1.839,0,0,0,4.492-10.344ZM-.586,22H-8.039V20.961L-4.1,16.586a9.355,9.355,0,0,0,1.207-1.613,2.693,2.693,0,0,0,.332-1.285A2.041,2.041,0,0,0-3.1,12.227a1.885,1.885,0,0,0-1.437-.57,2.232,2.232,0,0,0-1.676.613,2.343,2.343,0,0,0-.6,1.707H-8.258a3.355,3.355,0,0,1,1.012-2.539,3.751,3.751,0,0,1,2.707-.969,3.6,3.6,0,0,1,2.508.832,2.838,2.838,0,0,1,.922,2.215q0,1.68-2.141,4L-6.3,20.82H-.586Zm2.2-5.7.578-5.672H8.016v1.336h-4.6l-.344,3.1a3.671,3.671,0,0,1,1.9-.492A3.138,3.138,0,0,1,7.438,15.6a4.026,4.026,0,0,1,.914,2.777,3.886,3.886,0,0,1-.949,2.77A3.46,3.46,0,0,1,4.75,22.156a3.6,3.6,0,0,1-2.461-.836A3.337,3.337,0,0,1,1.2,19.008H2.57a2.3,2.3,0,0,0,.7,1.473,2.162,2.162,0,0,0,1.484.5,1.95,1.95,0,0,0,1.582-.687,2.874,2.874,0,0,0,.574-1.9,2.638,2.638,0,0,0-.621-1.832,2.113,2.113,0,0,0-1.652-.691,2.383,2.383,0,0,0-1.484.414l-.383.313ZM-.586,44H-8.039V42.961L-4.1,38.586a9.354,9.354,0,0,0,1.207-1.613,2.693,2.693,0,0,0,.332-1.285A2.041,2.041,0,0,0-3.1,34.227a1.885,1.885,0,0,0-1.437-.57,2.232,2.232,0,0,0-1.676.613,2.343,2.343,0,0,0-.6,1.707H-8.258a3.355,3.355,0,0,1,1.012-2.539,3.751,3.751,0,0,1,2.707-.969,3.6,3.6,0,0,1,2.508.832,2.838,2.838,0,0,1,.922,2.215q0,1.68-2.141,4L-6.3,42.82H-.586Zm2.2-5.7.578-5.672H8.016v1.336h-4.6l-.344,3.1a3.671,3.671,0,0,1,1.9-.492A3.138,3.138,0,0,1,7.438,37.6a4.026,4.026,0,0,1,.914,2.777,3.886,3.886,0,0,1-.949,2.77A3.46,3.46,0,0,1,4.75,44.156a3.6,3.6,0,0,1-2.461-.836A3.337,3.337,0,0,1,1.2,41.008H2.57a2.3,2.3,0,0,0,.7,1.473,2.162,2.162,0,0,0,1.484.5,1.95,1.95,0,0,0,1.582-.687,2.874,2.874,0,0,0,.574-1.9,2.638,2.638,0,0,0-.621-1.832,2.113,2.113,0,0,0-1.652-.691,2.383,2.383,0,0,0-1.484.414l-.383.313ZM-1.937,62.18H-.359v1.18H-1.937V66H-3.391V63.359H-8.57v-.852l5.094-7.883h1.539Zm-4.992,0h3.539V56.6l-.172.313ZM1.609,60.3l.578-5.672H8.016v1.336h-4.6l-.344,3.1a3.671,3.671,0,0,1,1.9-.492A3.138,3.138,0,0,1,7.438,59.6a4.026,4.026,0,0,1,.914,2.777,3.886,3.886,0,0,1-.949,2.77A3.46,3.46,0,0,1,4.75,66.156a3.6,3.6,0,0,1-2.461-.836A3.337,3.337,0,0,1,1.2,63.008H2.57a2.3,2.3,0,0,0,.7,1.473,2.162,2.162,0,0,0,1.484.5,1.95,1.95,0,0,0,1.582-.687,2.874,2.874,0,0,0,.574-1.9,2.638,2.638,0,0,0-.621-1.832,2.113,2.113,0,0,0-1.652-.691,2.383,2.383,0,0,0-1.484.414l-.383.313ZM-.586,88H-8.039V86.961L-4.1,82.586a9.355,9.355,0,0,0,1.207-1.613,2.693,2.693,0,0,0,.332-1.285A2.041,2.041,0,0,0-3.1,78.227a1.885,1.885,0,0,0-1.437-.57,2.232,2.232,0,0,0-1.676.613,2.343,2.343,0,0,0-.6,1.707H-8.258a3.355,3.355,0,0,1,1.012-2.539,3.751,3.751,0,0,1,2.707-.969,3.6,3.6,0,0,1,2.508.832,2.838,2.838,0,0,1,.922,2.215q0,1.68-2.141,4L-6.3,86.82H-.586Zm3.633-6.391H4.133a2.387,2.387,0,0,0,1.609-.539,1.8,1.8,0,0,0,.586-1.414,1.764,1.764,0,0,0-1.992-2,2.072,2.072,0,0,0-1.5.535,1.873,1.873,0,0,0-.559,1.418H.836a2.9,2.9,0,0,1,.988-2.246,3.6,3.6,0,0,1,2.512-.895,3.558,3.558,0,0,1,2.523.852,3.076,3.076,0,0,1,.914,2.367,2.5,2.5,0,0,1-.48,1.438,2.9,2.9,0,0,1-1.309,1.039,2.8,2.8,0,0,1,1.449.984,2.734,2.734,0,0,1,.512,1.68,3.1,3.1,0,0,1-1,2.43,3.745,3.745,0,0,1-2.6.9,3.844,3.844,0,0,1-2.605-.867A2.877,2.877,0,0,1,.734,85H2.188a1.859,1.859,0,0,0,.586,1.438,2.229,2.229,0,0,0,1.57.539,2.187,2.187,0,0,0,1.6-.547,2.108,2.108,0,0,0,.555-1.57,1.912,1.912,0,0,0-.609-1.523,2.655,2.655,0,0,0-1.758-.547H3.047ZM-3.289,110H-4.742v-9.633l-2.914,1.07v-1.312l4.141-1.555h.227Zm11.133-8.406a2.641,2.641,0,0,1-.449,1.516,3.056,3.056,0,0,1-1.215,1.039,3.26,3.26,0,0,1,1.41,1.117,2.811,2.811,0,0,1,.52,1.664,2.972,2.972,0,0,1-1,2.352,3.827,3.827,0,0,1-2.621.875,3.81,3.81,0,0,1-2.629-.879,2.986,2.986,0,0,1-.988-2.348,2.9,2.9,0,0,1,.5-1.664,3.136,3.136,0,0,1,1.395-1.125,2.981,2.981,0,0,1-1.2-1.039,2.679,2.679,0,0,1-.437-1.508,2.94,2.94,0,0,1,.922-2.281,3.458,3.458,0,0,1,2.43-.844,3.461,3.461,0,0,1,2.426.844A2.934,2.934,0,0,1,7.844,101.594Zm-1.18,5.3a2.1,2.1,0,0,0-.605-1.555,2.147,2.147,0,0,0-1.582-.6,2.11,2.11,0,0,0-1.566.594,2.12,2.12,0,0,0-.59,1.563,2.019,2.019,0,0,0,.574,1.523,2.2,2.2,0,0,0,1.6.555,2.2,2.2,0,0,0,1.594-.559A2.014,2.014,0,0,0,6.664,106.9ZM4.492,99.656a1.865,1.865,0,0,0-1.379.527,2.182,2.182,0,0,0-.008,2.836,1.844,1.844,0,0,0,1.387.535,1.844,1.844,0,0,0,1.387-.535,2.138,2.138,0,0,0-.02-2.816A1.839,1.839,0,0,0,4.492,99.656ZM-.586,132H-8.039v-1.039l3.938-4.375a9.355,9.355,0,0,0,1.207-1.613,2.693,2.693,0,0,0,.332-1.285,2.041,2.041,0,0,0-.539-1.461,1.885,1.885,0,0,0-1.437-.57,2.232,2.232,0,0,0-1.676.613,2.343,2.343,0,0,0-.6,1.707H-8.258a3.355,3.355,0,0,1,1.012-2.539,3.751,3.751,0,0,1,2.707-.969,3.6,3.6,0,0,1,2.508.832,2.838,2.838,0,0,1,.922,2.215q0,1.68-2.141,4l-3.047,3.3H-.586Zm2.2-5.7.578-5.672H8.016v1.336h-4.6l-.344,3.1a3.671,3.671,0,0,1,1.9-.492A3.138,3.138,0,0,1,7.438,125.6a4.026,4.026,0,0,1,.914,2.777,3.886,3.886,0,0,1-.949,2.77,3.46,3.46,0,0,1-2.652,1.012,3.6,3.6,0,0,1-2.461-.836A3.337,3.337,0,0,1,1.2,129.008H2.57a2.3,2.3,0,0,0,.7,1.473,2.162,2.162,0,0,0,1.484.5,1.95,1.95,0,0,0,1.582-.687,2.874,2.874,0,0,0,.574-1.9,2.638,2.638,0,0,0-.621-1.832,2.113,2.113,0,0,0-1.652-.691,2.383,2.383,0,0,0-1.484.414l-.383.313ZM-.586,154H-8.039v-1.039l3.938-4.375a9.354,9.354,0,0,0,1.207-1.613,2.693,2.693,0,0,0,.332-1.285,2.041,2.041,0,0,0-.539-1.461,1.885,1.885,0,0,0-1.437-.57,2.232,2.232,0,0,0-1.676.613,2.343,2.343,0,0,0-.6,1.707H-8.258a3.355,3.355,0,0,1,1.012-2.539,3.751,3.751,0,0,1,2.707-.969,3.6,3.6,0,0,1,2.508.832,2.838,2.838,0,0,1,.922,2.215q0,1.68-2.141,4l-3.047,3.3H-.586Zm8.43-8.406a2.641,2.641,0,0,1-.449,1.516,3.057,3.057,0,0,1-1.215,1.039,3.26,3.26,0,0,1,1.41,1.117,2.811,2.811,0,0,1,.52,1.664,2.972,2.972,0,0,1-1,2.352,3.827,3.827,0,0,1-2.621.875,3.81,3.81,0,0,1-2.629-.879,2.986,2.986,0,0,1-.988-2.348,2.9,2.9,0,0,1,.5-1.664,3.136,3.136,0,0,1,1.395-1.125,2.981,2.981,0,0,1-1.2-1.039,2.679,2.679,0,0,1-.437-1.508,2.94,2.94,0,0,1,.922-2.281,3.458,3.458,0,0,1,2.43-.844,3.461,3.461,0,0,1,2.426.844A2.934,2.934,0,0,1,7.844,145.594Zm-1.18,5.3a2.1,2.1,0,0,0-.605-1.555,2.147,2.147,0,0,0-1.582-.6,2.11,2.11,0,0,0-1.566.594,2.12,2.12,0,0,0-.59,1.563,2.019,2.019,0,0,0,.574,1.523,2.2,2.2,0,0,0,1.6.555,2.2,2.2,0,0,0,1.594-.559A2.014,2.014,0,0,0,6.664,150.9Zm-2.172-7.242a1.865,1.865,0,0,0-1.379.527,2.182,2.182,0,0,0-.008,2.836,1.844,1.844,0,0,0,1.387.535,1.844,1.844,0,0,0,1.387-.535,2.138,2.138,0,0,0-.02-2.816A1.839,1.839,0,0,0,4.492,143.656ZM-.586,176H-8.039v-1.039l3.938-4.375a9.354,9.354,0,0,0,1.207-1.613,2.693,2.693,0,0,0,.332-1.285,2.041,2.041,0,0,0-.539-1.461,1.885,1.885,0,0,0-1.437-.57,2.232,2.232,0,0,0-1.676.613,2.343,2.343,0,0,0-.6,1.707H-8.258a3.355,3.355,0,0,1,1.012-2.539,3.751,3.751,0,0,1,2.707-.969,3.6,3.6,0,0,1,2.508.832,2.838,2.838,0,0,1,.922,2.215q0,1.68-2.141,4l-3.047,3.3H-.586Zm2.2-5.7.578-5.672H8.016v1.336h-4.6l-.344,3.1a3.671,3.671,0,0,1,1.9-.492A3.138,3.138,0,0,1,7.438,169.6a4.026,4.026,0,0,1,.914,2.777,3.886,3.886,0,0,1-.949,2.77,3.46,3.46,0,0,1-2.652,1.012,3.6,3.6,0,0,1-2.461-.836A3.337,3.337,0,0,1,1.2,173.008H2.57a2.3,2.3,0,0,0,.7,1.473,2.162,2.162,0,0,0,1.484.5,1.95,1.95,0,0,0,1.582-.687,2.874,2.874,0,0,0,.574-1.9,2.638,2.638,0,0,0-.621-1.832,2.113,2.113,0,0,0-1.652-.691,2.383,2.383,0,0,0-1.484.414l-.383.313ZM-.586,198H-8.039v-1.039l3.938-4.375a9.354,9.354,0,0,0,1.207-1.613,2.693,2.693,0,0,0,.332-1.285,2.041,2.041,0,0,0-.539-1.461,1.885,1.885,0,0,0-1.437-.57,2.232,2.232,0,0,0-1.676.613,2.343,2.343,0,0,0-.6,1.707H-8.258a3.355,3.355,0,0,1,1.012-2.539,3.751,3.751,0,0,1,2.707-.969,3.6,3.6,0,0,1,2.508.832,2.838,2.838,0,0,1,.922,2.215q0,1.68-2.141,4l-3.047,3.3H-.586Zm2.2-5.7.578-5.672H8.016v1.336h-4.6l-.344,3.1a3.671,3.671,0,0,1,1.9-.492A3.138,3.138,0,0,1,7.438,191.6a4.026,4.026,0,0,1,.914,2.777,3.886,3.886,0,0,1-.949,2.77,3.46,3.46,0,0,1-2.652,1.012,3.6,3.6,0,0,1-2.461-.836A3.337,3.337,0,0,1,1.2,195.008H2.57a2.3,2.3,0,0,0,.7,1.473,2.162,2.162,0,0,0,1.484.5,1.95,1.95,0,0,0,1.582-.687,2.874,2.874,0,0,0,.574-1.9,2.638,2.638,0,0,0-.621-1.832,2.113,2.113,0,0,0-1.652-.691,2.383,2.383,0,0,0-1.484.414l-.383.313Z" transform="translate(-5145 -5092.649)" fill="#12263f"/>
    <path id="Trazado_818422" data-name="Trazado 818422" d="M-7115-5142.1h142.98" transform="translate(1868 98.351)" fill="none" stroke="#949af8" stroke-width="1"/>
  </g>
</svg>
